<svg width="29" height="29" viewBox="0 0 29 29" fill="none" xmlns="http://www.w3.org/2000/svg">
<circle cx="14.5" cy="14.5" r="14" stroke="#44D970"/>
<path d="M11.8412 10.1581C11.7436 10.0569 11.6112 10 11.4731 10C11.335 10 11.2025 10.0569 11.1049 10.1581L8.15898 13.2124C8.10924 13.2622 8.06957 13.3218 8.04228 13.3877C8.01499 13.4536 8.00062 13.5244 8.00002 13.5961C7.99942 13.6678 8.01259 13.7389 8.03878 13.8052C8.06496 13.8716 8.10363 13.9319 8.15253 13.9826C8.20142 14.0333 8.25956 14.0734 8.32356 14.1005C8.38756 14.1277 8.45613 14.1413 8.52528 14.1407C8.59443 14.1401 8.66276 14.1252 8.72629 14.0969C8.78983 14.0686 8.84729 14.0275 8.89533 13.9759L10.9523 11.8432V18.9934C10.9523 19.1366 11.0072 19.2739 11.1048 19.3752C11.2025 19.4764 11.335 19.5333 11.4731 19.5333C11.6112 19.5333 11.7436 19.4764 11.8413 19.3752C11.939 19.2739 11.9938 19.1366 11.9938 18.9934V11.8432L14.0508 13.9759C14.149 14.0742 14.2806 14.1287 14.4171 14.1274C14.5536 14.1262 14.6843 14.0694 14.7808 13.9693C14.8774 13.8692 14.9321 13.7338 14.9333 13.5922C14.9345 13.4507 14.882 13.3143 14.7872 13.2124L11.8412 10.1581Z" fill="white"/>
<path d="M17.1588 19.3752C17.2564 19.4765 17.3888 19.5333 17.5269 19.5333C17.665 19.5333 17.7975 19.4765 17.8951 19.3752L20.841 16.3209C20.8908 16.2711 20.9304 16.2115 20.9577 16.1456C20.985 16.0798 20.9994 16.0089 21 15.9372C21.0006 15.8655 20.9874 15.7944 20.9612 15.7281C20.935 15.6617 20.8964 15.6014 20.8475 15.5507C20.7986 15.5 20.7404 15.46 20.6764 15.4328C20.6124 15.4057 20.5439 15.392 20.4747 15.3926C20.4056 15.3932 20.3372 15.4081 20.2737 15.4364C20.2102 15.4647 20.1527 15.5059 20.1047 15.5574L18.0477 17.6901L18.0477 10.5399C18.0477 10.3967 17.9928 10.2594 17.8952 10.1581C17.7975 10.0569 17.665 9.99999 17.5269 9.99999C17.3888 9.99999 17.2564 10.0569 17.1587 10.1581C17.061 10.2594 17.0062 10.3967 17.0062 10.5399L17.0062 17.6901L14.9492 15.5574C14.851 15.4591 14.7194 15.4047 14.5829 15.4059C14.4464 15.4071 14.3157 15.4639 14.2192 15.564C14.1226 15.6641 14.0679 15.7995 14.0667 15.9411C14.0655 16.0827 14.118 16.2191 14.2128 16.3209L17.1588 19.3752Z" fill="white"/>
</svg>
