<svg width="615" height="624" viewBox="0 0 615 624" fill="none" xmlns="http://www.w3.org/2000/svg">
<g clip-path="url(#clip0_5_683)">
<path d="M307.944 580.332C324.653 585.776 342.119 588.531 359.692 588.494C438.97 588.494 503.202 533.957 503.202 466.686C503.173 448.97 498.71 431.543 490.221 415.994C517.287 392.718 534 360.728 534 325.487C534 283.333 510.16 245.905 473.308 222.389C478.535 212.965 481.29 202.37 481.316 191.592C481.316 151.152 442.694 118.37 395.047 118.37C383.757 118.341 372.546 120.237 361.894 123.976C335.684 98.8586 297.406 83.0319 254.772 83.0319C175.758 82.9998 111.694 137.328 111.694 204.415C111.694 215.798 113.555 227.105 117.204 237.887C50.5059 248.371 0 297.998 0 357.645C0 402.602 28.7004 441.872 71.4066 462.977C64.9926 476.56 61.6592 491.392 61.6449 506.413C61.6449 571.354 123.674 624 200.182 624C243.713 624 282.543 606.964 307.944 580.332Z" fill="url(#paint0_linear_5_683)"/>
</g>
<path d="M272.5 153C272.5 211.814 224.375 259.5 165 259.5C105.625 259.5 57.5 211.814 57.5 153C57.5 94.186 105.625 46.5 165 46.5C224.375 46.5 272.5 94.186 272.5 153Z" fill="url(#paint1_linear_5_683)" stroke="#401484"/>
<path d="M275.5 148.5C275.5 205.935 228.716 252.5 171 252.5C113.284 252.5 66.5 205.935 66.5 148.5C66.5 91.0646 113.284 44.5 171 44.5C228.716 44.5 275.5 91.0646 275.5 148.5Z" fill="white" stroke="#401484"/>
<path d="M155.122 141.915V141.861C155.498 140.947 155.596 139.941 155.404 138.97C155.212 137.999 154.739 137.108 154.044 136.411L106.612 88.452C106.125 87.9634 105.543 87.5824 104.903 87.3334C104.262 87.0844 103.578 86.9728 102.893 87.0056C102.207 87.0384 101.536 87.2149 100.922 87.524C100.308 87.833 99.7639 88.2679 99.3248 88.8009C87.4383 103.179 80.1795 120.886 78.5198 139.55C78.4585 140.241 78.54 140.937 78.759 141.594C78.978 142.252 79.3298 142.856 79.792 143.368C80.2542 143.881 80.8168 144.291 81.444 144.571C82.0712 144.852 82.7492 144.998 83.4352 145H150.562C151.539 145.002 152.495 144.71 153.307 144.161C154.119 143.611 154.751 142.83 155.122 141.915Z" fill="#FFFF51" stroke="#401484" stroke-miterlimit="10"/>
<path d="M155.12 154.139V154.074C154.749 153.163 154.119 152.383 153.308 151.836C152.498 151.289 151.545 150.997 150.57 151H83.4358C82.7498 151.002 82.0716 151.148 81.4444 151.429C80.8171 151.71 80.2545 152.119 79.7922 152.632C79.3299 153.144 78.9779 153.748 78.7588 154.406C78.5398 155.063 78.4585 155.759 78.5198 156.45C80.1818 175.114 87.4411 192.82 99.3272 207.2C99.7662 207.734 100.31 208.169 100.925 208.478C101.54 208.787 102.212 208.963 102.898 208.995C103.584 209.027 104.268 208.913 104.908 208.663C105.548 208.412 106.13 208.028 106.615 207.538L154.052 159.578C154.745 158.881 155.216 157.992 155.406 157.023C155.596 156.055 155.496 155.05 155.12 154.139Z" fill="#FFFF51" stroke="#401484" stroke-miterlimit="10"/>
<path d="M172.5 61.9469V129.069C172.497 130.043 172.789 130.996 173.336 131.807C173.883 132.617 174.662 133.247 175.573 133.618H175.639C176.552 133.997 177.559 134.097 178.53 133.905C179.501 133.713 180.392 133.237 181.088 132.54L229.038 85.1114C229.529 84.6251 229.912 84.0429 230.162 83.402C230.413 82.7611 230.527 82.0755 230.495 81.3889C230.463 80.7024 230.287 80.03 229.978 79.4144C229.669 78.7989 229.234 78.2538 228.7 77.8139C214.322 65.9326 196.619 58.678 177.96 57.0208C177.267 56.9578 176.569 57.0384 175.91 57.2573C175.251 57.4763 174.645 57.8288 174.131 58.2924C173.617 58.7559 173.207 59.3203 172.926 59.9495C172.645 60.5788 172.5 61.2591 172.5 61.9469Z" fill="#FFFF51" stroke="#401484" stroke-miterlimit="10"/>
<path d="M164.361 133.619H164.415C165.328 133.249 166.108 132.618 166.658 131.808C167.207 130.998 167.5 130.044 167.5 129.069V61.936C167.498 61.2499 167.352 60.5717 167.071 59.9444C166.79 59.3171 166.381 58.7545 165.868 58.2923C165.356 57.83 164.752 57.4781 164.094 57.259C163.437 57.04 162.741 56.9585 162.05 57.0198C143.387 58.6753 125.68 65.9313 111.302 77.8163C110.768 78.2564 110.333 78.8013 110.024 79.4165C109.715 80.0316 109.538 80.7037 109.506 81.3899C109.473 82.0761 109.585 82.7615 109.834 83.4027C110.083 84.044 110.464 84.6271 110.953 85.115L158.911 132.551C159.609 133.244 160.501 133.716 161.471 133.906C162.442 134.096 163.448 133.996 164.361 133.619Z" fill="#FFFF51" stroke="#401484" stroke-miterlimit="10"/>
<path d="M187.377 155.62V155.686C186.987 156.619 186.884 157.647 187.083 158.638C187.281 159.629 187.771 160.539 188.489 161.25L237.447 210.208C237.948 210.709 238.548 211.1 239.209 211.356C239.87 211.612 240.576 211.728 241.284 211.695C241.992 211.663 242.685 211.483 243.32 211.168C243.954 210.852 244.516 210.408 244.969 209.863C257.236 195.184 264.728 177.109 266.444 158.056C266.507 157.351 266.423 156.641 266.197 155.97C265.971 155.299 265.608 154.682 265.131 154.159C264.653 153.636 264.073 153.217 263.425 152.931C262.778 152.644 262.078 152.495 261.37 152.493H192.083C191.077 152.487 190.091 152.782 189.253 153.339C188.415 153.896 187.762 154.69 187.377 155.62Z" fill="#FFFF51" stroke="#401484" stroke-miterlimit="10"/>
<path d="M184.882 141.861V141.915C185.252 142.828 185.882 143.608 186.692 144.158C187.502 144.707 188.456 145 189.431 145H256.564C257.25 144.998 257.928 144.852 258.556 144.571C259.183 144.291 259.746 143.881 260.208 143.368C260.67 142.856 261.022 142.252 261.241 141.594C261.46 140.937 261.542 140.241 261.48 139.55C259.82 120.886 252.561 103.179 240.673 88.8009C240.234 88.2679 239.69 87.833 239.076 87.524C238.461 87.2149 237.79 87.0384 237.105 87.0056C236.419 86.9728 235.735 87.0844 235.095 87.3334C234.454 87.5824 233.872 87.9634 233.385 88.452L185.949 136.411C185.256 137.109 184.784 138.001 184.594 138.972C184.404 139.942 184.504 140.948 184.882 141.861Z" fill="#FFFF51" stroke="#401484" stroke-miterlimit="10"/>
<path d="M164.415 162.381H164.361C163.447 162.002 162.44 161.903 161.47 162.097C160.5 162.292 159.609 162.771 158.911 163.473L110.952 211.522C110.463 212.015 110.082 212.605 109.833 213.254C109.584 213.902 109.473 214.596 109.506 215.29C109.538 215.984 109.715 216.664 110.024 217.286C110.333 217.908 110.768 218.459 111.301 218.904C125.679 230.945 143.386 238.299 162.05 239.98C162.741 240.042 163.437 239.959 164.094 239.738C164.752 239.516 165.356 239.159 165.868 238.691C166.381 238.223 166.79 237.653 167.071 237.018C167.352 236.382 167.498 235.695 167.5 235V167C167.502 166.01 167.21 165.042 166.661 164.22C166.111 163.397 165.329 162.757 164.415 162.381Z" fill="#FFFF51" stroke="#401484" stroke-miterlimit="10"/>
<path d="M178.687 164.365H178.62C177.689 164.748 176.894 165.399 176.335 166.235C175.777 167.071 175.479 168.055 175.482 169.061V238.348C175.484 239.056 175.633 239.756 175.92 240.403C176.206 241.05 176.625 241.631 177.148 242.108C177.671 242.585 178.288 242.948 178.959 243.175C179.63 243.401 180.34 243.485 181.045 243.422C200.098 241.706 218.173 234.214 232.852 221.947C233.397 221.494 233.841 220.932 234.157 220.298C234.472 219.663 234.652 218.97 234.684 218.262C234.717 217.554 234.601 216.847 234.345 216.187C234.089 215.526 233.698 214.926 233.197 214.425L184.239 165.467C183.528 164.753 182.619 164.266 181.63 164.07C180.642 163.874 179.617 163.977 178.687 164.365Z" fill="#FFFF51" stroke="#401484" stroke-miterlimit="10"/>
<g clip-path="url(#clip1_5_683)">
<path d="M614.208 16.0784C613.234 12.0248 611.764 8.10799 609.83 4.41743C608.951 2.77989 607.48 1.54257 605.719 0.959565C603.959 0.376556 602.044 0.492109 600.366 1.28251L530.022 34.3299C528.264 35.1573 526.904 36.6498 526.239 38.4811C525.574 40.3125 525.658 42.3336 526.473 44.1027L530.839 53.6025C531.24 54.4753 531.809 55.2602 532.512 55.9119C533.216 56.5637 534.041 57.0695 534.941 57.4005C535.84 57.7314 536.795 57.881 537.752 57.8406C538.708 57.8001 539.648 57.5705 540.516 57.1649L610.173 24.4382C611.686 23.7347 612.912 22.5311 613.646 21.0288C614.381 19.5265 614.579 17.8166 614.208 16.1853V16.0784Z" fill="#44D970" stroke="#401484" stroke-miterlimit="10"/>
<path d="M498.494 206.394L527.479 77.4587L503.783 71.9489L473.733 205.611L498.494 206.394Z" fill="#44D970" stroke="#401484" stroke-miterlimit="10"/>
<path d="M531.276 32.3586C523.553 35.8468 516.987 41.4809 512.352 48.5952C507.717 55.7096 505.207 64.007 505.12 72.507L517.198 76.5919C517.198 76.5919 528.035 73.9558 528.343 72.9227C531.56 61.8198 537.227 57.8061 543.166 54.2437L531.276 32.3586Z" fill="#44D970" stroke="#401484" stroke-miterlimit="10"/>
<path d="M541.273 58.1742L528.863 33.5342C528.603 32.9791 528.461 32.3756 528.447 31.7624C528.432 31.1491 528.546 30.5396 528.78 29.9728C529.013 29.4061 529.363 28.8946 529.805 28.4711C530.247 28.0477 530.773 27.7216 531.348 27.5137L533.406 26.6944C534.471 26.2395 535.671 26.2237 536.747 26.6504C537.823 27.0771 538.688 27.912 539.155 28.9743L549.519 54.4456C549.723 54.9935 549.816 55.5765 549.794 56.161C549.772 56.7454 549.636 57.3197 549.391 57.8507C549.147 58.3818 548.801 58.859 548.372 59.2549C547.943 59.6508 547.44 59.9575 546.893 60.1573C545.878 60.5911 544.739 60.6281 543.699 60.2611C542.659 59.8941 541.794 59.1496 541.273 58.1742Z" fill="#44D970" stroke="#401484" stroke-miterlimit="10"/>
<path d="M526.213 83.4674L500.269 73.9676C498.353 73.267 497.584 70.7258 498.554 68.3746L499.382 66.3797C500.352 64.0048 502.659 62.8173 504.504 63.6366L529.62 75.0838C531.49 75.9269 532.105 78.575 530.981 80.8906C529.987 83.0043 527.928 84.0849 526.213 83.4674Z" fill="#44D970" stroke="#401484" stroke-miterlimit="10"/>
<path d="M528.674 73.9914L505.782 57.913C505.281 57.5484 504.862 57.0831 504.551 56.5468C504.24 56.0104 504.043 55.4148 503.974 54.798C503.905 54.1812 503.965 53.5568 504.15 52.9645C504.335 52.3722 504.641 51.8252 505.049 51.3582L506.516 49.6007C507.257 48.6801 508.333 48.092 509.505 47.9651C510.678 47.8383 511.854 48.183 512.774 48.9239L534.198 66.7359C534.651 67.1274 535.021 67.6056 535.287 68.1427C535.553 68.6797 535.709 69.2646 535.747 69.8631C535.784 70.4616 535.702 71.0615 535.505 71.6277C535.308 72.1939 535.001 72.7149 534.601 73.1602C533.887 74.0048 532.888 74.5563 531.795 74.7096C530.702 74.8629 529.591 74.6073 528.674 73.9914Z" fill="#44D970" stroke="#401484" stroke-miterlimit="10"/>
<path d="M541.32 59.0146L522.66 37.8819C520.823 35.8009 517.653 35.609 515.579 37.4534L515.269 37.7291C513.196 39.5734 513.005 42.7555 514.843 44.8365L533.502 65.9693C535.34 68.0503 538.51 68.2421 540.583 66.3978L540.893 66.1221C542.966 64.2777 543.157 61.0956 541.32 59.0146Z" fill="#44D970" stroke="#401484" stroke-miterlimit="10"/>
</g>
<defs>
<linearGradient id="paint0_linear_5_683" x1="313.5" y1="655" x2="128.483" y2="-102.996" gradientUnits="userSpaceOnUse">
<stop stop-color="#FDFB01"/>
<stop offset="0.800793" stop-color="#C0FB1C"/>
<stop offset="1" stop-color="#B1FB23"/>
</linearGradient>
<linearGradient id="paint1_linear_5_683" x1="75" y1="188.5" x2="226.216" y2="302.875" gradientUnits="userSpaceOnUse">
<stop stop-color="#FDFB01"/>
<stop offset="1" stop-color="#B1FB23"/>
</linearGradient>
<clipPath id="clip0_5_683">
<rect width="534" height="541" fill="white" transform="translate(0 83)"/>
</clipPath>
<clipPath id="clip1_5_683">
<rect width="142" height="207" fill="white" transform="translate(473)"/>
</clipPath>
</defs>
</svg>
