<svg width="399" height="207" viewBox="0 0 399 207" fill="none" xmlns="http://www.w3.org/2000/svg">
<path d="M167.5 116.778C167.5 162.46 130.12 199.5 84 199.5C37.8798 199.5 0.5 162.46 0.5 116.778C0.5 71.0959 37.8798 34.0555 84 34.0555C130.12 34.0555 167.5 71.0959 167.5 116.778Z" fill="url(#paint0_linear_315_133)" stroke="#401484"/>
<path d="M169.833 113.278C169.833 157.888 133.496 194.056 88.6667 194.056C43.8373 194.056 7.5 157.888 7.5 113.278C7.5 68.6677 43.8373 32.5 88.6667 32.5C133.496 32.5 169.833 68.6677 169.833 113.278Z" fill="white" stroke="#401484"/>
<g clip-path="url(#clip0_315_133)">
<path d="M76.3168 108.156V108.114C76.6094 107.403 76.686 106.62 76.5367 105.865C76.3873 105.11 76.0189 104.418 75.4784 103.875L38.5871 66.5738C38.2084 66.1938 37.7556 65.8975 37.2576 65.7038C36.7596 65.5101 36.2273 65.4233 35.6943 65.4488C35.1613 65.4743 34.6393 65.6116 34.1615 65.852C33.6838 66.0924 33.2608 66.4306 32.9192 66.8452C23.6742 78.0282 18.0285 91.7999 16.7376 106.317C16.6899 106.854 16.7533 107.396 16.9236 107.907C17.094 108.418 17.3675 108.888 17.7271 109.287C18.0866 109.685 18.5241 110.004 19.0119 110.222C19.4998 110.441 20.0271 110.554 20.5607 110.556H72.7702C73.5303 110.557 74.2737 110.33 74.9054 109.903C75.5371 109.476 76.0285 108.867 76.3168 108.156V108.156Z" fill="#FFFF51" stroke="#401484" stroke-miterlimit="10"/>
<path d="M76.3152 117.664V117.613C76.027 116.904 75.5366 116.298 74.9064 115.872C74.2761 115.447 73.5347 115.22 72.7767 115.222H20.5611C20.0275 115.224 19.5001 115.337 19.0122 115.556C18.5243 115.774 18.0868 116.093 17.7272 116.491C17.3676 116.89 17.0938 117.36 16.9235 117.871C16.7531 118.382 16.6899 118.924 16.7376 119.461C18.0302 133.978 23.6764 147.749 32.9211 158.933C33.2626 159.348 33.6858 159.687 34.164 159.927C34.6421 160.168 35.1647 160.305 35.6981 160.329C36.2316 160.354 36.7641 160.266 37.262 160.071C37.7599 159.876 38.212 159.578 38.5896 159.196L75.4851 121.894C76.0235 121.352 76.3901 120.66 76.538 119.907C76.6858 119.154 76.6082 118.373 76.3152 117.664V117.664Z" fill="#FFFF51" stroke="#401484" stroke-miterlimit="10"/>
<path d="M89.8333 45.9587V98.1648C89.8313 98.9226 90.0577 99.6638 90.4835 100.294C90.9092 100.924 91.5149 101.415 92.2236 101.703H92.2745C92.9847 101.998 93.7679 102.075 94.5232 101.926C95.2786 101.776 95.9715 101.407 96.5125 100.864L133.807 63.9755C134.189 63.5973 134.487 63.1445 134.682 62.646C134.877 62.1475 134.965 61.6143 134.94 61.0803C134.916 60.5463 134.779 60.0233 134.538 59.5445C134.298 59.0658 133.959 58.6418 133.544 58.2996C122.362 49.0587 108.593 43.4162 94.0798 42.1272C93.5412 42.0783 92.9983 42.141 92.4855 42.3112C91.9728 42.4815 91.5016 42.7557 91.102 43.1163C90.7024 43.4768 90.3832 43.9157 90.1648 44.4051C89.9463 44.8946 89.8334 45.4237 89.8333 45.9587V45.9587Z" fill="#FFFF51" stroke="#401484" stroke-miterlimit="10"/>
<path d="M83.5027 101.703H83.5452C84.2549 101.415 84.8619 100.925 85.2891 100.295C85.7163 99.6651 85.9445 98.9234 85.9444 98.1647V45.9502C85.943 45.4166 85.8294 44.8891 85.6109 44.4012C85.3925 43.9133 85.0738 43.4757 84.6752 43.1162C84.2766 42.7566 83.8068 42.4829 83.2956 42.3126C82.7843 42.1422 82.2429 42.0788 81.7056 42.1265C67.1896 43.4141 53.4178 49.0577 42.2344 58.3015C41.8197 58.6439 41.4814 59.0677 41.241 59.5461C41.0005 60.0246 40.8631 60.5473 40.8376 61.081C40.8121 61.6147 40.899 62.1478 41.0928 62.6466C41.2865 63.1453 41.5828 63.5988 41.9631 63.9783L79.264 100.873C79.8073 101.412 80.5005 101.779 81.2555 101.927C82.0104 102.075 82.7928 101.997 83.5027 101.703V101.703Z" fill="#FFFF51" stroke="#401484" stroke-miterlimit="10"/>
<path d="M101.404 118.815V118.867C101.101 119.593 101.021 120.392 101.175 121.163C101.329 121.934 101.711 122.641 102.269 123.194L140.348 161.273C140.738 161.662 141.204 161.967 141.718 162.166C142.232 162.365 142.782 162.455 143.332 162.43C143.883 162.404 144.422 162.265 144.915 162.019C145.409 161.774 145.846 161.428 146.198 161.004C155.739 149.588 161.566 135.529 162.901 120.711C162.95 120.162 162.884 119.609 162.708 119.087C162.533 118.566 162.25 118.086 161.879 117.679C161.508 117.272 161.056 116.947 160.553 116.724C160.049 116.501 159.505 116.385 158.954 116.383H105.065C104.282 116.379 103.515 116.608 102.863 117.041C102.211 117.474 101.703 118.092 101.404 118.815V118.815Z" fill="#FFFF51" stroke="#401484" stroke-miterlimit="10"/>
<path d="M99.4632 108.114V108.156C99.7511 108.866 100.241 109.473 100.871 109.9C101.501 110.328 102.243 110.556 103.002 110.556H155.217C155.75 110.554 156.278 110.441 156.765 110.222C157.253 110.004 157.691 109.685 158.05 109.287C158.41 108.888 158.684 108.418 158.854 107.907C159.024 107.396 159.088 106.854 159.04 106.317C157.749 91.7999 152.103 78.0282 142.857 66.8452C142.515 66.4306 142.092 66.0924 141.614 65.852C141.137 65.6116 140.614 65.4743 140.081 65.4488C139.548 65.4233 139.016 65.5101 138.518 65.7038C138.02 65.8975 137.567 66.1938 137.188 66.5738L100.293 103.875C99.7542 104.419 99.3873 105.112 99.2395 105.867C99.0916 106.622 99.1695 107.404 99.4632 108.114Z" fill="#FFFF51" stroke="#401484" stroke-miterlimit="10"/>
<path d="M83.5451 124.074H83.5027C82.7917 123.779 82.0091 123.702 81.2544 123.853C80.4996 124.005 79.8069 124.377 79.2639 124.924L41.9625 162.295C41.5824 162.678 41.2863 163.137 41.0926 163.642C40.8989 164.146 40.8121 164.686 40.8376 165.225C40.8631 165.765 41.0004 166.294 41.2408 166.778C41.4812 167.262 41.8193 167.69 42.2338 168.036C53.4169 177.402 67.1887 183.121 81.7056 184.429C82.2429 184.477 82.7843 184.413 83.2955 184.24C83.8068 184.068 84.2766 183.791 84.6752 183.426C85.0738 183.062 85.3924 182.619 85.6109 182.125C85.8294 181.631 85.943 181.096 85.9444 180.556V127.667C85.9462 126.897 85.7189 126.144 85.2916 125.504C84.8642 124.864 84.2562 124.366 83.5451 124.074V124.074Z" fill="#FFFF51" stroke="#401484" stroke-miterlimit="10"/>
<path d="M94.6451 125.618H94.5931C93.8696 125.915 93.2511 126.421 92.8165 127.072C92.3818 127.722 92.1506 128.487 92.1526 129.27V183.159C92.154 183.71 92.2699 184.254 92.493 184.758C92.716 185.261 93.0413 185.713 93.4482 186.084C93.8551 186.455 94.3347 186.738 94.8566 186.914C95.3785 187.089 95.9312 187.155 96.4797 187.106C111.299 185.771 125.357 179.944 136.774 170.403C137.197 170.051 137.543 169.614 137.788 169.12C138.034 168.627 138.173 168.088 138.199 167.537C138.224 166.986 138.134 166.437 137.935 165.923C137.736 165.409 137.432 164.942 137.042 164.553L98.9635 126.474C98.4103 125.919 97.7039 125.54 96.9348 125.388C96.1657 125.235 95.3686 125.315 94.6451 125.618V125.618Z" fill="#FFFF51" stroke="#401484" stroke-miterlimit="10"/>
</g>
<g clip-path="url(#clip1_315_133)">
<path d="M398.208 16.0784C397.234 12.0248 395.764 8.10799 393.83 4.41743C392.951 2.77989 391.48 1.54257 389.719 0.959565C387.959 0.376556 386.044 0.492109 384.366 1.28251L314.022 34.3299C312.264 35.1573 310.904 36.6498 310.239 38.4811C309.574 40.3125 309.658 42.3336 310.473 44.1027L314.839 53.6025C315.24 54.4753 315.809 55.2602 316.512 55.9119C317.216 56.5637 318.041 57.0695 318.941 57.4005C319.84 57.7314 320.795 57.881 321.752 57.8406C322.708 57.8001 323.648 57.5705 324.516 57.1649L394.173 24.4382C395.686 23.7347 396.912 22.5311 397.646 21.0288C398.381 19.5265 398.579 17.8166 398.208 16.1853V16.0784Z" fill="#44D970" stroke="#401484" stroke-miterlimit="10"/>
<path d="M282.494 206.394L311.479 77.4587L287.783 71.9489L257.733 205.611L282.494 206.394Z" fill="#44D970" stroke="#401484" stroke-miterlimit="10"/>
<path d="M315.276 32.3586C307.553 35.8468 300.987 41.4809 296.352 48.5952C291.717 55.7096 289.207 64.007 289.12 72.507L301.198 76.5919C301.198 76.5919 312.035 73.9558 312.343 72.9227C315.56 61.8198 321.227 57.8061 327.166 54.2437L315.276 32.3586Z" fill="#44D970" stroke="#401484" stroke-miterlimit="10"/>
<path d="M325.273 58.1742L312.863 33.5342C312.603 32.9791 312.461 32.3756 312.447 31.7624C312.432 31.1491 312.546 30.5396 312.78 29.9728C313.013 29.4061 313.363 28.8946 313.805 28.4711C314.247 28.0477 314.772 27.7216 315.347 27.5137L317.406 26.6944C318.47 26.2395 319.671 26.2237 320.747 26.6504C321.823 27.0771 322.688 27.912 323.155 28.9743L333.519 54.4456C333.723 54.9935 333.816 55.5765 333.794 56.161C333.772 56.7454 333.636 57.3197 333.391 57.8507C333.147 58.3818 332.801 58.859 332.372 59.2549C331.943 59.6508 331.44 59.9575 330.892 60.1573C329.878 60.5911 328.739 60.6281 327.699 60.2611C326.659 59.8941 325.794 59.1496 325.273 58.1742V58.1742Z" fill="#44D970" stroke="#401484" stroke-miterlimit="10"/>
<path d="M310.213 83.4674L284.269 73.9676C282.353 73.267 281.584 70.7258 282.554 68.3746L283.382 66.3797C284.352 64.0048 286.659 62.8173 288.504 63.6366L313.62 75.0838C315.49 75.9269 316.105 78.575 314.981 80.8906C313.987 83.0043 311.928 84.0849 310.213 83.4674Z" fill="#44D970" stroke="#401484" stroke-miterlimit="10"/>
<path d="M312.674 73.9914L289.782 57.913C289.282 57.5484 288.863 57.0831 288.551 56.5468C288.24 56.0104 288.044 55.4148 287.975 54.798C287.906 54.1812 287.966 53.5568 288.15 52.9645C288.335 52.3722 288.641 51.8252 289.049 51.3582L290.516 49.6007C291.258 48.6801 292.333 48.092 293.506 47.9651C294.679 47.8383 295.854 48.183 296.774 48.9239L318.199 66.7359C318.651 67.1274 319.021 67.6056 319.287 68.1427C319.553 68.6797 319.709 69.2646 319.747 69.8631C319.784 70.4616 319.702 71.0615 319.505 71.6277C319.308 72.1939 319.001 72.7149 318.601 73.1602C317.887 74.0048 316.888 74.5563 315.795 74.7096C314.702 74.8629 313.591 74.6073 312.674 73.9914V73.9914Z" fill="#44D970" stroke="#401484" stroke-miterlimit="10"/>
<path d="M325.32 59.0146L306.66 37.8819C304.823 35.8009 301.653 35.609 299.579 37.4534L299.269 37.7291C297.196 39.5734 297.005 42.7555 298.843 44.8365L317.502 65.9693C319.34 68.0503 322.51 68.2421 324.583 66.3978L324.893 66.1221C326.966 64.2777 327.157 61.0956 325.32 59.0146Z" fill="#44D970" stroke="#401484" stroke-miterlimit="10"/>
</g>
<defs>
<linearGradient id="paint0_linear_315_133" x1="14" y1="144.389" x2="131.613" y2="233.347" gradientUnits="userSpaceOnUse">
<stop stop-color="#FDFB01"/>
<stop offset="1" stop-color="#B1FB23"/>
</linearGradient>
<clipPath id="clip0_315_133">
<rect width="147" height="147" fill="white" transform="translate(16.3333 40.5555)"/>
</clipPath>
<clipPath id="clip1_315_133">
<rect width="142" height="207" fill="white" transform="translate(257)"/>
</clipPath>
</defs>
</svg>
