<svg width="615" height="624" viewBox="0 0 615 624" fill="none" xmlns="http://www.w3.org/2000/svg">
<g clip-path="url(#clip0_21_57)">
<path d="M307.944 580.332C324.653 585.776 342.119 588.531 359.692 588.494C438.97 588.494 503.202 533.957 503.202 466.686C503.173 448.97 498.71 431.543 490.221 415.994C517.287 392.718 534 360.728 534 325.487C534 283.333 510.16 245.905 473.308 222.389C478.535 212.965 481.29 202.37 481.316 191.592C481.316 151.152 442.694 118.37 395.047 118.37C383.757 118.341 372.546 120.237 361.894 123.976C335.684 98.8586 297.406 83.0319 254.772 83.0319C175.758 82.9998 111.694 137.328 111.694 204.415C111.694 215.798 113.555 227.105 117.204 237.887C50.5059 248.371 0 297.998 0 357.645C0 402.602 28.7004 441.872 71.4066 462.977C64.9926 476.56 61.6592 491.392 61.6449 506.413C61.6449 571.354 123.674 624 200.182 624C243.713 624 282.543 606.964 307.944 580.332Z" fill="url(#paint0_linear_21_57)"/>
</g>
<path d="M271.5 153C271.5 211.814 223.375 259.5 164 259.5C104.625 259.5 56.5 211.814 56.5 153C56.5 94.186 104.625 46.5 164 46.5C223.375 46.5 271.5 94.186 271.5 153Z" fill="url(#paint1_linear_21_57)" stroke="#401484"/>
<path d="M274.5 148.5C274.5 205.935 227.716 252.5 170 252.5C112.284 252.5 65.5 205.935 65.5 148.5C65.5 91.0646 112.284 44.5 170 44.5C227.716 44.5 274.5 91.0646 274.5 148.5Z" fill="white" stroke="#401484"/>
<path d="M154.122 141.915V141.861C154.498 140.947 154.596 139.941 154.404 138.97C154.212 137.999 153.739 137.108 153.044 136.411L105.612 88.452C105.125 87.9634 104.543 87.5824 103.903 87.3334C103.262 87.0844 102.578 86.9728 101.893 87.0056C101.207 87.0384 100.536 87.2149 99.9221 87.524C99.3079 87.833 98.7639 88.2679 98.3248 88.8009C86.4383 103.179 79.1795 120.886 77.5198 139.55C77.4585 140.241 77.54 140.937 77.759 141.594C77.978 142.252 78.3298 142.856 78.792 143.368C79.2542 143.881 79.8168 144.291 80.444 144.571C81.0712 144.852 81.7492 144.998 82.4352 145H149.562C150.539 145.002 151.495 144.71 152.307 144.161C153.119 143.611 153.751 142.83 154.122 141.915Z" fill="#FFFF51" stroke="#401484" stroke-miterlimit="10"/>
<path d="M154.12 154.139V154.074C153.749 153.163 153.119 152.383 152.308 151.836C151.498 151.289 150.545 150.997 149.57 151H82.4358C81.7498 151.002 81.0716 151.148 80.4444 151.429C79.8171 151.71 79.2545 152.119 78.7922 152.632C78.3299 153.144 77.9779 153.748 77.7588 154.406C77.5398 155.063 77.4585 155.759 77.5198 156.45C79.1818 175.114 86.4411 192.82 98.3272 207.2C98.7662 207.734 99.3104 208.169 99.9252 208.478C100.54 208.787 101.212 208.963 101.898 208.995C102.584 209.027 103.268 208.913 103.908 208.663C104.548 208.412 105.13 208.028 105.615 207.538L153.052 159.578C153.745 158.881 154.216 157.992 154.406 157.023C154.596 156.055 154.496 155.05 154.12 154.139Z" fill="#FFFF51" stroke="#401484" stroke-miterlimit="10"/>
<path d="M171.5 61.9469V129.069C171.497 130.043 171.789 130.996 172.336 131.807C172.883 132.617 173.662 133.247 174.573 133.618H174.639C175.552 133.997 176.559 134.097 177.53 133.905C178.501 133.713 179.392 133.237 180.088 132.54L228.038 85.1114C228.529 84.6251 228.912 84.0429 229.162 83.402C229.413 82.7611 229.527 82.0755 229.495 81.3889C229.463 80.7024 229.287 80.03 228.978 79.4144C228.669 78.7989 228.234 78.2538 227.7 77.8139C213.322 65.9326 195.619 58.678 176.96 57.0208C176.267 56.9578 175.569 57.0384 174.91 57.2573C174.251 57.4763 173.645 57.8288 173.131 58.2924C172.617 58.7559 172.207 59.3203 171.926 59.9495C171.645 60.5788 171.5 61.2591 171.5 61.9469Z" fill="#FFFF51" stroke="#401484" stroke-miterlimit="10"/>
<path d="M163.361 133.619H163.415C164.328 133.249 165.108 132.618 165.658 131.808C166.207 130.998 166.5 130.044 166.5 129.069V61.936C166.498 61.2499 166.352 60.5717 166.071 59.9444C165.79 59.3171 165.381 58.7545 164.868 58.2923C164.356 57.83 163.752 57.4781 163.094 57.259C162.437 57.04 161.741 56.9585 161.05 57.0198C142.387 58.6753 124.68 65.9313 110.302 77.8163C109.768 78.2564 109.333 78.8013 109.024 79.4165C108.715 80.0316 108.538 80.7037 108.506 81.3899C108.473 82.0761 108.585 82.7615 108.834 83.4027C109.083 84.044 109.464 84.6271 109.953 85.115L157.911 132.551C158.609 133.244 159.501 133.716 160.471 133.906C161.442 134.096 162.448 133.996 163.361 133.619Z" fill="#FFFF51" stroke="#401484" stroke-miterlimit="10"/>
<path d="M186.377 155.62V155.686C185.987 156.619 185.884 157.647 186.083 158.638C186.281 159.629 186.771 160.539 187.489 161.25L236.447 210.208C236.948 210.709 237.548 211.1 238.209 211.356C238.87 211.612 239.576 211.728 240.284 211.695C240.992 211.663 241.685 211.483 242.32 211.168C242.954 210.852 243.516 210.408 243.969 209.863C256.236 195.184 263.728 177.109 265.444 158.056C265.507 157.351 265.423 156.641 265.197 155.97C264.971 155.299 264.608 154.682 264.131 154.159C263.653 153.636 263.073 153.217 262.425 152.931C261.778 152.644 261.078 152.495 260.37 152.493H191.083C190.077 152.487 189.091 152.782 188.253 153.339C187.415 153.896 186.762 154.69 186.377 155.62Z" fill="#FFFF51" stroke="#401484" stroke-miterlimit="10"/>
<path d="M183.882 141.861V141.915C184.252 142.828 184.882 143.608 185.692 144.158C186.502 144.707 187.456 145 188.431 145H255.564C256.25 144.998 256.928 144.852 257.556 144.571C258.183 144.291 258.746 143.881 259.208 143.368C259.67 142.856 260.022 142.252 260.241 141.594C260.46 140.937 260.542 140.241 260.48 139.55C258.82 120.886 251.561 103.179 239.673 88.8009C239.234 88.2679 238.69 87.833 238.076 87.524C237.461 87.2149 236.79 87.0384 236.105 87.0056C235.419 86.9728 234.735 87.0844 234.095 87.3334C233.454 87.5824 232.872 87.9634 232.385 88.452L184.949 136.411C184.256 137.109 183.784 138.001 183.594 138.972C183.404 139.942 183.504 140.948 183.882 141.861Z" fill="#FFFF51" stroke="#401484" stroke-miterlimit="10"/>
<path d="M163.415 162.381H163.361C162.447 162.002 161.44 161.903 160.47 162.097C159.5 162.292 158.609 162.771 157.911 163.473L109.952 211.522C109.463 212.015 109.082 212.605 108.833 213.254C108.584 213.902 108.473 214.596 108.506 215.29C108.538 215.984 108.715 216.664 109.024 217.286C109.333 217.908 109.768 218.459 110.301 218.904C124.679 230.945 142.386 238.299 161.05 239.98C161.741 240.042 162.437 239.959 163.094 239.738C163.752 239.516 164.356 239.159 164.868 238.691C165.381 238.223 165.79 237.653 166.071 237.018C166.352 236.382 166.498 235.695 166.5 235V167C166.502 166.01 166.21 165.042 165.661 164.22C165.111 163.397 164.329 162.757 163.415 162.381Z" fill="#FFFF51" stroke="#401484" stroke-miterlimit="10"/>
<path d="M177.687 164.365H177.62C176.689 164.748 175.894 165.399 175.335 166.235C174.777 167.071 174.479 168.055 174.482 169.061V238.348C174.484 239.056 174.633 239.756 174.92 240.403C175.206 241.05 175.625 241.631 176.148 242.108C176.671 242.585 177.288 242.948 177.959 243.175C178.63 243.401 179.34 243.485 180.045 243.422C199.098 241.706 217.173 234.214 231.852 221.947C232.397 221.494 232.841 220.932 233.157 220.298C233.472 219.663 233.652 218.97 233.684 218.262C233.717 217.554 233.601 216.847 233.345 216.187C233.089 215.526 232.698 214.926 232.197 214.425L183.239 165.467C182.528 164.753 181.619 164.266 180.63 164.07C179.642 163.874 178.617 163.977 177.687 164.365Z" fill="#FFFF51" stroke="#401484" stroke-miterlimit="10"/>
<g clip-path="url(#clip1_21_57)">
<path d="M614.208 16.0784C613.234 12.0248 611.764 8.10799 609.83 4.41743C608.951 2.77989 607.48 1.54257 605.719 0.959565C603.959 0.376556 602.044 0.492109 600.366 1.28251L530.022 34.3299C528.264 35.1573 526.904 36.6498 526.239 38.4811C525.574 40.3125 525.658 42.3336 526.473 44.1027L530.839 53.6025C531.24 54.4753 531.809 55.2602 532.512 55.9119C533.216 56.5637 534.041 57.0695 534.941 57.4005C535.84 57.7314 536.795 57.881 537.752 57.8406C538.708 57.8001 539.648 57.5705 540.516 57.1649L610.173 24.4382C611.686 23.7347 612.912 22.5311 613.646 21.0288C614.381 19.5265 614.579 17.8166 614.208 16.1853V16.0784Z" fill="#44D970" stroke="#401484" stroke-miterlimit="10"/>
<path d="M498.494 206.394L527.479 77.4587L503.783 71.9489L473.733 205.611L498.494 206.394Z" fill="#44D970" stroke="#401484" stroke-miterlimit="10"/>
<path d="M531.276 32.3586C523.553 35.8468 516.987 41.4809 512.352 48.5952C507.717 55.7096 505.207 64.007 505.12 72.507L517.198 76.5919C517.198 76.5919 528.035 73.9558 528.343 72.9227C531.56 61.8198 537.227 57.8061 543.166 54.2437L531.276 32.3586Z" fill="#44D970" stroke="#401484" stroke-miterlimit="10"/>
<path d="M541.273 58.1742L528.863 33.5342C528.603 32.9791 528.461 32.3756 528.447 31.7624C528.432 31.1491 528.546 30.5396 528.78 29.9728C529.013 29.4061 529.363 28.8946 529.805 28.4711C530.247 28.0477 530.772 27.7216 531.347 27.5137L533.406 26.6944C534.47 26.2395 535.671 26.2237 536.747 26.6504C537.823 27.0771 538.688 27.912 539.155 28.9743L549.519 54.4456C549.723 54.9935 549.816 55.5765 549.794 56.161C549.772 56.7454 549.636 57.3197 549.391 57.8507C549.147 58.3818 548.801 58.859 548.372 59.2549C547.943 59.6508 547.44 59.9575 546.892 60.1573C545.878 60.5911 544.739 60.6281 543.699 60.2611C542.659 59.8941 541.794 59.1496 541.273 58.1742Z" fill="#44D970" stroke="#401484" stroke-miterlimit="10"/>
<path d="M526.213 83.4674L500.269 73.9676C498.353 73.267 497.584 70.7258 498.554 68.3746L499.382 66.3797C500.352 64.0048 502.659 62.8173 504.504 63.6366L529.62 75.0838C531.49 75.9269 532.105 78.575 530.981 80.8906C529.987 83.0043 527.928 84.0849 526.213 83.4674Z" fill="#44D970" stroke="#401484" stroke-miterlimit="10"/>
<path d="M528.674 73.9914L505.782 57.913C505.282 57.5484 504.863 57.0831 504.551 56.5468C504.24 56.0104 504.044 55.4148 503.975 54.798C503.906 54.1812 503.966 53.5568 504.15 52.9645C504.335 52.3722 504.641 51.8252 505.049 51.3582L506.516 49.6007C507.258 48.6801 508.333 48.092 509.506 47.9651C510.679 47.8383 511.854 48.183 512.774 48.9239L534.199 66.7359C534.651 67.1274 535.021 67.6056 535.287 68.1427C535.553 68.6797 535.709 69.2646 535.747 69.8631C535.784 70.4616 535.702 71.0615 535.505 71.6277C535.308 72.1939 535.001 72.7149 534.601 73.1602C533.887 74.0048 532.888 74.5563 531.795 74.7096C530.702 74.8629 529.591 74.6073 528.674 73.9914Z" fill="#44D970" stroke="#401484" stroke-miterlimit="10"/>
<path d="M541.32 59.0146L522.66 37.8819C520.823 35.8009 517.653 35.609 515.579 37.4534L515.269 37.7291C513.196 39.5734 513.005 42.7555 514.843 44.8365L533.502 65.9693C535.34 68.0503 538.51 68.2421 540.583 66.3978L540.893 66.1221C542.966 64.2777 543.157 61.0956 541.32 59.0146Z" fill="#44D970" stroke="#401484" stroke-miterlimit="10"/>
</g>
<defs>
<linearGradient id="paint0_linear_21_57" x1="90.5" y1="40.5001" x2="75.0166" y2="799" gradientUnits="userSpaceOnUse">
<stop stop-color="#8335FF"/>
<stop offset="0.705568" stop-color="#401380"/>
</linearGradient>
<linearGradient id="paint1_linear_21_57" x1="74" y1="188.5" x2="225.216" y2="302.875" gradientUnits="userSpaceOnUse">
<stop stop-color="#FDFB01"/>
<stop offset="1" stop-color="#B1FB23"/>
</linearGradient>
<clipPath id="clip0_21_57">
<rect width="534" height="541" fill="white" transform="translate(0 83)"/>
</clipPath>
<clipPath id="clip1_21_57">
<rect width="142" height="207" fill="white" transform="translate(473)"/>
</clipPath>
</defs>
</svg>
