<svg width="1843" height="1966" viewBox="0 0 1843 1966" fill="none" xmlns="http://www.w3.org/2000/svg">
<path d="M455.826 412.984C396.963 427.468 337.906 451.433 281.392 485.239C35.8929 632.095 -68.6955 909.009 47.7854 1103.73C79.1143 1156.1 123.232 1197.19 175.78 1226.42C132.249 1343.97 135.848 1467.5 196.968 1569.67C269.956 1691.69 408.593 1755.87 563.496 1755.68C563.84 1792.25 573.035 1827.77 592.083 1859.62C662.112 1976.68 838.516 2000 986.095 1911.72C1022.48 1889.95 1053.73 1863.42 1079.08 1834.05C1203.76 1858.17 1349.73 1833.08 1481.8 1754.07C1726.53 1607.68 1830.77 1331.65 1714.66 1137.55C1694.55 1103.93 1669.16 1074.99 1639.65 1050.86C1828.05 896.916 1898.57 659.664 1795.29 487.015C1717.44 356.864 1560.52 296.371 1391.72 314.416C1387.95 263.853 1373.3 215.007 1346.74 170.612C1234.28 -17.39 950.999 -54.8444 713.99 86.9321C579.184 167.572 488.391 288.832 455.855 412.991L455.826 412.984Z" fill="#C4C4C4" fill-opacity="0.1"/>
</svg>
