<svg width="20" height="21" viewBox="0 0 20 21" fill="none" xmlns="http://www.w3.org/2000/svg">
<path d="M3.5 15.2534L7.91667 10.8367L10.625 13.545C10.9667 13.8867 11.5167 13.87 11.8333 13.5117L17.8083 6.78669C18.1 6.46169 18.0833 5.96169 17.775 5.64503C17.6949 5.56518 17.5994 5.50248 17.4943 5.46073C17.3892 5.41898 17.2767 5.39905 17.1637 5.40217C17.0506 5.40529 16.9394 5.43139 16.8368 5.47887C16.7341 5.52635 16.6422 5.59422 16.5667 5.67836L11.2417 11.6617L8.5 8.92003C8.42291 8.84277 8.33134 8.78148 8.23053 8.73967C8.12971 8.69785 8.02165 8.67632 7.9125 8.67632C7.80336 8.67632 7.6953 8.69785 7.59448 8.73967C7.49367 8.78148 7.4021 8.84277 7.32501 8.92003L2.25001 14.0034C2.17275 14.0805 2.11146 14.172 2.06964 14.2728C2.02783 14.3737 2.0063 14.4817 2.0063 14.5909C2.0063 14.7 2.02783 14.8081 2.06964 14.9089C2.11146 15.0097 2.17275 15.1013 2.25001 15.1784L2.32501 15.2534C2.65001 15.5784 3.18334 15.5784 3.5 15.2534V15.2534Z" fill="#401484"/>
</svg>
