<svg width="27" height="26" viewBox="0 0 27 26" fill="none" xmlns="http://www.w3.org/2000/svg">
<path fill-rule="evenodd" clip-rule="evenodd" d="M3.79122 20.0875H2.47634V17.7609H3.84332C4.25342 17.7609 4.58149 17.4286 4.58149 17.0131C4.58149 16.5977 4.25342 16.2653 3.84332 16.2653H2.47634V13.9388H3.84332C4.25342 13.9388 4.58149 13.6064 4.58149 13.191C4.58149 12.7755 4.25342 12.4431 3.84332 12.4431H2.47634V10.1166H3.84332C4.25342 10.1166 4.58149 9.78426 4.58149 9.3688C4.58149 8.95335 4.25342 8.62099 3.84332 8.62099H2.47634V6.29446H3.84332C4.25342 6.29446 4.58149 5.9621 4.58149 5.54665C4.58149 5.1312 4.25342 4.79883 3.84332 4.79883H2.47634V3.24781C2.47634 2.83236 2.14826 2.5 1.73817 2.5C1.32808 2.5 1 2.83236 1 3.24781V20.7522C1 21.1676 1.32808 21.5 1.73817 21.5H2.37868L3.79122 20.0875ZM6.62132 21.5H26.2618C26.6719 21.5 27 21.1676 27 20.7522C27 20.3921 26.6719 20.0598 26.2618 20.0598H24.9769V6.87609C24.9769 6.46064 24.6488 6.12828 24.2387 6.12828H21.993L19.837 8.28431V20.0598H18.0599V11.0262C18.0599 10.8047 17.9779 10.6108 17.8412 10.5C17.2534 11.1574 17.1808 11.2386 17.1812 11.2389C17.1817 11.2393 17.3021 11.1069 16.6109 11.8848V20.0875H14.3964V13.7449C14.3873 13.7474 14.3783 13.7498 14.3691 13.7522L12.9474 15.1739V20.0875H11.1703V16.951L9.72135 18.4V20.0598H8.06155L6.62132 21.5ZM23.5279 7.62391H21.3134V20.0875H23.5279V7.62391Z" fill="#C2FF31"/>
<path d="M25 1L1 25" stroke="#C2FF31" stroke-width="1.5" stroke-linecap="round"/>
<path fill-rule="evenodd" clip-rule="evenodd" d="M16.5899 6.78884C16.0389 5.39139 14.6941 4.41113 13.1114 4.41113C11.0336 4.41113 9.36591 6.10064 9.36591 8.20559C9.36591 8.9811 9.61197 9.70122 9.99472 10.3105L7.58884 12.7479C7.31544 13.0248 7.31544 13.4957 7.58884 13.8003C7.75287 13.9388 7.91691 14.0219 8.10829 14.0219C8.29967 14.0219 8.49104 13.9388 8.62774 13.8003L11.0336 11.363C11.2334 11.501 11.4451 11.6176 11.667 11.7118L12.8599 10.5188C11.6969 10.3951 10.8149 9.42111 10.8149 8.20559C10.8149 6.90384 11.8538 5.87906 13.1114 5.87906C14.2958 5.87906 15.2863 6.78798 15.3976 7.98117L16.5899 6.78884Z" fill="#C2FF31"/>
</svg>
