<svg width="26" height="19" viewBox="0 0 26 19" fill="none" xmlns="http://www.w3.org/2000/svg">
<path d="M25.2618 17.5598H23.9769V4.37609C23.9769 3.96064 23.6488 3.62828 23.2387 3.62828H19.5752C19.1651 3.62828 18.837 3.96064 18.837 4.37609V17.5598H17.0599V9.30612C17.0599 9.08455 16.9779 8.89067 16.8412 8.77988C16.5131 9.30612 16.1031 9.77697 15.6109 10.1647V17.5875H13.3964V11.2449C12.9863 11.3557 12.5489 11.4111 12.1115 11.4111H11.9474V17.5875H10.1703V14.2362C10.1703 13.8207 9.84227 13.4883 9.43218 13.4883H5.76866C5.35857 13.4883 5.03049 13.8207 5.03049 14.2362V17.5875H1.47634V15.2609H2.84332C3.25342 15.2609 3.58149 14.9286 3.58149 14.5131C3.58149 14.0977 3.25342 13.7653 2.84332 13.7653H1.47634V11.4388H2.84332C3.25342 11.4388 3.58149 11.1064 3.58149 10.691C3.58149 10.2755 3.25342 9.94315 2.84332 9.94315H1.47634V7.61662H2.84332C3.25342 7.61662 3.58149 7.28426 3.58149 6.8688C3.58149 6.45335 3.25342 6.12099 2.84332 6.12099H1.47634V3.79446H2.84332C3.25342 3.79446 3.58149 3.4621 3.58149 3.04665C3.58149 2.6312 3.25342 2.29883 2.84332 2.29883H1.47634V0.747813C1.47634 0.332362 1.14827 0 0.73817 0C0.328076 0 0 0.332362 0 0.747813V18.2522C0 18.6676 0.328076 19 0.73817 19H25.2618C25.6719 19 26 18.6676 26 18.2522C26 17.8921 25.6719 17.5598 25.2618 17.5598ZM20.3134 5.12391H22.5279V17.5875H20.3134V5.12391ZM6.50683 14.9563H8.72135V17.5598H6.50683V14.9563Z" fill="#C2FF31"/>
<path d="M7.10829 11.5219C7.29967 11.5219 7.49104 11.4388 7.62774 11.3003L10.0336 8.86297C10.6351 9.27842 11.3459 9.49999 12.1114 9.49999C14.1619 9.49999 15.857 7.81049 15.857 5.70553C15.857 3.60058 14.1893 1.91107 12.1114 1.91107C10.0336 1.91107 8.36591 3.60058 8.36591 5.70553C8.36591 6.48104 8.61197 7.20116 8.99472 7.81049L6.58884 10.2478C6.31544 10.5248 6.31544 10.9956 6.58884 11.3003C6.75287 11.4388 6.91691 11.5219 7.10829 11.5219ZM12.1114 3.379C13.3691 3.379 14.408 4.40378 14.408 5.70553C14.408 7.00728 13.3964 8.03206 12.1114 8.03206C10.8265 8.03206 9.81491 7.00728 9.81491 5.70553C9.81491 4.40378 10.8538 3.379 12.1114 3.379Z" fill="#C2FF31"/>
</svg>
