<svg width="20" height="21" viewBox="0 0 20 21" fill="none" xmlns="http://www.w3.org/2000/svg">
<path d="M3.50005 15.2534L7.91672 10.8367L10.6251 13.545C10.9667 13.8867 11.5167 13.87 11.8334 13.5117L17.8084 6.78669C18.1 6.46169 18.0834 5.96169 17.7751 5.64503C17.695 5.56518 17.5995 5.50248 17.4944 5.46073C17.3893 5.41898 17.2768 5.39905 17.1637 5.40217C17.0507 5.40529 16.9395 5.43139 16.8368 5.47887C16.7342 5.52635 16.6423 5.59422 16.5667 5.67836L11.2417 11.6617L8.50005 8.92003C8.42296 8.84277 8.33138 8.78148 8.23057 8.73967C8.12976 8.69785 8.02169 8.67632 7.91255 8.67632C7.80341 8.67632 7.69534 8.69785 7.59453 8.73967C7.49372 8.78148 7.40215 8.84277 7.32505 8.92003L2.25005 14.0034C2.1728 14.0805 2.11151 14.172 2.06969 14.2728C2.02787 14.3737 2.00635 14.4817 2.00635 14.5909C2.00635 14.7 2.02787 14.8081 2.06969 14.9089C2.11151 15.0097 2.1728 15.1013 2.25005 15.1784L2.32505 15.2534C2.65005 15.5784 3.18338 15.5784 3.50005 15.2534Z" fill="white"/>
</svg>
