<svg viewBox="0 0 31 31" fill="none" xmlns="http://www.w3.org/2000/svg">
<path d="M26.4999 5.10022C23.5999 2.20022 19.7 0.700195 15.9 0.700195C12 0.700195 8.09991 2.2002 5.09991 5.2002C-0.800091 11.1002 -0.700054 20.7002 5.19995 26.6002C8.09995 29.5002 11.9999 31.0002 15.7999 31.0002C19.6999 31.0002 23.5999 29.5002 26.5999 26.5002C32.4999 20.6002 32.3999 11.0002 26.4999 5.10022ZM25.4999 25.4003C24.1999 26.7003 22.6999 27.7003 20.9999 28.4003C19.3999 29.1003 17.6 29.4003 15.9 29.4003C12.3 29.4003 8.89996 28.0002 6.39996 25.5002C3.79996 23.0002 2.39996 19.6003 2.39996 15.9003C2.39996 12.2003 3.79992 8.90029 6.29992 6.30029C7.59992 5.00029 9.09992 4.00029 10.7999 3.30029C12.3999 2.60029 14.2 2.30029 15.9 2.30029C19.5 2.30029 22.9 3.7002 25.4 6.2002C28 8.7002 29.4 12.1003 29.4 15.8003C29.4 19.4003 27.9999 22.9003 25.4999 25.4003Z" fill="#FFFF51"/>
<path d="M16.6 15.8004V6.20032C16.6 5.80032 16.2 5.40039 15.8 5.40039C15.4 5.40039 15 5.80032 15 6.20032V16.1003C15 16.3003 15.1 16.4003 15.2 16.6003L15.3 16.7003L19.7 21.1003C19.9 21.3003 20.1 21.3004 20.3 21.3004C20.5 21.3004 20.7 21.2003 20.9 21.1003C21.2 20.8003 21.2 20.3004 20.9 20.0004L16.6 15.8004Z" fill="#FFFF51"/>
</svg>
