<?xml version="1.0" encoding="utf-8"?>
<!-- Generator: Adobe Illustrator 25.4.8, SVG Export Plug-In . SVG Version: 6.00 Build 0)  -->
<svg version="1.1" id="Layer_1" xmlns="http://www.w3.org/2000/svg" xmlns:xlink="http://www.w3.org/1999/xlink" x="0px" y="0px"
	 viewBox="0 0 187.7 181.2" enable-background="new 0 0 187.7 181.2" xml:space="preserve">
<g>
	
		<circle fill="#FFFF51" stroke="#39146E" stroke-linecap="round" stroke-linejoin="round" stroke-miterlimit="10" cx="88.1" cy="92.7" r="84.9"/>
	<g>
		<defs>
			<circle id="SVGID_1_" cx="88.1" cy="92.7" r="84.9"/>
		</defs>
		<clipPath id="SVGID_00000058563801788100595310000010606144703059393689_">
			<use xlink:href="#SVGID_1_"  overflow="visible"/>
		</clipPath>
		<g clip-path="url(#SVGID_00000058563801788100595310000010606144703059393689_)">
			
				<line fill="#FFFF51" stroke="#39146E" stroke-linecap="round" stroke-linejoin="round" stroke-miterlimit="10" x1="49.4" y1="-15.9" x2="-39.9" y2="13.9"/>
			
				<line fill="#FFFF51" stroke="#39146E" stroke-linecap="round" stroke-linejoin="round" stroke-miterlimit="10" x1="54" y1="-5.2" x2="-35.3" y2="24.6"/>
			
				<line fill="#FFFF51" stroke="#39146E" stroke-linecap="round" stroke-linejoin="round" stroke-miterlimit="10" x1="58.6" y1="5.5" x2="-30.7" y2="35.3"/>
			
				<line fill="#FFFF51" stroke="#39146E" stroke-linecap="round" stroke-linejoin="round" stroke-miterlimit="10" x1="62.2" y1="17.7" x2="-27.1" y2="47.5"/>
			
				<line fill="#FFFF51" stroke="#39146E" stroke-linecap="round" stroke-linejoin="round" stroke-miterlimit="10" x1="67.3" y1="28.9" x2="-22.1" y2="58.7"/>
			
				<line fill="#FFFF51" stroke="#39146E" stroke-linecap="round" stroke-linejoin="round" stroke-miterlimit="10" x1="70.8" y1="40.5" x2="-18.5" y2="70.3"/>
			
				<line fill="#FFFF51" stroke="#39146E" stroke-linecap="round" stroke-linejoin="round" stroke-miterlimit="10" x1="75.4" y1="51.7" x2="-13.9" y2="81.5"/>
			
				<line fill="#FFFF51" stroke="#39146E" stroke-linecap="round" stroke-linejoin="round" stroke-miterlimit="10" x1="80.2" y1="63.2" x2="-9.1" y2="93"/>
			
				<line fill="#FFFF51" stroke="#39146E" stroke-linecap="round" stroke-linejoin="round" stroke-miterlimit="10" x1="84.6" y1="74.2" x2="-4.8" y2="104"/>
			
				<line fill="#FFFF51" stroke="#39146E" stroke-linecap="round" stroke-linejoin="round" stroke-miterlimit="10" x1="87.7" y1="85.3" x2="-1.7" y2="115.1"/>
			
				<line fill="#FFFF51" stroke="#39146E" stroke-linecap="round" stroke-linejoin="round" stroke-miterlimit="10" x1="91" y1="96.7" x2="1.7" y2="126.5"/>
			
				<line fill="#FFFF51" stroke="#39146E" stroke-linecap="round" stroke-linejoin="round" stroke-miterlimit="10" x1="95.1" y1="107.9" x2="5.8" y2="137.7"/>
			
				<line fill="#FFFF51" stroke="#39146E" stroke-linecap="round" stroke-linejoin="round" stroke-miterlimit="10" x1="97.7" y1="119" x2="8.4" y2="148.8"/>
			
				<line fill="#FFFF51" stroke="#39146E" stroke-linecap="round" stroke-linejoin="round" stroke-miterlimit="10" x1="103.3" y1="130.7" x2="13.9" y2="160.5"/>
			
				<line fill="#FFFF51" stroke="#39146E" stroke-linecap="round" stroke-linejoin="round" stroke-miterlimit="10" x1="108.6" y1="140.8" x2="19.3" y2="170.6"/>
			
				<line fill="#FFFF51" stroke="#39146E" stroke-linecap="round" stroke-linejoin="round" stroke-miterlimit="10" x1="109.5" y1="150.6" x2="21.2" y2="183.4"/>
			
				<line fill="#FFFF51" stroke="#39146E" stroke-linecap="round" stroke-linejoin="round" stroke-miterlimit="10" x1="115.8" y1="160" x2="29" y2="196.6"/>
			
				<line fill="#FFFF51" stroke="#39146E" stroke-linecap="round" stroke-linejoin="round" stroke-miterlimit="10" x1="126.7" y1="166.7" x2="42.1" y2="208.1"/>
		</g>
	</g>
	
		<circle fill="#44D970" stroke="#39146E" stroke-linecap="round" stroke-linejoin="round" stroke-miterlimit="10" cx="100.5" cy="87.1" r="84.9"/>
	
		<circle fill="#FFFF51" stroke="#39146E" stroke-linecap="round" stroke-linejoin="round" stroke-miterlimit="10" cx="100.5" cy="87.1" r="76.3"/>
	<path fill="#39146E" d="M94.2,90.3c0.9-1.5,1.9-2.9,2.8-4.4c3.3-5,7-9.7,11.8-13.5c4.3-3.4,9-5.6,14.6-5.8c0.5,0,0.9,0,1.4,0
		c4.4,0.3,7.2,2.9,7.7,7.2c0.5,3.9,0.2,7.8-0.1,11.7c-1.1,11.8-2.2,23.6-3.3,35.3c-0.1,0.8-0.1,1.6-0.1,2.4c0.2,3.1,3.3,4.6,5.9,2.8
		c2-1.4,3.6-3.2,4.9-5.3c1.5-2.4,2.7-5,3.5-7.7c0.6-1.9,2.4-3.1,4.2-2.7c1,0.2,1.4,0.7,1,1.6c-1.3,3.2-2.5,6.4-4,9.4
		c-1.8,3.6-4.3,6.7-7.4,9.3c-2.4,2.1-5.1,3.4-8.3,3.8c-5.8,0.8-10.4-2.7-11.2-8.5c-0.6-4.1-0.3-8.1,0.2-12.2
		c1.1-10.4,2.3-20.9,3.4-31.3c0.2-1.7,0.1-3.3,0.2-5c0-3.3-2.4-5.2-5.5-4.1c-1.8,0.6-3.6,1.7-5.2,2.7c-3.7,2.5-6.5,5.9-8.9,9.6
		c-5.6,8.8-8.4,18.4-8.9,28.8c-0.5,9.3-1,18.5-1.5,27.8c-0.1,2.7-0.9,3.6-3.5,4.4c-1.8,0.5-3.5,1.1-5.3,1.6c-2.2,0.6-2.6,0.3-2.5-2
		c0.6-11.6,1.2-23.2,1.8-34.8c0.6-12,1.2-24,1.8-35.9c0-0.6,0.2-1.1,0.2-1.7c0-0.4-0.2-0.9-0.6-1.1c-0.3-0.2-0.8,0-1.2,0.1
		c-3.8,2.4-7.5,4.8-11.2,7.1c-1.6,1-2.5,0.7-3.4-0.9c-0.3-0.6-0.7-1.1-1.1-1.6c-1.1-1.5-1-2.5,0.7-3.5c3.1-1.9,6.1-3.8,9.2-5.7
		c1.8-1.1,3.6-2.3,5.5-3.3c1.9-1.1,2.8-2.6,2.8-4.8c0.1-3.8,0.3-7.6,0.4-11.3c0-0.8,0-1.5-0.1-2.3c-0.3-1.7-1.3-2.5-3-2.4
		c-0.9,0.1-1.9,0.3-2.8,0.5c-1.1,0.3-2.1,0.6-3.2,0.9c-1,0.3-1.5,0-1.8-1c-0.4-1.4,0.2-2.5,1.6-3.1c3.6-1.4,7.3-2.7,10.8-4.3
		c2.6-1.1,5-2.7,7.4-4c0.3-0.2,0.7-0.4,1-0.6c1.2-0.6,2.2,0.1,2.2,1.4c-0.3,6.5-0.7,12.9-1.1,19.4c0,0.2-0.1,0.5-0.1,0.7
		c0.1,0.4,0,1.1,0.3,1.2c0.3,0.2,0.9,0.1,1.3-0.1c1.5-0.9,3-1.8,4.4-2.8c4.3-2.7,8.6-5.5,13-8.2c1.9-1.2,2.8-1,4.1,0.8
		c0.4,0.5,0.7,1.1,1.1,1.6c0.8,1.4,0.6,2.4-0.7,3.3c-1.7,1.1-3.5,2.2-5.2,3.2c-5.4,3.4-10.9,6.8-16.3,10.2c-1.6,1-2.5,2.3-2.6,4.2
		c-0.4,7.4-0.7,14.9-1.1,22.3c0,0.2,0,0.3,0,0.5C94.1,90.2,94.2,90.3,94.2,90.3z"/>
	<path fill="#FFFFFF" stroke="#39146E" stroke-linecap="round" stroke-linejoin="round" stroke-miterlimit="10" d="M161.9,66.9
		c0,0,7.1,12.4,4.7,22.7s-11.2,7.5-10.9-0.9s-1-18.1-2.4-22.3S160.4,59.5,161.9,66.9z"/>
	
		<circle fill="#FFFFFF" stroke="#39146E" stroke-linecap="round" stroke-linejoin="round" stroke-miterlimit="10" cx="151" cy="51.5" r="5.8"/>
</g>
</svg>
