<?xml version="1.0" encoding="utf-8"?>
<!-- Generator: Adobe Illustrator 25.4.8, SVG Export Plug-In . SVG Version: 6.00 Build 0)  -->
<svg version="1.1" id="Layer_1" xmlns="http://www.w3.org/2000/svg" xmlns:xlink="http://www.w3.org/1999/xlink" x="0px" y="0px"
	 viewBox="0 0 187.7 181.2" style="enable-background:new 0 0 187.7 181.2;" xml:space="preserve">
<style type="text/css">
	
		.st0{clip-path:url(#SVGID_00000150810527190722768050000014701723492739588487_);fill:#FFFF51;stroke:#39146E;stroke-linecap:round;stroke-linejoin:round;stroke-miterlimit:10;}
	.st1{fill:none;stroke:#39146E;stroke-linecap:round;stroke-linejoin:round;stroke-miterlimit:10;}
	.st2{fill:#44D970;stroke:#39146E;stroke-linecap:round;stroke-linejoin:round;stroke-miterlimit:10;}
	.st3{fill:#FFFF51;stroke:#39146E;stroke-linecap:round;stroke-linejoin:round;stroke-miterlimit:10;}
	.st4{fill:#FFFFFF;}
	.st5{fill:#FFFF51;}
	.st6{fill:#010002;}
	.st7{fill:#39146E;}
	.st8{fill:#44D970;}
</style>
<g>
	<g>
		<g>
			<defs>
				<path id="SVGID_1_" d="M169.4,26.4c7.6,19.9-9.6,59.6-42.8,95.3C98.3,152,66.3,171,44.8,172.2c-4,0.2-7.8-1.3-10.7-4.1
					l-14.3-14.6c0,0,131.1-142,131.9-141.7C152.7,12.2,169.4,26.4,169.4,26.4z"/>
			</defs>
			<use xlink:href="#SVGID_1_"  style="overflow:visible;fill:#FFFF51;"/>
			<clipPath id="SVGID_00000157988568048387319650000016649762814533250180_">
				<use xlink:href="#SVGID_1_"  style="overflow:visible;"/>
			</clipPath>
			
				<line style="clip-path:url(#SVGID_00000157988568048387319650000016649762814533250180_);fill:#FFFF51;stroke:#39146E;stroke-linecap:round;stroke-linejoin:round;stroke-miterlimit:10;" x1="21" y1="145.6" x2="80" y2="206.6"/>
			
				<line style="clip-path:url(#SVGID_00000157988568048387319650000016649762814533250180_);fill:#FFFF51;stroke:#39146E;stroke-linecap:round;stroke-linejoin:round;stroke-miterlimit:10;" x1="27.9" y1="137.7" x2="86.9" y2="198.7"/>
			
				<line style="clip-path:url(#SVGID_00000157988568048387319650000016649762814533250180_);fill:#FFFF51;stroke:#39146E;stroke-linecap:round;stroke-linejoin:round;stroke-miterlimit:10;" x1="34.9" y1="129.8" x2="93.8" y2="190.8"/>
			
				<line style="clip-path:url(#SVGID_00000157988568048387319650000016649762814533250180_);fill:#FFFF51;stroke:#39146E;stroke-linecap:round;stroke-linejoin:round;stroke-miterlimit:10;" x1="43.4" y1="122.2" x2="102.3" y2="183.2"/>
			
				<line style="clip-path:url(#SVGID_00000157988568048387319650000016649762814533250180_);fill:#FFFF51;stroke:#39146E;stroke-linecap:round;stroke-linejoin:round;stroke-miterlimit:10;" x1="50.5" y1="113.7" x2="109.5" y2="174.7"/>
			
				<line style="clip-path:url(#SVGID_00000157988568048387319650000016649762814533250180_);fill:#FFFF51;stroke:#39146E;stroke-linecap:round;stroke-linejoin:round;stroke-miterlimit:10;" x1="58.6" y1="106.2" x2="117.6" y2="167.3"/>
			
				<line style="clip-path:url(#SVGID_00000157988568048387319650000016649762814533250180_);fill:#FFFF51;stroke:#39146E;stroke-linecap:round;stroke-linejoin:round;stroke-miterlimit:10;" x1="65.9" y1="98.2" x2="124.9" y2="159.2"/>
			
				<line style="clip-path:url(#SVGID_00000157988568048387319650000016649762814533250180_);fill:#FFFF51;stroke:#39146E;stroke-linecap:round;stroke-linejoin:round;stroke-miterlimit:10;" x1="73.4" y1="89.8" x2="132.3" y2="150.8"/>
			
				<line style="clip-path:url(#SVGID_00000157988568048387319650000016649762814533250180_);fill:#FFFF51;stroke:#39146E;stroke-linecap:round;stroke-linejoin:round;stroke-miterlimit:10;" x1="80.6" y1="82" x2="139.6" y2="143.1"/>
			
				<line style="clip-path:url(#SVGID_00000157988568048387319650000016649762814533250180_);fill:#FFFF51;stroke:#39146E;stroke-linecap:round;stroke-linejoin:round;stroke-miterlimit:10;" x1="88.4" y1="75.1" x2="147.4" y2="136.2"/>
			
				<line style="clip-path:url(#SVGID_00000157988568048387319650000016649762814533250180_);fill:#FFFF51;stroke:#39146E;stroke-linecap:round;stroke-linejoin:round;stroke-miterlimit:10;" x1="96.4" y1="68" x2="155.4" y2="129"/>
			
				<line style="clip-path:url(#SVGID_00000157988568048387319650000016649762814533250180_);fill:#FFFF51;stroke:#39146E;stroke-linecap:round;stroke-linejoin:round;stroke-miterlimit:10;" x1="103.9" y1="60.3" x2="162.9" y2="121.4"/>
			
				<line style="clip-path:url(#SVGID_00000157988568048387319650000016649762814533250180_);fill:#FFFF51;stroke:#39146E;stroke-linecap:round;stroke-linejoin:round;stroke-miterlimit:10;" x1="111.9" y1="53.9" x2="170.9" y2="114.9"/>
			
				<line style="clip-path:url(#SVGID_00000157988568048387319650000016649762814533250180_);fill:#FFFF51;stroke:#39146E;stroke-linecap:round;stroke-linejoin:round;stroke-miterlimit:10;" x1="119.3" y1="44.8" x2="178.3" y2="105.8"/>
			
				<line style="clip-path:url(#SVGID_00000157988568048387319650000016649762814533250180_);fill:#FFFF51;stroke:#39146E;stroke-linecap:round;stroke-linejoin:round;stroke-miterlimit:10;" x1="125.4" y1="36.5" x2="184.3" y2="97.6"/>
			
				<line style="clip-path:url(#SVGID_00000157988568048387319650000016649762814533250180_);fill:#FFFF51;stroke:#39146E;stroke-linecap:round;stroke-linejoin:round;stroke-miterlimit:10;" x1="133" y1="32" x2="194" y2="91"/>
			
				<line style="clip-path:url(#SVGID_00000157988568048387319650000016649762814533250180_);fill:#FFFF51;stroke:#39146E;stroke-linecap:round;stroke-linejoin:round;stroke-miterlimit:10;" x1="138.2" y1="23.3" x2="201.7" y2="79.6"/>
			
				<line style="clip-path:url(#SVGID_00000157988568048387319650000016649762814533250180_);fill:#FFFF51;stroke:#39146E;stroke-linecap:round;stroke-linejoin:round;stroke-miterlimit:10;" x1="139.5" y1="11.8" x2="206" y2="64.4"/>
		</g>
		<path class="st1" d="M166.2,23.2c2.6,2.3,4.4,5.4,4.8,8.8c2.9,21.2-14,56.9-44.3,89.4c-29,31.2-61.9,50.3-83.3,50.6
			c-3.1,0-6-1.1-8.2-3.3l-14-13.7c0,0,131.3-142.7,132.1-142.4C154,12.9,161.8,19.3,166.2,23.2z"/>
		
			<ellipse transform="matrix(0.6814 -0.7319 0.7319 0.6814 -33.9703 91.6479)" class="st2" cx="88.3" cy="84.8" rx="97.3" ry="38.3"/>
		<ellipse transform="matrix(0.6814 -0.7319 0.7319 0.6814 -33.1967 91.9914)" class="st3" cx="89.1" cy="84.1" rx="92" ry="33"/>
	</g>
	<g>
		<path class="st4" d="M95.1,101.1c-4.8,4.1-9.5,7.3-13.8,9.4c-3.4,1.6-6.6,2.6-9.4,2.9c-4.7,0.5-6.9-1.1-6.9-1.1
			c-0.1-0.1-0.3-0.1-0.4,0c-0.1,0-6.1,2.8-8.5-0.1c-1.4-1.8-1.5-4.6-0.2-8.4c1-2.8,2.3-5.1,2.3-5.1c0.1-0.1,0.1-0.2,0.1-0.3
			c0-0.1,1.3-5.6,4.3-12.4c1.7-3.8,3.6-7.3,5.6-10.5c2.5-3.8,5.3-7.1,8.4-9.9c0.4-0.3,0.7-0.7,1.1-1c3-2.6,6.2-4.8,9.6-6.8
			c2.8-1.6,5.7-2.9,8.7-4c5.2-1.9,8.9-2.4,9-2.4c0.1,0,0.3-0.1,0.4-0.2c0,0,1.6-1.1,3.6-1.9c2.6-1,4.8-1,6.3,0c3.1,2.1,1,8.8,1,8.8
			c0,0.1,0,0.2,0,0.3c1.8,5.6,1.2,12-1.8,18.8c-2.7,6-7.2,12.2-13.3,18.3C99,97.6,97,99.4,95.1,101.1
			C95.1,101.1,95.1,101.1,95.1,101.1z"/>
		<path class="st5" d="M79.8,109.6c-3.2,1.6-6.4,2.4-9.2,3.2c-5.4,1.6-8.8,1.2-9.9,0.6c-0.1-0.1-1.8,1.7-1.6,0.1
			c0-0.1-1.7-0.7-3.2-1.6c-1.2-0.7-1.5-3.1-0.3-6.7c0.9-2.7,0.9,0,0.9-0.1c0.1-0.1,1.4-6.1,1.4-6.2c0-0.1,1.3-5.4,4.2-11.9
			c1.6-3.7,3.5-7.1,5.5-10.1c2.5-3.7,5.2-6.9,8.2-9.6c0.4-0.3,0.7-0.6,1.1-0.9c2.9-2.5,2.7-2.8,6-4.7c2.6-1.5,3-2.2,11.7-5.8
			c5-2.1,14.4-4.4,14.4-4.4c0.6-0.1-0.9-0.1-0.8-0.2c0,0-2.9,0.3-1-0.5c2.5-1,4.8-0.2,5.5,0.4c2.1,1.6,2.7,5.7,2.7,5.6
			c-0.6-0.4-1-0.4-0.9-0.3c1.5,5.1-0.1,15.2-3.7,22.2C101.5,96.5,83.9,107.6,79.8,109.6z"/>
		<path class="st4" d="M84.7,76.4c1.1,1.9-0.7,5.7-4,8.5c-3.3,2.8-6.7,3.4-7.6,1.4c-0.9-2,1-5.7,4.1-8.3
			C80.3,75.4,83.7,74.6,84.7,76.4z"/>
		<path class="st4" d="M98.4,63c1.3,1.7-0.3,5.3-3.6,8.1c-3.3,2.8-6.8,3.6-7.9,1.8c-1.1-1.8,0.6-5.3,3.7-7.9
			C93.7,62.3,97.2,61.4,98.4,63z"/>
		<path class="st6" d="M107.9,47.9"/>
		<path class="st7" d="M85.1,75.4c-0.6-0.7-1.7-0.9-3-0.5c-1.7,0.4-3.8,1.7-5.6,3.5c-0.9,0.9-1.6,1.8-2.3,2.7
			c-1.8,2.7-2.6,5.4-1.6,6.8c0.5,0.8,1.6,1.1,2.9,0.8c1.5-0.3,3.2-1.3,4.9-2.7c0.3-0.3,0.7-0.6,1-1c0.9-0.9,1.7-1.9,2.4-2.9
			C85.6,79.4,86.2,76.7,85.1,75.4z M83,82c-0.5,0.8-1.2,1.6-2,2.4c-0.2,0.2-0.3,0.3-0.5,0.5c0.6-1.8,0.5-3.5-0.4-4.5
			c-0.2-0.2-0.4-0.4-0.6-0.5c-0.2,0.3-0.4,0.6-0.7,0.9c-0.8,0.8-1.7,1.1-1.9,0.7c-0.3-0.4,0.1-1.3,0.9-2c0.1-0.1,0.1-0.1,0.2-0.2
			c-0.6,0-1.2,0-1.8,0.2c0.1-0.1,0.2-0.2,0.4-0.4c0.3-0.3,0.6-0.6,0.9-0.8c1.4-1.2,2.8-2,4.1-2.3c1.1-0.3,2-0.1,2.5,0.5
			C85,77.5,84.5,79.7,83,82z"/>
		<path class="st7" d="M98.6,62.2c-0.7-0.6-1.9-0.7-3.3-0.3c-1.8,0.5-3.9,1.8-5.7,3.6c-0.6,0.6-1.2,1.2-1.7,1.9
			c-0.9,1.1-1.5,2.2-1.9,3.3c-0.6,1.7-0.6,3.1,0.1,3.9c0.6,0.7,1.8,0.9,3.2,0.6c1.6-0.4,3.3-1.4,4.9-2.8c0.3-0.3,0.7-0.6,1-0.9
			c0.6-0.6,1.2-1.3,1.7-2c0.9-1.2,1.6-2.3,1.9-3.5C99.6,64.3,99.5,63,98.6,62.2z M96.4,69.2c-0.4,0.5-0.8,1-1.3,1.5
			c-0.2,0.2-0.3,0.3-0.5,0.5c0.5-1.7,0.3-3.2-0.7-4.2c-0.2-0.2-0.4-0.3-0.6-0.4c-0.1,0.2-0.3,0.4-0.5,0.6c-0.8,0.7-1.7,1.1-2,0.7
			c-0.3-0.3,0.1-1.1,0.7-1.7c-0.6,0-1.2,0.1-1.9,0.3c0.1-0.1,0.2-0.2,0.3-0.3c0.3-0.3,0.6-0.6,0.9-0.8c1.4-1.2,2.8-2,4.1-2.4
			c1.2-0.3,2.1-0.2,2.7,0.3l0,0C98.8,64.3,98.2,66.7,96.4,69.2z"/>
		<path class="st6" d="M74.6,90.4"/>
		<path class="st7" d="M91.1,83.9c-4.3,3.9-8.9,6-12.7,6.3c0.3-0.5,0.7-0.9,1.2-1.3c0.3-0.3,0.7-0.5,1-0.7c-0.6,0.1-1.3,0.4-2,1
			c-1.4,1.2-2.1,2.9-1.7,3.9c0.1,0.3,0.4,0.5,0.7,0.6c-0.2-0.6-0.2-1.4,0.1-2.2c3.8,0.3,8.8-1.7,13.4-5.8c4.8-4.3,7.8-9.8,8.3-14.3
			C98.2,75.5,95.3,80.1,91.1,83.9z"/>
		<path class="st7" d="M95.6,92.1c-2.4,2.1-5,3-6.9,2.7c1.8,1.4,4.9,0.9,7.8-1.5c3.1-2.7,4.6-6.5,3.6-9
			C100.1,86.6,98.4,89.7,95.6,92.1z"/>
		<path class="st4" d="M104.4,92.2c0,0,2.6-3.4,4-4.4c1.4-1,2.7-0.5,2.7-0.5s-0.9-1.5-2.4-0.7C107.3,87.6,105.2,90.4,104.4,92.2z"/>
		<path class="st4" d="M101.8,94.3c0,0,1.4-1.1,2.5-0.1C104.3,94.2,103.9,91.8,101.8,94.3z"/>
		<path class="st4" d="M66.1,87.4c1.1-0.4,1.3,1.4,0.6,3.9c-0.7,2.6-2,5-3.1,5.4c-1.2,0.4-1.3-1.5-0.5-4.1
			C63.7,90.1,64.9,87.8,66.1,87.4z"/>
		<path class="st4" d="M67.7,83.2c0.7,0,0.8,0.7,0.3,1.7c-0.5,1-1.5,1.8-2.1,1.8c-0.7,0-0.8-0.8-0.3-1.7
			C66.1,84.1,67,83.3,67.7,83.2z"/>
		<path class="st7" d="M116.6,48.2c-2.9-1.9-6.9-0.1-9.1,1.1c0,0-0.1,0-0.1,0s-11.1,2-22,9.1l0,0c-1.1,0.7-2.2,1.4-3.3,2.3
			c-1.5,1.1-3.1,2.3-4.7,3.7c-0.4,0.3-0.7,0.6-1.1,1C62.6,77.7,57.9,97.4,57.9,97.4s-7.7,12.8-3.3,17.5c2.5,3.2,9.2,0.4,9.2,0.4
			s8.1,5.3,25.1-6.1c2.5-1.6,5.3-3.7,8.1-6.1c2-1.7,4-3.6,6.1-5.7c11.4-11.3,19.8-26.8,15.5-39.7C118.6,57.8,120,50.4,116.6,48.2z
			 M115.9,57.1c-0.3-0.3-1.2-0.8-1.9-0.7c0,0,0,0,0,0c0.1,0.2,1.3,1.5,1.9,4.2l0,0c0.5,2.3,0.6,4.8,0.4,7.3c-0.3,3-1.2,6.2-2.7,9.4
			c-2.6,5.9-7,11.9-13,17.9c-2,1.9-4,3.8-5.9,5.4c-2.4,2-4.7,3.8-7,5.3c-1.9,1.3-3.8,2.3-5.6,3.2c-3.3,1.6-6.4,2.6-9.2,2.9
			c-2.4,0.3-4.2,0-5.2-0.3c-0.6-0.2-1-0.3-1.3-0.5c-1.9-1.1-3.1-3.4-3.1-3.1c0,1.3,0.6,2.6,0.6,3.4c-0.6,0.2-1.2,0.4-2,0.5
			c-1,0.2-1.9,0.2-2.7,0.1c-0.9-0.2-1.6-0.5-2.1-1.1c-0.7-0.9-1.1-2.1-1.1-3.6c0-1.2,0.3-2.6,0.8-4.2c0.5-1.6,1.2-3,1.7-3.9
			c0.2,1.8,1.4,3,1.4,3c-0.4-4.9,0.7-9,1.4-11.1c0.6-1.7,1.4-3.7,2.3-5.8c1.6-3.8,3.5-7.2,5.5-10.3c2.4-3.7,5.2-7,8.2-9.7
			c0.4-0.3,0.7-0.6,1.1-1c1.2-1.1,2.5-2.1,3.8-3c1.6-1.1,3.2-2.2,4.9-3.1c2.7-1.5,5.6-2.9,8.5-3.9c4.5-1.7,7.9-2.2,8.7-2.4
			c1-0.1,2.3-0.4,4.7-0.3c-0.5-0.4-1.3-0.8-2-1c0.5-0.2,1.1-0.6,1.6-0.8c2.4-0.9,4.4-0.9,5.8,0.1C116.6,51.2,116.7,55,115.9,57.1z"
			/>
		<g>
			<path class="st7" d="M76,63.5l0.2,0.3c0,0,0,0,0,0L76,63.5C76,63.5,76,63.5,76,63.5c-10.7,9.1-15.6,21.9-15.6,21.9
				c1.8-1,3.5-2.3,5.1-3.6c3.9-3.2,6.5-6.1,6.5-6.1l-0.1,2.7C85.7,65,86.4,57.3,86.4,57.3C82.5,58.4,78.9,61.1,76,63.5z"/>
			<polygon class="st7" points="76,63.5 76,63.5 76,63.5 			"/>
		</g>
		<path class="st8" d="M64.1,80.8c3-2.1,6.4-5.3,9.6-8.7c-0.2,0.8-0.2,1.6-0.1,2.5c0,0,2-2,3.4-3.6c6.4-7.3,7.7-12,7.7-12
			C71,65.1,64.1,80.8,64.1,80.8z"/>
		<path class="st4" d="M84.7,58.9c0,0-3,5.5-11.2,15.6C73.6,74.6,82.3,66.5,84.7,58.9z"/>
		<path class="st7" d="M103,96.8l-1.6-1.7c-0.1-0.1-0.6-0.4-0.7-0.3c0,0,0,0-0.1,0c-0.1,0-0.1-0.1-0.2,0c-0.2,0.1-3.6,1.5-6.4,3.6
			c-0.8,0.6-1.2,1-1.6,1.5c-1.2,1.4-1.4,2.9-1.1,4.3c0.1,1.6,1,3,1.8,3.8c0.6,0.6,1.4,1.1,2.2,1.2c1,0.1,1.9-0.2,2.7-0.9
			c0.2-0.2,0.3-0.3,0.5-0.5c2.4-2.7,4.5-9.7,4.6-10c0-0.1,0-0.3,0-0.3l0,0c0-0.1,0.1-0.2,0.1-0.2C103.1,97,103.1,96.9,103,96.8z"/>
		<path class="st8" d="M100.8,95.8c0,0-4.3,2-6.3,4.4c-2,2.4,1.6,6.2,3.9,4.1c2.2-2,3.9-6.7,3.9-6.7L100.8,95.8z"/>
		<path class="st7" d="M108.5,84.5c-0.4,0.4-0.9,0.8-1.4,1.5c-1.6,1.9-3.3,4.8-4,6.1c0.9-0.1,1.7,0.1,2.3,0.7
			c0.5,0.6,0.6,1.4,0.5,2.3c1.4-0.2,5.5-0.7,7.5-2.7c1.8-1.7,2.7-3.7,0.8-6.4C113,84.5,111.2,82.3,108.5,84.5z"/>
		<path class="st8" d="M104.2,92.6l1.3,1.5c0.8-0.2,4.4-1.3,6-3c0.7-0.7,0.8-2.2-0.2-3.5c-0.9-1.2-2-1.2-2.7-0.7
			c-0.1,0.1-0.2,0.2-0.3,0.3C106.4,88.7,104.7,91.8,104.2,92.6z"/>
		<path class="st7" d="M105.6,92.6c-1-1.2-3.2-1-4.8,0.6c-0.8,0.7-1.3,1.7-1.6,2.6c-0.2,1-0.1,1.9,0.3,2.5c0.9,1.3,3,1.1,4.6-0.3
			c0.1-0.1,0.2-0.1,0.2-0.2c0.8-0.8,1.4-1.7,1.6-2.7C106.3,94.1,106.1,93.2,105.6,92.6z"/>
		<path class="st8" d="M104.5,93.4c0.5,0.8,0.1,2.2-0.9,3c-1,0.9-2.3,0.9-2.8,0.1c-0.4-0.7-0.2-1.8,0.6-2.7c0.1-0.1,0.2-0.2,0.3-0.3
			C102.8,92.7,104,92.6,104.5,93.4z"/>
	</g>
</g>
</svg>
