<svg viewBox="0 0 35 32" fill="none" xmlns="http://www.w3.org/2000/svg">
<path d="M24.1 10.7998V6.09973C24.1 5.99973 24.1 5.8998 24.1 5.7998C24.1 2.6998 18.8 0.199707 12.3 0.199707C5.99999 0.199707 0.8 2.59976 0.5 5.49976C0.5 5.59976 0.5 5.59971 0.5 5.69971V24.8998C0.5 26.6998 1.49998 28.3998 3.09998 29.2998C5.99998 30.9998 9.40002 31.7998 12.9 31.7998C15.1 31.7998 17.3 31.4998 19.3 30.7998C20.7 31.4998 22.3 31.8998 23.9 31.8998C29.8 31.8998 34.5 27.1998 34.5 21.2998C34.5 15.5998 29.8 10.8998 24.1 10.7998ZM2 18.8998C5 20.9998 8.80002 22.0997 12.9 22.0997C13 22.0997 13.2 22.0997 13.3 22.0997C13.4 23.2997 13.7 24.4997 14.1 25.5997C13.7 25.5997 13.3 25.5997 12.9 25.5997C8.80002 25.5997 4.9 24.2997 2 22.0997V18.8998ZM13.3 20.4998C13.2 20.4998 13 20.4998 12.9 20.4998C8.80002 20.4998 4.9 19.1998 2 16.9998V13.8998C5 15.9998 8.80002 17.0997 12.9 17.0997C13.3 17.0997 13.8 17.0997 14.2 17.0997C13.7 18.0997 13.4 19.2998 13.3 20.4998ZM15.1 15.2998C14.4 15.3998 13.6 15.3998 12.8 15.3998C8.69999 15.3998 4.80002 14.0998 1.90002 11.8998V8.59973C3.90002 10.2997 7.80001 11.3998 12.2 11.3998C16.6 11.3998 20.4 10.2997 22.4 8.59973V10.7998C19.5 11.1998 16.8 12.8998 15.1 15.2998ZM4.59998 3.2998C6.59998 2.2998 9.39999 1.7998 12.3 1.7998C15.2 1.7998 18 2.2998 20 3.2998C21.5 3.9998 22.5 4.89971 22.6 5.69971V5.7998V5.99976C22.5 6.79976 21.5 7.69978 20 8.39978C18 9.39978 15.2 9.89978 12.3 9.89978C9.39999 9.89978 6.59998 9.39978 4.59998 8.39978C2.99998 7.59978 2 6.6998 2 5.7998C2 4.8998 2.99998 3.9998 4.59998 3.2998ZM12.8 30.2998C9.49999 30.2998 6.39999 29.4998 3.79999 27.9998C2.69999 27.3998 2 26.1998 2 24.8998V23.9998C5 26.0998 8.80002 27.1997 12.9 27.1997C13.6 27.1997 14.3 27.1997 15 27.0997C15.7 28.0997 16.5 29.0998 17.5 29.7998C15.9 30.1998 14.4 30.2998 12.8 30.2998ZM30.2 27.7998C28.5 29.4998 26.2 30.3998 23.8 30.3998C21.4 30.3998 19.1 29.4998 17.4 27.7998C15.7 26.0998 14.8 23.7998 14.8 21.3998C14.8 18.9998 15.7 16.6998 17.4 14.9998C19.1 13.2998 21.4 12.3998 23.8 12.3998C26.2 12.3998 28.5 13.2998 30.2 14.9998C31.9 16.6998 32.8 18.9998 32.8 21.3998C32.9 23.7998 31.9 26.0998 30.2 27.7998Z" fill="#FFFF51"/>
</svg>
