<?xml version="1.0" encoding="utf-8"?>
<!-- Generator: Adobe Illustrator 25.4.8, SVG Export Plug-In . SVG Version: 6.00 Build 0)  -->
<svg version="1.1" id="Layer_1" xmlns="http://www.w3.org/2000/svg" xmlns:xlink="http://www.w3.org/1999/xlink" x="0px" y="0px"
	 viewBox="0 0 187.7 181.2" style="enable-background:new 0 0 187.7 181.2;" xml:space="preserve">
<style type="text/css">
	
		.st0{clip-path:url(#SVGID_00000159439535387973149560000001086141426459438216_);fill:#633BB3;stroke:#39146E;stroke-linecap:round;stroke-linejoin:round;stroke-miterlimit:10;}
	.st1{fill:none;stroke:#39146E;stroke-linecap:round;stroke-linejoin:round;stroke-miterlimit:10;}
	.st2{fill:#44D970;stroke:#39146E;stroke-linecap:round;stroke-linejoin:round;stroke-miterlimit:10;}
	.st3{fill:#FFFF51;stroke:#39146E;stroke-linecap:round;stroke-linejoin:round;stroke-miterlimit:10;}
	.st4{fill:#39146E;}
</style>
<g>
	<g>
		<g>
			<defs>
				<path id="SVGID_1_" d="M19.6,24.8c-8,19.8,8.4,59.7,40.9,96.1c27.7,31,59.3,50.6,80.8,52.2c4,0.3,7.9-1.2,10.8-3.9l14.5-14.3
					c0,0-128.2-144.6-129.1-144.2C36.6,11,19.6,24.8,19.6,24.8z"/>
			</defs>
			<use xlink:href="#SVGID_1_"  style="overflow:visible;fill:#633BB3;"/>
			<clipPath id="SVGID_00000137131124788785974720000009381027432844003989_">
				<use xlink:href="#SVGID_1_"  style="overflow:visible;"/>
			</clipPath>
			
				<line style="clip-path:url(#SVGID_00000137131124788785974720000009381027432844003989_);fill:#633BB3;stroke:#39146E;stroke-linecap:round;stroke-linejoin:round;stroke-miterlimit:10;" x1="165.5" y1="147" x2="105.4" y2="206.9"/>
			
				<line style="clip-path:url(#SVGID_00000137131124788785974720000009381027432844003989_);fill:#633BB3;stroke:#39146E;stroke-linecap:round;stroke-linejoin:round;stroke-miterlimit:10;" x1="158.8" y1="139" x2="98.6" y2="198.8"/>
			
				<line style="clip-path:url(#SVGID_00000137131124788785974720000009381027432844003989_);fill:#633BB3;stroke:#39146E;stroke-linecap:round;stroke-linejoin:round;stroke-miterlimit:10;" x1="152" y1="130.9" x2="91.8" y2="190.8"/>
			
				<line style="clip-path:url(#SVGID_00000137131124788785974720000009381027432844003989_);fill:#633BB3;stroke:#39146E;stroke-linecap:round;stroke-linejoin:round;stroke-miterlimit:10;" x1="143.7" y1="123.1" x2="83.5" y2="183"/>
			
				<line style="clip-path:url(#SVGID_00000137131124788785974720000009381027432844003989_);fill:#633BB3;stroke:#39146E;stroke-linecap:round;stroke-linejoin:round;stroke-miterlimit:10;" x1="136.7" y1="114.5" x2="76.5" y2="174.4"/>
			
				<line style="clip-path:url(#SVGID_00000137131124788785974720000009381027432844003989_);fill:#633BB3;stroke:#39146E;stroke-linecap:round;stroke-linejoin:round;stroke-miterlimit:10;" x1="128.7" y1="106.9" x2="68.6" y2="166.8"/>
			
				<line style="clip-path:url(#SVGID_00000137131124788785974720000009381027432844003989_);fill:#633BB3;stroke:#39146E;stroke-linecap:round;stroke-linejoin:round;stroke-miterlimit:10;" x1="121.6" y1="98.7" x2="61.4" y2="158.6"/>
			
				<line style="clip-path:url(#SVGID_00000137131124788785974720000009381027432844003989_);fill:#633BB3;stroke:#39146E;stroke-linecap:round;stroke-linejoin:round;stroke-miterlimit:10;" x1="114.3" y1="90.2" x2="54.1" y2="150"/>
			
				<line style="clip-path:url(#SVGID_00000137131124788785974720000009381027432844003989_);fill:#633BB3;stroke:#39146E;stroke-linecap:round;stroke-linejoin:round;stroke-miterlimit:10;" x1="107.2" y1="82.2" x2="47.1" y2="142.1"/>
			
				<line style="clip-path:url(#SVGID_00000137131124788785974720000009381027432844003989_);fill:#633BB3;stroke:#39146E;stroke-linecap:round;stroke-linejoin:round;stroke-miterlimit:10;" x1="99.5" y1="75.2" x2="39.4" y2="135.1"/>
			
				<line style="clip-path:url(#SVGID_00000137131124788785974720000009381027432844003989_);fill:#633BB3;stroke:#39146E;stroke-linecap:round;stroke-linejoin:round;stroke-miterlimit:10;" x1="91.7" y1="67.9" x2="31.6" y2="127.8"/>
			
				<line style="clip-path:url(#SVGID_00000137131124788785974720000009381027432844003989_);fill:#633BB3;stroke:#39146E;stroke-linecap:round;stroke-linejoin:round;stroke-miterlimit:10;" x1="84.4" y1="60.1" x2="24.2" y2="120"/>
			
				<line style="clip-path:url(#SVGID_00000137131124788785974720000009381027432844003989_);fill:#633BB3;stroke:#39146E;stroke-linecap:round;stroke-linejoin:round;stroke-miterlimit:10;" x1="76.5" y1="53.5" x2="16.3" y2="113.3"/>
			
				<line style="clip-path:url(#SVGID_00000137131124788785974720000009381027432844003989_);fill:#633BB3;stroke:#39146E;stroke-linecap:round;stroke-linejoin:round;stroke-miterlimit:10;" x1="69.3" y1="44.3" x2="9.1" y2="104.1"/>
			
				<line style="clip-path:url(#SVGID_00000137131124788785974720000009381027432844003989_);fill:#633BB3;stroke:#39146E;stroke-linecap:round;stroke-linejoin:round;stroke-miterlimit:10;" x1="63.4" y1="35.9" x2="3.2" y2="95.8"/>
			
				<line style="clip-path:url(#SVGID_00000137131124788785974720000009381027432844003989_);fill:#633BB3;stroke:#39146E;stroke-linecap:round;stroke-linejoin:round;stroke-miterlimit:10;" x1="55.8" y1="31.2" x2="-6.3" y2="89"/>
			
				<line style="clip-path:url(#SVGID_00000137131124788785974720000009381027432844003989_);fill:#633BB3;stroke:#39146E;stroke-linecap:round;stroke-linejoin:round;stroke-miterlimit:10;" x1="50.8" y1="22.4" x2="-13.8" y2="77.4"/>
			
				<line style="clip-path:url(#SVGID_00000137131124788785974720000009381027432844003989_);fill:#633BB3;stroke:#39146E;stroke-linecap:round;stroke-linejoin:round;stroke-miterlimit:10;" x1="49.8" y1="10.9" x2="-17.8" y2="62.2"/>
			
				<use xlink:href="#SVGID_1_"  style="overflow:visible;fill:none;stroke:#39146E;stroke-linecap:round;stroke-linejoin:round;stroke-miterlimit:10;"/>
		</g>
		<path class="st1" d="M22.8,21.7c-2.7,2.2-4.5,5.3-5,8.7c-3.3,21.1,12.9,57.2,42.5,90.3c28.4,31.7,60.9,51.6,82.3,52.3
			c3.1,0.1,6-1,8.3-3.1l14.2-13.4c0,0-128.4-145.3-129.3-145C35.2,11.7,27.3,18,22.8,21.7z"/>
		
			<ellipse transform="matrix(0.7453 -0.6667 0.6667 0.7453 -31.2813 87.9679)" class="st2" cx="99.5" cy="84.9" rx="38.3" ry="97.3"/>
		<ellipse transform="matrix(0.7453 -0.6667 0.6667 0.7453 -30.9885 87.2701)" class="st3" cx="98.7" cy="84.2" rx="33" ry="92"/>
	</g>
	<g>
		<path class="st4" d="M94,83.5c-0.2-1.1-0.5-2.2-0.7-3.4c-0.8-3.8-1.2-7.3-0.6-10.3c0.6-2.6,1.9-4.5,4.6-5.3
			c0.2-0.1,0.5-0.1,0.7-0.2c2.3-0.4,5,0.8,7.5,3.3c2.3,2.3,4.2,4.7,6.1,7.1c5.9,7.7,12.1,15.8,18.7,24.3c0.5,0.6,0.9,1.2,1.5,1.8
			c2.1,2.2,4.6,2.8,4.8,1c0.2-1.4-0.2-3-0.8-4.7c-0.7-2-1.7-3.9-2.9-5.9c-0.8-1.4-0.6-2.5,0.4-2.5c0.6,0,1.1,0.3,1.5,0.9
			c1.3,2.4,2.6,4.8,3.8,7.2c1.4,2.9,2.1,5.6,2.2,8.1c0.1,2-0.4,3.5-1.8,4.5c-2.6,1.8-7.2,0-11.4-4.3c-2.8-2.9-5.2-6-7.4-9
			c-5.5-7.5-10.7-14.7-15.8-21.6c-0.8-1.1-1.7-2.1-2.5-3.1c-1.6-2-3.9-2.9-4.9-1.8c-0.6,0.6-1,1.5-1.3,2.4c-0.7,2.1-0.5,4.6,0.2,7.4
			c1.6,6.8,5.3,14,11,21.8c5.3,7.2,10.8,14.8,16.6,22.8c1.8,2.4,2,3.4,0.9,4.7c-0.7,0.9-1.3,1.9-2.1,2.8c-0.9,1.1-1.4,0.9-2.9-1.2
			c-7.3-10.3-14.2-20.1-20.7-29.3c-6.4-9-12.4-17.5-18.1-25.6c-0.3-0.4-0.4-0.8-0.7-1.1c-0.2-0.3-0.6-0.6-0.9-0.6
			c-0.2-0.1-0.5,0.1-0.6,0.3c-1,2.1-1.9,4.2-2.9,6.4C75,81.1,74.4,81,73,80c-0.5-0.3-0.9-0.7-1.4-1c-1.4-0.9-1.8-1.5-1.3-2.5
			c0.9-1.7,1.7-3.4,2.6-5c0.5-1,1-1.9,1.5-2.8c0.5-0.9,0.3-2-0.7-3.3c-1.7-2.3-3.3-4.6-4.9-6.8c-0.3-0.4-0.7-0.9-1.1-1.3
			c-0.9-1-1.8-1.3-2.7-1.1c-0.5,0.1-0.9,0.4-1.3,0.6c-0.5,0.3-0.9,0.6-1.4,0.9c-0.4,0.3-0.8,0.2-1.4-0.4c-0.8-0.8-1-1.5-0.5-2
			c1.4-1.2,2.8-2.3,4.1-3.6c0.9-0.9,1.5-2,2.2-3c0.1-0.1,0.2-0.3,0.3-0.4c0.4-0.4,1.2-0.2,1.7,0.5c2.6,3.6,5.3,7.2,8,11
			c0.1,0.1,0.1,0.3,0.3,0.4c0.2,0.2,0.5,0.6,0.7,0.7c0.3,0.1,0.5-0.1,0.6-0.2c0.4-0.7,0.7-1.4,1.1-2.1c1-2,2-4.1,2.9-6
			c0.4-0.8,1-0.8,2.4,0c0.4,0.3,0.9,0.5,1.3,0.8c1,0.7,1.4,1.3,1.1,1.9c-0.3,0.8-0.8,1.6-1.1,2.4c-1.2,2.6-2.5,5.2-3.7,7.9
			c-0.4,0.8-0.3,1.7,0.6,2.9c3.5,4.7,7,9.6,10.7,14.6c0.1,0.1,0.2,0.2,0.3,0.3C93.9,83.5,93.9,83.5,94,83.5z"/>
	</g>
</g>
</svg>
