<?xml version="1.0" encoding="utf-8"?>
<!-- Generator: Adobe Illustrator 25.4.8, SVG Export Plug-In . SVG Version: 6.00 Build 0)  -->
<svg version="1.1" id="Layer_1" xmlns="http://www.w3.org/2000/svg" xmlns:xlink="http://www.w3.org/1999/xlink" x="0px" y="0px"
	 viewBox="0 0 166.8 170.2" style="enable-background:new 0 0 166.8 170.2;" xml:space="preserve">
<style type="text/css">
	
		.st0{clip-path:url(#SVGID_00000114785044780600758010000012018553121409396922_);fill:#FFFF51;stroke:#39146E;stroke-linecap:round;stroke-linejoin:round;stroke-miterlimit:10;}
	.st1{fill:none;stroke:#39146E;stroke-linecap:round;stroke-linejoin:round;stroke-miterlimit:10;}
	.st2{fill:#44D970;stroke:#39146E;stroke-linecap:round;stroke-linejoin:round;stroke-miterlimit:10;}
	.st3{fill:#633BB3;stroke:#39146E;stroke-linecap:round;stroke-linejoin:round;stroke-miterlimit:10;}
	.st4{fill:#FFFFFF;}
	.st5{fill:#FFFF51;}
	.st6{fill:#010002;}
	.st7{fill:#39146E;}
	.st8{fill:#44D970;}
</style>
<g>
	<g>
		<g>
			<defs>
				<path id="SVGID_1_" d="M143.4,163.9c-20.3,6.5-58.9-12.8-92.8-47.9C21.6,85.9,4.3,52.7,4.5,31.2c0-3.7,1.7-7,4.5-9.5L24,8.6
					c0,0,135.2,137.7,134.8,138.5S143.4,163.9,143.4,163.9z"/>
			</defs>
			<use xlink:href="#SVGID_1_"  style="overflow:visible;fill:#FFFF51;"/>
			<clipPath id="SVGID_00000049207600615769996130000001237715706840102554_">
				<use xlink:href="#SVGID_1_"  style="overflow:visible;"/>
			</clipPath>
			
				<line style="clip-path:url(#SVGID_00000049207600615769996130000001237715706840102554_);fill:#FFFF51;stroke:#39146E;stroke-linecap:round;stroke-linejoin:round;stroke-miterlimit:10;" x1="32.3" y1="9.3" x2="-31.8" y2="64.8"/>
			
				<line style="clip-path:url(#SVGID_00000049207600615769996130000001237715706840102554_);fill:#FFFF51;stroke:#39146E;stroke-linecap:round;stroke-linejoin:round;stroke-miterlimit:10;" x1="39.9" y1="16.6" x2="-24.3" y2="72.2"/>
			
				<line style="clip-path:url(#SVGID_00000049207600615769996130000001237715706840102554_);fill:#FFFF51;stroke:#39146E;stroke-linecap:round;stroke-linejoin:round;stroke-miterlimit:10;" x1="47.4" y1="24" x2="-16.8" y2="79.5"/>
			
				<line style="clip-path:url(#SVGID_00000049207600615769996130000001237715706840102554_);fill:#FFFF51;stroke:#39146E;stroke-linecap:round;stroke-linejoin:round;stroke-miterlimit:10;" x1="54.5" y1="32.9" x2="-9.6" y2="88.4"/>
			
				<line style="clip-path:url(#SVGID_00000049207600615769996130000001237715706840102554_);fill:#FFFF51;stroke:#39146E;stroke-linecap:round;stroke-linejoin:round;stroke-miterlimit:10;" x1="62.6" y1="40.5" x2="-1.5" y2="96"/>
			
				<line style="clip-path:url(#SVGID_00000049207600615769996130000001237715706840102554_);fill:#FFFF51;stroke:#39146E;stroke-linecap:round;stroke-linejoin:round;stroke-miterlimit:10;" x1="69.6" y1="48.9" x2="5.4" y2="104.5"/>
			
				<line style="clip-path:url(#SVGID_00000049207600615769996130000001237715706840102554_);fill:#FFFF51;stroke:#39146E;stroke-linecap:round;stroke-linejoin:round;stroke-miterlimit:10;" x1="77.3" y1="56.7" x2="13.1" y2="112.3"/>
			
				<line style="clip-path:url(#SVGID_00000049207600615769996130000001237715706840102554_);fill:#FFFF51;stroke:#39146E;stroke-linecap:round;stroke-linejoin:round;stroke-miterlimit:10;" x1="85.2" y1="64.6" x2="21.1" y2="120.2"/>
			
				<line style="clip-path:url(#SVGID_00000049207600615769996130000001237715706840102554_);fill:#FFFF51;stroke:#39146E;stroke-linecap:round;stroke-linejoin:round;stroke-miterlimit:10;" x1="92.6" y1="72.2" x2="28.5" y2="127.8"/>
			
				<line style="clip-path:url(#SVGID_00000049207600615769996130000001237715706840102554_);fill:#FFFF51;stroke:#39146E;stroke-linecap:round;stroke-linejoin:round;stroke-miterlimit:10;" x1="99" y1="80.4" x2="34.9" y2="136"/>
			
				<line style="clip-path:url(#SVGID_00000049207600615769996130000001237715706840102554_);fill:#FFFF51;stroke:#39146E;stroke-linecap:round;stroke-linejoin:round;stroke-miterlimit:10;" x1="105.7" y1="88.8" x2="41.6" y2="144.3"/>
			
				<line style="clip-path:url(#SVGID_00000049207600615769996130000001237715706840102554_);fill:#FFFF51;stroke:#39146E;stroke-linecap:round;stroke-linejoin:round;stroke-miterlimit:10;" x1="113" y1="96.7" x2="48.9" y2="152.2"/>
			
				<line style="clip-path:url(#SVGID_00000049207600615769996130000001237715706840102554_);fill:#FFFF51;stroke:#39146E;stroke-linecap:round;stroke-linejoin:round;stroke-miterlimit:10;" x1="119" y1="105" x2="54.9" y2="160.6"/>
			
				<line style="clip-path:url(#SVGID_00000049207600615769996130000001237715706840102554_);fill:#FFFF51;stroke:#39146E;stroke-linecap:round;stroke-linejoin:round;stroke-miterlimit:10;" x1="127.7" y1="112.9" x2="63.5" y2="168.5"/>
			
				<line style="clip-path:url(#SVGID_00000049207600615769996130000001237715706840102554_);fill:#FFFF51;stroke:#39146E;stroke-linecap:round;stroke-linejoin:round;stroke-miterlimit:10;" x1="135.6" y1="119.4" x2="71.4" y2="175"/>
			
				<line style="clip-path:url(#SVGID_00000049207600615769996130000001237715706840102554_);fill:#FFFF51;stroke:#39146E;stroke-linecap:round;stroke-linejoin:round;stroke-miterlimit:10;" x1="139.7" y1="127.3" x2="77.4" y2="185"/>
			
				<line style="clip-path:url(#SVGID_00000049207600615769996130000001237715706840102554_);fill:#FFFF51;stroke:#39146E;stroke-linecap:round;stroke-linejoin:round;stroke-miterlimit:10;" x1="148.1" y1="132.9" x2="88.5" y2="193.3"/>
			
				<line style="clip-path:url(#SVGID_00000049207600615769996130000001237715706840102554_);fill:#FFFF51;stroke:#39146E;stroke-linecap:round;stroke-linejoin:round;stroke-miterlimit:10;" x1="159.5" y1="134.8" x2="103.3" y2="198.4"/>
		</g>
		<path class="st1" d="M146.7,160.9c-2.4,2.5-5.6,4.1-9,4.4c-21.3,1.8-56.1-17.1-86.9-49.1c-29.5-30.7-46.9-64.5-46-86
			c0.1-3.1,1.5-5.9,3.7-8L22.9,9.1c0,0,135,139,134.6,139.8C157.2,149.5,150.8,156.7,146.7,160.9z"/>
		<ellipse transform="matrix(0.72 -0.6939 0.6939 0.72 -30.3127 84.3381)" class="st2" cx="89.4" cy="79.7" rx="38.3" ry="97.3"/>
		<ellipse transform="matrix(0.72 -0.6939 0.6939 0.72 -30.6925 85.0347)" class="st3" cx="90" cy="80.6" rx="33" ry="92"/>
	</g>
	<g>
		<path class="st4" d="M71.5,82c-3.8-5.2-6.7-10.1-8.6-14.6c-1.5-3.5-2.4-6.7-2.6-9.5c-0.4-4.7,1-6.8,1-6.9c0.1-0.1,0.1-0.3,0-0.4
			c0-0.1-2.5-6.1,0.1-8.6c1.6-1.5,4.2-1.6,7.8-0.3c2.7,1,4.9,2.4,5,2.4c0.1,0.1,0.2,0.1,0.3,0.1c0.1,0,5.6,1.4,12.6,4.6
			c4.1,1.9,7.8,4,11.2,6.3c4.2,2.9,8,6.2,11.1,9.8c0.4,0.4,0.8,0.9,1.1,1.3c3,3.6,5.7,7.5,7.9,11.5c1.8,3.3,3.4,6.9,4.7,10.4
			c2.2,6.3,2.7,10.7,2.7,10.7c0,0.2,0.1,0.3,0.2,0.5c0,0,1.4,2,2.3,4.4c1.2,3.2,1.1,5.7-0.3,7.3c-2.8,3.1-10.9-0.6-11-0.6
			c-0.1-0.1-0.2-0.1-0.3-0.1c-6.7,0.9-13.9-1-21.4-5.4c-6.3-3.8-12.6-9.3-18.6-16.4C74.9,86.3,73.1,84.1,71.5,82
			C71.5,82,71.5,82,71.5,82z"/>
		<path class="st5" d="M63.6,66c-1.4-3.3-2.1-6.5-2.9-9.4c-1.4-5.4-1-8.8-0.6-10c0-0.1-1.6-1.8-0.1-1.6c0.1,0,0.7-1.7,1.5-3.3
			c0.6-1.3,2.8-1.6,6.3-0.4c2.6,0.9,0,1,0.1,1c0.1,0.1,5.9,1.4,5.9,1.4c0.1,0,5.3,1.4,12,4.5c3.9,1.8,7.5,3.9,10.7,6.1
			c4.1,2.8,7.7,6,10.7,9.5c0.4,0.4,0.7,0.8,1.1,1.3c2.9,3.5,3.3,3.3,5.4,7.1c1.7,3.1,2.6,3.7,6.7,14c2.4,6.1,5,17.2,5,17.3
			c0.1,0.7,0.2-1.1,0.3-0.9c0,0-0.2-3.3,0.6-1c1.2,3.1,0.1,5.5-0.7,6.3c-2,2.1-7.1,2-7.1,1.9c0.5-0.6,0.5-1,0.4-1
			c-6.2,0.7-17.7-2.9-25.2-7.9C75.9,89,65.5,70.2,63.6,66z"/>
		<path class="st4" d="M96.8,73.3c-2.1,1-6.2-1.2-9.1-4.9c-2.9-3.7-3.4-7.3-1.3-8.2c2.1-0.9,6,1.3,8.8,4.8
			C98.1,68.5,98.9,72.3,96.8,73.3z"/>
		<path class="st4" d="M111.8,89.8c-2,1.2-6.2-1-9.3-5c-3.1-3.9-3.8-7.8-1.8-8.9c2-1,6,1.1,9,4.8C112.8,84.6,113.8,88.7,111.8,89.8z
			"/>
		<path class="st6" d="M130.3,102.9"/>
		<path class="st7" d="M98,73.7c0.8-0.6,1-1.8,0.7-3.3c-0.5-1.9-1.8-4.3-3.8-6.3c-0.9-1-1.9-1.9-2.9-2.6c-2.8-2.1-5.7-3-7.2-2
			c-0.8,0.6-1.1,1.7-0.9,3.1c0.3,1.6,1.3,3.5,2.7,5.3c0.3,0.4,0.6,0.8,1,1.2c1,1.1,2,2,3,2.7C93.6,74,96.5,74.9,98,73.7z M90.9,71
			c-0.8-0.6-1.7-1.4-2.5-2.3c-0.2-0.2-0.3-0.4-0.5-0.5c1.9,0.7,3.7,0.8,4.8-0.1c0.2-0.2,0.4-0.4,0.6-0.6c-0.3-0.2-0.7-0.5-1-0.8
			c-0.8-0.9-1.2-1.9-0.8-2.1c0.4-0.3,1.4,0.2,2.2,1.1c0.1,0.1,0.1,0.1,0.2,0.2c0.1-0.6,0-1.3-0.2-2c0.1,0.1,0.3,0.3,0.4,0.4
			c0.3,0.3,0.6,0.7,0.9,1c1.3,1.6,2.1,3.2,2.5,4.6c0.3,1.3,0.1,2.2-0.5,2.7C95.7,73.5,93.3,72.8,90.9,71z"/>
		<path class="st7" d="M112.7,90.1c0.7-0.7,0.9-2,0.5-3.6c-0.6-2.1-2.1-4.6-4.1-6.8c-0.7-0.7-1.4-1.4-2.2-2
			c-1.2-1.1-2.5-1.9-3.8-2.5c-1.9-0.9-3.5-0.9-4.4-0.2c-0.8,0.6-1,1.9-0.7,3.4c0.4,1.7,1.5,3.7,3,5.7c0.3,0.4,0.7,0.8,1,1.2
			c0.7,0.8,1.5,1.5,2.2,2.1c1.3,1.1,2.7,2,3.9,2.6C110.3,91,111.9,91,112.7,90.1z M104.7,86.8c-0.6-0.5-1.2-1.1-1.7-1.7
			c-0.2-0.2-0.3-0.4-0.5-0.6c1.9,0.7,3.7,0.7,4.8-0.3c0.2-0.2,0.4-0.4,0.5-0.6c-0.2-0.2-0.5-0.4-0.7-0.7c-0.8-1-1.2-2-0.8-2.3
			c0.4-0.3,1.2,0.2,2,1c0-0.7-0.1-1.4-0.4-2.1c0.1,0.1,0.2,0.3,0.4,0.4c0.3,0.3,0.6,0.7,0.9,1.1c1.3,1.7,2.3,3.4,2.7,4.9
			c0.4,1.4,0.2,2.4-0.4,3l0,0C110.3,90.1,107.5,89.1,104.7,86.8z"/>
		<path class="st6" d="M82.3,61.6"/>
		<path class="st7" d="M88.7,79.5c-3.9-4.9-6.1-9.9-6.3-13.9c0.5,0.4,0.9,0.8,1.3,1.3c0.3,0.4,0.5,0.7,0.7,1.1
			c-0.1-0.7-0.4-1.4-1-2.2c-1.2-1.5-3-2.4-4-1.9c-0.3,0.1-0.5,0.4-0.6,0.7c0.6-0.2,1.4-0.1,2.2,0.2c-0.3,4,1.6,9.4,5.8,14.5
			c4.5,5.5,10.3,9.4,15.3,10.5C97.6,88,92.7,84.4,88.7,79.5z"/>
		<path class="st7" d="M80.3,83.4c-2-2.7-2.9-5.4-2.6-7.3c-1.4,1.7-0.9,5,1.4,8.1c2.6,3.5,6.5,5.5,9.1,4.7
			C85.8,88.7,82.6,86.6,80.3,83.4z"/>
		<path class="st4" d="M80.1,92.5c0,0,3.4,3.1,4.3,4.8c1,1.6,0.4,2.8,0.4,2.8s1.5-0.7,0.7-2.4C84.7,96,81.9,93.5,80.1,92.5z"/>
		<path class="st4" d="M78,89.5c0,0,1.1,1.5,0.1,2.5C78.1,92.1,80.5,92,78,89.5z"/>
		<path class="st4" d="M85.4,52.5c0.4,1.2-1.4,1.3-4.1,0.6c-2.6-0.8-5-2.2-5.4-3.4c-0.4-1.2,1.5-1.3,4.1-0.5
			C82.7,49.9,85,51.3,85.4,52.5z"/>
		<path class="st4" d="M89.8,54.4c0,0.7-0.8,0.8-1.8,0.3c-1-0.6-1.9-1.6-1.9-2.3c0-0.7,0.8-0.8,1.8-0.3
			C88.9,52.6,89.8,53.7,89.8,54.4z"/>
		<path class="st7" d="M129.5,113c2.5-2.9,0.4-8-1.1-10.7c0,0,0-0.1,0-0.1s-2.2-13.2-10.6-26.6l0,0c-0.8-1.3-1.7-2.7-2.7-4
			c-1.3-1.8-2.7-3.7-4.3-5.6c-0.4-0.4-0.7-0.9-1.1-1.3C95.9,48.9,75.3,43.7,75.3,43.7S63.2,36,58.9,40.5c-2.9,2.6-0.3,9.3-0.3,9.3
			S53.8,57.7,64,75c1.5,2.7,3.4,5.5,5.6,8.7c1.6,2.2,3.3,4.4,5.3,6.8c11.1,13.2,27.5,24.8,42.5,22.8
			C117.5,113.2,126.5,116.4,129.5,113z M118.4,110.4c0.4-0.3,1-1.2,0.9-1.9c0,0,0,0,0,0c-0.2,0.1-1.9,1.2-5.1,1.3l0,0
			c-2.7,0.1-5.6-0.2-8.5-1c-3.4-0.9-6.9-2.4-10.3-4.5c-6.2-3.7-12.3-9.1-18.2-16.1c-1.9-2.2-3.6-4.4-5.2-6.5c-1.9-2.6-3.6-5.1-5-7.5
			c-1.2-2-2.1-4-2.9-5.8c-1.5-3.4-2.3-6.5-2.6-9.3c-0.2-2.4,0-4.2,0.3-5.2c0.2-0.6,0.3-1,0.4-1.3c1-1.9,3.1-3.1,2.8-3.1
			c-1.2,0-2.4,0.6-3.1,0.6c-0.2-0.6-0.3-1.3-0.5-2c-0.2-1-0.2-1.9-0.1-2.7c0.1-0.9,0.5-1.7,1-2.2c0.8-0.8,1.9-1.1,3.3-1.1
			c1.1,0,2.5,0.3,4,0.8c1.5,0.5,2.9,1.2,3.8,1.7c-1.7,0.2-2.9,1.4-2.9,1.4c4.7-0.5,8.8,0.8,11,1.4c1.8,0.7,3.8,1.5,6,2.5
			c4,1.8,7.7,3.9,11.1,6.2c4.2,2.8,7.8,6.1,10.9,9.6c0.4,0.4,0.7,0.9,1.1,1.3c1.2,1.5,2.4,3,3.5,4.6c1.3,1.9,2.5,3.9,3.6,5.9
			c1.8,3.3,3.3,6.7,4.6,10.3c1.9,5.5,2.5,9.5,2.7,10.4c0.1,1.1,0.4,2.7,0.2,5.5c0.5-0.5,1-1.4,1.4-2.1c0.3,0.6,0.7,1.4,1,2
			c1.1,3,1,5.2-0.3,6.7C125.7,112.4,121,111.7,118.4,110.4z"/>
		<g>
			<path class="st7" d="M111.8,64.3l-0.4,0.2c0,0,0,0,0,0L111.8,64.3C111.8,64.3,111.8,64.3,111.8,64.3c-10.3-12.4-24.3-18-24.3-18
				c1.1,1.9,2.4,3.8,3.7,5.5c3.4,4.3,6.5,7.4,6.5,7.4l-3-0.2c15.1,16.3,24.3,17.7,24.3,17.7C117.8,72.2,114.6,67.8,111.8,64.3z"/>
			<polygon class="st7" points="111.8,64.3 111.8,64.3 111.8,64.3 			"/>
		</g>
		<path class="st8" d="M92.5,50.4c2.2,3.3,5.7,7.2,9.5,10.9c-0.9-0.2-1.8-0.3-2.8-0.2c0,0,2.2,2.3,3.9,4c8.3,7.8,14,9.6,14,9.6
			C110.1,58.6,92.5,50.4,92.5,50.4z"/>
		<path class="st4" d="M117.1,74.7c0,0-6.5-3.8-18-13.6C99.2,61.1,108.2,71.3,117.1,74.7z"/>
		<path class="st7" d="M75.6,90.5l1.7-1.4c0.1-0.1,0.4-0.6,0.3-0.7c0,0,0,0,0-0.1c0-0.1,0.1-0.1,0-0.2c-0.1-0.2-1.4-3.8-3.5-6.9
			c-0.6-0.8-1-1.3-1.4-1.8c-1.3-1.4-2.7-1.7-4-1.5c-1.5-0.1-2.7,0.7-3.5,1.4c-0.6,0.5-1,1.3-1.1,2.1c-0.1,1,0.2,1.9,0.8,2.8
			c0.1,0.2,0.3,0.4,0.5,0.6c2.5,2.6,9.1,5.6,9.3,5.7c0.1,0.1,0.3,0.1,0.3,0l0,0c0.1,0.1,0.2,0.1,0.2,0.1
			C75.4,90.5,75.5,90.5,75.6,90.5z"/>
		<path class="st8" d="M76.6,88.3c0,0-1.9-4.6-4.2-6.9c-2.3-2.2-5.8,1-3.9,3.5c1.8,2.4,6.3,4.6,6.3,4.6L76.6,88.3z"/>
		<path class="st7" d="M87.8,97.8c-0.4-0.5-0.8-1-1.5-1.7c-1.9-1.9-4.8-4-6.1-5c0.1,0.9-0.1,1.8-0.8,2.2c-0.6,0.4-1.4,0.5-2.3,0.2
			c0.2,1.4,0.7,5.6,2.6,8c1.7,2.1,3.7,3.4,6.4,1.8C87.8,102.4,90.2,100.9,87.8,97.8z"/>
		<path class="st8" d="M79.7,92.2l-1.5,1.1c0.2,0.9,1.3,4.6,2.9,6.5c0.7,0.8,2.2,1.2,3.5,0.3c1.2-0.8,1.3-1.9,0.7-2.7
			c-0.1-0.1-0.2-0.3-0.3-0.4C83.6,95,80.5,92.8,79.7,92.2z"/>
		<path class="st7" d="M79.7,93.7c1.2-0.9,1-3.1-0.5-5c-0.7-0.9-1.6-1.6-2.6-1.9c-0.9-0.4-1.8-0.3-2.4,0.1c-1.2,0.8-1.1,2.9,0.2,4.7
			c0.1,0.1,0.1,0.2,0.2,0.3c0.7,0.9,1.7,1.6,2.6,2C78.2,94.1,79.1,94.1,79.7,93.7z"/>
		<path class="st8" d="M78.9,92.4c-0.8,0.4-2.1-0.2-3-1.3c-0.8-1.1-0.9-2.4-0.1-2.8c0.7-0.4,1.8,0.1,2.6,0.9
			c0.1,0.1,0.2,0.2,0.3,0.4C79.6,90.7,79.7,92,78.9,92.4z"/>
	</g>
</g>
</svg>
