<?xml version="1.0" encoding="utf-8"?>
<!-- Generator: Adobe Illustrator 25.4.8, SVG Export Plug-In . SVG Version: 6.00 Build 0)  -->
<svg version="1.1" id="Layer_1" xmlns="http://www.w3.org/2000/svg" xmlns:xlink="http://www.w3.org/1999/xlink" x="0px" y="0px"
	 viewBox="0 0 187.7 181.2" enable-background="new 0 0 187.7 181.2" xml:space="preserve">
<g>
	
		<circle fill="#FFFF51" stroke="#39146E" stroke-linecap="round" stroke-linejoin="round" stroke-miterlimit="10" cx="99.8" cy="93.2" r="84.9"/>
	<g>
		<defs>
			<circle id="SVGID_1_" cx="99.8" cy="93.2" r="84.9"/>
		</defs>
		<clipPath id="SVGID_00000002362584757306509810000004279265628629015730_">
			<use xlink:href="#SVGID_1_"  overflow="visible"/>
		</clipPath>
		<g clip-path="url(#SVGID_00000002362584757306509810000004279265628629015730_)">
			
				<line fill="#FFFF51" stroke="#39146E" stroke-linecap="round" stroke-linejoin="round" stroke-miterlimit="10" x1="138.5" y1="-15.5" x2="227.8" y2="14.3"/>
			
				<line fill="#FFFF51" stroke="#39146E" stroke-linecap="round" stroke-linejoin="round" stroke-miterlimit="10" x1="133.9" y1="-4.7" x2="223.2" y2="25.1"/>
			
				<line fill="#FFFF51" stroke="#39146E" stroke-linecap="round" stroke-linejoin="round" stroke-miterlimit="10" x1="129.3" y1="6" x2="218.6" y2="35.8"/>
			
				<line fill="#FFFF51" stroke="#39146E" stroke-linecap="round" stroke-linejoin="round" stroke-miterlimit="10" x1="125.7" y1="18.1" x2="215.1" y2="47.9"/>
			
				<line fill="#FFFF51" stroke="#39146E" stroke-linecap="round" stroke-linejoin="round" stroke-miterlimit="10" x1="120.7" y1="29.4" x2="210" y2="59.2"/>
			
				<line fill="#FFFF51" stroke="#39146E" stroke-linecap="round" stroke-linejoin="round" stroke-miterlimit="10" x1="117.1" y1="41" x2="206.4" y2="70.8"/>
			
				<line fill="#FFFF51" stroke="#39146E" stroke-linecap="round" stroke-linejoin="round" stroke-miterlimit="10" x1="112.5" y1="52.2" x2="201.8" y2="82"/>
			
				<line fill="#FFFF51" stroke="#39146E" stroke-linecap="round" stroke-linejoin="round" stroke-miterlimit="10" x1="107.7" y1="63.7" x2="197" y2="93.5"/>
			
				<line fill="#FFFF51" stroke="#39146E" stroke-linecap="round" stroke-linejoin="round" stroke-miterlimit="10" x1="103.3" y1="74.6" x2="192.7" y2="104.4"/>
			
				<line fill="#FFFF51" stroke="#39146E" stroke-linecap="round" stroke-linejoin="round" stroke-miterlimit="10" x1="100.2" y1="85.8" x2="189.6" y2="115.6"/>
			
				<line fill="#FFFF51" stroke="#39146E" stroke-linecap="round" stroke-linejoin="round" stroke-miterlimit="10" x1="96.9" y1="97.2" x2="186.2" y2="127"/>
			
				<line fill="#FFFF51" stroke="#39146E" stroke-linecap="round" stroke-linejoin="round" stroke-miterlimit="10" x1="92.8" y1="108.4" x2="182.1" y2="138.2"/>
			
				<line fill="#FFFF51" stroke="#39146E" stroke-linecap="round" stroke-linejoin="round" stroke-miterlimit="10" x1="90.2" y1="119.5" x2="179.5" y2="149.3"/>
			
				<line fill="#FFFF51" stroke="#39146E" stroke-linecap="round" stroke-linejoin="round" stroke-miterlimit="10" x1="84.6" y1="131.2" x2="174" y2="161"/>
			
				<line fill="#FFFF51" stroke="#39146E" stroke-linecap="round" stroke-linejoin="round" stroke-miterlimit="10" x1="79.3" y1="141.2" x2="168.6" y2="171"/>
			
				<line fill="#FFFF51" stroke="#39146E" stroke-linecap="round" stroke-linejoin="round" stroke-miterlimit="10" x1="78.4" y1="151" x2="166.7" y2="183.8"/>
			
				<line fill="#FFFF51" stroke="#39146E" stroke-linecap="round" stroke-linejoin="round" stroke-miterlimit="10" x1="72.2" y1="160.4" x2="158.9" y2="197.1"/>
			
				<line fill="#FFFF51" stroke="#39146E" stroke-linecap="round" stroke-linejoin="round" stroke-miterlimit="10" x1="61.2" y1="167.2" x2="145.8" y2="208.6"/>
		</g>
	</g>
	
		<circle fill="#44D970" stroke="#39146E" stroke-linecap="round" stroke-linejoin="round" stroke-miterlimit="10" cx="87.4" cy="87.5" r="84.9"/>
	
		<circle fill="#633BB3" stroke="#39146E" stroke-linecap="round" stroke-linejoin="round" stroke-miterlimit="10" cx="87.4" cy="87.5" r="76.3"/>
	<g>
		<path fill="#FFFFFF" d="M73.6,124.5c-6-2.6-11.2-5.9-15.3-9.7c-3.3-3-5.9-6.4-7.8-10c-3.2-6.1-3.2-10.9-3.2-10.9
			c0-0.2-0.1-0.5-0.3-0.6c-0.1-0.1-6.3-6.3-5.4-13.2c0.6-4.4,3.1-7.9,7.4-10.5c3.3-1.9,6.5-2.5,6.5-2.5c0.1,0,0.3-0.1,0.4-0.2
			c0.1-0.1,6.6-5.1,15.9-9.1c5.4-2.3,10.7-3.7,15.8-4.3c6.2-0.7,12-0.1,17.2,1.9c0.6,0.2,1.2,0.5,1.8,0.8c4.9,2.1,9.5,5.2,13.5,9.1
			c3.3,3.1,6.2,6.8,8.8,10.9c4.4,7,6.1,12.8,6.1,12.9c0.1,0.2,0.2,0.4,0.4,0.5c0,0,2.1,1.4,3.7,3.8c2.1,3.2,2.6,6.7,1.4,10.3
			c-2.3,7-11.8,10.6-11.9,10.7c-0.1,0.1-0.3,0.1-0.4,0.2c-6.6,7.7-14.4,12.6-23.1,14.5c-7.4,1.6-15.4,1-23.9-1.6
			C78.7,126.5,76,125.6,73.6,124.5C73.6,124.5,73.6,124.5,73.6,124.5z"/>
		<path fill="#FFFF51" d="M58.3,112.2c-3.2-2.9-5.6-6.5-8-9.6c-4.6-6.1-6.4-11.6-6.7-13.9c0-0.2-2.6-0.9-1.2-2.4
			c0.1-0.1-0.5-3.4-0.8-6.9c-0.2-2.9,1.7-6.2,5.9-8.6c3.2-1.8,0.7,1.5,0.7,1.5c0.1,0,6.8-5.3,6.9-5.4c0.1,0,6.3-4.8,15.2-8.3
			c5.2-2.1,10.3-3.4,15.1-3.9c6-0.6,11.6,0.1,16.6,2c0.6,0.2,1.2,0.5,1.8,0.7c4.7,2.1,5.1,1.2,9.1,4.9c3.2,3,4.3,2.8,12.6,14.1
			c4.6,6.4,10.5,19.6,10.5,19.6c0.3,0.9-0.1-1.7,0.1-1.6c0,0-1.1-4.5,0.5-2.2c2.1,3,1.5,7.6,0.8,9.5c-1.7,4.9-7.1,10.1-7.1,10
			c0.3-1.3,0.3-1.8,0.2-1.7c-6.3,7.2-18.9,14.1-28,15.5C80.8,128.8,62.2,115.8,58.3,112.2z"/>
		
			<ellipse transform="matrix(0.3992 -0.9169 0.9169 0.3992 -22.9138 127.7524)" fill="#FFFFFF" cx="86" cy="81.4" rx="7.9" ry="9.3"/>
		
			<ellipse transform="matrix(0.3992 -0.9169 0.9169 0.3992 -15.7832 152.4952)" fill="#FFFFFF" cx="108.5" cy="88.3" rx="7.9" ry="9.3"/>
		<path fill="#010002" d="M141.3,89.9"/>
		<path fill="#39146E" d="M96,84.4c0.6-1.9,0.3-4-0.7-5.9c-1.4-2.5-3.9-4.4-7-5.3c-1.5-0.4-3-0.6-4.4-0.5c-4,0.2-7.5,2.4-8.6,5.8
			c-0.6,1.9-0.3,4,0.7,5.9c1.1,2.1,3,3.7,5.4,4.8c0.5,0.2,1,0.4,1.6,0.6c1.5,0.4,3,0.6,4.4,0.5C91.5,90,94.9,87.9,96,84.4z
			 M87.3,88.9c-1.2,0-2.4-0.1-3.6-0.5c-0.3-0.1-0.5-0.2-0.7-0.2c2.3-1.1,4.1-3.2,5-5.9c0.2-0.5,0.3-1.1,0.3-1.6
			c-0.4,0.1-0.9,0-1.4-0.1c-1.3-0.4-2.1-1.5-1.8-2.4c0.3-0.9,1.6-1.3,2.8-0.9c0.1,0,0.2,0.1,0.3,0.1c-0.2-1-0.6-2-1.2-2.9
			c0.2,0,0.4,0.1,0.6,0.2c0.5,0.1,1,0.3,1.4,0.5c2.1,0.9,3.8,2.4,4.7,4.2c0.9,1.6,1.1,3.3,0.6,4.8C93.5,86.8,90.7,88.6,87.3,88.9z"
			/>
		<path fill="#39146E" d="M118.1,91.4c0.6-1.9,0.3-4-0.7-5.9c-1.4-2.5-3.9-4.4-7-5.3c-1-0.3-2.1-0.5-3.2-0.5
			c-1.8-0.1-3.5,0.1-5.1,0.8c-2.4,1-4.1,2.8-4.8,5c-0.6,1.9-0.3,4,0.7,5.9c1.1,2.1,3,3.7,5.4,4.8c0.5,0.2,1,0.4,1.6,0.6
			c1,0.3,2.1,0.5,3.2,0.5c1.8,0.1,3.5-0.1,5.1-0.8C115.7,95.4,117.4,93.6,118.1,91.4z M108.3,95.8c-0.8-0.1-1.6-0.2-2.4-0.4
			c-0.3-0.1-0.5-0.2-0.7-0.2c2.3-1.1,4.1-3.2,5-5.9c0.1-0.5,0.2-0.9,0.3-1.4c-0.3,0-0.6-0.1-1-0.2c-1.3-0.5-2-1.6-1.7-2.5
			c0.3-0.8,1.4-1.2,2.5-0.9c-0.2-1-0.6-2-1.2-2.8c0.2,0,0.4,0.1,0.5,0.1c0.5,0.1,1,0.3,1.4,0.5c2.1,0.9,3.8,2.4,4.7,4.2
			c0.9,1.6,1.1,3.3,0.6,4.8l0,0C115.5,94.1,112.1,95.9,108.3,95.8z"/>
		<path fill="#010002" d="M73.9,84.8"/>
		<path fill="#39146E" d="M88.9,103.3c-6.1-2.4-10.6-7.1-12.8-12.6c0.7,0,1.4,0.1,2,0.4c0.5,0.2,0.9,0.5,1.2,0.8
			c-0.4-0.9-1.1-1.6-2.1-2c-2-0.8-4.2,0-5,1.8c-0.2,0.6-0.3,1.2-0.2,1.8c0.5-1,1.3-1.8,2.3-2.3c1.7,6.2,6.2,11.5,12.7,14.1
			c6.8,2.7,14.2,1.6,19.7-2.3C101.4,105.3,95,105.7,88.9,103.3z"/>
		<path fill="#39146E" d="M82.4,117.5c-3.1-1.4-5.3-4-5.8-6.8c-0.5,3.7,1.5,7.4,5.1,9c4,1.7,8.6,0.3,10.7-3.3
			C89.9,118.5,86,119.1,82.4,117.5z"/>
		<path fill="#FFFFFF" d="M86.1,128.9c0,0,4.4,0.5,6,1.5c1.5,1,1.5,2.9,1.5,2.9s1.1-2.3-0.3-3.5C91.9,128.6,88.3,128.3,86.1,128.9z"
			/>
		<path fill="#FFFFFF" d="M83,127.3c0,0,1.6,0.8,1.2,2.9C84.1,130.2,86.3,127.8,83,127.3z"/>
		<path fill="#FFFFFF" d="M72.3,66.4c1.1,1.5-0.8,4.1-4,6.2c-3.2,2.1-6.4,2.9-7.5,1.4c-1.1-1.5,0.8-4.1,3.9-6.2
			C68,65.7,71.2,64.9,72.3,66.4z"/>
		<ellipse transform="matrix(0.9931 -0.1172 0.1172 0.9931 -7.04 9.2893)" fill="#FFFFFF" cx="75.5" cy="64.5" rx="2.6" ry="2.2"/>
		<path fill="#39146E" d="M142.8,104.7c2.2-6.7-1.4-11.4-3.7-13.6c0-0.1,0-0.1,0-0.1s-6-17.2-20.1-28.3l0,0c-1.4-1.2-3-2.3-4.6-3.3
			c-2.2-1.5-4.6-2.8-7.2-3.9c-0.6-0.3-1.2-0.5-1.9-0.8C81.8,45.7,56.6,65,56.6,65s-17.3,2.9-18.3,15.9c-0.9,7.5,5.7,14.5,5.7,14.5
			s0.6,16.3,19.3,28.1c2.7,1.8,5.8,3.5,9.3,5c2.4,1.1,5,2,7.9,2.9c15.5,4.9,34.9,2.9,49.4-14.1C130,117.3,140.3,112.2,142.8,104.7z
			 M130.2,112.8c0.3-0.8,0.7-2.6,0.5-3.5c0,0,0,0,0,0c-0.2,0.4-1.7,3.5-5,6.9l0,0c-2.8,2.9-5.8,5.3-8.9,7.2
			c-3.6,2.2-7.5,3.8-11.6,4.6c-7.2,1.6-15.1,1-23.5-1.6c-2.7-0.9-5.3-1.8-7.7-2.9c-3-1.3-5.7-2.7-8.2-4.3c-2.1-1.4-4-2.9-5.7-4.5
			c-3.2-2.9-5.7-6.2-7.6-9.7c-1.7-3.1-2.4-5.9-2.8-7.6c-0.2-1-0.3-1.8-0.4-2.4c-0.2-4,1.1-8.3,0.8-7.9c-1.2,1.4-1.9,3.7-2.6,4.6
			c-0.5-0.6-1.1-1.5-1.7-2.5c-0.8-1.4-1.4-2.7-1.8-4c-0.5-1.6-0.6-3.2-0.4-4.6c0.3-2.2,1.1-4.3,2.5-6c1.1-1.4,2.6-2.7,4.4-3.8
			c1.9-1.1,3.7-1.7,4.9-2.1c-1.6,2.6-2,6.1-2,6.1c4.5-6.9,9.5-10.2,12.1-11.9c2.3-1.3,4.9-2.6,7.8-3.9c5.4-2.3,10.6-3.7,15.5-4.2
			c6.1-0.7,11.7-0.1,16.8,1.9c0.6,0.2,1.2,0.5,1.8,0.7c2,0.9,4,1.9,5.9,3.1c2.2,1.5,4.3,3.2,6.4,5.1c3.2,3.1,6.1,6.6,8.6,10.6
			c3.8,6,5.6,11.2,6,12.5c0.4,1.5,1.2,3.4,1.7,7.6c0.4-1.2,0.8-3.1,1-4.6c0.5,0.5,1.1,1.1,1.6,1.8c2,2.9,2.4,6.1,1.3,9.5
			C138.5,107.8,133.3,111.9,130.2,112.8z"/>
		<g>
			<path fill="#39146E" d="M107.6,51.3l-0.4,0.8c0,0,0,0,0,0L107.6,51.3C107.6,51.3,107.6,51.3,107.6,51.3
				C89.9,43.2,71.1,53,71.1,53c2.2,2,4.7,3.5,7.1,4.6c6,2.8,11,3.9,11,3.9L85.8,65c23.8,7.3,35-2.2,35-2.2
				C117.7,56.9,112.3,53.5,107.6,51.3z"/>
			<polygon fill="#39146E" points="107.6,51.3 107.6,51.3 107.6,51.3 			"/>
		</g>
		<path fill="#44D970" d="M78.8,53.3c4.2,2.9,10.1,4.8,16,6.1c-1.1,0.9-2.2,2-3.2,3.3c0,0,3.5,1.1,6.2,1.5
			c12.6,2.1,19.9-2.3,19.9-2.3C103.1,43.2,78.8,53.3,78.8,53.3z"/>
		<path fill="#FFFFFF" d="M117.8,62c0,0-9,2.1-26.2,0.7C91.6,62.7,106.2,68.1,117.8,62z"/>
		<path fill="#39146E" d="M81.1,130.8l0.9-3.3c0-0.2,0.1-1.1,0-1.2c0,0,0,0-0.1-0.1c0-0.1,0-0.2,0-0.2c-0.1-0.2-3-3.3-6.3-5.1
			c-0.9-0.5-1.5-0.7-2.2-0.8c-1.9-0.4-3.3,0.7-4.4,2.2c-1.4,1.4-2.1,3.6-2.5,5.3c-0.3,1.2-0.2,2.5,0.1,3.5c0.4,1.3,1.1,2.1,2.1,2.5
			c0.2,0.1,0.5,0.1,0.7,0.2c3.4,0.7,10.7-2.2,10.9-2.2c0.1-0.1,0.3-0.2,0.3-0.3l0-0.1c0.1-0.1,0.2-0.1,0.2-0.1
			C81,131,81.1,130.9,81.1,130.8z"/>
		<path fill="#44D970" d="M81.2,127.2c0,0-3.8-3.8-6.9-4.3c-3.2-0.5-4.8,6.9-1.9,8.1c2.7,1.1,7.8-0.6,7.8-0.6L81.2,127.2z"/>
		<path fill="#39146E" d="M95.5,127.7c-0.5-0.2-1.2-0.4-2.1-0.6c-2.5-0.5-6.1-0.2-7.8,0c0.5,1,0.6,2.2,0.2,3.4c-0.4,1-1.1,1.9-2,2.4
			c0.7,1.5,2.9,5.8,5.6,6.8c2.3,0.8,4.7,0.4,6.6-3.9C97.2,133.2,98.9,129.1,95.5,127.7z"/>
		<path fill="#44D970" d="M85.7,128.9l-0.9,2.7c0.6,0.8,3,4.2,5.3,4.8c1,0.3,2.5-0.7,3.4-3c0.8-2.1,0.4-3.5-0.4-3.9
			c-0.1-0.1-0.3-0.1-0.4-0.2C90.4,128.5,86.7,128.8,85.7,128.9z"/>
		<path fill="#39146E" d="M86.3,130.6c0.8-2.2-0.4-4.7-2.6-5.5c-1.1-0.4-2.2-0.3-3.2,0.2c-1,0.5-1.8,1.4-2.2,2.5
			c-0.7,2.1,0.3,4.5,2.3,5.3c0.1,0,0.2,0.1,0.3,0.1c1.1,0.4,2.2,0.3,3.2-0.2C85.1,132.6,85.9,131.7,86.3,130.6z"/>
		<path fill="#44D970" d="M85,129.9c-0.5,1.3-2,1.8-3.3,1.3c-1.3-0.5-1.8-2-1.3-3.3c0.5-1.1,1.7-1.7,2.8-1.4c0.2,0,0.3,0.1,0.4,0.1
			C85,127.2,85.6,128.7,85,129.9z"/>
	</g>
	<path fill="#FFFFFF" stroke="#39146E" stroke-linecap="round" stroke-linejoin="round" stroke-miterlimit="10" d="M39.7,43.2
		c0,0,7.6-12.1,17.7-14.9s12,6.3,4.3,10.1c-7.6,3.8-15.5,9.5-18.5,12.6C40.2,54.3,33.9,48.1,39.7,43.2z"/>
	
		<circle fill="#FFFFFF" stroke="#39146E" stroke-linecap="round" stroke-linejoin="round" stroke-miterlimit="10" cx="31.4" cy="60.1" r="5.8"/>
</g>
</svg>
