<?xml version="1.0" encoding="utf-8"?>
<!-- Generator: Adobe Illustrator 25.4.8, SVG Export Plug-In . SVG Version: 6.00 Build 0)  -->
<svg version="1.1" id="Layer_1" xmlns="http://www.w3.org/2000/svg" xmlns:xlink="http://www.w3.org/1999/xlink" x="0px" y="0px"
	 viewBox="0 0 187.7 181.2" style="enable-background:new 0 0 187.7 181.2;" xml:space="preserve">
<style type="text/css">
	
		.st0{clip-path:url(#SVGID_00000147201113876480551030000006295836471394664112_);fill:#FFFF51;stroke:#39146E;stroke-linecap:round;stroke-linejoin:round;stroke-miterlimit:10;}
	.st1{fill:none;stroke:#39146E;stroke-linecap:round;stroke-linejoin:round;stroke-miterlimit:10;}
	.st2{fill:#633BB3;stroke:#39146E;stroke-linecap:round;stroke-linejoin:round;stroke-miterlimit:10;}
	.st3{fill:#44D970;stroke:#39146E;stroke-linecap:round;stroke-linejoin:round;stroke-miterlimit:10;}
	.st4{fill:#39146E;}
</style>
<g>
	<g>
		<g>
			<defs>
				<path id="SVGID_1_" d="M181.3,45.2c3,21.1-22.6,55.9-62.9,83.3c-34.5,23.5-70.1,34.9-91.3,31c-3.7-0.7-6.6-2.9-8.6-6L8.1,136.4
					c0,0,158.5-109.8,159.3-109.3S181.3,45.2,181.3,45.2z"/>
			</defs>
			<use xlink:href="#SVGID_1_"  style="overflow:visible;fill:#FFFF51;"/>
			<clipPath id="SVGID_00000170272017928693155550000011141856360558832548_">
				<use xlink:href="#SVGID_1_"  style="overflow:visible;"/>
			</clipPath>
			
				<line style="clip-path:url(#SVGID_00000170272017928693155550000011141856360558832548_);fill:#FFFF51;stroke:#39146E;stroke-linecap:round;stroke-linejoin:round;stroke-miterlimit:10;" x1="10.2" y1="128.3" x2="54.1" y2="200.9"/>
			
				<line style="clip-path:url(#SVGID_00000170272017928693155550000011141856360558832548_);fill:#FFFF51;stroke:#39146E;stroke-linecap:round;stroke-linejoin:round;stroke-miterlimit:10;" x1="18.7" y1="122.2" x2="62.6" y2="194.8"/>
			
				<line style="clip-path:url(#SVGID_00000170272017928693155550000011141856360558832548_);fill:#FFFF51;stroke:#39146E;stroke-linecap:round;stroke-linejoin:round;stroke-miterlimit:10;" x1="27.2" y1="116" x2="71.1" y2="188.6"/>
			
				<line style="clip-path:url(#SVGID_00000170272017928693155550000011141856360558832548_);fill:#FFFF51;stroke:#39146E;stroke-linecap:round;stroke-linejoin:round;stroke-miterlimit:10;" x1="37.2" y1="110.5" x2="81" y2="183.1"/>
			
				<line style="clip-path:url(#SVGID_00000170272017928693155550000011141856360558832548_);fill:#FFFF51;stroke:#39146E;stroke-linecap:round;stroke-linejoin:round;stroke-miterlimit:10;" x1="46" y1="103.8" x2="89.9" y2="176.4"/>
			
				<line style="clip-path:url(#SVGID_00000170272017928693155550000011141856360558832548_);fill:#FFFF51;stroke:#39146E;stroke-linecap:round;stroke-linejoin:round;stroke-miterlimit:10;" x1="55.6" y1="98.4" x2="99.4" y2="171"/>
			
				<line style="clip-path:url(#SVGID_00000170272017928693155550000011141856360558832548_);fill:#FFFF51;stroke:#39146E;stroke-linecap:round;stroke-linejoin:round;stroke-miterlimit:10;" x1="64.5" y1="92.1" x2="108.4" y2="164.7"/>
			
				<line style="clip-path:url(#SVGID_00000170272017928693155550000011141856360558832548_);fill:#FFFF51;stroke:#39146E;stroke-linecap:round;stroke-linejoin:round;stroke-miterlimit:10;" x1="73.6" y1="85.6" x2="117.5" y2="158.2"/>
			
				<line style="clip-path:url(#SVGID_00000170272017928693155550000011141856360558832548_);fill:#FFFF51;stroke:#39146E;stroke-linecap:round;stroke-linejoin:round;stroke-miterlimit:10;" x1="82.4" y1="79.7" x2="126.2" y2="152.2"/>
			
				<line style="clip-path:url(#SVGID_00000170272017928693155550000011141856360558832548_);fill:#FFFF51;stroke:#39146E;stroke-linecap:round;stroke-linejoin:round;stroke-miterlimit:10;" x1="91.5" y1="74.7" x2="135.4" y2="147.3"/>
			
				<line style="clip-path:url(#SVGID_00000170272017928693155550000011141856360558832548_);fill:#FFFF51;stroke:#39146E;stroke-linecap:round;stroke-linejoin:round;stroke-miterlimit:10;" x1="100.9" y1="69.5" x2="144.8" y2="142.1"/>
			
				<line style="clip-path:url(#SVGID_00000170272017928693155550000011141856360558832548_);fill:#FFFF51;stroke:#39146E;stroke-linecap:round;stroke-linejoin:round;stroke-miterlimit:10;" x1="109.9" y1="63.7" x2="153.8" y2="136.3"/>
			
				<line style="clip-path:url(#SVGID_00000170272017928693155550000011141856360558832548_);fill:#FFFF51;stroke:#39146E;stroke-linecap:round;stroke-linejoin:round;stroke-miterlimit:10;" x1="119.2" y1="59.2" x2="163" y2="131.8"/>
			
				<line style="clip-path:url(#SVGID_00000170272017928693155550000011141856360558832548_);fill:#FFFF51;stroke:#39146E;stroke-linecap:round;stroke-linejoin:round;stroke-miterlimit:10;" x1="128.4" y1="52" x2="172.2" y2="124.6"/>
			
				<line style="clip-path:url(#SVGID_00000170272017928693155550000011141856360558832548_);fill:#FFFF51;stroke:#39146E;stroke-linecap:round;stroke-linejoin:round;stroke-miterlimit:10;" x1="136.1" y1="45.3" x2="180" y2="117.9"/>
			
				<line style="clip-path:url(#SVGID_00000170272017928693155550000011141856360558832548_);fill:#FFFF51;stroke:#39146E;stroke-linecap:round;stroke-linejoin:round;stroke-miterlimit:10;" x1="144.6" y1="42.6" x2="190.8" y2="113.7"/>
			
				<line style="clip-path:url(#SVGID_00000170272017928693155550000011141856360558832548_);fill:#FFFF51;stroke:#39146E;stroke-linecap:round;stroke-linejoin:round;stroke-miterlimit:10;" x1="151.6" y1="35.3" x2="201" y2="104.2"/>
			
				<line style="clip-path:url(#SVGID_00000170272017928693155550000011141856360558832548_);fill:#FFFF51;stroke:#39146E;stroke-linecap:round;stroke-linejoin:round;stroke-miterlimit:10;" x1="155.3" y1="24.3" x2="208.5" y2="90.4"/>
		</g>
		<path class="st1" d="M178.9,41.4c2,2.8,3.1,6.2,2.8,9.6c-1.9,21.3-26.3,52.3-63,77.2c-35.2,23.9-71.5,35.3-92.4,30.8
			c-3-0.6-5.6-2.4-7.3-5L8.4,137.6c0,0,159.7-109.4,160.5-108.9C169.4,29.1,175.4,36.7,178.9,41.4z"/>
		
			<ellipse transform="matrix(0.8272 -0.5619 0.5619 0.8272 -31.8469 64.6746)" class="st2" cx="89.2" cy="84.1" rx="97.2" ry="38.3"/>
		<ellipse transform="matrix(0.8272 -0.5619 0.5619 0.8272 -31.3931 65.1013)" class="st3" cx="90.2" cy="83.6" rx="92" ry="33"/>
	</g>
	<g>
		<path class="st4" d="M88,81.2c1.2-0.2,2.4-0.4,3.6-0.6c4.2-0.7,8.4-1.2,12.1-0.8c3.4,0.3,6.1,1.4,7.5,3.5c0.1,0.2,0.2,0.4,0.3,0.6
			c0.8,1.9-0.5,4.2-3.5,6.3c-2.7,1.8-5.6,3.3-8.4,4.7c-8.5,4.3-16.9,8.4-25,12.5c-0.5,0.3-1.1,0.6-1.6,0.9c-2,1.3-2.4,3-0.7,3.4
			c1.3,0.3,2.9,0.3,4.5,0c1.9-0.3,3.9-0.8,5.9-1.4c1.4-0.5,2.6-0.2,2.7,0.7c0.1,0.5-0.2,0.8-0.9,1c-2.4,0.7-4.8,1.4-7.2,1.9
			c-2.8,0.6-5.3,0.7-7.6,0.5c-1.8-0.2-3.2-0.8-4.1-2c-1.6-2.1-0.3-5.1,3.3-7.7c2.5-1.8,5.3-3.2,8-4.6c7.3-3.6,14.7-7.3,22.3-11
			c1.2-0.6,2.4-1.3,3.6-2c2.4-1.3,3.2-3.1,1.7-4c-0.9-0.5-2-0.8-3.1-1c-2.6-0.5-5.6-0.2-8.7,0.4c-7.2,1.3-14.3,4.1-21.2,8
			c-6.1,3.4-12.1,6.7-17.9,10c-1.7,1-2.4,1-3.3,0.3c-0.6-0.5-1.3-0.9-1.9-1.4c-0.8-0.6-0.6-0.9,0.8-1.7c7.3-4.1,14.7-8.3,22.3-12.6
			c8-4.5,16.2-9.2,24.6-14c0.4-0.2,0.8-0.4,1.2-0.7c0.3-0.2,0.6-0.5,0.7-0.7c0.1-0.2-0.1-0.4-0.4-0.4c-2.5-0.5-4.9-0.9-7.4-1.4
			c-1-0.2-1-0.7-0.1-1.7c0.3-0.4,0.6-0.7,0.9-1.1c0.8-1.1,1.5-1.4,2.6-1.2c2,0.4,4,0.8,6,1.2c1.2,0.2,2.4,0.5,3.6,0.7
			c1.2,0.3,2.5,0,4.1-1c2.8-1.6,5.6-3.2,8.4-4.8c0.6-0.3,1.1-0.7,1.7-1.1c1.2-0.9,1.6-1.7,1.1-2.3c-0.3-0.3-0.6-0.6-1-0.9
			c-0.5-0.3-1-0.6-1.4-0.9c-0.5-0.3-0.4-0.6,0.3-1.2c1-0.8,1.9-1.1,2.6-0.8c1.9,0.8,3.7,1.7,5.8,2.4c1.5,0.5,3.2,0.8,4.9,1.2
			c0.2,0.1,0.5,0.1,0.7,0.1c0.7,0.2,0.5,0.9-0.5,1.5c-5,2.8-10,5.6-14.9,8.3c-0.2,0.1-0.4,0.2-0.5,0.3c-0.3,0.2-0.8,0.5-0.8,0.6
			c-0.1,0.2,0.2,0.4,0.4,0.5c1,0.2,2,0.4,3.1,0.6c3.1,0.6,6.2,1.1,9.3,1.7c1.4,0.2,1.5,0.7,0.4,2.1c-0.3,0.4-0.6,0.8-1,1.2
			c-0.9,0.9-1.7,1.3-2.7,1.1c-1.3-0.2-2.5-0.5-3.7-0.7c-3.8-0.8-7.6-1.5-11.3-2.3c-1.1-0.2-2.2,0-3.6,0.8c-5.4,3-10.7,6-15.9,8.9
			C88.3,81,88.1,81.1,88,81.2C88,81.2,88,81.2,88,81.2z"/>
	</g>
</g>
</svg>
