<?xml version="1.0" encoding="utf-8"?>
<!-- Generator: Adobe Illustrator 25.4.8, SVG Export Plug-In . SVG Version: 6.00 Build 0)  -->
<svg version="1.1" id="Layer_1" xmlns="http://www.w3.org/2000/svg" xmlns:xlink="http://www.w3.org/1999/xlink" x="0px" y="0px"
	 viewBox="0 0 187.7 181.2" style="enable-background:new 0 0 187.7 181.2;" xml:space="preserve">
<style type="text/css">
	
		.st0{clip-path:url(#SVGID_00000058587470365815887310000017915544086506132364_);fill:#FFFF51;stroke:#39146E;stroke-linecap:round;stroke-linejoin:round;stroke-miterlimit:10;}
	.st1{fill:none;stroke:#39146E;stroke-linecap:round;stroke-linejoin:round;stroke-miterlimit:10;}
	.st2{fill:#44D970;stroke:#39146E;stroke-linecap:round;stroke-linejoin:round;stroke-miterlimit:10;}
	.st3{fill:#633BB3;stroke:#39146E;stroke-linecap:round;stroke-linejoin:round;stroke-miterlimit:10;}
	.st4{fill:#FFFFFF;}
	.st5{fill:#FFFF51;}
	.st6{fill:#010002;}
	.st7{fill:#39146E;}
	.st8{fill:#44D970;}
</style>
<g>
	<g>
		<g>
			<defs>
				<path id="SVGID_1_" d="M32.3,168.2c20.2,6.9,59.2-11.6,93.7-46.1c29.6-29.5,47.5-62.3,47.7-83.8c0-3.7-1.6-7-4.3-9.6l-14.8-13.4
					c0,0-137.9,135-137.5,135.9C17.6,152,32.3,168.2,32.3,168.2z"/>
			</defs>
			<use xlink:href="#SVGID_1_"  style="overflow:visible;fill:#FFFF51;"/>
			<clipPath id="SVGID_00000124879038058232113310000005637575254368819897_">
				<use xlink:href="#SVGID_1_"  style="overflow:visible;"/>
			</clipPath>
			
				<line style="clip-path:url(#SVGID_00000124879038058232113310000005637575254368819897_);fill:#FFFF51;stroke:#39146E;stroke-linecap:round;stroke-linejoin:round;stroke-miterlimit:10;" x1="146.4" y1="15.8" x2="209.4" y2="72.7"/>
			
				<line style="clip-path:url(#SVGID_00000124879038058232113310000005637575254368819897_);fill:#FFFF51;stroke:#39146E;stroke-linecap:round;stroke-linejoin:round;stroke-miterlimit:10;" x1="138.7" y1="23" x2="201.7" y2="79.9"/>
			
				<line style="clip-path:url(#SVGID_00000124879038058232113310000005637575254368819897_);fill:#FFFF51;stroke:#39146E;stroke-linecap:round;stroke-linejoin:round;stroke-miterlimit:10;" x1="131" y1="30.2" x2="194.1" y2="87.1"/>
			
				<line style="clip-path:url(#SVGID_00000124879038058232113310000005637575254368819897_);fill:#FFFF51;stroke:#39146E;stroke-linecap:round;stroke-linejoin:round;stroke-miterlimit:10;" x1="123.7" y1="39" x2="186.8" y2="95.8"/>
			
				<line style="clip-path:url(#SVGID_00000124879038058232113310000005637575254368819897_);fill:#FFFF51;stroke:#39146E;stroke-linecap:round;stroke-linejoin:round;stroke-miterlimit:10;" x1="115.5" y1="46.4" x2="178.5" y2="103.3"/>
			
				<line style="clip-path:url(#SVGID_00000124879038058232113310000005637575254368819897_);fill:#FFFF51;stroke:#39146E;stroke-linecap:round;stroke-linejoin:round;stroke-miterlimit:10;" x1="108.3" y1="54.8" x2="171.4" y2="111.6"/>
			
				<line style="clip-path:url(#SVGID_00000124879038058232113310000005637575254368819897_);fill:#FFFF51;stroke:#39146E;stroke-linecap:round;stroke-linejoin:round;stroke-miterlimit:10;" x1="100.5" y1="62.4" x2="163.5" y2="119.2"/>
			
				<line style="clip-path:url(#SVGID_00000124879038058232113310000005637575254368819897_);fill:#FFFF51;stroke:#39146E;stroke-linecap:round;stroke-linejoin:round;stroke-miterlimit:10;" x1="92.4" y1="70.1" x2="155.4" y2="126.9"/>
			
				<line style="clip-path:url(#SVGID_00000124879038058232113310000005637575254368819897_);fill:#FFFF51;stroke:#39146E;stroke-linecap:round;stroke-linejoin:round;stroke-miterlimit:10;" x1="84.9" y1="77.6" x2="147.9" y2="134.4"/>
			
				<line style="clip-path:url(#SVGID_00000124879038058232113310000005637575254368819897_);fill:#FFFF51;stroke:#39146E;stroke-linecap:round;stroke-linejoin:round;stroke-miterlimit:10;" x1="78.3" y1="85.7" x2="141.3" y2="142.5"/>
			
				<line style="clip-path:url(#SVGID_00000124879038058232113310000005637575254368819897_);fill:#FFFF51;stroke:#39146E;stroke-linecap:round;stroke-linejoin:round;stroke-miterlimit:10;" x1="71.4" y1="93.9" x2="134.4" y2="150.7"/>
			
				<line style="clip-path:url(#SVGID_00000124879038058232113310000005637575254368819897_);fill:#FFFF51;stroke:#39146E;stroke-linecap:round;stroke-linejoin:round;stroke-miterlimit:10;" x1="64" y1="101.6" x2="127" y2="158.4"/>
			
				<line style="clip-path:url(#SVGID_00000124879038058232113310000005637575254368819897_);fill:#FFFF51;stroke:#39146E;stroke-linecap:round;stroke-linejoin:round;stroke-miterlimit:10;" x1="57.8" y1="109.8" x2="120.8" y2="166.7"/>
			
				<line style="clip-path:url(#SVGID_00000124879038058232113310000005637575254368819897_);fill:#FFFF51;stroke:#39146E;stroke-linecap:round;stroke-linejoin:round;stroke-miterlimit:10;" x1="49" y1="117.6" x2="112" y2="174.4"/>
			
				<line style="clip-path:url(#SVGID_00000124879038058232113310000005637575254368819897_);fill:#FFFF51;stroke:#39146E;stroke-linecap:round;stroke-linejoin:round;stroke-miterlimit:10;" x1="41" y1="123.9" x2="104" y2="180.7"/>
			
				<line style="clip-path:url(#SVGID_00000124879038058232113310000005637575254368819897_);fill:#FFFF51;stroke:#39146E;stroke-linecap:round;stroke-linejoin:round;stroke-miterlimit:10;" x1="36.7" y1="131.7" x2="97.8" y2="190.6"/>
			
				<line style="clip-path:url(#SVGID_00000124879038058232113310000005637575254368819897_);fill:#FFFF51;stroke:#39146E;stroke-linecap:round;stroke-linejoin:round;stroke-miterlimit:10;" x1="28.2" y1="137.2" x2="86.6" y2="198.7"/>
			
				<line style="clip-path:url(#SVGID_00000124879038058232113310000005637575254368819897_);fill:#FFFF51;stroke:#39146E;stroke-linecap:round;stroke-linejoin:round;stroke-miterlimit:10;" x1="16.7" y1="138.8" x2="71.6" y2="203.5"/>
		</g>
		<path class="st1" d="M29,165.2c2.3,2.5,5.5,4.2,9,4.5c21.3,2.2,56.4-16,87.8-47.3c30.1-30.1,48.2-63.6,47.7-85
			c-0.1-3.1-1.3-6-3.6-8.1l-14.1-13.5c0,0-137.7,136.3-137.3,137.1C18.7,153.5,25,160.9,29,165.2z"/>
		<ellipse transform="matrix(0.7081 -0.7061 0.7061 0.7081 -34.4579 86.9674)" class="st2" cx="88" cy="85.2" rx="97.3" ry="38.3"/>
		<ellipse transform="matrix(0.7081 -0.7061 0.7061 0.7081 -35.228 86.7157)" class="st3" cx="87.3" cy="86" rx="92" ry="33"/>
	</g>
	<g>
		<path class="st4" d="M92.3,104.9c-5.9,4.6-11.5,8-16.5,10.3c-3.9,1.8-7.4,2.8-10.5,3.1c-5,0.5-7-1.3-7-1.3c-0.1-0.1-0.3-0.1-0.4,0
			c-0.1,0-6.7,2.9-8.7-0.2c-1.2-1.9-0.8-5,1.1-9.1c1.4-3,3.2-5.5,3.2-5.6c0.1-0.1,0.1-0.2,0.2-0.3c0-0.1,2.2-6.1,6.4-13.6
			c2.4-4.2,4.9-8.1,7.5-11.6c3.2-4.3,6.8-8,10.5-11.1c0.4-0.4,0.9-0.7,1.3-1.1c3.6-3,7.5-5.6,11.5-7.9c3.3-1.9,6.7-3.5,10.2-4.9
			c6.2-2.4,10.4-3.1,10.4-3.2c0.1,0,0.3-0.1,0.5-0.2c0,0,2-1.3,4.4-2.3c3.2-1.3,5.6-1.4,7.2-0.3c3.2,2.3-0.3,10-0.4,10.1
			c-0.1,0.1-0.1,0.2-0.1,0.3c1.1,6.4-0.7,13.7-5.4,21.6c-4.1,6.9-10.2,14-18.1,20.9C97.3,101,94.8,103,92.3,104.9
			C92.3,104.9,92.3,104.9,92.3,104.9z"/>
		<path class="st5" d="M74.4,114.3c-3.7,1.7-7.2,2.5-10.3,3.4c-5.9,1.7-9.3,1.1-10.4,0.5c-0.1-0.1-2.1,1.8-1.7,0.1
			c0-0.1-1.6-0.8-3-1.8c-1.2-0.8-1.1-3.4,0.8-7.3c1.4-2.9,0.9,0,1-0.1c0.1-0.1,2.4-6.6,2.5-6.7c0-0.1,2.2-5.8,6.3-13
			c2.3-4,4.8-7.8,7.3-11.1c3.2-4.1,6.6-7.7,10.2-10.8c0.4-0.4,0.9-0.7,1.3-1.1c3.5-2.9,3.4-3.2,7.2-5.4c3.1-1.8,3.7-2.6,13.7-7
			c6-2.6,16.9-5.6,16.9-5.6c0.7-0.1-1.1-0.1-0.9-0.2c0,0-3.3,0.4-1-0.5c3-1.3,5.5-0.4,6.2,0.2c2.1,1.7,2.1,6.4,2.1,6.4
			c-0.6-0.4-1-0.4-1-0.3c0.8,5.8-2.8,17.4-8.1,25.5C100.2,99.7,79.1,112.1,74.4,114.3z"/>
		<path class="st4" d="M85.2,77.4c0.9,2.1-1.7,6.4-5.7,9.6c-4,3.2-7.7,3.8-8.3,1.6c-0.6-2.2,1.9-6.3,5.7-9.3
			C80.6,76.3,84.3,75.4,85.2,77.4z"/>
		<path class="st4" d="M102.4,62c1.1,1.8-1.2,6-5.3,9.3c-4.1,3.2-8.1,4.2-9,2.2c-0.9-1.9,1.5-5.9,5.3-9
			C97.3,61.3,101.3,60.2,102.4,62z"/>
		<path class="st6" d="M115.6,44.3"/>
		<path class="st7" d="M85.7,76.3c-0.6-0.8-1.7-1-3.2-0.5c-1.9,0.5-4.3,2-6.6,4c-1.1,1-2,2-2.9,3.1c-2.4,3-3.6,6-2.8,7.5
			c0.4,0.9,1.5,1.2,3,0.9c1.6-0.4,3.6-1.4,5.6-3c0.4-0.3,0.8-0.7,1.3-1.1c1.2-1,2.2-2.2,3-3.3C85.6,80.8,86.7,77.7,85.7,76.3z
			 M82.4,83.7c-0.7,0.9-1.6,1.8-2.5,2.6c-0.2,0.2-0.4,0.4-0.6,0.5c0.9-2,1.1-3.8,0.4-5c-0.1-0.2-0.3-0.4-0.5-0.6
			c-0.2,0.3-0.6,0.7-0.9,1c-1,0.9-2,1.3-2.2,0.9c-0.2-0.4,0.4-1.4,1.3-2.3c0.1-0.1,0.1-0.1,0.2-0.2c-0.6,0-1.3,0.1-2,0.3
			c0.1-0.1,0.3-0.3,0.4-0.4c0.4-0.3,0.7-0.6,1.1-0.9c1.7-1.3,3.3-2.3,4.7-2.7c1.3-0.3,2.2-0.2,2.6,0.5
			C85.3,78.6,84.4,81.1,82.4,83.7z"/>
		<path class="st7" d="M102.8,61.1c-0.7-0.7-2-0.7-3.6-0.2c-2.1,0.7-4.6,2.2-6.8,4.3c-0.8,0.7-1.5,1.4-2.1,2.2
			c-1.1,1.3-2,2.5-2.7,3.8c-1,1.9-1.2,3.5-0.5,4.3c0.6,0.8,1.8,1,3.4,0.5c1.8-0.5,3.8-1.6,5.9-3.2c0.4-0.3,0.9-0.7,1.3-1.1
			c0.8-0.7,1.6-1.5,2.3-2.3c1.2-1.3,2.1-2.7,2.7-4C103.5,63.4,103.6,61.9,102.8,61.1z M99.2,69c-0.5,0.6-1.1,1.2-1.7,1.8
			c-0.2,0.2-0.4,0.4-0.6,0.5c0.8-1.9,0.9-3.6-0.1-4.7c-0.2-0.2-0.3-0.3-0.5-0.4c-0.2,0.2-0.4,0.5-0.7,0.7c-1,0.9-2,1.2-2.3,0.9
			c-0.2-0.3,0.2-1.2,1.1-2c-0.7,0-1.4,0.2-2.1,0.4c0.1-0.1,0.3-0.2,0.4-0.4c0.4-0.3,0.7-0.6,1.1-0.9c1.7-1.4,3.4-2.4,5-2.8
			c1.4-0.4,2.4-0.4,2.9,0.2l0,0C102.6,63.4,101.6,66.2,99.2,69z"/>
		<path class="st6" d="M72,93"/>
		<path class="st7" d="M90.8,85.7c-5.3,4.4-10.6,6.8-14.7,7.1c0.4-0.5,0.9-1,1.5-1.5c0.4-0.3,0.8-0.6,1.2-0.8
			c-0.7,0.1-1.5,0.5-2.3,1.2C74.8,93,73.7,95,74,96c0.1,0.3,0.3,0.6,0.7,0.7c-0.2-0.7,0-1.5,0.5-2.4c4.1,0.3,9.7-2,15.4-6.6
			c6-4.9,10.2-11.1,11.6-16.3C100.1,76.1,96.1,81.3,90.8,85.7z"/>
		<path class="st7" d="M94.5,94.8c-3,2.3-6,3.4-7.9,3c1.7,1.6,5.2,1,8.7-1.8c3.9-3,6.1-7.4,5.4-10.2C100.3,88.6,97.9,92.1,94.5,94.8
			z"/>
		<path class="st4" d="M104.2,94.9c0,0,3.5-3.9,5.3-5c1.8-1.1,3.1-0.6,3.1-0.6s-0.8-1.7-2.6-0.7C108.1,89.6,105.3,92.8,104.2,94.9z"
			/>
		<path class="st4" d="M100.9,97.3c0,0,1.7-1.2,2.8-0.2C103.7,97.1,103.6,94.4,100.9,97.3z"/>
		<path class="st4" d="M63.5,89.8c1.3-0.5,1.1,1.5,0,4.3c-1.1,2.9-2.9,5.5-4.1,5.9c-1.3,0.4-1.1-1.7,0.1-4.5
			C60.6,92.8,62.3,90.3,63.5,89.8z"/>
		<path class="st4" d="M65.9,85.3c0.7,0,0.7,0.8,0,1.9c-0.7,1.1-1.8,2-2.5,2c-0.7,0-0.7-0.8,0-1.9C64.1,86.2,65.2,85.3,65.9,85.3z"
			/>
		<path class="st7" d="M125.6,44.2c-3-2-7.9,0.2-10.6,1.7c0,0-0.1,0-0.1,0S102.1,48.8,89,57.2l0,0c-1.3,0.8-2.6,1.7-4,2.7
			c-1.8,1.3-3.7,2.7-5.6,4.2c-0.4,0.4-0.9,0.7-1.4,1.1c-16.5,14-24.5,35.6-24.5,35.6s-9.9,13.8-6.2,18.9c2.1,3.5,9.4,0.6,9.4,0.6
			s7.5,6,27.5-6.3c3-1.8,6.3-4,9.9-6.8c2.5-1.9,5-4,7.7-6.4c14.8-12.9,27-30.9,24.3-45.6C126.1,55.2,129.1,46.6,125.6,44.2z
			 M123.2,54.6c-0.3-0.3-1.3-0.8-2-0.8c0,0,0,0,0,0c0.1,0.2,1.2,1.7,1.5,4.7l0,0c0.2,2.6-0.1,5.4-0.9,8.4c-0.9,3.5-2.5,7.1-4.7,10.8
			c-4,6.8-10,13.7-17.7,20.5c-2.5,2.2-5,4.3-7.4,6.1c-2.9,2.2-5.7,4.2-8.5,5.9c-2.3,1.4-4.5,2.5-6.5,3.5c-3.8,1.7-7.2,2.8-10.2,3.1
			c-2.6,0.3-4.4-0.1-5.4-0.4c-0.6-0.2-1-0.4-1.3-0.5c-1.7-1.3-2.6-3.8-2.7-3.4c-0.2,1.4,0.2,2.8,0.1,3.7c-0.6,0.2-1.3,0.4-2.1,0.5
			c-1.1,0.2-2,0.2-2.8,0.1c-0.9-0.2-1.6-0.6-2-1.2c-0.6-1-0.8-2.3-0.5-3.9c0.2-1.3,0.7-2.8,1.5-4.5c0.8-1.7,1.7-3.3,2.3-4.3
			c-0.1,2,0.9,3.2,0.9,3.2c0.3-5.3,2.2-9.8,3.2-12.1c0.9-1.9,2-4.1,3.3-6.4c2.3-4.2,4.8-8,7.4-11.4c3.2-4.2,6.6-7.8,10.2-10.9
			c0.4-0.4,0.9-0.7,1.3-1.1c1.5-1.2,3.1-2.4,4.6-3.5c1.9-1.3,3.8-2.5,5.8-3.7c3.2-1.8,6.6-3.4,10-4.8c5.3-2.1,9.2-2.9,10.2-3.1
			c1.1-0.2,2.6-0.5,5.4-0.6c-0.5-0.4-1.4-0.8-2.1-1.1c0.6-0.3,1.3-0.7,2-1c2.9-1.2,5.2-1.3,6.6-0.2C125,47.7,124.5,52.1,123.2,54.6z
			"/>
		<g>
			<path class="st7" d="M77.9,63.3l0.1,0.3c0,0,0,0,0,0L77.9,63.3C77.9,63.3,77.9,63.3,77.9,63.3C65.1,73.6,57.9,87.8,57.9,87.8
				c2-1.1,4-2.5,5.8-4c4.6-3.6,7.9-6.8,7.9-6.8L71,80c17.1-15.4,19.1-24,19.1-24C85.8,57.4,81.4,60.5,77.9,63.3z"/>
			<polygon class="st7" points="77.9,63.3 77.9,63.3 77.9,63.3 			"/>
		</g>
		<path class="st8" d="M62.5,82.6c3.5-2.3,7.6-6,11.5-9.8c-0.3,0.9-0.5,1.8-0.5,2.7c0,0,2.5-2.2,4.2-4C85.9,63.3,88,57.9,88,57.9
			C72.3,65.2,62.5,82.6,62.5,82.6z"/>
		<path class="st4" d="M88,57.9c0,0-4.1,6.2-14.5,17.7C73.5,75.6,84.2,66.4,88,57.9z"/>
		<path class="st7" d="M101.8,100.1l-1.5-1.9c-0.1-0.1-0.6-0.4-0.8-0.4c0,0-0.1,0-0.1,0.1c-0.1,0-0.1-0.1-0.2,0
			c-0.2,0.1-4.2,1.6-7.7,4.1c-0.9,0.7-1.5,1.1-2,1.7c-1.6,1.5-2,3.2-1.9,4.8c-0.2,1.8,0.6,3.3,1.3,4.2c0.6,0.7,1.3,1.2,2.2,1.3
			c1.1,0.2,2.2-0.2,3.2-1c0.2-0.2,0.4-0.4,0.6-0.6c3.1-3,6.6-11,6.7-11.2c0.1-0.2,0.1-0.3,0-0.4l0,0c0.1-0.1,0.1-0.2,0.1-0.2
			C101.9,100.3,101.9,100.2,101.8,100.1z"/>
		<path class="st8" d="M99.5,98.9c0,0-5.1,2.2-7.7,4.9c-2.6,2.7,0.7,6.9,3.6,4.6c2.8-2.2,5.4-7.5,5.4-7.5L99.5,98.9z"/>
		<path class="st7" d="M110.1,86.1c-0.5,0.4-1.1,0.9-1.8,1.7c-2.1,2.1-4.5,5.4-5.5,7c1-0.2,1.9,0.1,2.4,0.8c0.4,0.6,0.5,1.6,0.1,2.6
			c1.6-0.2,6.3-0.9,9-3.1c2.3-1.9,3.7-4.3,2-7.3C115.1,86,113.5,83.5,110.1,86.1z"/>
		<path class="st8" d="M103.9,95.3l1.2,1.7c1-0.3,5.1-1.5,7.3-3.5c0.9-0.8,1.3-2.5,0.3-4c-0.9-1.3-2.1-1.3-3-0.8
			c-0.1,0.1-0.3,0.2-0.4,0.3C107,90.9,104.6,94.4,103.9,95.3z"/>
		<path class="st7" d="M105.4,95.3c-0.9-1.4-3.4-1.1-5.4,0.7c-1,0.8-1.8,1.9-2.2,3c-0.4,1.1-0.4,2.1,0,2.8c0.8,1.4,3.1,1.3,5.2-0.3
			c0.1-0.1,0.2-0.2,0.3-0.2c1-0.9,1.8-2,2.2-3.1C105.9,97,105.9,96,105.4,95.3z"/>
		<path class="st8" d="M104.1,96.2c0.4,0.9-0.2,2.4-1.5,3.4c-1.3,1-2.7,1-3.1,0.1c-0.4-0.8,0.1-2.1,1.1-3c0.1-0.1,0.3-0.2,0.4-0.4
			C102.3,95.4,103.6,95.3,104.1,96.2z"/>
	</g>
</g>
</svg>
