<?xml version="1.0" encoding="utf-8"?>
<!-- Generator: Adobe Illustrator 25.4.8, SVG Export Plug-In . SVG Version: 6.00 Build 0)  -->
<svg version="1.1" id="Layer_1" xmlns="http://www.w3.org/2000/svg" xmlns:xlink="http://www.w3.org/1999/xlink" x="0px" y="0px"
	 viewBox="0 0 187.7 181.2" enable-background="new 0 0 187.7 181.2" xml:space="preserve">
<g>
	
		<circle fill="#FFFF51" stroke="#39146E" stroke-linecap="round" stroke-linejoin="round" stroke-miterlimit="10" cx="98" cy="92.6" r="79.6"/>
	<g>
		<defs>
			<circle id="SVGID_1_" cx="98" cy="92.6" r="79.6"/>
		</defs>
		<clipPath id="SVGID_00000147931171047911838220000006058374127034205602_">
			<use xlink:href="#SVGID_1_"  overflow="visible"/>
		</clipPath>
		<g clip-path="url(#SVGID_00000147931171047911838220000006058374127034205602_)">
			
				<line fill="#FFFF51" stroke="#39146E" stroke-linecap="round" stroke-linejoin="round" stroke-miterlimit="10" x1="164.8" y1="7.5" x2="235.4" y2="60.6"/>
			
				<line fill="#FFFF51" stroke="#39146E" stroke-linecap="round" stroke-linejoin="round" stroke-miterlimit="10" x1="157.5" y1="15.6" x2="228.1" y2="68.7"/>
			
				<line fill="#FFFF51" stroke="#39146E" stroke-linecap="round" stroke-linejoin="round" stroke-miterlimit="10" x1="150.2" y1="23.8" x2="220.8" y2="76.9"/>
			
				<line fill="#FFFF51" stroke="#39146E" stroke-linecap="round" stroke-linejoin="round" stroke-miterlimit="10" x1="143.4" y1="33.5" x2="214" y2="86.6"/>
			
				<line fill="#FFFF51" stroke="#39146E" stroke-linecap="round" stroke-linejoin="round" stroke-miterlimit="10" x1="135.6" y1="42" x2="206.2" y2="95.1"/>
			
				<line fill="#FFFF51" stroke="#39146E" stroke-linecap="round" stroke-linejoin="round" stroke-miterlimit="10" x1="128.9" y1="51.3" x2="199.5" y2="104.4"/>
			
				<line fill="#FFFF51" stroke="#39146E" stroke-linecap="round" stroke-linejoin="round" stroke-miterlimit="10" x1="121.5" y1="59.9" x2="192.1" y2="113"/>
			
				<line fill="#FFFF51" stroke="#39146E" stroke-linecap="round" stroke-linejoin="round" stroke-miterlimit="10" x1="113.8" y1="68.7" x2="184.4" y2="121.8"/>
			
				<line fill="#FFFF51" stroke="#39146E" stroke-linecap="round" stroke-linejoin="round" stroke-miterlimit="10" x1="106.7" y1="77.1" x2="177.3" y2="130.2"/>
			
				<line fill="#FFFF51" stroke="#39146E" stroke-linecap="round" stroke-linejoin="round" stroke-miterlimit="10" x1="100.6" y1="86.1" x2="171.2" y2="139.2"/>
			
				<line fill="#FFFF51" stroke="#39146E" stroke-linecap="round" stroke-linejoin="round" stroke-miterlimit="10" x1="94.3" y1="95.3" x2="164.9" y2="148.4"/>
			
				<line fill="#FFFF51" stroke="#39146E" stroke-linecap="round" stroke-linejoin="round" stroke-miterlimit="10" x1="87.3" y1="104" x2="157.9" y2="157.1"/>
			
				<line fill="#FFFF51" stroke="#39146E" stroke-linecap="round" stroke-linejoin="round" stroke-miterlimit="10" x1="81.6" y1="113.1" x2="152.2" y2="166.2"/>
			
				<line fill="#FFFF51" stroke="#39146E" stroke-linecap="round" stroke-linejoin="round" stroke-miterlimit="10" x1="73.2" y1="121.9" x2="143.8" y2="175"/>
			
				<line fill="#FFFF51" stroke="#39146E" stroke-linecap="round" stroke-linejoin="round" stroke-miterlimit="10" x1="65.5" y1="129.2" x2="136.1" y2="182.3"/>
			
				<line fill="#FFFF51" stroke="#39146E" stroke-linecap="round" stroke-linejoin="round" stroke-miterlimit="10" x1="61.8" y1="137.7" x2="130.6" y2="193.1"/>
			
				<line fill="#FFFF51" stroke="#39146E" stroke-linecap="round" stroke-linejoin="round" stroke-miterlimit="10" x1="53.4" y1="144.2" x2="119.7" y2="202.6"/>
			
				<line fill="#FFFF51" stroke="#39146E" stroke-linecap="round" stroke-linejoin="round" stroke-miterlimit="10" x1="41.7" y1="146.9" x2="104.6" y2="208.9"/>
		</g>
	</g>
	
		<circle fill="#44D970" stroke="#39146E" stroke-linecap="round" stroke-linejoin="round" stroke-miterlimit="10" cx="88.7" cy="83.9" r="79.6"/>
	
		<circle fill="#FFFF51" stroke="#39146E" stroke-linecap="round" stroke-linejoin="round" stroke-miterlimit="10" cx="88.7" cy="83.9" r="71.6"/>
	<path fill="#39146E" d="M80.5,78.5c1.6-0.4,3.1-0.8,4.7-1.2c5.5-1.4,11-2.3,16.7-1.9c5.1,0.4,9.8,1.9,13.8,5.2
		c0.3,0.3,0.6,0.6,0.9,0.9c2.9,3,3.2,6.5,0.8,9.9c-2.1,3-4.8,5.5-7.5,8c-8.2,7.5-16.4,14.9-24.7,22.4c-0.6,0.5-1.1,1-1.6,1.6
		c-1.8,2.3-0.6,5.2,2.2,5.7c2.3,0.3,4.5,0.1,6.7-0.5c2.6-0.7,5-1.7,7.3-3c1.6-0.9,3.6-0.6,4.6,0.8c0.6,0.8,0.5,1.3-0.4,1.7
		c-2.9,1.4-5.8,2.8-8.7,4c-3.5,1.4-7.2,1.9-11,1.8c-3-0.1-5.7-0.9-8.1-2.6c-4.5-3.2-5.5-8.4-2.4-13c2.2-3.2,5-5.8,7.8-8.3
		c7.4-6.5,14.8-13,22.2-19.5c1.2-1,2.2-2.2,3.3-3.4c2.1-2.2,1.6-5.1-1.2-6.3c-1.7-0.7-3.5-1.1-5.3-1.4c-4.2-0.7-8.2-0.1-12.3,1
		c-9.4,2.5-17.5,7.4-24.4,14.2c-6.2,6.1-12.4,12.2-18.6,18.2c-1.8,1.8-2.9,2-5.2,0.8c-1.6-0.8-3.1-1.5-4.7-2.2c-1.9-1-2-1.5-0.5-3
		c7.8-7.7,15.5-15.3,23.3-23c8-7.9,16-15.8,24.1-23.7c0.4-0.4,0.9-0.7,1.2-1.1c0.2-0.3,0.4-0.8,0.3-1.1c-0.1-0.3-0.6-0.6-0.9-0.6
		c-4.1-0.7-8.2-1.4-12.3-2.2c-1.7-0.3-2.2-1.1-1.7-2.8c0.1-0.6,0.2-1.2,0.3-1.8c0.2-1.8,0.9-2.3,2.7-2c3.3,0.6,6.7,1.2,10,1.9
		c2,0.4,3.9,0.7,5.9,1.1c2,0.4,3.6-0.1,5-1.6c2.4-2.6,5-5,7.5-7.6c0.5-0.5,1-1.1,1.4-1.7c0.9-1.4,0.7-2.6-0.6-3.6
		c-0.7-0.5-1.5-1-2.2-1.4c-0.9-0.5-1.9-0.9-2.8-1.4c-0.9-0.4-1-0.9-0.6-1.8c0.6-1.2,1.7-1.6,3-1.1c3.4,1.3,6.7,2.7,10.2,3.9
		c2.5,0.8,5.1,1.3,7.7,1.9c0.4,0.1,0.7,0.1,1.1,0.2c1.2,0.4,1.5,1.5,0.6,2.3c-4.3,4.3-8.7,8.5-13,12.8c-0.2,0.1-0.4,0.2-0.5,0.4
		c-0.2,0.3-0.6,0.8-0.6,1c0.1,0.3,0.6,0.6,1,0.7c1.6,0.3,3.2,0.6,4.8,0.9c4.7,0.8,9.5,1.7,14.2,2.5c2,0.4,2.6,1.1,2.3,3.1
		c-0.1,0.6-0.2,1.2-0.3,1.8c-0.3,1.5-1.1,2.1-2.6,1.8c-1.9-0.3-3.8-0.7-5.7-1.1c-5.9-1.1-11.8-2.2-17.7-3.3c-1.7-0.3-3.2,0-4.5,1.3
		c-5,4.9-9.9,9.8-14.9,14.7c-0.1,0.1-0.2,0.2-0.3,0.3C80.4,78.5,80.5,78.5,80.5,78.5z"/>
	<path fill="#FFFFFF" stroke="#39146E" stroke-linecap="round" stroke-linejoin="round" stroke-miterlimit="10" d="M40.1,47.7
		c0,0-10,8.9-11,18.7s7.7,10,10,2.4c2.3-7.6,6.3-15.8,8.7-19.1C50.3,46.4,43.6,41.5,40.1,47.7z"/>
	
		<circle fill="#FFFFFF" stroke="#39146E" stroke-linecap="round" stroke-linejoin="round" stroke-miterlimit="10" cx="54.4" cy="37.2" r="5.4"/>
</g>
</svg>
