<?xml version="1.0" encoding="utf-8"?>
<!-- Generator: Adobe Illustrator 25.4.8, SVG Export Plug-In . SVG Version: 6.00 Build 0)  -->
<svg version="1.1" id="Layer_1" xmlns="http://www.w3.org/2000/svg" xmlns:xlink="http://www.w3.org/1999/xlink" x="0px" y="0px"
	 viewBox="0 0 187.7 181.2" enable-background="new 0 0 187.7 181.2" xml:space="preserve">
<g>
	
		<circle fill="#FFFF51" stroke="#39146E" stroke-linecap="round" stroke-linejoin="round" stroke-miterlimit="10" cx="89.7" cy="92.1" r="79.5"/>
	<g>
		<defs>
			<circle id="SVGID_1_" cx="89.7" cy="92.1" r="79.5"/>
		</defs>
		<clipPath id="SVGID_00000079487875979954632250000000758199311623015827_">
			<use xlink:href="#SVGID_1_"  overflow="visible"/>
		</clipPath>
		<g clip-path="url(#SVGID_00000079487875979954632250000000758199311623015827_)">
			
				<line fill="#FFFF51" stroke="#39146E" stroke-linecap="round" stroke-linejoin="round" stroke-miterlimit="10" x1="55.5" y1="-10.4" x2="-28.8" y2="15.8"/>
			
				<line fill="#FFFF51" stroke="#39146E" stroke-linecap="round" stroke-linejoin="round" stroke-miterlimit="10" x1="59.6" y1="-0.3" x2="-24.7" y2="25.9"/>
			
				<line fill="#FFFF51" stroke="#39146E" stroke-linecap="round" stroke-linejoin="round" stroke-miterlimit="10" x1="63.7" y1="9.8" x2="-20.5" y2="36.1"/>
			
				<line fill="#FFFF51" stroke="#39146E" stroke-linecap="round" stroke-linejoin="round" stroke-miterlimit="10" x1="66.8" y1="21.3" x2="-17.4" y2="47.5"/>
			
				<line fill="#FFFF51" stroke="#39146E" stroke-linecap="round" stroke-linejoin="round" stroke-miterlimit="10" x1="71.4" y1="31.9" x2="-12.9" y2="58.1"/>
			
				<line fill="#FFFF51" stroke="#39146E" stroke-linecap="round" stroke-linejoin="round" stroke-miterlimit="10" x1="74.5" y1="42.9" x2="-9.8" y2="69.1"/>
			
				<line fill="#FFFF51" stroke="#39146E" stroke-linecap="round" stroke-linejoin="round" stroke-miterlimit="10" x1="78.6" y1="53.4" x2="-5.7" y2="79.7"/>
			
				<line fill="#FFFF51" stroke="#39146E" stroke-linecap="round" stroke-linejoin="round" stroke-miterlimit="10" x1="82.9" y1="64.3" x2="-1.4" y2="90.5"/>
			
				<line fill="#FFFF51" stroke="#39146E" stroke-linecap="round" stroke-linejoin="round" stroke-miterlimit="10" x1="86.7" y1="74.6" x2="2.5" y2="100.9"/>
			
				<line fill="#FFFF51" stroke="#39146E" stroke-linecap="round" stroke-linejoin="round" stroke-miterlimit="10" x1="89.4" y1="85.1" x2="5.2" y2="111.4"/>
			
				<line fill="#FFFF51" stroke="#39146E" stroke-linecap="round" stroke-linejoin="round" stroke-miterlimit="10" x1="92.4" y1="95.8" x2="8.1" y2="122.1"/>
			
				<line fill="#FFFF51" stroke="#39146E" stroke-linecap="round" stroke-linejoin="round" stroke-miterlimit="10" x1="96" y1="106.4" x2="11.7" y2="132.7"/>
			
				<line fill="#FFFF51" stroke="#39146E" stroke-linecap="round" stroke-linejoin="round" stroke-miterlimit="10" x1="98.2" y1="116.9" x2="14" y2="143.1"/>
			
				<line fill="#FFFF51" stroke="#39146E" stroke-linecap="round" stroke-linejoin="round" stroke-miterlimit="10" x1="103.2" y1="128" x2="18.9" y2="154.2"/>
			
				<line fill="#FFFF51" stroke="#39146E" stroke-linecap="round" stroke-linejoin="round" stroke-miterlimit="10" x1="108.1" y1="137.5" x2="23.8" y2="163.7"/>
			
				<line fill="#FFFF51" stroke="#39146E" stroke-linecap="round" stroke-linejoin="round" stroke-miterlimit="10" x1="108.7" y1="146.7" x2="25.4" y2="175.7"/>
			
				<line fill="#FFFF51" stroke="#39146E" stroke-linecap="round" stroke-linejoin="round" stroke-miterlimit="10" x1="114.4" y1="155.6" x2="32.4" y2="188.3"/>
			
				<line fill="#FFFF51" stroke="#39146E" stroke-linecap="round" stroke-linejoin="round" stroke-miterlimit="10" x1="124.5" y1="162.1" x2="44.4" y2="199.3"/>
		</g>
	</g>
	
		<circle fill="#FFFF51" stroke="#39146E" stroke-linecap="round" stroke-linejoin="round" stroke-miterlimit="10" cx="101.4" cy="87" r="79.5"/>
	
		<circle fill="#44D970" stroke="#39146E" stroke-linecap="round" stroke-linejoin="round" stroke-miterlimit="10" cx="101.4" cy="87" r="71.5"/>
	<g>
		<path fill="#FFFFFF" d="M111.8,124c-5.5,2.9-10.8,4.7-16,5.5c-4.1,0.6-8.1,0.5-11.9-0.2c-6.4-1.2-9.8-4-9.9-4
			c-0.2-0.1-0.4-0.2-0.6-0.2c-0.1,0-8.3,0.9-12.8-3.8c-2.9-3-4-6.9-3.3-11.6c0.5-3.6,2-6.2,2-6.2c0.1-0.1,0.1-0.2,0.1-0.4
			c0-0.1,0.1-7.9,2.7-17c1.5-5.3,3.6-10.1,6.1-14.1c3.1-5,7-8.8,11.5-11.5c0.5-0.3,1.1-0.6,1.6-0.9c4.5-2.3,9.4-3.9,14.6-4.6
			c4.2-0.6,8.6-0.6,13.1,0c7.6,0.9,12.9,3.1,13,3.1c0.2,0.1,0.4,0.1,0.6,0c0,0,2.2-0.7,4.9-0.5c3.6,0.3,6.4,2,8.4,5
			c3.8,5.8,0.8,14.9,0.8,15c0,0.1-0.1,0.3,0,0.4c1.8,9.4,0.8,17.9-3,25.4c-3.2,6.3-8.3,11.9-15.2,16.5
			C116.3,121.5,114,122.9,111.8,124C111.8,124,111.8,124,111.8,124z"/>
		<path fill="#FFFF51" d="M93.8,128c-4,0.6-8,0.3-11.7,0.2c-7.1-0.2-12.2-2.1-14.1-3.3c-0.2-0.1-2.2,1.4-2.4-0.5
			c0-0.1-2.8-1.7-5.5-3.5c-2.2-1.5-3.6-4.9-2.8-9.3c0.6-3.4,1.5,0.4,1.5,0.4c0.1-0.1,0.1-8,0.1-8.2c0-0.1,0.2-7.4,2.8-16
			c1.5-5,3.5-9.5,6-13.3c3.1-4.7,6.8-8.4,11.2-10.9c0.5-0.3,1-0.6,1.6-0.9c4.3-2.3,3.9-3,8.9-3.7c4-0.6,4.6-1.6,17.7-0.9
			c7.4,0.4,20.5,3.8,20.5,3.8c0.8,0.3-1.3-0.9-1.1-1c0,0-3.9-1.8-1.3-1.6c3.4,0.2,6.4,3.4,7.4,5c2.6,4.1,3.2,11.1,3.1,11.1
			c-0.7-1-1.2-1.3-1.1-1.1c1.6,8.8-0.8,22.1-5.1,29.6C119.1,121.2,98.8,127.2,93.8,128z"/>
		
			<ellipse transform="matrix(0.8851 -0.4653 0.4653 0.8851 -31.6517 51.0303)" fill="#FFFFFF" cx="87.5" cy="89.6" rx="8.8" ry="7.4"/>
		
			<ellipse transform="matrix(0.8851 -0.4653 0.4653 0.8851 -23.8155 58.0952)" fill="#FFFFFF" cx="105.8" cy="77.3" rx="8.8" ry="7.4"/>
		<path fill="#010002" d="M126.2,54.2"/>
		<path fill="#39146E" d="M95.6,84.2c-1-1.5-2.7-2.6-4.7-2.9c-2.6-0.5-5.5,0.2-8,2C81.8,84,80.8,85,80,86.1
			c-2.3,3.1-2.7,6.9-0.8,9.6c1,1.5,2.7,2.6,4.7,2.9c2.2,0.4,4.5,0,6.6-1.2c0.5-0.2,0.9-0.5,1.3-0.8c1.2-0.8,2.2-1.8,2.9-2.9
			C97.1,90.7,97.5,86.9,95.6,84.2z M93.8,93.1c-0.6,0.9-1.5,1.7-2.4,2.4c-0.2,0.1-0.4,0.3-0.6,0.4c0.5-2.3,0.1-4.9-1.4-7.1
			c-0.3-0.4-0.6-0.8-1-1.2c-0.2,0.4-0.5,0.7-0.9,1c-1,0.7-2.3,0.7-2.8-0.1c-0.5-0.7-0.1-1.9,1-2.6c0.1,0,0.1-0.1,0.2-0.1
			C84.9,85.2,84,85,83,84.9c0.2-0.1,0.3-0.2,0.5-0.4c0.4-0.3,0.8-0.5,1.2-0.7c1.9-1,3.9-1.4,5.8-1c1.7,0.3,3,1.1,3.9,2.4
			C95.9,87.4,95.6,90.5,93.8,93.1z"/>
		<path fill="#39146E" d="M113.7,72.1c-1-1.5-2.7-2.6-4.7-2.9c-2.6-0.5-5.5,0.2-8,2c-0.8,0.6-1.6,1.3-2.2,2c-1.1,1.2-2,2.7-2.4,4.2
			c-0.7,2.3-0.4,4.6,0.8,6.4c1,1.5,2.7,2.6,4.7,2.9c2.2,0.4,4.5,0,6.6-1.2c0.5-0.2,0.9-0.5,1.3-0.8c0.8-0.6,1.6-1.3,2.2-2
			c1.1-1.2,2-2.7,2.4-4.2C115.2,76.1,114.9,73.9,113.7,72.1z M111.2,81.8c-0.5,0.5-1.1,1.1-1.7,1.5c-0.2,0.1-0.4,0.3-0.6,0.4
			c0.5-2.3,0.1-4.9-1.4-7.1c-0.3-0.4-0.5-0.7-0.8-1.1c-0.2,0.2-0.4,0.4-0.7,0.6c-1.1,0.7-2.3,0.6-2.8-0.2c-0.4-0.7-0.1-1.7,0.8-2.4
			c-0.9-0.4-1.8-0.7-2.8-0.8c0.1-0.1,0.3-0.2,0.4-0.3c0.4-0.3,0.8-0.5,1.2-0.7c1.9-1,3.9-1.4,5.8-1c1.7,0.3,3,1.1,3.9,2.4l0,0
			C114.1,75.6,113.5,79.1,111.2,81.8z"/>
		<path fill="#010002" d="M82.9,100.5"/>
		<path fill="#39146E" d="M105.3,100.4c-5.4,3.1-11.4,3.6-16.7,2c0.4-0.5,0.9-0.9,1.5-1.3c0.4-0.2,0.8-0.4,1.3-0.5
			c-0.9-0.2-1.8-0.1-2.7,0.4c-1.8,1-2.5,3-1.6,4.7c0.3,0.5,0.7,0.9,1.2,1.2c-0.5-1-0.6-2-0.3-3c5.5,2.4,12.1,2.2,17.7-1
			c5.9-3.4,9.4-9.4,9.9-15.8C114.1,92.4,110.6,97.3,105.3,100.4z"/>
		<path fill="#39146E" d="M111.9,113.4c-2.8,1.5-6,1.5-8.4,0.3c2.4,2.5,6.3,3.3,9.6,1.6c3.6-1.9,5.2-6.1,3.9-9.8
			C117,108.5,115.1,111.7,111.9,113.4z"/>
		<path fill="#FFFFFF" d="M122.3,117.4c0,0,2.9-3,4.6-3.5c1.6-0.5,3,0.6,3,0.6s-1-2.2-2.7-1.8S123.1,115.5,122.3,117.4z"/>
		<path fill="#FFFFFF" d="M119.3,118.8c0,0,1.5-0.7,2.8,0.9C122.2,119.7,121.7,116.6,119.3,118.8z"/>
		<path fill="#FFFFFF" d="M68.6,90.9c1.7,0.1,2.5,3,2.2,6.5c-0.3,3.5-1.6,6.4-3.4,6.3s-2.6-3-2.2-6.5C65.5,93.6,66.9,90.8,68.6,90.9
			z"/>
		
			<ellipse transform="matrix(0.5301 -0.8479 0.8479 0.5301 -41.7272 99.6263)" fill="#FFFFFF" cx="69" cy="87.5" rx="2.5" ry="2.1"/>
		<path fill="#39146E" d="M137.9,61.8c-3.6-5.5-9.1-5.7-12.1-5.3c-0.1,0-0.1,0-0.1,0s-16.1-5.7-32.5-1.9l0,0
			c-1.7,0.4-3.4,0.8-5.1,1.4c-2.4,0.7-4.7,1.7-7.1,2.9c-0.6,0.3-1.1,0.6-1.7,0.9c-20.3,11.9-21,41.6-21,41.6s-8,14.4,0.9,22.7
			c4.9,5.1,14,4.3,14,4.3s12.2,9.1,31.8,2.4c2.9-0.9,5.9-2.2,9.1-3.9c2.2-1.1,4.5-2.5,6.8-4.1c12.7-8.5,22.6-23.8,18.7-44.4
			C139.6,78.6,141.9,68,137.9,61.8z M136.4,75.8c-0.4-0.7-1.5-2-2.3-2.4c0,0,0,0,0,0c0.2,0.4,1.5,3.3,2.1,7.7l0,0
			c0.5,3.7,0.5,7.3,0.1,10.7c-0.5,3.9-1.7,7.7-3.4,11.2c-3.1,6.2-8.1,11.7-14.9,16.2c-2.2,1.5-4.5,2.8-6.6,4c-2.7,1.4-5.3,2.6-8,3.5
			c-2.2,0.7-4.4,1.2-6.6,1.6c-4,0.6-7.9,0.6-11.5-0.1c-3.2-0.6-5.7-1.6-7.2-2.4c-0.9-0.4-1.5-0.8-2-1.1c-3-2.2-5.4-5.7-5.3-5.3
			c0.4,1.7,1.6,3.6,1.9,4.6c-0.8,0-1.7,0-2.8-0.2c-1.5-0.2-2.8-0.6-4-1c-1.4-0.6-2.7-1.4-3.6-2.4c-1.5-1.5-2.5-3.3-2.9-5.3
			c-0.4-1.7-0.4-3.5-0.1-5.4c0.3-2,0.9-3.7,1.3-4.8c0.9,2.7,3.3,5,3.3,5c-2.4-7.3-1.9-12.9-1.6-15.8c0.4-2.4,1-5.1,1.8-8
			c1.5-5.2,3.5-9.9,6-13.8c3.1-4.9,6.8-8.6,11.2-11.2c0.5-0.3,1.1-0.6,1.6-0.9c1.8-1,3.8-1.8,5.8-2.5c2.4-0.8,4.9-1.3,7.5-1.7
			c4.1-0.6,8.4-0.6,12.8-0.1c6.6,0.8,11.5,2.5,12.6,2.9c1.4,0.5,3.2,1.2,6.5,3.2c-0.6-1-1.8-2.4-2.8-3.4c0.6,0,1.5-0.2,2.3-0.1
			c3.3,0.3,5.9,1.9,7.7,4.6C137.6,66.8,137.6,73,136.4,75.8z"/>
		<g>
			<path fill="#39146E" d="M78.2,56.2l0.4,0.7c0,0,0,0,0,0L78.2,56.2C78.2,56.2,78.2,56.2,78.2,56.2c-16.3,8.2-20.1,27.6-20.1,27.6
				c2.8-0.5,5.3-1.4,7.6-2.5c5.6-2.7,9.2-5.7,9.2-5.7l0.6,4.6c19.3-13.2,19-26.9,19-26.9C88.2,52.1,82.6,54.1,78.2,56.2z"/>
			<polygon fill="#39146E" points="78.2,56.2 78.2,56.2 78.2,56.2 			"/>
		</g>
		<path fill="#44D970" d="M62.8,78.4c4.6-1.4,9.4-4.6,13.8-8.1c0,1.3,0.1,2.8,0.6,4.3c0,0,2.8-1.9,4.8-3.6c8.9-8,10-15.9,10-15.9
			C69.7,54.8,62.8,78.4,62.8,78.4z"/>
		<path fill="#FFFFFF" d="M92,55.1c0,0-3.7,7.8-14.8,19.5C77.2,74.6,89.6,67.1,92,55.1z"/>
		<path fill="#39146E" d="M120.8,122.2l-1.8-2.6c-0.1-0.1-0.7-0.7-0.9-0.7c0,0-0.1,0-0.1,0c-0.1-0.1-0.2-0.1-0.2-0.1
			c-0.2,0-4.1,0.2-7.4,1.7c-0.9,0.4-1.4,0.7-1.9,1.1c-1.4,1.1-1.5,2.8-1,4.5c0.2,1.8,1.4,3.7,2.4,4.9c0.8,0.9,1.7,1.6,2.6,2
			c1.1,0.5,2.2,0.5,3-0.1c0.2-0.1,0.4-0.2,0.5-0.4c2.5-2.1,4.7-9.1,4.8-9.3c0-0.1,0-0.3-0.1-0.4l0-0.1c0-0.1,0.1-0.2,0.1-0.2
			C120.9,122.4,120.9,122.3,120.8,122.2z"/>
		<path fill="#44D970" d="M118.2,120.1c0,0-5,0.5-7.2,2.5c-2.2,2,2.2,7.6,4.8,6.1c2.4-1.4,4.1-6,4.1-6L118.2,120.1z"/>
		<path fill="#39146E" d="M127,109.9c-0.5,0.3-1,0.6-1.6,1.2c-1.9,1.6-3.7,4.4-4.6,5.7c1,0.2,2,0.8,2.6,1.8c0.5,0.9,0.7,1.9,0.6,2.9
			c1.5,0.3,6,1.3,8.2-0.1c2-1.2,3-3.2,1-7.1C132,111.8,130,108.2,127,109.9z"/>
		<path fill="#44D970" d="M122.1,117.8l1.5,2.3c0.9,0.1,4.8,0.2,6.6-1.1c0.7-0.5,0.9-2.2-0.2-4.2c-1-1.8-2.3-2.3-3-2
			c-0.1,0.1-0.3,0.1-0.4,0.2C124.5,114.1,122.6,117,122.1,117.8z"/>
		<path fill="#39146E" d="M123.7,118.3c-1.2-1.9-3.6-2.5-5.5-1.3c-0.9,0.6-1.5,1.4-1.7,2.5c-0.2,1.1-0.1,2.1,0.5,3.1
			c1.1,1.8,3.4,2.4,5.2,1.5c0.1,0,0.2-0.1,0.3-0.1c0.9-0.6,1.5-1.4,1.7-2.5C124.4,120.4,124.3,119.3,123.7,118.3z"/>
		<path fill="#44D970" d="M122.4,118.8c0.6,1.1,0.2,2.5-1,3.1c-1.1,0.6-2.5,0.2-3.1-1c-0.5-1-0.2-2.2,0.6-2.9
			c0.1-0.1,0.2-0.2,0.4-0.2C120.4,117.3,121.9,117.7,122.4,118.8z"/>
	</g>
	<path fill="#FFFFFF" stroke="#39146E" stroke-linecap="round" stroke-linejoin="round" stroke-miterlimit="10" d="M146.9,46.4
		c0,0-6.9-11.5-16.3-14.3s-11.3,5.7-4.3,9.4c7.1,3.7,14.3,9.1,17.1,12.2C146.2,56.7,152.2,51,146.9,46.4z"/>
	
		<circle fill="#FFFFFF" stroke="#39146E" stroke-linecap="round" stroke-linejoin="round" stroke-miterlimit="10" cx="154.4" cy="62.4" r="5.4"/>
</g>
</svg>
