<svg width="17" height="21" viewBox="0 0 17 21" fill="none" xmlns="http://www.w3.org/2000/svg">
<path d="M14.1184 3.65374C14.095 3.86216 14.198 4.00381 14.3005 4.08548C14.3505 4.12533 14.4016 4.15251 14.4419 4.16993C14.4621 4.17872 14.4807 4.18548 14.4963 4.19035L14.4966 4.19044C14.5044 4.19286 14.5243 4.19907 14.5458 4.20128C14.9997 4.24846 15.3666 4.66793 15.3666 5.16453V18.8323C15.3666 19.3499 14.9535 19.7654 14.4503 19.7654H5.62576C5.15972 19.7654 4.76721 19.4135 4.71472 18.9452C4.71133 18.8724 4.7086 18.5623 4.7086 18.5144C4.7086 18.2448 4.49182 18.0191 4.22045 18.0191C3.9504 18.0191 3.72996 18.2435 3.72996 18.5144C3.72996 18.5446 3.73067 18.6604 3.73213 18.7751C3.73351 18.8828 3.73561 19.0066 3.73971 19.0439C3.84625 20.0188 4.65431 20.7555 5.62622 20.7555H14.4508C15.498 20.7555 16.3475 19.8906 16.3475 18.8318V5.16453C16.3475 4.17424 15.6065 3.31627 14.6454 3.21659L14.6454 3.2165L14.6403 3.21614C14.6428 3.21632 14.6069 3.21218 14.5643 3.2138C14.5213 3.21545 14.4625 3.22276 14.4007 3.24705C14.3377 3.2718 14.2715 3.31433 14.2181 3.38463C14.1648 3.45479 14.1306 3.54441 14.1184 3.65374ZM14.1184 3.65374C14.1184 3.6537 14.1184 3.65366 14.1184 3.65362L14.2675 3.67039L14.1184 3.65385C14.1184 3.65381 14.1184 3.65377 14.1184 3.65374ZM10.3891 1.81861L12.2847 3.75025H10.3891L10.3891 1.81861ZM9.89952 4.73986H12.6469V16.0488C12.6469 16.5643 12.2332 16.981 11.7288 16.981H2.90655C2.40228 16.981 1.98846 16.5639 1.98846 16.0483V2.37962C1.98846 1.86293 2.40245 1.44555 2.90655 1.44555H9.40904L9.40904 4.24458C9.40904 4.51606 9.62675 4.73986 9.89952 4.73986ZM13.2292 3.30441L13.229 3.3042L10.8344 0.865979L10.8342 0.865761C10.5752 0.603111 10.2287 0.455469 9.85988 0.455469H2.90702C1.85766 0.455469 1.00796 1.32016 1.00796 2.37915V16.0478C1.00796 17.1054 1.85768 17.9706 2.90702 17.9706H11.7293C12.7781 17.9706 13.6279 17.1059 13.6279 16.0478V4.28337C13.6279 3.91356 13.4861 3.56705 13.2292 3.30441Z" fill="white" stroke="white" stroke-width="0.3"/>
</svg>
