<svg width="16" height="21" viewBox="0 0 16 21" fill="none" xmlns="http://www.w3.org/2000/svg">
<path d="M9.52802 1.8193L11.4179 3.75025H9.52802L9.52802 1.8193ZM9.03936 4.73986H11.7791V16.0488C11.7791 16.5646 11.3663 16.981 10.8638 16.981H2.06479C1.56244 16.981 1.14951 16.5642 1.14951 16.0483V2.37962C1.14951 1.86256 1.56261 1.44555 2.06479 1.44555H8.54978L8.54977 4.24458C8.54977 4.51568 8.76671 4.73986 9.03936 4.73986ZM13.7728 3.21659L13.7728 3.2165L13.3959 3.67039L13.2468 3.65367C13.2468 3.65374 13.2468 3.65382 13.2468 3.65389C13.2235 3.86206 13.3261 4.00363 13.4283 4.08536C13.4782 4.12524 13.5293 4.15244 13.5695 4.16987C13.5897 4.17867 13.6082 4.18544 13.6239 4.19032L13.6241 4.19041C13.6319 4.19283 13.6518 4.19906 13.6734 4.20127C14.1255 4.2484 14.4916 4.66759 14.4916 5.16453V18.8323C14.4916 19.3503 14.0795 19.7654 13.5782 19.7654H4.77684C4.31256 19.7654 3.92097 19.4138 3.86859 18.9452C3.86522 18.8725 3.86249 18.5623 3.86249 18.5144C3.86249 18.2452 3.64648 18.0191 3.37523 18.0191C3.1053 18.0191 2.88564 18.2439 2.88564 18.5144C2.88564 18.5446 2.88635 18.6603 2.8878 18.775C2.88917 18.8829 2.89128 19.0066 2.89536 19.0439C3.00159 20.0185 3.80742 20.7555 4.77731 20.7555H13.5787C14.6237 20.7555 15.4708 19.8903 15.4708 18.8318V5.16453C15.4708 4.17458 14.7319 3.31632 13.7728 3.21659ZM12.3607 3.30455L12.3605 3.30434L9.97223 0.86612L9.97201 0.865902C9.71365 0.603211 9.36787 0.455469 8.99982 0.455469H2.06526C1.01807 0.455469 0.170801 1.32054 0.170801 2.37915V16.0478C0.170801 17.105 1.01809 17.9706 2.06526 17.9706H10.8643C11.911 17.9706 12.7583 17.1055 12.7583 16.0478V4.28337C12.7583 3.91368 12.617 3.56722 12.3607 3.30455Z" fill="#401484" stroke="#401484" stroke-width="0.3"/>
</svg>
