<svg width="15" height="15" viewBox="0 0 15 15" fill="none" xmlns="http://www.w3.org/2000/svg">
<path d="M9.96666 0.502215C9.85778 0.44667 9.73428 0.426787 9.61347 0.445374C9.49266 0.463961 9.38078 0.520078 9.29362 0.605782C9.20905 0.693438 9.15273 0.80446 9.13196 0.924476C9.11119 1.04449 9.12681 1.16798 9.177 1.27896C9.51022 2.06526 9.68194 2.91054 9.6819 3.76453C9.6836 4.59293 9.52167 5.41352 9.20544 6.17919C8.88921 6.94486 8.4249 7.64055 7.83913 8.22632C7.25336 8.81209 6.5577 9.27641 5.79203 9.59264C5.02636 9.90887 4.20576 10.0708 3.37736 10.0691C2.52337 10.0691 1.67819 9.89741 0.891894 9.56418C0.780915 9.51399 0.657295 9.49827 0.537278 9.51905C0.417262 9.53982 0.306349 9.59613 0.218694 9.6807C0.134125 9.76836 0.0778027 9.87938 0.0570307 9.99939C0.0362586 10.1194 0.0518793 10.2429 0.102069 10.3539C0.678951 11.7018 1.63673 12.8522 2.85776 13.6639C4.0788 14.4757 5.5101 14.9135 6.9763 14.9237C7.9611 14.9254 8.93655 14.7327 9.84672 14.3566C10.7569 13.9805 11.5838 13.4285 12.2802 12.7321C12.9766 12.0357 13.5286 11.2088 13.9047 10.2986C14.2808 9.38842 14.4736 8.41296 14.4719 7.42816C14.4994 5.95563 14.0848 4.50866 13.2818 3.27408C12.4787 2.0395 11.3239 1.07399 9.96666 0.502215ZM7.04109 13.7456C6.05918 13.7397 5.09245 13.5022 4.21965 13.0523C3.34686 12.6024 2.59263 11.9528 2.01816 11.1565C2.48196 11.2531 2.95584 11.2922 3.42919 11.273C5.41714 11.273 7.32362 10.4833 8.7293 9.07763C10.135 7.67194 10.9248 5.76542 10.9248 3.77748C10.9203 3.30491 10.8812 2.8333 10.8082 2.36639C11.6008 2.94447 12.2476 3.69953 12.6971 4.57152C13.1466 5.44351 13.3863 6.40836 13.3973 7.38931C13.3804 9.05616 12.7108 10.65 11.5321 11.8287C10.3534 13.0074 8.75961 13.677 7.09276 13.6939L7.04109 13.7456Z" fill="#633BB3"/>
</svg>
