<svg width="73" height="56" viewBox="0 0 73 56" fill="none" xmlns="http://www.w3.org/2000/svg">
<path d="M55.1496 30.8901C55.1496 27.1501 52.7496 24.0704 49.5596 23.7104C46.1696 23.3204 43.3296 25.4502 42.4396 29.0502C41.4396 33.0502 43.8996 37.4703 47.4396 38.1703C51.5996 38.9903 55.1396 35.6501 55.1396 30.8901M31.2396 32.2802C31.2396 27.3502 28.9296 24.2004 25.8896 23.7304C24.3129 23.4804 22.6998 23.8306 21.3687 24.7118C20.0376 25.5931 19.0852 26.9411 18.6996 28.4902C18.204 29.9969 18.1746 31.6179 18.6153 33.1415C19.056 34.6652 19.9462 36.0207 21.1696 37.0302C22.012 37.7401 23.0463 38.1836 24.1413 38.3046C25.2362 38.4257 26.3425 38.219 27.3196 37.7104C28.395 37.233 29.3244 36.4788 30.0131 35.5248C30.7017 34.5709 31.125 33.4512 31.2396 32.2802ZM56.3096 46.6601C56.1904 46.4259 56.0228 46.2199 55.8177 46.0556C55.6127 45.8913 55.375 45.7727 55.1205 45.7075C54.866 45.6422 54.6005 45.6319 54.3417 45.6772C54.0829 45.7225 53.8368 45.8223 53.6196 45.9701C48.3134 48.3482 42.5644 49.5776 36.7496 49.5776C30.9349 49.5776 25.1859 48.3482 19.8796 45.9701C18.7096 45.4701 17.9696 45.5503 17.2196 46.6503C18.7836 47.6829 20.4613 48.5316 22.2196 49.1801C22.9896 49.4901 23.2196 49.81 22.7196 50.56C21.7696 52.06 20.8396 53.5603 19.9496 55.1103C19.5096 55.8603 18.9496 55.9001 18.2196 55.6401C12.4486 53.7066 6.9986 50.9229 2.04961 47.3803C1.72261 47.1578 1.4538 46.8597 1.26586 46.5117C1.07792 46.1636 0.976324 45.7758 0.969597 45.3803C-0.104191 31.4161 3.53281 17.4948 11.2996 5.84026C11.6047 5.35592 12.0467 4.97297 12.5696 4.74017C16.659 2.93067 20.9299 1.56284 25.3096 0.660088C25.5057 0.580655 25.7164 0.543858 25.9277 0.552178C26.1391 0.560499 26.3463 0.613829 26.5355 0.708428C26.7247 0.803028 26.8915 0.936905 27.025 1.10101C27.1585 1.26511 27.2555 1.45559 27.3096 1.66009C27.5396 2.30009 27.9296 2.88995 28.1896 3.51995C28.2189 3.65824 28.2771 3.78911 28.3605 3.90325C28.4438 4.0174 28.5504 4.11262 28.6733 4.18255C28.7961 4.25247 28.9324 4.2956 29.0731 4.30901C29.2138 4.32242 29.3558 4.30565 29.4896 4.26019C34.3449 3.52025 39.2843 3.52025 44.1396 4.26019C45.0296 4.40019 45.2096 3.90999 45.4696 3.30999C46.7496 0.239991 47.0296 0.310264 50.2896 1.09026C53.3493 1.84017 56.3559 2.79236 59.2896 3.94036C60.9516 4.55081 62.3462 5.72577 63.2296 7.26019C70.2203 18.4318 73.5194 31.5198 72.6596 44.6703C72.6698 45.2902 72.5184 45.9017 72.2203 46.4452C71.9222 46.9888 71.4877 47.4453 70.9596 47.77C66.277 50.9911 61.1897 53.5803 55.8296 55.4701C54.6596 55.8801 53.9196 55.8103 53.3096 54.6503C52.6658 53.4361 51.9512 52.2608 51.1696 51.1303C50.4196 50.0403 50.4396 49.3801 51.8496 48.9101C53.4378 48.3383 54.9492 47.5728 56.3496 46.6303" fill="#633BB3"/>
</svg>
