<svg width="36" height="27" viewBox="0 0 36 27" fill="none" xmlns="http://www.w3.org/2000/svg">
<path d="M26.5994 14.6999C26.5994 12.8999 25.4994 11.3995 23.8994 11.2995C22.2994 11.0995 20.8994 12.1001 20.4994 13.9001C19.9994 15.8001 21.1994 17.8995 22.8994 18.2995C24.8994 18.5995 26.5994 16.9999 26.5994 14.6999ZM15.1994 15.4001C15.1994 13.0001 14.0994 11.4995 12.5994 11.2995C10.9994 11.0995 9.69941 11.9993 9.19941 13.5993C8.69941 15.0993 9.19943 16.7999 10.3994 17.6999C11.2994 18.3999 12.2994 18.4997 13.2994 17.9997C14.5994 17.2997 15.1994 16.2001 15.1994 15.4001ZM27.1994 22.2995C26.7994 21.7995 26.4994 21.6997 25.8994 21.9997C20.4994 24.2997 15.0994 24.2997 9.79939 21.9997C9.19939 21.7997 8.8994 21.7995 8.4994 22.2995C9.1994 22.7995 10.0994 23.1997 10.8994 23.4997C11.2994 23.5997 11.3994 23.7999 11.0994 24.1999C10.5994 24.8999 10.1994 25.6001 9.79939 26.4001C9.59939 26.8001 9.2994 26.7999 8.9994 26.6999C6.1994 25.7999 3.59939 24.3999 1.29939 22.6999C0.899389 22.4999 0.799389 22.1999 0.799389 21.6999C0.299389 14.7999 1.99941 8.4995 5.69941 2.7995C5.89941 2.5995 5.99939 2.3995 6.29939 2.2995C8.29939 1.3995 10.2994 0.799495 12.3994 0.299495C12.8994 0.199495 13.1994 0.299495 13.3994 0.799495C13.4994 1.0995 13.6994 1.39989 13.7994 1.69989C13.8994 1.99989 14.0994 2.0993 14.3994 2.0993C16.6994 1.7993 19.0994 1.6993 21.3994 2.0993C21.7994 2.1993 21.8994 1.8993 21.9994 1.5993C22.5994 0.0993 22.7994 0.199691 24.2994 0.499691C25.7994 0.799691 27.1994 1.30008 28.5994 1.90008C29.3994 2.20008 29.9994 2.69969 30.4994 3.49969C33.8994 8.99969 35.3994 15.0001 34.9994 21.4001C34.9994 22.1001 34.6994 22.5001 34.1994 22.9001C31.8994 24.4001 29.4994 25.6993 26.9994 26.5993C26.3994 26.7993 26.0994 26.7999 25.7994 26.1999C25.4994 25.5999 25.0994 25.0997 24.7994 24.4997C24.3994 23.9997 24.3994 23.7001 25.0994 23.4001C25.7994 23.1001 26.4994 22.6995 27.1994 22.2995Z" fill="#633BB3"/>
</svg>
