<svg width="9" height="12" viewBox="0 0 9 12" fill="none" xmlns="http://www.w3.org/2000/svg">
<path d="M8.3264 3.41127C8.4163 3.32454 8.4668 3.20693 8.4668 3.08429C8.4668 2.96166 8.4163 2.84404 8.3264 2.75731L5.61379 0.14101C5.56956 0.096837 5.51664 0.0616035 5.45814 0.0373648C5.39964 0.0131262 5.33672 0.000367848 5.27305 -0.000165783C5.20938 -0.000699414 5.14623 0.0110025 5.0873 0.0342569C5.02837 0.0575113 4.97484 0.0918526 4.92981 0.135277C4.88479 0.178701 4.84918 0.230339 4.82507 0.287177C4.80096 0.344016 4.78883 0.404916 4.78938 0.466325C4.78994 0.527734 4.80316 0.588422 4.8283 0.644848C4.85343 0.701273 4.88996 0.752307 4.93576 0.79497L6.82984 2.6218L0.479629 2.6218C0.352454 2.6218 0.230488 2.67053 0.140561 2.75726C0.0506343 2.844 0.000114311 2.96163 0.000114306 3.08429C0.000114301 3.20695 0.0506342 3.32459 0.140561 3.41132C0.230488 3.49806 0.352454 3.54678 0.479629 3.54678L6.82984 3.54678L4.93576 5.37362C4.84841 5.46084 4.80008 5.57767 4.80117 5.69893C4.80226 5.8202 4.85269 5.93619 4.9416 6.02194C5.0305 6.10769 5.15077 6.15633 5.2765 6.15739C5.40222 6.15844 5.52335 6.11182 5.61379 6.02758L8.3264 3.41127Z" fill="#401484"/>
<path d="M0.140396 8.13377C0.0505006 8.2205 4.20562e-07 8.33811 4.0448e-07 8.46075C3.88399e-07 8.58339 0.0505006 8.701 0.140396 8.78773L2.85301 11.404C2.89724 11.4482 2.95015 11.4834 3.00866 11.5077C3.06716 11.5319 3.13008 11.5447 3.19375 11.5452C3.25742 11.5457 3.32056 11.534 3.37949 11.5108C3.43842 11.4875 3.49196 11.4532 3.53698 11.4098C3.58201 11.3663 3.61761 11.3147 3.64172 11.2579C3.66583 11.201 3.67797 11.1401 3.67741 11.0787C3.67686 11.0173 3.66363 10.9566 3.6385 10.9002C3.61337 10.8438 3.57684 10.7927 3.53104 10.7501L1.63696 8.92324L7.98717 8.92324C8.11434 8.92324 8.23631 8.87451 8.32624 8.78778C8.41616 8.70105 8.46668 8.58341 8.46668 8.46075C8.46668 8.33809 8.41616 8.22046 8.32624 8.13372C8.23631 8.04699 8.11434 7.99826 7.98717 7.99826L1.63696 7.99826L3.53104 6.17143C3.61839 6.0842 3.66672 5.96737 3.66563 5.84611C3.66454 5.72485 3.61411 5.60885 3.5252 5.5231C3.43629 5.43735 3.31603 5.38871 3.1903 5.38766C3.06457 5.3866 2.94345 5.43322 2.85301 5.51747L0.140396 8.13377Z" fill="#401484"/>
</svg>
