<svg width="237" height="153" viewBox="0 0 237 153" fill="none" xmlns="http://www.w3.org/2000/svg">
<g clip-path="url(#clip0_302_3191)">
<path d="M148.3 86.4101C147.69 86.4101 147.095 86.2294 146.588 85.891C146.082 85.5526 145.687 85.0715 145.454 84.5087C145.221 83.9459 145.16 83.3269 145.279 82.7294C145.398 82.1319 145.691 81.583 146.122 81.1522C146.552 80.7215 147.101 80.4283 147.699 80.3095C148.296 80.1906 148.915 80.2516 149.478 80.4848C150.041 80.7179 150.522 81.1125 150.86 81.619C151.199 82.1255 151.38 82.7208 151.38 83.33C151.38 84.1468 151.055 84.9306 150.477 85.5082C149.9 86.0858 149.116 86.4101 148.3 86.4101ZM148.3 77.89C147.224 77.89 146.172 78.2093 145.277 78.807C144.383 79.4048 143.685 80.2544 143.274 81.2484C142.862 82.2425 142.754 83.3362 142.964 84.3915C143.174 85.4468 143.692 86.4159 144.453 87.1767C145.214 87.9375 146.183 88.4555 147.238 88.6654C148.294 88.8753 149.387 88.7676 150.381 88.3559C151.375 87.9441 152.225 87.247 152.823 86.3524C153.421 85.4578 153.74 84.4059 153.74 83.33C153.737 81.888 153.163 80.5059 152.143 79.4862C151.124 78.4666 149.742 77.8927 148.3 77.89ZM143.94 116.23H152.77V90.9301H143.94V116.23ZM80.7395 116.41V108.22C80.7395 106.235 79.9518 104.332 78.5493 102.928C77.1468 101.523 75.2443 100.733 73.2595 100.73C75.2181 100.699 77.0859 99.8992 78.4607 98.5038C79.8355 97.1085 80.6071 95.2287 80.6095 93.2699V86.0004C80.6095 84.0139 79.8204 82.1087 78.4158 80.704C77.0111 79.2994 75.106 78.5102 73.1195 78.5102H71.7695L64.8595 83.1903V78.5102H56.0095V116.18H64.8395V88.2602L71.7495 83.4003V95.5102C71.7509 96.5763 71.475 97.6247 70.9491 98.5521C70.4232 99.4796 69.6652 100.254 68.7495 100.8H68.9196C69.8345 101.345 70.5921 102.118 71.118 103.043C71.644 103.969 71.9202 105.015 71.9196 106.08V116.46L80.7395 116.41ZM124.53 116.16V78.5102H115.699V94.83L108.699 99.5302V78.5302H99.8695V116.64H108.699V104.64L115.699 99.85V116.19L124.53 116.16ZM146.41 84.2201L147.41 85.1703L150.229 82.35L149.229 81.35L146.41 84.2201ZM106.25 55.2201L105.719 58.31L108.5 56.85L111.28 58.31L110.75 55.2201L112.99 53.0302L109.89 52.58L108.5 49.7699L107.109 52.58L104.01 53.0302L106.25 55.2201ZM10.5396 83.2201C10.4191 83.6256 10.1732 83.9827 9.83716 84.2396C9.50116 84.4966 9.09236 84.6403 8.66949 84.6503C8.46726 84.6801 8.26175 84.6801 8.05951 84.6503C7.89091 84.5623 7.7332 84.4546 7.58954 84.33C7.19623 83.9298 6.97583 83.3911 6.97583 82.83C6.97583 82.2689 7.19623 81.7302 7.58954 81.33C7.9016 81.0361 8.29576 80.8445 8.71954 80.7802C8.87558 80.7603 9.03354 80.7603 9.18958 80.7802C9.44462 80.8515 9.68295 80.9729 9.89075 81.1371C10.0985 81.3013 10.2716 81.5051 10.4 81.7367C10.5284 81.9684 10.6094 82.223 10.6385 82.4862C10.6677 82.7495 10.6443 83.0158 10.5696 83.2699M8.69952 88.7104C8.11905 88.7239 7.53964 88.6532 6.97949 88.5004C5.99291 88.2236 5.09636 87.6925 4.37952 86.9604L5.37952 86.5004C5.67597 86.3596 5.99353 86.2683 6.31952 86.2304C6.99238 86.7985 7.82281 87.1474 8.69952 87.2304V88.7104ZM4.25952 85.06L3.5495 85.9301C3.09695 85.2132 2.80149 84.4087 2.68256 83.5692C2.56362 82.7298 2.62391 81.8744 2.8595 81.06C2.96372 80.6903 3.10446 80.332 3.27954 79.9901L4.1095 80.8803C4.39135 81.1912 4.60887 81.5547 4.74951 81.9501C4.61963 82.6133 4.64359 83.2975 4.81952 83.9501C4.71093 84.3607 4.52045 84.7449 4.25952 85.08M8.69952 76.7401V78.4501C7.73346 78.5316 6.82207 78.9328 6.1095 79.5902C5.76791 79.575 5.43067 79.5073 5.1095 79.39L3.94952 78.9501C4.5205 78.2492 5.24247 77.6863 6.06152 77.3036C6.88058 76.9209 7.77553 76.7284 8.6795 76.7401M24.0195 125.94H17.5095V87.2504H23.4296C23.4296 83.1204 25.8995 79.5403 27.6095 78.6503C27.6343 78.6399 27.6544 78.6203 27.666 78.5961C27.6776 78.5718 27.68 78.5443 27.6726 78.5185C27.6652 78.4926 27.6486 78.4704 27.626 78.456C27.6033 78.4415 27.5761 78.4361 27.5496 78.4403H17.5496V60.87H24.0095C24.5813 62.6481 25.7028 64.1989 27.2124 65.2987C28.722 66.3986 30.5418 66.9909 32.4095 66.9901H35.0095V58.1601H8.66949V74.1601L8.41949 75.0399L8.33954 75.1103C7.95961 75.1177 7.58123 75.1611 7.20953 75.2401L7.1095 75.1903L6.66949 74.39C6.65776 74.3819 6.64382 74.3778 6.62952 74.3778C6.61521 74.3778 6.60128 74.3819 6.58954 74.39C6.19711 74.4831 5.81257 74.6069 5.43951 74.7602C5.43249 74.7723 5.42883 74.7861 5.42883 74.8002C5.42883 74.8142 5.43249 74.8281 5.43951 74.8402L5.5495 75.7504L5.49951 75.8402C5.15351 75.9995 4.81933 76.1831 4.49951 76.39H4.38953L3.6795 75.8202C3.6669 75.8096 3.65098 75.8036 3.63452 75.8036C3.61806 75.8036 3.60215 75.8096 3.58954 75.8202C3.26182 76.0583 2.95107 76.3187 2.65955 76.6C2.64896 76.6126 2.64313 76.6285 2.64313 76.6449C2.64313 76.6614 2.64896 76.6777 2.65955 76.6903L3.1095 77.4901C3.1095 77.4901 3.1095 77.56 3.1095 77.6C2.85128 77.8753 2.61399 78.1698 2.39954 78.4804H2.2995L1.41949 78.2201C1.40849 78.2103 1.39428 78.205 1.37952 78.205C1.36476 78.205 1.35054 78.2103 1.33954 78.2201C1.12529 78.5651 0.938062 78.9263 0.779541 79.3002C0.770513 79.3135 0.765686 79.3291 0.765686 79.3451C0.765686 79.3612 0.770513 79.3768 0.779541 79.39L1.49951 79.9501V80.06C1.42757 80.2358 1.36744 80.4162 1.31952 80.6C1.26564 80.7807 1.22223 80.9646 1.18951 81.1503C1.15847 81.1681 1.13126 81.1917 1.1095 81.2201L0.199524 81.31C0.181693 81.3121 0.165102 81.3202 0.152405 81.3329C0.139708 81.3456 0.131636 81.3624 0.129517 81.3803C0.0664374 81.7806 0.0330376 82.185 0.029541 82.5902C0.0242355 82.6011 0.0214844 82.6133 0.0214844 82.6254C0.0214844 82.6375 0.0242355 82.6492 0.029541 82.6601L0.919495 82.9003L0.979492 82.9901C0.998101 83.3692 1.04153 83.7466 1.1095 84.12V84.2104L0.2995 84.6503C0.292466 84.6642 0.288818 84.6796 0.288818 84.6952C0.288818 84.7108 0.292466 84.7262 0.2995 84.7401C0.398593 85.1309 0.522165 85.5148 0.669495 85.89C0.681232 85.8982 0.695231 85.9027 0.709534 85.9027C0.723836 85.9027 0.737774 85.8982 0.749512 85.89L1.65955 85.7802L1.75952 85.8402C1.91622 86.1875 2.10011 86.5219 2.30951 86.8402C2.30501 86.8768 2.30501 86.9136 2.30951 86.9501L1.7395 87.6703C1.73312 87.6759 1.72805 87.6826 1.72455 87.6903C1.72105 87.6981 1.71918 87.7067 1.71918 87.7152C1.71918 87.7237 1.72105 87.7319 1.72455 87.7396C1.72805 87.7474 1.73312 87.7545 1.7395 87.7602C1.9807 88.0852 2.24474 88.3925 2.52954 88.6801C2.53517 88.6865 2.54211 88.6917 2.54987 88.6952C2.55762 88.6987 2.56601 88.7006 2.57452 88.7006C2.58304 88.7006 2.59142 88.6987 2.59918 88.6952C2.60694 88.6917 2.61388 88.6865 2.61951 88.6801L3.41949 88.2304H3.51953C3.79843 88.4855 4.09593 88.7191 4.40955 88.9301C4.40395 88.9632 4.40395 88.9971 4.40955 89.0302L4.14954 89.9101C4.14051 89.9233 4.13568 89.9389 4.13568 89.955C4.13568 89.971 4.14051 89.9871 4.14954 90.0004C4.49693 90.2075 4.85768 90.391 5.22949 90.5502C5.24049 90.56 5.25477 90.5653 5.26953 90.5653C5.28429 90.5653 5.29851 90.56 5.30951 90.5502L5.87952 89.83H5.97949L6.51953 90.0004C6.70035 90.0564 6.88391 90.1028 7.06952 90.14L7.13953 90.2201L7.2395 91.1303C7.24384 91.1456 7.25148 91.1597 7.26184 91.1718C7.2722 91.1839 7.28503 91.1935 7.2995 91.2001C7.70044 91.2579 8.10454 91.2914 8.50952 91.3002C8.52648 91.3004 8.54291 91.2941 8.55579 91.2831C8.56866 91.2721 8.57711 91.2569 8.57953 91.2401L8.66949 90.9003V128.61H35.0095V119.78H32.4095C30.543 119.779 28.7242 120.37 27.2147 121.468C25.7053 122.566 24.583 124.114 24.0095 125.89M107.56 43.2104L106.82 41.7001L106.07 43.2104L104.41 43.4501L105.609 44.62L105.329 46.2802L106.82 45.5004L108.3 46.2802L108.02 44.62L109.229 43.4501L107.56 43.2104ZM122.209 47.2699V39.2699H119.949V42.6103L117.24 39.2699H115.01V47.2699H117.27V42.8402L119.979 46.1601V47.2699H122.209ZM89.2095 100.82L87.8395 103.2H85.0795L83.7095 100.82L85.0795 98.4301H87.8395L89.2095 100.82ZM30.5295 74.7201V76.5102C30.5298 76.5266 30.5341 76.5426 30.5421 76.557C30.5501 76.5714 30.5616 76.5838 30.5754 76.5927C30.5893 76.6016 30.6052 76.607 30.6216 76.6083C30.638 76.6096 30.6545 76.6066 30.6696 76.6C31.9407 75.9355 33.3552 75.5922 34.7896 75.6H50.5095V75.6503H86.3595V95.4804C84.974 95.5983 83.6834 96.2317 82.7428 97.2558C81.8022 98.2798 81.2803 99.6197 81.2803 101.01C81.2803 102.401 81.8022 103.74 82.7428 104.765C83.6834 105.789 84.974 106.422 86.3595 106.54V128.66C88.7014 128.66 90.9473 127.73 92.6033 126.074C94.2592 124.418 95.1896 122.172 95.1896 119.83V75.6103H208.19C208.191 74.9029 208.053 74.2021 207.783 73.5482C207.513 72.8944 207.117 72.2999 206.617 71.7992C206.118 71.2986 205.524 70.9018 204.871 70.6308C204.217 70.3598 203.517 70.2201 202.81 70.2201H35.0696C33.8655 70.2201 32.7107 70.6983 31.8593 71.5497C31.0078 72.4011 30.5295 73.5561 30.5295 74.7602M181.39 116.29V78.5102H174.829V88.5102L166.74 78.5102H158.55V116.31H166.74V86.0102L174.839 95.89V116.31L181.39 116.29ZM41.6796 96.5902L34.7896 101.27V87.3202H41.6796V96.5902ZM25.9595 87.3202V116.16H34.7896V106.35L41.6796 101.59V116.16H50.5095V78.5102H34.7896C32.4477 78.5102 30.2017 79.4406 28.5458 81.0966C26.8898 82.7525 25.9595 84.9984 25.9595 87.3402M205.63 126.25C205.596 126.309 205.56 126.366 205.52 126.42C205.065 126.871 204.45 127.123 203.81 127.123C203.169 127.123 202.555 126.871 202.099 126.42C202.059 126.366 202.023 126.309 201.99 126.25C201.592 125.794 201.382 125.204 201.402 124.599C201.422 123.993 201.672 123.419 202.099 122.99C202.532 122.522 203.132 122.245 203.769 122.22C204.406 122.194 205.026 122.423 205.495 122.855C205.963 123.288 206.24 123.888 206.265 124.525C206.29 125.161 206.062 125.782 205.63 126.25ZM203.82 119.71H138.51V87.3202C138.51 84.9784 137.579 82.7325 135.923 81.0766C134.267 79.4206 132.021 78.4901 129.68 78.4901V126.25H199.07C199.354 127.128 199.875 127.91 200.576 128.51C201.277 129.109 202.131 129.504 203.042 129.648C203.953 129.793 204.887 129.683 205.739 129.33C206.592 128.977 207.33 128.395 207.872 127.648C208.414 126.902 208.739 126.02 208.811 125.1C208.883 124.18 208.699 123.259 208.28 122.437C207.86 121.615 207.222 120.925 206.434 120.444C205.647 119.963 204.742 119.709 203.82 119.71ZM166.719 148.89H164.88V147.89C164.561 148.274 164.16 148.582 163.707 148.789C163.253 148.997 162.758 149.1 162.26 149.09C161.802 149.08 161.351 148.978 160.934 148.79C160.517 148.603 160.142 148.332 159.831 147.996C159.52 147.661 159.28 147.265 159.125 146.835C158.971 146.404 158.904 145.947 158.93 145.49C158.903 145.029 158.968 144.568 159.121 144.133C159.275 143.698 159.514 143.298 159.824 142.956C160.134 142.614 160.509 142.337 160.927 142.142C161.345 141.947 161.798 141.838 162.26 141.82C162.733 141.814 163.201 141.91 163.633 142.104C164.065 142.297 164.449 142.583 164.76 142.94V139.6H166.76L166.719 148.89ZM158.49 146.01H153.099C153.127 146.255 153.202 146.491 153.322 146.706C153.442 146.921 153.603 147.11 153.797 147.262C153.991 147.414 154.213 147.525 154.45 147.59C154.688 147.655 154.936 147.672 155.18 147.64C155.974 147.663 156.747 147.381 157.339 146.85L158.44 148.03C157.539 148.833 156.365 149.259 155.16 149.22C152.57 149.22 151.01 147.64 151.01 145.48C151.01 144.488 151.404 143.537 152.105 142.835C152.806 142.134 153.758 141.74 154.75 141.74C155.741 141.74 156.693 142.134 157.394 142.835C158.095 143.537 158.49 144.488 158.49 145.48V146.01ZM150.74 143.73H149.94V148.89H147.94V143.73H147.15V142.08H147.94V140.42L149.94 140.07V142.07H150.74V143.73ZM146.56 141.21H144.56V139.63H146.56V141.21ZM146.56 148.89H144.56V142.07H146.56V148.89ZM143.65 148.89H141.65V145.02C141.65 144.02 141.08 143.63 140.37 143.63C140.025 143.625 139.693 143.755 139.444 143.993C139.195 144.23 139.05 144.556 139.04 144.9V148.9H137.04V142.09H138.9V142.92C139.178 142.601 139.523 142.346 139.909 142.174C140.296 142.001 140.716 141.915 141.14 141.92C141.471 141.908 141.801 141.966 142.109 142.09C142.416 142.214 142.694 142.402 142.924 142.641C143.155 142.879 143.332 143.164 143.445 143.475C143.558 143.787 143.604 144.119 143.579 144.45L143.65 148.89ZM136.16 148.89H134.29V148.06C134.014 148.38 133.671 148.636 133.286 148.809C132.901 148.981 132.482 149.067 132.06 149.06C131.729 149.072 131.399 149.015 131.092 148.891C130.784 148.766 130.507 148.579 130.278 148.34C130.048 148.101 129.872 147.816 129.76 147.504C129.648 147.192 129.604 146.86 129.63 146.53V142.07H131.63V145.94C131.63 146.94 132.2 147.33 132.91 147.33C133.254 147.335 133.586 147.205 133.835 146.968C134.084 146.73 134.229 146.404 134.24 146.06V142.06H136.24L136.16 148.89ZM126.67 148.89H124.829V147.89C124.509 148.274 124.106 148.582 123.651 148.789C123.196 148.997 122.7 149.1 122.199 149.09C121.743 149.079 121.293 148.976 120.877 148.788C120.461 148.599 120.087 148.329 119.777 147.993C119.468 147.657 119.229 147.263 119.074 146.833C118.92 146.403 118.854 145.946 118.88 145.49C118.853 145.03 118.918 144.57 119.07 144.135C119.223 143.701 119.461 143.301 119.77 142.959C120.079 142.618 120.453 142.341 120.87 142.145C121.287 141.95 121.739 141.839 122.199 141.82C122.674 141.813 123.145 141.909 123.578 142.103C124.012 142.296 124.398 142.582 124.709 142.94V139.6H126.709L126.67 148.89ZM118.14 148.89H116.14V139.63H118.14V148.89ZM115.54 144.19C115.417 144.148 115.289 144.127 115.16 144.13C114.771 144.094 114.383 144.199 114.067 144.427C113.75 144.655 113.527 144.99 113.44 145.37V148.89H111.44V142.08H113.3V143.51C113.471 143.105 113.746 142.751 114.097 142.486C114.448 142.221 114.863 142.054 115.3 142H115.52L115.54 144.19ZM106.75 149.19C106.02 149.142 105.321 148.88 104.738 148.439C104.154 147.998 103.713 147.397 103.467 146.708C103.222 146.019 103.183 145.274 103.355 144.564C103.528 143.853 103.904 143.209 104.438 142.709C104.972 142.21 105.641 141.878 106.361 141.753C107.082 141.629 107.823 141.717 108.493 142.009C109.164 142.3 109.735 142.781 110.136 143.392C110.536 144.004 110.75 144.719 110.75 145.45C110.741 145.961 110.629 146.465 110.422 146.932C110.215 147.398 109.915 147.819 109.542 148.168C109.169 148.517 108.73 148.787 108.25 148.963C107.77 149.138 107.26 149.216 106.75 149.19ZM98.8295 148.86L97.4995 144.78L96.1995 148.86H94.3295L91.9995 142.05H94.0095L95.2395 146.3L96.5696 142.05H98.3495L99.6796 146.32L100.92 142.05H102.92L100.64 148.86H98.8295ZM89.8295 145.98H84.4396C84.4667 146.225 84.5423 146.462 84.6621 146.677C84.7819 146.892 84.9434 147.081 85.1371 147.232C85.3308 147.384 85.5528 147.496 85.7902 147.56C86.0275 147.625 86.2755 147.642 86.5195 147.61C87.3142 147.634 88.0875 147.351 88.6796 146.82L89.7896 148C88.8842 148.801 87.7076 149.227 86.4995 149.19C83.9095 149.19 82.3495 147.61 82.3495 145.45C82.3495 144.458 82.7436 143.507 83.4449 142.806C84.1463 142.104 85.0976 141.71 86.0895 141.71C87.0814 141.71 88.0327 142.104 88.7341 142.806C89.4355 143.507 89.8295 144.458 89.8295 145.45V145.98ZM81.6595 148.86H79.6595V144.99C79.6595 143.99 79.0895 143.6 78.3795 143.6C78.0355 143.595 77.7031 143.725 77.4542 143.963C77.2054 144.2 77.06 144.526 77.0496 144.87V148.87H75.0496V142.06H76.9095V142.89C77.188 142.571 77.5326 142.316 77.9194 142.143C78.3062 141.971 78.726 141.884 79.1495 141.89C79.481 141.878 79.8112 141.936 80.1188 142.06C80.4263 142.184 80.7042 142.372 80.9344 142.61C81.1647 142.849 81.342 143.133 81.4548 143.445C81.5677 143.757 81.6136 144.09 81.5895 144.42L81.6595 148.86ZM70.3895 149.19C69.66 149.142 68.9607 148.88 68.3776 148.439C67.7944 147.998 67.353 147.397 67.1074 146.708C66.8619 146.019 66.8228 145.274 66.9954 144.564C67.1679 143.853 67.5443 143.209 68.0784 142.709C68.6124 142.21 69.2808 141.878 70.0012 141.753C70.7216 141.629 71.4627 141.717 72.1333 142.009C72.8039 142.3 73.3748 142.781 73.7756 143.392C74.1765 144.004 74.3898 144.719 74.3895 145.45C74.3808 145.961 74.2694 146.465 74.062 146.932C73.8546 147.398 73.5554 147.819 73.1823 148.168C72.8091 148.517 72.3695 148.787 71.8898 148.963C71.41 149.138 70.8998 149.216 70.3895 149.19ZM178.89 140.95L176.24 136.73H58.4296L55.7695 140.97C54.8819 141.228 54.1021 141.768 53.5472 142.507C52.9924 143.247 52.6924 144.146 52.6924 145.07C52.6924 145.995 52.9924 146.894 53.5472 147.633C54.1021 148.373 54.8819 148.912 55.7695 149.17L57.8395 152.81H176.699L178.77 149.19C179.668 148.938 180.459 148.398 181.022 147.654C181.585 146.91 181.89 146.003 181.89 145.07C181.89 144.137 181.585 143.229 181.022 142.486C180.459 141.742 179.668 141.203 178.77 140.95M213.53 49.6303C213.53 49.4836 213.5 49.3384 213.441 49.204C213.382 49.0696 213.296 48.9489 213.188 48.85C213.079 48.7511 212.951 48.6758 212.812 48.6293C212.673 48.5828 212.526 48.566 212.38 48.58L210.219 48.8002C210.113 48.8078 210.014 48.8555 209.942 48.9335C209.869 49.0115 209.829 49.1137 209.829 49.2201V50.0399C209.829 50.1463 209.869 50.2491 209.942 50.327C210.014 50.405 210.113 50.4528 210.219 50.4604L212.38 50.6801C212.526 50.694 212.673 50.6772 212.812 50.6308C212.951 50.5843 213.079 50.5095 213.188 50.4105C213.296 50.3116 213.382 50.1909 213.441 50.0565C213.5 49.9222 213.53 49.777 213.53 49.6303ZM226.229 79.4901L225.63 80.2304H229.51C231.478 80.2304 233.367 79.4488 234.76 78.0575C236.153 76.6663 236.937 74.7788 236.94 72.81V66.0399C236.94 65.0017 236.735 63.9737 236.337 63.0145C235.94 62.0554 235.357 61.1843 234.622 60.4506C233.887 59.7169 233.015 59.1351 232.056 58.7387C231.096 58.3422 230.068 58.1387 229.03 58.14H219.089C216.995 58.1427 214.987 58.976 213.506 60.4569C212.025 61.9379 211.192 63.9455 211.19 66.0399V84.6503L227.99 95.7304V107.51H228.099C228.239 107.57 228.35 107.681 228.408 107.822C228.466 107.962 228.466 108.119 228.41 108.26L228.099 108.99C228.052 109.117 228.049 109.256 228.091 109.385C228.132 109.514 228.217 109.625 228.329 109.7C228.44 109.778 228.575 109.815 228.71 109.804C228.846 109.793 228.973 109.735 229.07 109.64L229.62 109.09C229.673 109.035 229.736 108.991 229.807 108.961C229.877 108.931 229.953 108.916 230.03 108.916C230.106 108.916 230.182 108.931 230.252 108.961C230.323 108.991 230.386 109.035 230.44 109.09L231.12 109.77C231.225 109.878 231.284 110.024 231.284 110.175C231.284 110.327 231.225 110.472 231.12 110.58L230.56 111.13C230.467 111.226 230.41 111.35 230.397 111.483C230.385 111.615 230.417 111.749 230.49 111.86C230.494 111.887 230.494 111.914 230.49 111.94C230.563 112.052 230.673 112.134 230.801 112.172C230.929 112.211 231.067 112.203 231.19 112.15L231.92 111.85C231.99 111.821 232.065 111.806 232.141 111.807C232.217 111.807 232.292 111.823 232.362 111.852C232.432 111.882 232.495 111.926 232.548 111.98C232.601 112.035 232.642 112.099 232.67 112.17L233.03 113.05C233.087 113.192 233.086 113.351 233.028 113.493C232.97 113.635 232.86 113.748 232.719 113.81L231.99 114.1C231.869 114.152 231.769 114.244 231.707 114.361C231.645 114.477 231.625 114.611 231.65 114.74V114.79C231.673 114.922 231.742 115.041 231.844 115.127C231.947 115.213 232.076 115.26 232.209 115.26H233C233.151 115.26 233.296 115.32 233.403 115.427C233.509 115.534 233.57 115.679 233.57 115.83V116.83C233.57 116.982 233.51 117.128 233.403 117.237C233.297 117.345 233.152 117.407 233 117.41H232.209C232.075 117.408 231.945 117.455 231.842 117.541C231.74 117.628 231.671 117.748 231.65 117.88C231.645 117.91 231.645 117.94 231.65 117.97C231.625 118.1 231.645 118.234 231.707 118.35C231.769 118.466 231.869 118.558 231.99 118.61L232.709 118.91C232.78 118.937 232.845 118.979 232.899 119.032C232.953 119.085 232.996 119.149 233.025 119.219C233.054 119.289 233.069 119.364 233.068 119.44C233.067 119.516 233.05 119.591 233.02 119.66L232.65 120.55C232.59 120.69 232.478 120.8 232.338 120.858C232.198 120.916 232.04 120.917 231.9 120.86L231.18 120.56C231.054 120.51 230.915 120.504 230.786 120.544C230.656 120.584 230.545 120.668 230.469 120.78C230.395 120.892 230.36 121.026 230.371 121.161C230.382 121.295 230.438 121.421 230.53 121.52L231.089 122.08C231.195 122.188 231.254 122.334 231.254 122.485C231.254 122.637 231.195 122.782 231.089 122.89L230.41 123.57C230.3 123.677 230.152 123.736 230 123.736C229.847 123.736 229.699 123.677 229.589 123.57L229.04 123.01C228.945 122.919 228.823 122.862 228.692 122.849C228.561 122.836 228.43 122.869 228.32 122.94L228.24 122.99C228.129 123.065 228.047 123.175 228.007 123.302C227.967 123.429 227.972 123.566 228.02 123.69L228.32 124.42C228.376 124.561 228.375 124.718 228.318 124.858C228.26 124.998 228.149 125.111 228.01 125.17L227.12 125.53C226.979 125.587 226.821 125.586 226.681 125.528C226.541 125.47 226.429 125.36 226.37 125.22L226.07 124.49C226.019 124.368 225.927 124.267 225.811 124.205C225.694 124.143 225.559 124.124 225.43 124.15C225.298 124.174 225.179 124.243 225.093 124.345C225.007 124.447 224.96 124.577 224.959 124.71V125.5C224.957 125.652 224.895 125.797 224.786 125.904C224.678 126.01 224.532 126.07 224.38 126.07H223.38C223.228 126.07 223.083 126.01 222.976 125.903C222.87 125.796 222.81 125.652 222.81 125.5V124.71C222.809 124.577 222.762 124.447 222.676 124.345C222.59 124.243 222.471 124.174 222.339 124.15H222.25C222.12 124.122 221.984 124.14 221.867 124.203C221.75 124.265 221.659 124.367 221.609 124.49L221.31 125.22C221.248 125.36 221.134 125.471 220.992 125.529C220.85 125.587 220.692 125.587 220.55 125.53L219.67 125.16C219.599 125.131 219.535 125.088 219.482 125.034C219.428 124.979 219.386 124.915 219.357 124.845C219.328 124.774 219.314 124.698 219.314 124.622C219.314 124.546 219.33 124.471 219.359 124.4L219.66 123.68C219.711 123.554 219.716 123.413 219.674 123.283C219.632 123.153 219.545 123.042 219.43 122.97C219.317 122.895 219.182 122.861 219.047 122.874C218.912 122.887 218.786 122.945 218.69 123.04L218.14 123.59C218.03 123.697 217.882 123.756 217.729 123.756C217.577 123.756 217.43 123.697 217.32 123.59L216.65 122.91C216.595 122.858 216.551 122.795 216.521 122.725C216.492 122.656 216.476 122.581 216.476 122.505C216.476 122.43 216.492 122.355 216.521 122.285C216.551 122.215 216.595 122.152 216.65 122.1L217.199 121.54C217.293 121.447 217.351 121.324 217.363 121.193C217.376 121.061 217.343 120.93 217.27 120.82V120.74C217.196 120.629 217.086 120.547 216.958 120.508C216.83 120.47 216.692 120.478 216.57 120.53L215.849 120.82C215.707 120.877 215.549 120.877 215.407 120.819C215.265 120.761 215.151 120.65 215.089 120.51L214.729 119.62C214.673 119.479 214.673 119.322 214.731 119.182C214.789 119.042 214.9 118.93 215.04 118.87L215.77 118.57C215.892 118.52 215.994 118.428 216.058 118.312C216.121 118.195 216.143 118.061 216.12 117.93C216.094 117.798 216.023 117.678 215.919 117.593C215.815 117.507 215.684 117.46 215.55 117.46H214.77C214.616 117.46 214.468 117.399 214.359 117.29C214.251 117.182 214.19 117.034 214.19 116.88V115.88C214.19 115.805 214.205 115.729 214.234 115.66C214.263 115.59 214.306 115.527 214.36 115.474C214.414 115.42 214.478 115.379 214.548 115.35C214.619 115.322 214.694 115.309 214.77 115.31H215.55C215.684 115.31 215.815 115.263 215.919 115.178C216.023 115.092 216.094 114.973 216.12 114.84V114.75C216.15 114.621 216.132 114.484 216.07 114.366C216.007 114.248 215.904 114.158 215.78 114.11L215.06 113.81C214.919 113.748 214.809 113.635 214.751 113.493C214.693 113.351 214.692 113.192 214.75 113.05L215.12 112.17C215.179 112.031 215.291 111.92 215.431 111.862C215.571 111.804 215.729 111.804 215.87 111.86L216.589 112.16C216.716 112.213 216.857 112.22 216.987 112.178C217.118 112.135 217.229 112.047 217.3 111.93C217.378 111.818 217.415 111.681 217.405 111.544C217.394 111.407 217.335 111.279 217.24 111.18L216.69 110.63C216.635 110.578 216.591 110.515 216.561 110.445C216.532 110.376 216.516 110.301 216.516 110.225C216.516 110.149 216.532 110.074 216.561 110.005C216.591 109.935 216.635 109.873 216.69 109.82L217.359 109.14C217.413 109.085 217.476 109.042 217.547 109.012C217.617 108.982 217.693 108.966 217.77 108.966C217.846 108.966 217.922 108.982 217.992 109.012C218.063 109.042 218.126 109.085 218.18 109.14L218.729 109.69C218.825 109.783 218.95 109.84 219.082 109.852C219.215 109.865 219.348 109.833 219.459 109.76L219.53 109.71C219.642 109.64 219.726 109.532 219.766 109.406C219.806 109.279 219.8 109.142 219.75 109.02L219.449 108.29C219.42 108.22 219.406 108.145 219.406 108.069C219.406 107.993 219.422 107.917 219.452 107.848C219.481 107.778 219.525 107.715 219.579 107.662C219.634 107.609 219.699 107.567 219.77 107.54L220.01 107.44V96.7602L211.199 91.3202V115.76C211.151 117.481 211.449 119.194 212.075 120.798C212.7 122.402 213.641 123.864 214.841 125.099C216.041 126.333 217.477 127.314 219.063 127.984C220.649 128.654 222.353 128.999 224.074 128.999C225.796 128.999 227.5 128.654 229.086 127.984C230.672 127.314 232.108 126.333 233.308 125.099C234.508 123.864 235.449 122.402 236.074 120.798C236.7 119.194 236.997 117.481 236.949 115.76V95.7602L220.15 84.6801V61.7899C220.15 61.3417 220.328 60.9121 220.645 60.5951C220.961 60.2782 221.391 60.1 221.839 60.1H226.44C226.889 60.1 227.32 60.278 227.638 60.5946C227.957 60.9113 228.137 61.3408 228.14 61.7899V74.2104C228.142 76.1473 227.47 78.0243 226.24 79.5199M223.91 112.52C224.679 112.52 225.431 112.748 226.071 113.176C226.71 113.603 227.209 114.21 227.503 114.921C227.798 115.632 227.875 116.414 227.725 117.169C227.575 117.923 227.204 118.617 226.66 119.161C226.116 119.705 225.423 120.075 224.668 120.225C223.914 120.376 223.132 120.298 222.421 120.004C221.71 119.709 221.102 119.211 220.675 118.571C220.248 117.931 220.02 117.179 220.02 116.41C220.02 115.899 220.12 115.393 220.316 114.921C220.511 114.449 220.798 114.021 221.159 113.66C221.52 113.298 221.949 113.012 222.421 112.816C222.893 112.621 223.399 112.52 223.91 112.52ZM217.17 116.41C217.173 117.585 217.484 118.739 218.072 119.757C218.66 120.774 219.503 121.62 220.52 122.21C221.584 122.84 222.804 123.159 224.041 123.133C225.278 123.106 226.483 122.735 227.52 122.06C228.497 121.424 229.292 120.546 229.828 119.51C230.363 118.475 230.62 117.318 230.574 116.153C230.528 114.988 230.18 113.855 229.565 112.865C228.949 111.875 228.087 111.062 227.062 110.505C226.038 109.949 224.886 109.668 223.721 109.69C222.555 109.713 221.415 110.037 220.413 110.632C219.411 111.228 218.58 112.073 218.003 113.086C217.425 114.099 217.121 115.244 217.12 116.41M70.2295 143.41C69.8193 143.398 69.4149 143.509 69.0681 143.728C68.7213 143.948 68.448 144.266 68.2831 144.642C68.1182 145.017 68.0693 145.434 68.1427 145.838C68.2161 146.242 68.4085 146.614 68.6951 146.908C68.9816 147.201 69.3494 147.403 69.7512 147.486C70.153 147.57 70.5706 147.531 70.9503 147.375C71.3301 147.22 71.6548 146.954 71.8827 146.613C72.1106 146.272 72.2313 145.871 72.2295 145.46C72.2362 145.194 72.1894 144.928 72.0919 144.68C71.9944 144.431 71.8481 144.205 71.6617 144.014C71.4754 143.823 71.2526 143.67 71.0066 143.567C70.7606 143.463 70.4964 143.41 70.2295 143.41ZM85.9595 143.33C85.5737 143.322 85.198 143.453 84.9006 143.699C84.6033 143.945 84.4041 144.29 84.3395 144.67H87.5696C87.5111 144.289 87.315 143.942 87.0184 143.695C86.7218 143.448 86.3452 143.318 85.9595 143.33ZM98.9595 48.7304L98.2195 47.2201L97.4695 48.7304L95.8096 48.9701L97.0095 50.1503L96.7295 51.8002L98.2195 51.0199L99.7095 51.8002L99.4196 50.1503L100.63 48.9701L98.9595 48.7304ZM106.65 143.41C106.239 143.398 105.835 143.509 105.488 143.728C105.141 143.948 104.868 144.266 104.703 144.642C104.538 145.017 104.489 145.434 104.563 145.838C104.636 146.242 104.828 146.614 105.115 146.908C105.402 147.201 105.769 147.403 106.171 147.486C106.573 147.57 106.991 147.531 107.37 147.375C107.75 147.22 108.075 146.954 108.303 146.613C108.531 146.272 108.651 145.871 108.65 145.46C108.656 145.194 108.609 144.928 108.512 144.68C108.414 144.431 108.268 144.205 108.082 144.014C107.895 143.823 107.673 143.67 107.427 143.567C107.181 143.463 106.916 143.41 106.65 143.41ZM154.65 143.33C154.264 143.32 153.889 143.451 153.593 143.698C153.297 143.944 153.1 144.29 153.04 144.67H156.27C156.209 144.288 156.011 143.941 155.713 143.694C155.414 143.448 155.036 143.318 154.65 143.33ZM162.77 143.53C162.518 143.527 162.268 143.576 162.035 143.671C161.801 143.767 161.59 143.909 161.413 144.088C161.236 144.267 161.096 144.48 161.003 144.714C160.909 144.948 160.864 145.198 160.87 145.45C160.856 145.708 160.895 145.966 160.984 146.208C161.074 146.45 161.212 146.672 161.389 146.859C161.567 147.046 161.781 147.195 162.019 147.297C162.256 147.398 162.511 147.45 162.77 147.45C163.259 147.415 163.716 147.196 164.05 146.837C164.385 146.478 164.57 146.005 164.57 145.515C164.57 145.025 164.385 144.552 164.05 144.193C163.716 143.834 163.259 143.615 162.77 143.58M122.68 143.58C122.428 143.577 122.178 143.625 121.945 143.721C121.712 143.817 121.5 143.958 121.323 144.138C121.146 144.317 121.006 144.53 120.913 144.764C120.82 144.998 120.774 145.248 120.78 145.5C120.767 145.758 120.807 146.015 120.897 146.256C120.987 146.498 121.125 146.719 121.303 146.906C121.48 147.093 121.694 147.241 121.93 147.344C122.167 147.446 122.422 147.499 122.68 147.5C122.945 147.52 123.212 147.484 123.464 147.395C123.715 147.306 123.945 147.167 124.14 146.985C124.335 146.804 124.491 146.584 124.597 146.34C124.704 146.095 124.759 145.832 124.759 145.565C124.759 145.299 124.704 145.035 124.597 144.791C124.491 144.547 124.335 144.326 124.14 144.145C123.945 143.963 123.715 143.824 123.464 143.735C123.212 143.647 122.945 143.611 122.68 143.63M153.219 67.0502H155.5C154.444 57.9884 150.096 49.6301 143.282 43.5639C136.468 37.4976 127.663 34.1464 118.54 34.1464C109.417 34.1464 100.611 37.4976 93.7974 43.5639C86.9833 49.6301 82.6352 57.9884 81.5795 67.0502H84.0095C84.7955 60.8833 87.21 55.0372 91.0045 50.1127C94.7991 45.1882 99.8368 41.3632 105.6 39.0312C111.362 36.6991 117.642 35.944 123.794 36.8437C129.945 37.7433 135.746 40.2655 140.599 44.1503C141.678 45.0325 142.706 45.9738 143.68 46.9701L138.82 51.5199C138.066 50.7472 137.268 50.0195 136.43 49.3402C133.435 46.9158 129.973 45.1354 126.26 44.1103L125.65 46.2899C129.067 47.234 132.253 48.8713 135.01 51.1C135.77 51.7215 136.492 52.3894 137.17 53.1L128.699 61.0399L130.25 62.6903L138.699 54.7699C141.649 58.297 143.606 62.546 144.37 67.08H146.65C145.87 61.9668 143.689 57.1696 140.349 53.2201L145.209 48.6601C149.687 53.8609 152.526 60.2696 153.37 67.08M72.8295 42.1601C72.979 41.6196 73.2853 41.1357 73.7096 40.7689C74.1339 40.4022 74.6573 40.1692 75.2137 40.0995C75.7702 40.0298 76.3348 40.1266 76.8364 40.3773C77.3381 40.6281 77.7542 41.0218 78.0325 41.5087C78.3107 41.9956 78.4386 42.5537 78.3999 43.1132C78.3612 43.6727 78.1579 44.2082 77.8153 44.6522C77.4727 45.0963 77.0063 45.4289 76.475 45.6083C75.9436 45.7877 75.3711 45.8056 74.8295 45.6601C74.4676 45.5628 74.1286 45.3948 73.8319 45.1659C73.5352 44.937 73.2867 44.6519 73.1008 44.3266C72.9149 44.0012 72.7952 43.6422 72.7487 43.2704C72.7021 42.8986 72.7295 42.5212 72.8295 42.1601ZM70.7295 44.56L70.4795 45.2899C70.5897 45.537 70.7201 45.7749 70.8695 46.0004L71.6195 46.1801C71.7941 46.388 71.9847 46.582 72.1896 46.7602L72.3395 47.5199C72.5601 47.6718 72.7906 47.809 73.0295 47.9301L73.7695 47.7104L74.1595 47.8402C74.2872 47.8797 74.4175 47.9096 74.5496 47.9301L75.0596 48.5102C75.3292 48.5301 75.5999 48.5301 75.8695 48.5102L76.3995 47.9501C76.6635 47.9 76.924 47.8335 77.1796 47.7504L77.9196 48.0004C78.1616 47.8829 78.3954 47.7489 78.6195 47.6L78.7996 46.85C79.0073 46.6789 79.2012 46.4916 79.3795 46.2899L80.1395 46.14C80.297 45.9176 80.4374 45.6839 80.5596 45.4403L80.3295 44.7001C80.3295 44.5801 80.4195 44.4502 80.4595 44.3202C80.4995 44.1902 80.5296 44.0601 80.5596 43.9301L81.1395 43.4101C81.1595 43.1438 81.1595 42.8765 81.1395 42.6103L80.5795 42.08C80.5329 41.812 80.4661 41.5478 80.3795 41.2899L80.6295 40.56C80.5154 40.3149 80.3851 40.0778 80.2395 39.85L79.4795 39.6703C79.3085 39.4625 79.1213 39.2685 78.9196 39.0902L78.7695 38.33C78.5489 38.1781 78.3184 38.0414 78.0795 37.9203L77.3395 38.14L76.9495 38.0199L76.5596 37.9203L76.0496 37.3402C75.7799 37.3203 75.5091 37.3203 75.2395 37.3402L74.7095 37.9101C74.4447 37.9521 74.184 38.0156 73.9296 38.1L73.1896 37.8603C72.9458 37.9705 72.7116 38.1011 72.4895 38.2504L72.3096 39.0004C72.1018 39.1715 71.9078 39.3583 71.7295 39.56L70.9695 39.7201C70.8085 39.9367 70.668 40.1676 70.5496 40.4101L70.7695 41.1503L70.6495 41.5302C70.6495 41.6602 70.5796 41.7901 70.5496 41.9301L69.9695 42.4403C69.9496 42.7066 69.9496 42.9738 69.9695 43.2401L70.5295 43.7802C70.5726 44.0457 70.6395 44.3065 70.7295 44.56ZM182.729 60.9403C183.208 61.4212 183.509 62.05 183.584 62.724C183.659 63.3981 183.504 64.0775 183.143 64.6518C182.782 65.226 182.237 65.6612 181.597 65.8861C180.957 66.111 180.26 66.1123 179.62 65.89C178.951 65.6549 178.388 65.1908 178.029 64.58C177.67 63.9692 177.538 63.2514 177.658 62.5531C177.778 61.8548 178.141 61.2213 178.683 60.765C179.225 60.3088 179.911 60.0589 180.62 60.06C181.015 60.059 181.407 60.1365 181.772 60.2875C182.138 60.4385 182.47 60.6605 182.75 60.9403M181.29 53.1503L181.969 53.2401C182.421 53.3058 182.869 53.3991 183.31 53.5199C183.677 53.6205 184.038 53.7442 184.39 53.89C184.945 54.1184 185.478 54.4 185.979 54.7304C186.258 54.9031 186.525 55.0933 186.78 55.3002C187.12 55.5702 187.4 55.82 187.65 56.06C187.89 56.3074 188.117 56.5681 188.329 56.8402C188.515 57.0639 188.689 57.2973 188.849 57.5399C189.388 58.3342 189.805 59.2036 190.089 60.12C190.209 60.5208 190.306 60.9284 190.38 61.3402V61.4901C190.38 61.5801 190.38 61.6704 190.38 61.7504L190.469 62.4301H185.82L185.719 61.9604C185.548 61.1366 185.179 60.3669 184.644 59.7172C184.109 59.0675 183.425 58.5573 182.65 58.2304C182.33 58.0856 181.994 57.9779 181.65 57.9101L181.18 57.8002L181.29 53.1503ZM173.54 51.7504C173.91 52.7504 174.24 53.7502 174.54 54.8202C174.536 54.8768 174.536 54.9335 174.54 54.9901C174.535 55.0467 174.535 55.1035 174.54 55.1601C174.855 54.908 175.189 54.681 175.54 54.4804C175.827 54.3089 176.124 54.1549 176.43 54.0199L176.54 53.9701L176.82 53.85L177.01 53.7802L177.19 53.7201C177.695 53.5438 178.213 53.4066 178.74 53.31H178.87L179.19 53.2504L179.87 53.1703V57.81L179.4 57.9101C178.402 58.1192 177.487 58.6165 176.77 59.3402C176.391 59.7187 176.074 60.1539 175.829 60.6303C175.829 60.7303 175.83 60.8301 175.88 60.9301L175.94 61.2304C176.23 62.8504 176.449 64.4901 176.599 66.1601V66.5102C176.599 66.7002 176.599 66.9 176.599 67.1H184.01C184.12 67 184.229 66.9302 184.339 66.8202C185.056 66.1046 185.552 65.1991 185.77 64.2104L185.87 63.7304H190.52L190.42 64.4101C190.288 65.3359 190.026 66.2385 189.64 67.0902H193.69L194.12 65.4701L193.05 65.1801C193.05 64.9101 193.14 64.6302 193.17 64.3002H194.28V61.89H193.18C193.18 61.6 193.11 61.3102 193.06 61.0102L194.13 60.7304L193.51 58.4003L192.449 58.6801L192.329 58.37L192.18 58.0004C192.16 57.9485 192.137 57.898 192.109 57.85L193.109 57.31L191.91 55.2104L190.91 55.7602C190.74 55.5302 190.559 55.29 190.359 55.06L191.14 54.2802L189.44 52.5702L188.66 53.35L187.959 52.8002L188.51 51.8002L186.42 50.5902L185.87 51.5902C185.61 51.4702 185.34 51.3604 185.05 51.2504L185.329 50.1903L183 49.56L182.709 50.6303H182.51H182.31H182.089H181.829V49.5199H179.42V50.6303C179.12 50.6303 178.83 50.6901 178.54 50.7401L178.25 49.6703L175.92 50.2899L176.199 51.35C175.919 51.45 175.65 51.5703 175.38 51.6903L174.829 50.7401L173.41 51.56L173.469 51.7201C173.469 51.7701 173.469 51.83 173.469 51.89M97.6595 64.9901C97.0781 64.9901 96.5096 64.8176 96.0261 64.4945C95.5426 64.1715 95.1659 63.7124 94.9434 63.1752C94.7208 62.638 94.6626 62.0468 94.776 61.4765C94.8894 60.9062 95.1695 60.3823 95.5807 59.9711C95.9919 59.5599 96.5156 59.2798 97.0859 59.1664C97.6562 59.053 98.2475 59.1114 98.7847 59.3339C99.3219 59.5564 99.781 59.9334 100.104 60.4169C100.427 60.9004 100.599 61.4687 100.599 62.0502C100.599 62.8299 100.29 63.5774 99.7384 64.1288C99.187 64.6802 98.4393 64.9901 97.6595 64.9901ZM118.66 67.2201H119.78V61.1601C121.773 61.3648 123.664 62.1468 125.219 63.4101C126.505 64.427 127.532 65.7323 128.219 67.2201H130.66C129.862 65.0291 128.478 63.099 126.66 61.64C124.691 60.0698 122.307 59.1106 119.8 58.8803V51.0302H117.54V58.89C115.294 59.0934 113.142 59.8895 111.304 61.1967C109.466 62.5038 108.008 64.275 107.079 66.33L102.579 63.7304C102.986 62.5241 102.933 61.2101 102.431 60.0404C101.929 58.8708 101.013 57.9274 99.8585 57.391C98.7042 56.8547 97.3925 56.7631 96.1748 57.1337C94.9571 57.5043 93.9189 58.3108 93.259 59.3993C92.5992 60.4878 92.364 61.7816 92.5986 63.0326C92.8333 64.2837 93.5213 65.4042 94.5308 66.1796C95.5402 66.955 96.8002 67.3306 98.0695 67.2348C99.3387 67.1389 100.528 66.5783 101.41 65.6601L104.089 67.2201H108.609L109.04 67.4701C109.04 67.3801 109.13 67.3001 109.17 67.2201C109.921 65.5717 111.087 64.1467 112.554 63.0844C114.021 62.0221 115.739 61.359 117.54 61.1601V67.2201H118.66ZM121.13 2.22012C121.001 2.22013 120.874 2.25859 120.767 2.33047C120.66 2.40234 120.577 2.50457 120.528 2.62393C120.479 2.74328 120.467 2.87453 120.493 3.00088C120.519 3.12723 120.582 3.2429 120.674 3.3334C120.765 3.42389 120.882 3.48475 121.009 3.50869C121.136 3.53263 121.267 3.51841 121.385 3.46768C121.504 3.41694 121.605 3.33222 121.675 3.22402C121.745 3.11582 121.782 2.98922 121.78 2.86025C121.78 2.77536 121.763 2.691 121.73 2.61269C121.697 2.53439 121.649 2.46376 121.589 2.4042C121.528 2.34464 121.456 2.29758 121.378 2.26602C121.299 2.23445 121.214 2.21879 121.13 2.22012ZM75.0095 44.5102C75.3515 44.6088 75.715 44.6039 76.0542 44.496C76.3934 44.3881 76.6931 44.1819 76.9152 43.9037C77.1373 43.6256 77.2718 43.2882 77.302 42.9335C77.3322 42.5788 77.2566 42.2232 77.0847 41.9115C76.9128 41.5998 76.6523 41.3462 76.3362 41.1825C76.0201 41.0188 75.6627 40.9521 75.309 40.9916C74.9552 41.0311 74.6211 41.1749 74.3489 41.4042C74.0767 41.6335 73.8785 41.9383 73.7795 42.2802C73.6495 42.739 73.7057 43.2303 73.936 43.6479C74.1664 44.0654 74.5521 44.3754 75.0095 44.5102ZM201.65 44.39C202.02 44.3882 202.389 44.4286 202.75 44.5102L198.25 50.9301C198.217 50.9744 198.198 51.0268 198.195 51.0814C198.191 51.1361 198.203 51.191 198.229 51.2392C198.256 51.2873 198.295 51.3267 198.343 51.3534C198.39 51.3802 198.445 51.3929 198.5 51.39H201.5L200.839 55.6801C198.639 55.1901 196.949 52.6803 196.949 49.6303C196.949 46.5803 198.82 44.4301 201.609 44.4301M206.26 49.6303C206.26 52.7603 204.48 55.3501 202.18 55.7201H201.479L204.859 49.4101C204.887 49.3648 204.901 49.313 204.901 49.2602C204.901 49.2073 204.887 49.1555 204.859 49.1103C204.834 49.0673 204.797 49.0318 204.753 49.0072C204.709 48.9827 204.66 48.9698 204.609 48.9701H202.05L203.29 44.7401C205.12 45.4101 206.29 47.21 206.29 49.64M197.66 55.7401C197.486 55.7575 197.326 55.8387 197.209 55.9682C197.093 56.0976 197.029 56.2662 197.03 56.4403V59.6601C197.028 59.7528 197.045 59.845 197.08 59.9311C197.115 60.0171 197.166 60.0955 197.231 60.1615C197.296 60.2276 197.374 60.28 197.459 60.3158C197.545 60.3516 197.637 60.37 197.729 60.37H200.479V61.7504H198.56C198.277 61.7769 198.014 61.9077 197.823 62.1176C197.632 62.3275 197.526 62.6013 197.526 62.8852C197.526 63.169 197.632 63.4428 197.823 63.6527C198.014 63.8626 198.277 63.9934 198.56 64.0199H200.479V64.89H199.31C199.152 64.8752 198.992 64.8935 198.842 64.9437C198.691 64.994 198.553 65.0752 198.435 65.182C198.318 65.2889 198.224 65.4192 198.16 65.5644C198.096 65.7095 198.063 65.8666 198.063 66.0253C198.063 66.184 198.096 66.3406 198.16 66.4857C198.224 66.6309 198.318 66.7612 198.435 66.8681C198.553 66.9749 198.691 67.0561 198.842 67.1063C198.992 67.1566 199.152 67.1749 199.31 67.1601H203.91C204.068 67.1749 204.227 67.1566 204.377 67.1063C204.528 67.0561 204.666 66.9749 204.784 66.8681C204.901 66.7612 204.995 66.6309 205.059 66.4857C205.123 66.3406 205.156 66.184 205.156 66.0253C205.156 65.8666 205.123 65.7095 205.059 65.5644C204.995 65.4192 204.901 65.2889 204.784 65.182C204.666 65.0752 204.528 64.994 204.377 64.9437C204.227 64.8935 204.068 64.8752 203.91 64.89H202.74V64.0199H204.66C204.942 63.9934 205.205 63.8626 205.396 63.6527C205.587 63.4428 205.693 63.169 205.693 62.8852C205.693 62.6013 205.587 62.3275 205.396 62.1176C205.205 61.9077 204.942 61.7769 204.66 61.7504H202.74V60.37H205.55C205.642 60.37 205.734 60.3516 205.82 60.3158C205.905 60.28 205.983 60.2276 206.048 60.1615C206.113 60.0955 206.165 60.0171 206.199 59.9311C206.234 59.845 206.251 59.7528 206.25 59.6601V56.4403C206.25 56.2662 206.186 56.0976 206.07 55.9682C205.953 55.8387 205.793 55.7575 205.62 55.7401C207.182 54.098 208.033 51.906 207.99 49.64C207.99 45.58 205.38 42.7401 201.64 42.7401C197.9 42.7401 195.29 45.58 195.29 49.64C195.246 51.906 196.097 54.098 197.66 55.7401ZM194.76 44.2699C194.836 44.3438 194.938 44.3856 195.045 44.3856C195.151 44.3856 195.253 44.3438 195.329 44.2699L195.9 43.7104C195.97 43.6301 196.009 43.527 196.009 43.4203C196.009 43.3136 195.97 43.2105 195.9 43.1303L193.74 40.6103C193.645 40.5016 193.528 40.4132 193.398 40.351C193.268 40.2887 193.127 40.2541 192.982 40.2484C192.838 40.2428 192.694 40.2664 192.56 40.3183C192.425 40.3702 192.303 40.4492 192.199 40.5502C192.097 40.6534 192.017 40.7764 191.964 40.912C191.911 41.0476 191.887 41.1929 191.892 41.3383C191.898 41.4837 191.933 41.6261 191.997 41.7572C192.06 41.8883 192.149 42.005 192.26 42.1L194.76 44.2699ZM54.7595 45.2001C56.2327 45.2168 57.6549 45.7413 58.7863 46.685C59.9176 47.6287 60.6887 48.934 60.9695 50.3803C60.2477 49.9167 59.4304 49.6225 58.5787 49.5199C57.7271 49.4174 56.8632 49.5089 56.052 49.788C55.2408 50.067 54.5035 50.5264 53.8951 51.1312C53.2868 51.7361 52.8233 52.4706 52.5396 53.2802C52.2029 53.3099 51.8687 53.3635 51.5396 53.4403C50.6685 53.6409 49.8348 53.9785 49.0696 54.4403C48.59 53.4629 48.3684 52.3786 48.4261 51.2914C48.4839 50.2042 48.8189 49.1501 49.3993 48.2289C49.9796 47.3078 50.7861 46.5506 51.7418 46.0292C52.6976 45.5078 53.7708 45.2398 54.8595 45.2504M116.07 12.4101L115.93 12.1303C118.53 11.5103 121.699 9.47039 121.699 4.50039C121.699 4.30413 121.622 4.11573 121.483 3.97695C121.344 3.83818 121.156 3.76016 120.959 3.76016H118.959C119.061 3.17714 119.329 2.63562 119.729 2.2001C119.969 1.97328 120.252 1.79797 120.561 1.68447C120.871 1.57098 121.2 1.52154 121.53 1.53994C121.99 1.53732 122.442 1.65305 122.845 1.87539C123.248 2.09773 123.587 2.41929 123.829 2.80996C124.42 3.77012 124.712 4.8839 124.67 6.01016H122.88V7.48037H124.52C124.52 7.67037 124.44 7.86019 124.39 8.05019H122.01V9.51992H123.719L123.459 9.92031H120.63V11.39H121.859C120.053 12.3097 118.009 12.6584 116 12.39M114.07 10.8603H109.849C112.109 7.25025 117.11 6.10023 117.17 6.09023C117.346 6.04968 117.501 5.94566 117.606 5.79824C117.711 5.65082 117.759 5.46993 117.74 5.28994C117.73 5.21733 117.71 5.14657 117.68 5.07998C117.807 5.16454 117.957 5.21012 118.109 5.21035H120.109C119.66 10.8004 114.11 10.8603 114.05 10.8603M109.42 6.11025H113.05C112.282 6.51603 111.555 6.9946 110.88 7.53994L109.42 6.11025ZM118.599 15.9301H117.8L116.8 13.9301H117.3C117.899 13.9288 118.497 13.8855 119.089 13.8002L120.199 15.9701C119.679 15.9701 119.2 15.9701 118.65 15.9701M40.1495 67.0399H41.3096C41.2249 66.7133 41.1813 66.3774 41.1796 66.0399C41.1822 64.8685 41.6487 63.7462 42.4771 62.9179C43.3054 62.0895 44.428 61.6227 45.5995 61.62H46.0195H46.0995L47.0995 61.7104L47.2695 60.7104C47.4207 59.7815 47.7834 58.8996 48.3296 58.1332C48.8758 57.3668 49.5909 56.736 50.4196 56.2899C50.9211 56.0137 51.46 55.812 52.0195 55.6903C52.4889 55.5866 52.9689 55.5394 53.4495 55.5502H54.4495L54.6195 54.6C54.7139 54.0426 54.9455 53.5179 55.2932 53.0722C55.641 52.6265 56.094 52.2739 56.6117 52.0468C57.1294 51.8197 57.6955 51.7249 58.2589 51.7709C58.8224 51.8169 59.3654 52.002 59.8395 52.31C60.2961 52.6044 60.6738 53.0065 60.9396 53.4804C61.1257 53.7901 61.2606 54.1277 61.3395 54.4804C61.4046 54.8475 61.4046 55.2231 61.3395 55.5902L61.1796 57.0702L62.1796 56.9101L62.6495 56.8402H62.9095C64.2137 56.6809 65.5369 56.849 66.7595 57.33C67.1705 57.4963 67.5683 57.6939 67.9495 57.9203C69.4786 58.8279 70.6563 60.2253 71.2916 61.8861C71.9269 63.547 71.9825 65.3738 71.4495 67.0702H78.6595C78.6595 66.8302 78.6595 66.6 78.7295 66.37L77.0095 65.5102C77.0995 64.7802 77.2195 64.0703 77.3495 63.3603L79.2295 63.1801C79.3695 62.4801 79.5295 61.78 79.7095 61.1L78.0895 60.1C78.2795 59.4 78.4895 58.7099 78.7195 58.0199L80.6295 58.0902C80.8595 57.4202 81.1095 56.7602 81.3795 56.0902L79.8795 54.89C80.1695 54.22 80.4595 53.56 80.7795 52.89L82.6696 53.2104C82.9896 52.5803 83.3196 51.96 83.6696 51.35L82.3395 49.9501C82.6995 49.3201 83.0895 48.71 83.4795 48.1L85.3395 48.6703C85.7295 48.0903 86.1396 47.5204 86.5596 46.9604L85.4095 45.39C85.8595 44.82 86.3195 44.2601 86.7896 43.7001L88.5696 44.5199C89.0396 43.9999 89.5095 43.5204 89.9995 43.0004L88.9995 41.2699C89.5195 40.7599 89.9995 40.2702 90.5895 39.7802L92.2595 40.83C92.7795 40.37 93.3195 39.9302 93.8695 39.5102L93.1495 37.6601C93.7295 37.2201 94.3196 36.7903 94.9196 36.3803L96.4396 37.6503C97.0196 37.2603 97.5995 36.8899 98.1995 36.5399L97.7295 34.62C98.3595 34.26 98.9995 33.91 99.6495 33.62L101.01 35.0902C101.63 34.7902 102.25 34.5004 102.89 34.2304L102.67 32.2304C103.336 31.9504 104.003 31.6901 104.67 31.4501L105.829 33.0902C106.479 32.8702 107.139 32.6701 107.829 32.4901L107.88 30.4901C108.58 30.3101 109.28 30.1401 110 29.9901L110.93 31.7602C111.61 31.6302 112.29 31.5203 112.93 31.4203L113.229 29.4203C113.569 29.3703 113.899 29.3502 114.229 29.3202C114.559 29.2902 115 29.2301 115.4 29.2001L116.099 31.0902L117.099 31.0199H118.099L118.52 29.5902L118.66 29.0902C119.39 29.0902 120.119 29.0903 120.839 29.1503L121.26 30.9701V31.1C121.95 31.1 122.63 31.2102 123.26 31.3002L124.07 29.4604C124.79 29.5604 125.509 29.67 126.219 29.81L126.41 31.81C127.09 31.94 127.76 32.0999 128.41 32.2699L129.41 30.5502C130.12 30.7402 130.81 30.9503 131.5 31.1703L131.42 33.1703C132.08 33.4003 132.729 33.6403 133.359 33.9003L134.609 32.3402C135.289 32.6202 135.949 32.9204 136.609 33.2304L136.28 35.2304C136.9 35.5404 137.51 35.8604 138.12 36.2304L139.54 34.8603C140.17 35.2303 140.79 35.6102 141.4 36.0102L140.81 37.9003C141.39 38.2903 141.96 38.69 142.51 39.1L144.099 37.9403C144.679 38.3803 145.24 38.8402 145.79 39.3202L144.969 41.1C145.499 41.56 145.97 42.0399 146.5 42.5199L148.219 41.58C148.739 42.09 149.219 42.5801 149.719 43.1601L148.719 44.81C149.179 45.34 149.62 45.8801 150.06 46.4301L151.87 45.7201C152.31 46.3001 152.73 46.8901 153.14 47.4901L151.91 48.9804C152.31 49.5604 152.69 50.1602 153.05 50.7602L154.91 50.31C155.27 50.94 155.62 51.5701 155.91 52.2201L154.5 53.5302C154.81 54.1602 155.11 54.8004 155.39 55.4604L157.29 55.2504C157.56 55.9204 157.82 56.5904 158.06 57.2504L156.52 58.35C156.753 59.0167 156.963 59.6833 157.15 60.35H159.04C159.22 61.05 159.39 61.7601 159.53 62.4701L157.88 63.35C158.02 64.05 158.14 64.7501 158.25 65.4701L160.079 65.7504C160.129 66.1304 160.159 66.5103 160.199 66.9003H163.829C162.826 56.4751 158.269 46.7117 150.923 39.247C143.577 31.7823 133.887 27.0701 123.479 25.9003C122.539 25.7903 121.6 25.7301 120.65 25.6801V20.4301C131.471 20.9307 141.852 24.8642 150.288 31.6605C158.724 38.4569 164.777 47.7632 167.57 58.2304C167.591 58.2924 167.608 58.3558 167.62 58.4203L167.68 58.6103C167.84 59.2403 167.98 59.8802 168.12 60.5302L168.18 60.7899C168.603 62.8166 168.904 64.8671 169.079 66.9301H171.24L171.37 67.2104C171.37 67.1204 171.37 67.0201 171.37 66.9301H173.64C173.393 63.7245 172.871 60.5461 172.079 57.4301C172.079 57.3601 172.08 57.2901 172.01 57.2201C171.994 57.1489 171.974 57.0788 171.949 57.0102C171.629 55.8102 171.27 54.6401 170.87 53.4701C170.87 53.4701 170.87 53.3602 170.87 53.3002C170.87 53.2402 170.87 53.18 170.8 53.12C167.197 42.7714 160.612 33.7206 151.874 27.1078C143.137 20.4951 132.638 16.6165 121.699 15.9604L120.39 13.4101C121.509 13.1512 122.548 12.6248 123.419 11.8759C124.29 11.1269 124.966 10.178 125.39 9.11025C125.872 7.95171 126.077 6.69645 125.988 5.44473C125.899 4.193 125.52 2.97943 124.88 1.90029C124.504 1.3104 123.985 0.824832 123.371 0.48916C122.758 0.153488 122.069 -0.0213232 121.37 -0.0196294C120.843 -0.0406322 120.318 0.0461045 119.826 0.235253C119.334 0.424402 118.886 0.711588 118.51 1.07998C117.704 2.00703 117.257 3.1922 117.25 4.42031C117.249 4.51688 117.27 4.61218 117.31 4.7001C117.187 4.61278 117.04 4.56732 116.89 4.57021H107.53C107.384 4.57149 107.242 4.61528 107.122 4.69668C107.001 4.77808 106.907 4.89331 106.852 5.02773C106.796 5.16216 106.782 5.30984 106.81 5.45254C106.838 5.59523 106.907 5.72652 107.01 5.82998L109.69 8.46035C108.912 9.26891 108.285 10.2103 107.839 11.2401C107.798 11.3511 107.783 11.4706 107.797 11.5883C107.812 11.706 107.854 11.8184 107.92 11.9164C107.987 12.0144 108.076 12.0949 108.181 12.1513C108.285 12.2076 108.401 12.2381 108.52 12.2401H114.19L116.19 16.2401V25.7001C115.19 25.7501 114.3 25.8301 113.37 25.9301C103.707 27.0141 94.6422 31.1545 87.4961 37.7484C80.35 44.3423 75.4955 53.0455 73.6395 62.5902V62.4203C73.1649 60.2772 72.011 58.3444 70.3495 56.9101C71.0268 54.6378 71.8622 52.4158 72.8495 50.2602C73.0595 49.8102 73.2695 49.3703 73.4895 48.9403L71.4895 47.9403C71.2628 48.387 71.0428 48.8469 70.8295 49.3202C69.8949 51.3528 69.0933 53.4436 68.4296 55.58C66.8896 54.7708 65.1686 54.3682 63.4296 54.4101C63.4296 54.2701 63.4295 54.1402 63.3695 54.0102C63.4878 53.5939 63.5747 53.1694 63.6295 52.7401L67.8595 52.39C67.8595 52.16 67.8595 51.9301 67.8595 51.7001C67.8595 51.4701 67.8595 51.2499 67.8595 51.0199L63.6495 50.58C63.579 49.9472 63.4416 49.3239 63.2395 48.7201L66.8895 46.5702C66.7207 46.1459 66.5271 45.7316 66.3096 45.33L62.3096 46.7602C61.9741 46.223 61.5818 45.7232 61.1395 45.2699L63.4995 41.7504C63.1589 41.4412 62.8017 41.1507 62.4296 40.8803L59.4296 43.8803C58.8953 43.539 58.3252 43.2569 57.7295 43.0399L58.3295 38.8402C57.8895 38.7202 57.4395 38.6102 56.9895 38.5302L55.6295 42.5302C55.2979 42.4881 54.9638 42.468 54.6295 42.4701C54.3095 42.4701 53.9896 42.4701 53.6796 42.4701L52.3895 38.4701C51.9395 38.5501 51.4896 38.6402 51.0496 38.7602L51.5596 42.9701C50.9592 43.1786 50.3826 43.4502 49.8395 43.7802L46.9296 40.7001C46.5562 40.9601 46.1962 41.2399 45.8495 41.5399L48.1395 45.1103C47.691 45.5585 47.289 46.0508 46.9396 46.58L42.9396 45.0702C42.7196 45.4702 42.5095 45.8802 42.3295 46.3002L45.9396 48.5199C45.7262 49.1188 45.5786 49.7392 45.4995 50.37L41.2795 50.7201C41.2795 50.9534 41.2795 51.1834 41.2795 51.4101C41.2795 51.6401 41.2795 51.87 41.2795 52.1L45.4995 52.5399C45.5652 53.1693 45.6993 53.7898 45.8995 54.39L42.2495 56.5399C42.4205 56.9633 42.6141 57.3775 42.8295 57.7802L46.3595 56.5199C45.7259 57.3387 45.2572 58.2726 44.9795 59.2699C43.2771 59.3693 41.6769 60.1152 40.506 61.3549C39.335 62.5946 38.6818 64.235 38.6796 65.9403C38.6859 66.275 38.7126 66.6089 38.7595 66.9403L40.1495 67.0399ZM191.01 50.6903L193.17 50.4701C193.274 50.4601 193.371 50.4116 193.441 50.3339C193.511 50.2562 193.55 50.155 193.55 50.0502V49.2304C193.55 49.1256 193.511 49.0244 193.441 48.9467C193.371 48.869 193.274 48.8199 193.17 48.81L191.01 48.5902C190.859 48.5695 190.707 48.5812 190.562 48.6244C190.416 48.6677 190.282 48.7412 190.168 48.8407C190.054 48.9402 189.962 49.0632 189.899 49.2011C189.837 49.3389 189.804 49.4886 189.804 49.64C189.804 49.7915 189.837 49.9411 189.899 50.079C189.962 50.2169 190.054 50.3399 190.168 50.4394C190.282 50.5389 190.416 50.6129 190.562 50.6562C190.707 50.6994 190.859 50.7111 191.01 50.6903ZM207.88 44.1801C207.956 44.254 208.058 44.2953 208.165 44.2953C208.271 44.2953 208.373 44.254 208.449 44.1801L210.969 42.0302C211.08 41.9352 211.169 41.8185 211.232 41.6874C211.296 41.5563 211.331 41.4134 211.337 41.268C211.342 41.1226 211.318 40.9778 211.265 40.8422C211.212 40.7066 211.132 40.5836 211.03 40.4804C210.926 40.3791 210.802 40.3 210.667 40.2479C210.531 40.1959 210.387 40.172 210.242 40.1776C210.097 40.1832 209.954 40.2183 209.823 40.2807C209.692 40.343 209.575 40.431 209.479 40.5399L207.329 43.06C207.255 43.1381 207.213 43.242 207.213 43.35C207.213 43.458 207.255 43.5619 207.329 43.64L207.88 44.1801ZM201.5 41.5399H202.3C202.406 41.5402 202.508 41.5005 202.586 41.4281C202.664 41.3557 202.712 41.2564 202.719 41.1503L202.979 37.8402C202.99 37.6999 202.973 37.5587 202.928 37.4252C202.883 37.2917 202.812 37.1688 202.719 37.0634C202.626 36.958 202.512 36.8721 202.385 36.8114C202.258 36.7508 202.12 36.7166 201.979 36.7104H201.93C201.787 36.7091 201.645 36.7386 201.514 36.7968C201.384 36.855 201.267 36.9402 201.172 37.0473C201.077 37.1544 201.007 37.2806 200.965 37.4174C200.923 37.5541 200.911 37.6984 200.93 37.8402L201.18 41.1503C201.187 41.2564 201.235 41.3557 201.313 41.4281C201.391 41.5005 201.493 41.5402 201.599 41.5399M199.599 116.22H208.44V96.5102C208.437 94.5245 207.647 92.6208 206.243 91.2167C204.839 89.8126 202.935 89.0226 200.949 89.0199H196.589C197.507 89.5669 198.266 90.3435 198.792 91.2729C199.318 92.2022 199.593 93.2524 199.589 94.3202V111.51H193.589V81.1703H198.959C199.509 82.579 200.471 83.7882 201.72 84.6395C202.97 85.4909 204.448 85.9446 205.959 85.9403H208.01V78.5102H193.449C191.108 78.5102 188.862 79.4406 187.206 81.0966C185.55 82.7525 184.62 84.9984 184.62 87.3402V107.42C184.625 109.577 185.42 111.656 186.856 113.265C188.292 114.874 190.268 115.901 192.41 116.15V116.25L199.599 116.22Z" fill="white"/>
</g>
<defs>
<clipPath id="clip0_302_3191">
<rect width="236.99" height="152.82" fill="white"/>
</clipPath>
</defs>
</svg>
