<svg width="237" height="154" viewBox="0 0 237 154" fill="none" xmlns="http://www.w3.org/2000/svg">
<path d="M148.3 86.8999C146.6 86.8999 145.2 85.4998 145.2 83.7998C145.2 82.0998 146.6 80.7002 148.3 80.7002C150 80.7002 151.4 82.0998 151.4 83.7998C151.4 85.4998 150 86.8999 148.3 86.8999ZM148.3 78.3999C145.3 78.3999 142.9 80.7998 142.9 83.7998C142.9 86.7998 145.3 89.2002 148.3 89.2002C151.3 89.2002 153.7 86.7998 153.7 83.7998C153.7 80.7998 151.3 78.3999 148.3 78.3999ZM143.9 116.7H152.7V91.3999H143.9V116.7ZM80.7 116.9V108.7C80.7 104.6 77.2999 101.2 73.2 101.2C77.2999 101.1 80.5 97.8002 80.5 93.7002V86.3999C80.5 82.2999 77.1 78.8999 73 78.8999H71.7L64.8 83.6001V78.8999H56V116.6H64.8V88.7002L71.7 83.7998V95.8999C71.7 98.0999 70.6 100.1 68.7 101.2H68.9C70.8 102.3 71.9 104.3 71.9 106.5V116.9H80.7ZM124.5 116.7V79H115.7V95.2998L108.7 100V79H99.9V117.1H108.7V105.1L115.7 100.3V116.6H124.5V116.7ZM146.4 84.7002L147.4 85.7002L150.2 82.8999L149.2 81.8999L146.4 84.7002ZM106.2 55.7002L105.7 58.7998L108.5 57.2998L111.3 58.7998L110.8 55.7002L113 53.5L109.9 53L108.5 50.2002L107.1 53L104 53.5L106.2 55.7002ZM10.5 83.7998C10.3 84.6998 9.49998 85.2002 8.59998 85.2002C8.39998 85.2002 8.2 85.2002 8 85.2002C7.8 85.1002 7.7 84.9999 7.5 84.8999C6.7 84.0999 6.7 82.6999 7.5 81.8999C7.8 81.5999 8.19998 81.3998 8.59998 81.2998C8.79998 81.2998 8.89998 81.2998 9.09998 81.2998C10.2 81.5998 10.8 82.6998 10.5 83.7998ZM8.70001 89.2002C8.10001 89.2002 7.6 89.2 7 89C6 88.7 5.10002 88.2 4.40002 87.5L5.40002 87C5.70002 86.9 5.99999 86.8002 6.29999 86.7002C6.99999 87.3002 7.80001 87.6002 8.70001 87.7002V89.2002ZM4.20001 85.6001L3.5 86.5C2.6 85.1 2.29999 83.3001 2.79999 81.6001C2.89999 81.2001 3.10001 80.9 3.20001 80.5L4 81.3999C4.3 81.6999 4.49998 82.1 4.59998 82.5C4.49998 83.2 4.50001 83.8 4.70001 84.5C4.70001 84.8 4.50001 85.2001 4.20001 85.6001ZM8.70001 77.2002V78.8999C7.80001 78.9999 6.79998 79.4 6.09998 80C5.79998 80 5.39998 79.8998 5.09998 79.7998L3.90002 79.3999C5.10002 77.9999 6.80001 77.2002 8.70001 77.2002ZM24 126.4H17.5V87.7002H23.4C23.4 83.6002 25.9 80.0001 27.6 79.1001C27.7 79.0001 27.7 78.8999 27.5 78.8999H17.5V61.2998H24C25.1 64.7998 28.5 67.3999 32.4 67.3999H35V58.6001H8.70001V74.6001L8.5 75.5C8.5 75.5 8.40002 75.5001 8.40002 75.6001C8.00002 75.6001 7.59999 75.7002 7.29999 75.7002H7.20001L6.79999 74.8999H6.70001C6.30001 74.9999 5.9 75.0998 5.5 75.2998C5.5 75.2998 5.4 75.2999 5.5 75.3999L5.59998 76.2998C5.59998 76.2998 5.6 76.3999 5.5 76.3999C5.2 76.5999 4.8 76.6999 4.5 76.8999H4.40002L3.70001 76.2998H3.59998C3.29998 76.4998 3.00001 76.8001 2.70001 77.1001V77.2002L3.20001 78V78.1001C2.90001 78.4001 2.7 78.7 2.5 79H2.40002L1.5 78.7002H1.40002C1.20002 79.0002 0.999988 79.3998 0.799988 79.7998V79.8999L1.5 80.5V80.6001C1.4 80.8001 1.39999 81.0001 1.29999 81.1001C1.19999 81.3001 1.20001 81.5001 1.20001 81.6001C1.20001 81.6001 1.09998 81.6002 1.09998 81.7002L0.200012 81.7998C0.200012 81.7998 0.0999756 81.7999 0.0999756 81.8999C-2.44156e-05 82.2999 0 82.7001 0 83.1001C0 83.1001 -2.44156e-05 83.2002 0.0999756 83.2002L1 83.3999C1 83.3999 0.999976 83.5 1.09998 83.5C1.09998 83.9 1.20001 84.3001 1.20001 84.6001V84.7002L0.400024 85.1001V85.2002C0.500024 85.6002 0.599988 85.9999 0.799988 86.3999C0.799988 86.3999 0.800024 86.3999 0.900024 86.3999L1.79999 86.2998C1.79999 86.2998 1.90002 86.2999 1.90002 86.3999C2.10002 86.6999 2.20002 87.0999 2.40002 87.3999V87.5L1.79999 88.2002V88.2998C1.99999 88.5998 2.29998 88.9002 2.59998 89.2002H2.70001L3.5 88.7998H3.59998C3.89998 89.0998 4.2 89.3 4.5 89.5V89.6001L4.20001 90.5V90.6001C4.50001 90.8001 4.89999 91.0002 5.29999 91.2002H5.40002L6 90.5H6.09998C6.29998 90.6 6.49998 90.6002 6.59998 90.7002C6.79998 90.8002 6.99998 90.7998 7.09998 90.7998C7.09998 90.7998 7.10001 90.8999 7.20001 90.8999L7.29999 91.7998C7.29999 91.7998 7.30002 91.8999 7.40002 91.8999C7.80002 91.9999 8.19998 92 8.59998 92C8.59998 92 8.70001 91.9999 8.70001 91.8999L8.79999 91.6001V129.3H35.1V120.5H32.5C28.5 120.3 25.1 122.9 24 126.4ZM107.6 43.7002L106.9 42.2002L106.2 43.7002L104.5 43.8999L105.7 45.1001L105.4 46.7998L106.9 46L108.4 46.7998L108.1 45.1001L109.3 43.8999L107.6 43.7002ZM122.2 47.7998V39.7998H119.9V43.1001L117.2 39.7998H114.9V47.7998H117.2V43.3999L119.9 46.7002V47.7998H122.2ZM89.2 101.3L87.8 103.7H86.3H85L83.6 101.3L85 98.8999H86.3H87.8L89.2 101.3ZM30.5 75.2998V77C30.5 77.1 30.6 77.1001 30.6 77.1001C31.8 76.5001 33.2 76.1001 34.7 76.1001H36.4H41.6H48.7H50.5V76.2002H86.4V96C83.5 96.2 81.3 98.6 81.3 101.5C81.3 104.4 83.6 106.8 86.4 107V129.1C91.3 129.1 95.2 125.1 95.2 120.3V76.1001H208.2C208.2 73.1001 205.8 70.7002 202.8 70.7002H35.1C32.6 70.7002 30.5 72.6998 30.5 75.2998ZM181.4 116.8V79H174.8V89L166.7 79H158.5V116.8H166.7V86.5L174.8 96.3999V116.8H181.4ZM41.7 97.1001L34.8 101.8V87.8999H41.7V97.1001ZM25.9 87.7998V116.6H34.7V106.8L41.6 102V116.6H50.4V79H34.7C29.9 79 25.9 82.8998 25.9 87.7998ZM205.6 126.7C205.6 126.8 205.5 126.8 205.5 126.9C204.6 127.8 203 127.8 202.1 126.9C202.1 126.9 202 126.8 202 126.7C201.2 125.7 201.2 124.3 202.1 123.4C203 122.5 204.6 122.5 205.5 123.4C206.4 124.4 206.4 125.8 205.6 126.7ZM203.8 120.2H203.6H138.5V87.7998C138.5 82.8998 134.5 79 129.7 79V126.8H199.1C199.3 127.5 199.7 128.2 200.3 128.8C202.3 130.8 205.4 130.8 207.4 128.8C209.4 126.8 209.4 123.7 207.4 121.7C206.4 120.7 205.1 120.2 203.8 120.2ZM166.7 149.4H164.9V148.4C164.3 149.1 163.4 149.6 162.3 149.6C160.4 149.6 159 148 159 146C159 144 160.4 142.3 162.3 142.3C163.3 142.3 164.2 142.7 164.8 143.4V140.1H166.8V149.4H166.7ZM158.5 146.5H153.1C153.3 147.6 154 148.1 155.2 148.1C156.2 148.1 156.8 147.8 157.4 147.3L158.5 148.5C157.8 149.2 156.7 149.7 155.2 149.7C152.6 149.7 151.1 148.1 151.1 146C151.1 143.8 152.7 142.3 154.9 142.3C157 142.3 158.6 143.9 158.6 146.1V146.5H158.5ZM150.7 144.2H149.9V149.4H147.9V144.2H147.1V142.5H147.9V140.8L149.9 140.4V142.4H150.7V144.2ZM146.5 141.7H144.5V140.1H146.5V141.7ZM146.5 149.4H144.5V142.6H146.5V149.4ZM143.6 149.4H141.6V145.5C141.6 144.5 141 144.1 140.3 144.1C139.7 144.1 139 144.6 139 145.4V149.4H137V142.6H138.9V143.4C139.3 142.9 140.1 142.4 141.1 142.4C142.5 142.4 143.5 143.4 143.5 144.9V149.4H143.6ZM136.1 149.4H134.2V148.6C133.8 149.1 133 149.6 132 149.6C130.6 149.6 129.6 148.6 129.6 147.1V142.6H131.6V146.5C131.6 147.5 132.2 147.9 132.9 147.9C133.5 147.9 134.2 147.4 134.2 146.6V142.6H136.2V149.4H136.1ZM126.6 149.4H124.8V148.4C124.2 149.1 123.3 149.6 122.2 149.6C120.3 149.6 118.9 148 118.9 146C118.9 144 120.3 142.3 122.2 142.3C123.2 142.3 124.1 142.7 124.7 143.4V140.1H126.7V149.4H126.6ZM118.1 149.4H116.1V140.1H118.1V149.4ZM115.5 144.7C115.4 144.7 115.2 144.6 115.1 144.6C114.1 144.6 113.4 145.3 113.4 145.8V149.3H111.4V142.5H113.3V144C113.5 143.5 114.3 142.5 115.3 142.5H115.5V144.7ZM106.7 149.7C104.4 149.7 102.7 148 102.7 146C102.7 143.9 104.4 142.3 106.7 142.3C109 142.3 110.7 144 110.7 146C110.7 148 109 149.7 106.7 149.7ZM98.8 149.4L97.5 145.3L96.2 149.4H94.3L92 142.6H94.1L95.3 146.9L96.6 142.6H98.4L99.7 146.9L100.9 142.6H102.9L100.6 149.4H98.8ZM89.8 146.5H84.4C84.6 147.6 85.3 148.1 86.5 148.1C87.5 148.1 88.1 147.8 88.7 147.3L89.8 148.5C89.1001 149.2 88 149.7 86.5 149.7C83.9 149.7 82.4 148.1 82.4 146C82.4 143.8 84 142.3 86.2 142.3C88.2999 142.3 89.9 143.9 89.9 146.1V146.5H89.8ZM81.6 149.4H79.6V145.5C79.6 144.5 79 144.1 78.3 144.1C77.7001 144.1 77 144.6 77 145.4V149.4H75V142.6H76.9V143.4C77.3 142.9 78.1 142.4 79.1 142.4C80.5 142.4 81.5 143.4 81.5 144.9V149.4H81.6ZM70.3 149.7C68 149.7 66.3 148 66.3 146C66.3 143.9 68 142.3 70.3 142.3C72.6001 142.3 74.3 144 74.3 146C74.3 148 72.6001 149.7 70.3 149.7ZM178.8 141.5L176.2 137.3H58.5L55.8 141.5C54 142 52.7 143.7 52.7 145.6C52.7 147.5 54 149.2 55.8 149.7L57.9 153.3H176.8L178.9 149.7C180.7 149.2 182 147.5 182 145.6C181.9 143.6 180.6 142 178.8 141.5ZM213.6 50.1001C213.6 49.5001 213.1 49.0001 212.4 49.1001L210.2 49.2998C210 49.2998 209.8 49.5002 209.8 49.7002V50.5C209.8 50.7 210 50.8999 210.2 50.8999L212.4 51.1001C213 51.2001 213.6 50.8001 213.6 50.1001ZM226.3 80L225.7 80.7002H229.6C233.7 80.7002 237 77.3998 237 73.2998V66.5C237 62.1 233.5 58.6001 229.1 58.6001H219.2C214.8 58.6001 211.3 62.1 211.3 66.5V85.1001L228.1 96.2002V108H228.2C228.5 108.1 228.6 108.5 228.5 108.8L228.2 109.5C228.1 109.8 228.2 110.1 228.4 110.2C228.6 110.4 228.9 110.3 229.1 110.1L229.7 109.5C229.9 109.3 230.3 109.3 230.5 109.5L231.2 110.2C231.4 110.4 231.4 110.8 231.2 111L230.6 111.6C230.4 111.8 230.4 112.1 230.5 112.3C230.5 112.3 230.5 112.3 230.6 112.4C230.7 112.6 231 112.7 231.3 112.6L232 112.3C232.3 112.2 232.6 112.3 232.8 112.6L233.2 113.5C233.3 113.8 233.2 114.1 232.9 114.3L232.2 114.6C231.9 114.7 231.8 115 231.9 115.2C231.9 115.5 232.2 115.7 232.5 115.7H233.3C233.6 115.7 233.9 116 233.9 116.3V117.3C233.9 117.6 233.6 117.9 233.3 117.9H232.5C232.2 117.9 232 118.1 231.9 118.4V118.5C231.8 118.8 232 119 232.2 119.1L232.9 119.4C233.2 119.5 233.3 119.9 233.2 120.2L232.8 121.1C232.7 121.4 232.3 121.5 232 121.4L231.3 121.1C231 121 230.7 121.1 230.6 121.3C230.4 121.5 230.5 121.8 230.7 122L231.3 122.6C231.5 122.8 231.5 123.2 231.3 123.4L230.6 124.1C230.4 124.3 230 124.3 229.8 124.1L229.2 123.5C229 123.3 228.7 123.3 228.5 123.4H228.4C228.2 123.6 228.1 123.8 228.2 124.1L228.5 124.8C228.6 125.1 228.5 125.4 228.2 125.6L227.3 126C227 126.1 226.7 126 226.5 125.7L226.2 125C226.1 124.7 225.8 124.6 225.6 124.7C225.3 124.7 225.1 125 225.1 125.3V126.1C225.1 126.4 224.8 126.7 224.5 126.7H223.5C223.2 126.7 222.9 126.4 222.9 126.1V125.3C222.9 125 222.7 124.8 222.4 124.7H222.3C222 124.6 221.8 124.8 221.7 125L221.4 125.7C221.3 126 220.9 126.1 220.6 126L219.7 125.6C219.4 125.5 219.3 125.1 219.4 124.8L219.7 124.1C219.8 123.8 219.7 123.5 219.5 123.4C219.3 123.2 219 123.3 218.8 123.5L218.2 124.1C218 124.3 217.6 124.3 217.4 124.1L216.7 123.4C216.5 123.2 216.5 122.8 216.7 122.6L217.3 122C217.5 121.8 217.5 121.5 217.4 121.3C217.4 121.3 217.4 121.2 217.3 121.2C217.2 121 216.9 120.9 216.6 121L215.9 121.3C215.6 121.4 215.3 121.3 215.1 121L214.7 120.1C214.6 119.8 214.7 119.5 215 119.3L215.7 119C216 118.9 216.1 118.6 216 118.4C215.9 118.1 215.7 117.9 215.4 117.9H214.6C214.3 117.9 214 117.6 214 117.3V116.3C214 116 214.3 115.7 214.6 115.7H215.4C215.7 115.7 215.9 115.5 216 115.2V115.1C216.1 114.8 215.9 114.6 215.7 114.5L215 114.2C214.7 114.1 214.6 113.7 214.7 113.4L215.1 112.5C215.2 112.2 215.6 112.1 215.9 112.2L216.6 112.5C216.9 112.6 217.2 112.5 217.3 112.3C217.5 112.1 217.4 111.8 217.2 111.6L216.6 111C216.4 110.8 216.4 110.4 216.6 110.2L217.3 109.5C217.5 109.3 217.9 109.3 218.1 109.5L218.7 110.1C218.9 110.3 219.2 110.3 219.4 110.2C219.4 110.2 219.4 110.2 219.5 110.2C219.7 110 219.8 109.8 219.7 109.5L219.4 108.8C219.3 108.5 219.4 108.2 219.7 108L219.9 107.9V97.2002L211.1 91.7998V116.2C211.1 123.3 216.9 129.1 224 129.1C231.1 129.1 236.9 123.3 236.9 116.2V96.2002L220.1 85.1001V62.2002C220.1 61.3002 220.9 60.5 221.8 60.5H226.4C227.3 60.5 228.1 61.3002 228.1 62.2002V74.6001C228.2 76.6001 227.5 78.5 226.3 80ZM223.9 113C226 113 227.8 114.7 227.8 116.9C227.8 119 226.1 120.8 223.9 120.8C221.8 120.8 220 119.1 220 116.9C220.1 114.7 221.8 113 223.9 113ZM217.2 116.9C217.2 119.4 218.6 121.5 220.6 122.7C221.6 123.3 222.7 123.6 224 123.6C225.4 123.6 226.6 123.2 227.7 122.5C229.6 121.3 230.8 119.2 230.8 116.8C230.8 114.6 229.8 112.7 228.1 111.5C227 110.6 225.6 110.1 224 110.1C222.5 110.1 221.2 110.6 220.1 111.4C218.3 112.6 217.2 114.6 217.2 116.9ZM70.3 143.9C69.2001 143.9 68.4 144.8 68.4 146C68.4 147.2 69.2001 148.1 70.3 148.1C71.4 148.1 72.3 147.2 72.3 146C72.3 144.8 71.4 143.9 70.3 143.9ZM86 143.8C85.2 143.8 84.6 144.3 84.4 145.1H87.6C87.4 144.3 86.9 143.8 86 143.8ZM99 49.2002L98.3 47.7002L97.6 49.2002L95.9 49.3999L97.1 50.6001L96.8 52.2998L98.3 51.5L99.8 52.2998L99.5 50.6001L100.7 49.3999L99 49.2002ZM106.7 143.9C105.6 143.9 104.8 144.8 104.8 146C104.8 147.2 105.6 148.1 106.7 148.1C107.8 148.1 108.7 147.2 108.7 146C108.7 144.8 107.8 143.9 106.7 143.9ZM154.8 143.8C154 143.8 153.4 144.3 153.2 145.1H156.4C156.2 144.3 155.6 143.8 154.8 143.8ZM162.9 144C161.8 144 161 144.9 161 145.9C161 147 161.8 147.8 162.9 147.8C164 147.8 164.8 146.9 164.8 145.9C164.8 144.9 164 144 162.9 144ZM122.8 144C121.7 144 120.9 144.9 120.9 145.9C120.9 147 121.7 147.8 122.8 147.8C123.9 147.8 124.7 146.9 124.7 145.9C124.7 144.9 123.9 144 122.8 144ZM153.3 67.3999H155.6C154.5 57.7999 149.7 48.9002 142 42.7002C135.4 37.4002 127.1 34.5 118.7 34.5C99.6 34.5 83.8999 48.8999 81.7 67.3999H84C86.1 50.1999 100.9 36.7998 118.7 36.7998C126.6 36.7998 134.4 39.5 140.6 44.5C141.7 45.4 142.7 46.2998 143.7 47.2998L138.8 51.8999C138 51.0999 137.3 50.4002 136.4 49.7002C133.4 47.3002 130 45.5 126.2 44.5L125.6 46.7002C129 47.6002 132.2 49.3 135 51.5C135.8 52.1 136.5 52.8 137.2 53.5L128.7 61.3999L130.2 63.1001L138.6 55.2002C141.5 58.7002 143.5 63 144.3 67.5H146.6C145.8 62.4 143.6 57.6001 140.3 53.6001L145.2 49C149.6 54.2 152.5 60.5999 153.3 67.3999ZM72.8 42.5C73.2001 41 74.8 40.1001 76.3 40.6001C77.8 41.1001 78.7 42.6001 78.2 44.1001C77.7999 45.6001 76.2 46.5 74.7 46C73.2 45.6 72.4 44 72.8 42.5ZM70.7 44.8999L70.5 45.6001C70.6 45.8001 70.7 46.0998 70.9 46.2998L71.7 46.5C71.8999 46.7 72.1001 46.9001 72.3 47.1001L72.5 47.8999C72.7 48.0999 72.8999 48.1998 73.2 48.2998L73.9 48.1001C74 48.1001 74.2001 48.2002 74.3 48.2002C74.4 48.2002 74.6 48.2998 74.7 48.2998L75.2 48.8999C75.5 48.8999 75.7 48.8999 76 48.8999L76.5 48.2998C76.8 48.2998 77 48.2001 77.3 48.1001L78 48.2998C78.2 48.1998 78.5 48.0999 78.7 47.8999L78.9 47.1001C79.1 46.9001 79.3 46.7 79.5 46.5L80.3 46.2998C80.5 46.0998 80.6 45.9001 80.7 45.6001L80.5 44.8999C80.5 44.7999 80.6 44.6 80.6 44.5C80.6 44.4 80.7 44.2001 80.7 44.1001L81.3 43.6001C81.3 43.3001 81.3 43.0998 81.3 42.7998L80.7 42.2998C80.7 41.9998 80.6 41.8 80.5 41.5L80.7 40.7998C80.6 40.5998 80.5 40.3001 80.3 40.1001L79.5 39.8999C79.3 39.6999 79.1 39.4998 78.9 39.2998L78.7 38.5C78.5 38.3 78.3 38.2001 78 38.1001L77.3 38.2998C77.2001 38.2998 77 38.2002 76.9 38.2002C76.8 38.2002 76.6 38.1001 76.5 38.1001L76 37.5C75.7 37.5 75.5 37.5 75.2 37.5L74.7 38.1001C74.3999 38.1001 74.2 38.1998 73.9 38.2998L73.2 38.1001C73 38.2001 72.7 38.3 72.5 38.5L72.3 39.2998C72.1001 39.4998 71.8999 39.6999 71.7 39.8999L70.9 40.1001C70.7 40.3001 70.6 40.4998 70.5 40.7998L70.7 41.5C70.7 41.6 70.6 41.7999 70.6 41.8999C70.6 41.9999 70.5 42.1998 70.5 42.2998L69.9 42.7998C69.9 43.0998 69.9 43.3001 69.9 43.6001L70.5 44.1001C70.5 44.4001 70.6 44.6999 70.7 44.8999ZM182.7 61.2998C183 61.5998 183.3 61.9999 183.4 62.3999C183.8 63.4999 183.5 64.7 182.7 65.5C181.9 66.3 180.7 66.6002 179.6 66.2002C179.2 66.1002 178.8 65.8 178.5 65.5C177.3 64.3 177.3 62.3998 178.5 61.2998C179.1 60.6998 179.9 60.3999 180.6 60.3999C181.3 60.3999 182.1 60.6998 182.7 61.2998ZM181.2 53.5L181.9 53.6001C182.3 53.7001 182.8 53.7999 183.2 53.8999C183.6 53.9999 183.9 54.0998 184.3 54.2998C184.8 54.4998 185.4 54.8001 185.9 55.1001C186.2 55.3001 186.4 55.5002 186.7 55.7002C187 56.0002 187.3 56.2 187.6 56.5C187.8 56.7 188 56.9998 188.3 57.2998C188.5 57.4998 188.6 57.7 188.8 58C189.3 58.8 189.8 59.7001 190 60.6001C190.1 61.0001 190.2 61.3998 190.3 61.7998V62C190.3 62.1 190.3 62.1998 190.3 62.2998L190.4 63H185.8L185.7 62.5C185.3 60.8 184.2 59.4998 182.6 58.7998C182.2 58.5998 181.9 58.5 181.6 58.5L181.1 58.3999L181.2 53.5ZM173.5 52.1001C173.9 53.1001 174.2 54.1002 174.5 55.2002C174.5 55.3002 174.5 55.2999 174.5 55.3999C174.5 55.4999 174.5 55.5001 174.5 55.6001C174.8 55.4001 175.2 55.0999 175.5 54.8999C175.8 54.6999 176.1 54.5999 176.4 54.3999H176.5C176.6 54.3999 176.7 54.2998 176.8 54.2998C176.9 54.2998 176.9 54.3002 177 54.2002L177.2 54.1001C177.7 53.9001 178.2 53.8002 178.8 53.7002H178.9C179 53.7002 179.1 53.7001 179.2 53.6001L179.9 53.5V58.1001L179.4 58.2002C178.4 58.4002 177.5 58.9001 176.8 59.6001C176.4 60.0001 176.1 60.3999 175.9 60.8999C175.9 60.9999 175.9 61.1002 176 61.2002C176 61.3002 176 61.4 176.1 61.5C176.4 63.1 176.6 64.7999 176.8 66.3999V66.7998C176.8 66.9998 176.8 67.1999 176.8 67.3999H183.5H183.8H184.1C184.2 67.2999 184.3 67.2001 184.4 67.1001C185.1 66.4001 185.6 65.5 185.8 64.5L185.9 64H190.5L190.4 64.7002C190.3 65.6002 190 66.4999 189.6 67.3999H189.8H190H193.3H193.5H193.7L194.1 65.7998L193 65.5C193 65.2 193.1 64.9001 193.1 64.6001H194.2V62.2002H193.1C193.1 61.9002 193 61.5998 193 61.2998L194.1 61L193.5 58.7002L192.4 59C192.4 58.9 192.3 58.8002 192.3 58.7002C192.3 58.6002 192.2 58.4998 192.1 58.2998C192.1 58.2998 192.1 58.2001 192 58.1001L192.9 57.6001L191.7 55.5L190.7 56.1001C190.5 55.9001 190.3 55.5999 190.2 55.3999L191 54.6001L189.3 52.8999L188.5 53.7002C188.3 53.5002 188 53.3002 187.8 53.2002L188.4 52.2002L186.3 51L185.8 51.8999C185.5 51.7999 185.3 51.7001 185 51.6001L185.3 50.5L183 49.8999L182.7 51C182.6 51 182.6 51 182.5 51C182.4 51 182.4 51 182.3 51H182.1C182 51 181.9 51 181.8 51V49.8999H179.4V51C179.1 51 178.8 51.1001 178.5 51.1001L178.2 50L175.9 50.6001L176.2 51.7002C175.9 51.8002 175.6 51.9 175.4 52L174.9 51.1001L173.5 51.8999C173.5 51.9999 173.5 52.0001 173.6 52.1001C173.4 52.0001 173.4 52.1001 173.5 52.1001ZM97.6 65.2002C96 65.2002 94.7 63.8998 94.7 62.2998C94.7 60.6998 96 59.3999 97.6 59.3999C99.2 59.3999 100.5 60.6998 100.5 62.2998C100.6 63.8998 99.3 65.2002 97.6 65.2002ZM118.6 67.3999H119.7V61.2998C121.7 61.4998 123.6 62.3 125.1 63.5C126.4 64.5 127.4 65.7998 128.1 67.2998H130.5C129.7 65.0998 128.4 63.2002 126.5 61.7002C124.5 60.1002 122.1 59.1999 119.6 58.8999V51H118.5H117.4V58.8999C112.7 59.2999 108.8 62.2998 106.9 66.2998L102.4 63.7002C102.6 63.2002 102.7 62.6 102.7 62C102.7 59.1 100.4 56.7998 97.5 56.7998C94.6 56.7998 92.3 59.1 92.3 62C92.3 64.9 94.6 67.2002 97.5 67.2002C99 67.2002 100.3 66.6001 101.2 65.6001L103.9 67.2002H106.5H108.4L108.8 67.3999C108.8 67.2999 108.9 67.2002 108.9 67.2002C110.4 63.9002 113.5 61.5001 117.3 61.1001V67.2002H118.6V67.3999ZM121.1 2.3999C120.7 2.3999 120.5 2.7 120.5 3C120.5 3.4 120.8 3.6001 121.1 3.6001C121.4 3.6001 121.7 3.3 121.7 3C121.8 2.7 121.5 2.3999 121.1 2.3999ZM75 45C76 45.3 77 44.6998 77.2 43.7998C77.5 42.7998 76.9 41.8001 76 41.6001C75 41.3001 74 41.8998 73.8 42.7998C73.5 43.7998 74.1 44.8 75 45ZM201.7 44.8999C202.1 44.8999 202.4 44.9 202.8 45L198.3 51.3999C198.2 51.4999 198.2 51.6002 198.3 51.7002C198.4 51.8002 198.5 51.8999 198.6 51.8999H201.6L200.9 56.2002C198.7 55.7002 197 53.2002 197 50.2002C197 47.0002 198.9 44.8999 201.7 44.8999ZM206.3 50.1001C206.3 53.2001 204.5 55.8002 202.2 56.2002H201.5L204.9 49.8999C204.9 49.7999 204.9 49.7001 204.9 49.6001C204.8 49.5001 204.7 49.5 204.6 49.5H202L203.2 45.2998C205.2 45.8998 206.3 47.7001 206.3 50.1001ZM197.7 56.2002C197.3 56.2002 197.1 56.4999 197.1 56.8999V60.1001C197.1 60.5001 197.4 60.7998 197.8 60.7998H200.5V62.2002H198.6C198 62.2002 197.5 62.6998 197.5 63.2998C197.5 63.8998 198 64.3999 198.6 64.3999H200.5V65.2998H199.3C198.7 65.2998 198.2 65.7999 198.2 66.3999C198.2 66.9999 198.7 67.5 199.3 67.5H203.9C204.5 67.5 205 66.9999 205 66.3999C205 65.7999 204.5 65.2998 203.9 65.2998H202.7V64.3999H204.6C205.2 64.3999 205.7 63.8998 205.7 63.2998C205.7 62.6998 205.2 62.2002 204.6 62.2002H202.7V60.7998H205.5C205.9 60.7998 206.2 60.5001 206.2 60.1001V56.8999C206.2 56.4999 205.9 56.2002 205.6 56.2002C207 54.8002 208 52.6001 208 50.1001C208 46.0001 205.4 43.2002 201.6 43.2002C197.9 43.2002 195.2 46.0001 195.2 50.1001C195.3 52.6001 196.2 54.8002 197.7 56.2002ZM194.8 44.7002C195 44.8002 195.2 44.8002 195.4 44.7002L196 44.1001C196.2 43.9001 196.2 43.7 196 43.5L193.8 41C193.4 40.5 192.7 40.4999 192.3 40.8999C191.9 41.2999 191.9 41.9999 192.4 42.3999L194.8 44.7002ZM54.8 45.7002C57.9 45.7002 60.4 47.9999 61 50.8999C59.7 50.0999 58.2 49.8001 56.7 50.1001C54.7 50.5001 53.2 51.8998 52.6 53.7998C52.2 53.7998 51.9 53.9 51.6 54C50.7 54.2 49.9 54.5 49.1 55C48.7 54.1 48.4 53.2001 48.4 52.1001C48.4 48.5001 51.3 45.6002 54.8 45.7002ZM116 12.7998L115.9 12.5C118.5 11.9 121.7 9.7999 121.7 4.8999C121.7 4.4999 121.4 4.2002 121 4.2002H119C119.1 3.7002 119.3 3.1001 119.8 2.6001C120.2 2.2001 120.8 1.8999 121.6 1.8999C122.6 1.8999 123.3 2.3002 123.9 3.2002C124.5 4.0002 124.8 5.1999 124.7 6.3999H122.9V7.8999H124.5C124.5 8.0999 124.4 8.3 124.4 8.5H122.1V10H123.8C123.7 10.1 123.6 10.2999 123.5 10.3999H120.7V11.8999H121.9C120.2 12.7999 118 12.9998 116 12.7998ZM114.1 11.2998H109.9C112.2 7.6998 117.2 6.5 117.2 6.5C117.6 6.4 117.8 6.1002 117.8 5.7002C117.8 5.6002 117.8 5.6 117.7 5.5C117.8 5.6 118 5.6001 118.1 5.6001H120.1C119.7 11.2001 114.2 11.2998 114.1 11.2998ZM109.5 6.5H113.1C112.4 6.9 111.6 7.3999 110.9 7.8999L109.5 6.5ZM118.6 16.3999H117.8L116.8 14.3999C117 14.3999 117.1 14.3999 117.3 14.3999C117.9 14.3999 118.5 14.2998 119.1 14.2998L120.2 16.5C119.7 16.4 119.2 16.3999 118.6 16.3999ZM40.2 67.3999H41.4C41.3 67.0999 41.3 66.7999 41.3 66.3999C41.3 63.9999 43.2999 62 45.7 62C45.7999 62 46 62 46.1 62H46.2L47.2 62.1001L47.4 61.1001C47.7 59.2001 48.9 57.6002 50.5 56.7002C51 56.4002 51.5 56.2001 52.1 56.1001C52.6 56.0001 53 55.9 53.5 56H54.5L54.7 55C54.9 53.6 56 52.5002 57.3 52.2002C58.2001 52.0002 59.1 52.2002 59.9 52.7002C60.4 53.0002 60.7 53.3999 61 53.8999C61.2 54.1999 61.3 54.4999 61.4 54.8999C61.5 55.2999 61.5 55.6 61.5 56L61.3 57.5L62.3 57.2998L62.8 57.2002C62.9 57.2002 63 57.2002 63.1 57.2002C64.4 57.0002 65.8 57.2002 66.9 57.7002C67.3 57.9002 67.7 58.0998 68.1 58.2998C68.8 58.6998 69.5 59.2999 70 59.8999C70.8 60.8999 71.5 62.0999 71.8 63.3999C72.1001 64.7999 72 66.0999 71.6 67.3999H72.8H73.4H74H78.9C78.9 67.1999 78.9 66.9002 79 66.7002L77.3 65.8999C77.4 65.1999 77.5 64.5002 77.6 63.7002L79.5 63.5C79.6 62.8 79.8 62.0999 80 61.3999L78.4 60.3999C78.6 59.6999 78.8 58.9998 79 58.2998L80.9 58.3999C81.1 57.6999 81.3999 57.0999 81.7 56.3999L80.2 55.2002C80.5 54.5002 80.8 53.9002 81.1 53.2002L83 53.5C83.3 52.9 83.7 52.2001 84 51.6001L82.7 50.2002C83.1 49.6002 83.4 48.9998 83.8 48.2998L85.7 48.8999C86.1 48.2999 86.5 47.7002 86.9 47.2002L85.7 45.6001C86.1 45.0001 86.6 44.4999 87.1 43.8999L88.9 44.7002C89.4 44.2002 89.8 43.7002 90.3 43.2002L89.4 41.5C89.9 41 90.4 40.5 91 40L92.7 41C93.2 40.5 93.8 40.1002 94.3 39.7002L93.6 37.8999C94.2 37.4999 94.8 37.0001 95.4 36.6001L96.9 37.8999C97.5 37.4999 98.1 37.0998 98.7 36.7998L98.2 34.8999C98.7999 34.4999 99.5 34.1999 100.1 33.8999L101.5 35.3999C102.1 35.0999 102.7 34.8 103.4 34.5L103.2 32.5C103.9 32.2 104.5 32.0002 105.2 31.7002L106.4 33.2998C107.1 33.0998 107.7 32.9002 108.4 32.7002V30.7002C109.1 30.5002 109.8 30.4002 110.5 30.2002L111.4 32C112.1 31.9 112.8 31.8002 113.4 31.7002L113.7 29.7002C114 29.7002 114.4 29.6001 114.7 29.6001C115.1 29.6001 115.5 29.5 115.9 29.5L116.6 31.3999C116.9 31.3999 117.3 31.2998 117.6 31.2998C117.9 31.2998 118.3 31.2998 118.6 31.2998L119 29.8999L119.1 29.3999C119.8 29.3999 120.6 29.4 121.3 29.5L121.7 31.2998V31.3999C122.4 31.3999 123.1 31.5001 123.8 31.6001L124.6 29.7998C125.3 29.8998 126 30.0001 126.8 30.1001L127 32.1001C127.7 32.2001 128.3 32.4001 129 32.6001L130 30.8999C130.7 31.0999 131.4 31.3 132.1 31.5L132 33.5C132.7 33.7 133.3 34.0002 133.9 34.2002L135.1 32.6001C135.8 32.9001 136.4 33.2 137.1 33.5L136.8 35.5C137.4 35.8 138 36.1 138.6 36.5L140 35.1001C140.6 35.5001 141.2 35.8002 141.9 36.2002L141.3 38.1001C141.9 38.5001 142.4 38.8998 143 39.2998L144.6 38.1001C145.2 38.5001 145.7 39 146.3 39.5L145.5 41.2998C146 41.7998 146.5 42.2002 147 42.7002L148.7 41.7998C149.2 42.2998 149.7 42.7999 150.2 43.3999L149.2 45C149.7 45.5 150.1 46.1001 150.5 46.6001L152.3 45.8999C152.7 46.4999 153.2 47.1002 153.6 47.7002L152.4 49.2002C152.8 49.8002 153.2 50.4 153.5 51L155.4 50.5C155.8 51.1 156.1 51.7999 156.4 52.3999L155 53.7002C155.3 54.3002 155.6 55.0001 155.9 55.6001L157.8 55.3999C158.1 56.0999 158.3 56.6999 158.6 57.3999L157.1 58.5C157.3 59.2 157.5 59.9 157.7 60.5H159.6C159.8 61.2 159.9 61.9001 160.1 62.6001L158.4 63.5C158.5 64.2 158.7 64.9001 158.8 65.6001L160.6 65.8999C160.6 66.2999 160.7 66.7 160.7 67H164.3C162.2 45.4 145.2 28.3 123.9 26C123 25.9 122 25.7998 121.1 25.7998V20.6001C143.7 21.6001 162.4 37.2999 168 58.3999C168 58.4999 168 58.5001 168.1 58.6001C168.1 58.7001 168.1 58.6998 168.2 58.7998C168.4 59.3998 168.5 60.1002 168.6 60.7002C168.6 60.8002 168.6 60.9 168.7 61C169.1 63 169.4 65.1001 169.6 67.1001H171.4H171.6H171.8C171.8 67.2001 171.9 67.2999 171.9 67.3999C171.9 67.2999 171.9 67.2001 171.9 67.1001H174.2C173.9 63.9001 173.4 60.7001 172.6 57.6001C172.6 57.5001 172.6 57.4999 172.5 57.3999C172.5 57.2999 172.5 57.3002 172.4 57.2002C172.1 56.0002 171.7 54.8002 171.3 53.7002C171.3 53.6002 171.3 53.6 171.2 53.5C171.2 53.4 171.2 53.3998 171.1 53.2998C163.9 32.5998 144.8 17.5001 122 16.1001L120.7 13.6001C123.1 12.9001 124.8 11.4998 125.7 9.2998C126.7 6.8998 126.5 4.0001 125.2 2.1001C124.4 0.900098 123.1 0.200195 121.7 0.200195C120.5 0.200195 119.6 0.599805 118.8 1.2998C117.5 2.5998 117.5 4.5001 117.5 4.6001C117.5 4.7001 117.5 4.7999 117.6 4.8999C117.5 4.7999 117.3 4.7998 117.2 4.7998H107.8C107.5 4.7998 107.2 4.9998 107.1 5.2998C107 5.5998 107.1 5.9001 107.3 6.1001L110 8.7002C109.3 9.5002 108.6 10.4 108.2 11.5C108.1 11.7 108.1 12.0002 108.3 12.2002C108.4 12.4002 108.7 12.5 108.9 12.5H114.3C114.4 12.5 114.5 12.5 114.5 12.5L116.5 16.5V26C115.5 26 114.6 26.1002 113.7 26.2002C93.6 28.4002 77.7 43.4999 74 62.8999C74 62.7999 74 62.8002 74 62.7002C73.5 60.5002 72.2999 58.6002 70.7 57.2002C71.3999 54.9002 72.2 52.7 73.2 50.5C73.3999 50.1 73.6001 49.6002 73.8 49.2002L71.8 48.2002C71.6001 48.7002 71.4 49.1001 71.1 49.6001C70.2 51.6001 69.3999 53.6999 68.7 55.8999C67.2 55.0999 65.5 54.7002 63.7 54.7002C63.7 54.6002 63.7 54.3998 63.6 54.2998C63.7 53.8998 63.8 53.5 63.9 53L68.1 52.6001C68.1 52.4001 68.1 52.0999 68.1 51.8999C68.1 51.6999 68.1 51.4002 68.1 51.2002L63.9 50.7998C63.8 50.1998 63.7 49.4999 63.5 48.8999L67.1 46.7002C66.9 46.3002 66.7 45.9 66.5 45.5L62.5 46.8999C62.2 46.3999 61.8 45.8999 61.3 45.3999L63.7 41.8999C63.4 41.5999 63 41.3 62.6 41L59.6 44C59.1 43.7 58.5 43.4002 57.9 43.2002L58.5 39C58.1 38.9 57.6 38.8002 57.2 38.7002L55.8 42.7002C55.5 42.7002 55.2 42.6001 54.9 42.6001C54.6 42.6001 54.3 42.6001 54 42.6001L52.7 38.6001C52.2 38.7001 51.8 38.7999 51.4 38.8999L51.9 43.1001C51.3 43.3001 50.7 43.5999 50.2 43.8999L47.3 40.7998C46.9 41.0998 46.6 41.3001 46.2 41.6001L48.5 45.2002C48.1 45.6002 47.6 46.1002 47.3 46.7002L43.3 45.2002C43.1 45.6002 42.9 45.9999 42.7 46.3999L46.3 48.6001C46.1 49.2001 45.9 49.7999 45.9 50.3999L41.7 50.7998C41.7 50.9998 41.7 51.3 41.7 51.5C41.7 51.7 41.7 52.0002 41.7 52.2002L45.9 52.6001C46 53.2001 46.1 53.9 46.3 54.5L42.6 56.7002C42.8 57.1002 43 57.4999 43.2 57.8999L46.7 56.6001C46.1 57.4001 45.6 58.2999 45.3 59.3999C41.8 59.5999 39 62.5001 39 66.1001C39 66.4001 39 66.8001 39.1 67.1001H40.2V67.3999ZM191 51.2002L193.2 51C193.4 51 193.6 50.8001 193.6 50.6001V49.7998C193.6 49.5998 193.4 49.3999 193.2 49.3999L191 49.2002C190.4 49.1002 189.8 49.6002 189.8 50.2002C189.8 50.8002 190.4 51.2002 191 51.2002ZM207.8 44.7002C208 44.9002 208.2 44.9002 208.4 44.7002L210.9 42.5C211.4 42.1 211.4 41.4 211 41C210.6 40.6 209.9 40.6001 209.5 41.1001L207.3 43.6001C207.2 43.8001 207.2 44.0002 207.3 44.2002L207.8 44.7002ZM201.5 42H202.3C202.5 42 202.7 41.8001 202.7 41.6001L203 38.2998C203 37.6998 202.6 37.2002 201.9 37.2002H201.8C201.2 37.2002 200.7 37.6998 200.8 38.2998L201.1 41.6001C201.1 41.9001 201.3 42 201.5 42ZM199.5 116.7H202.8H208.4V97C208.4 92.9 205 89.5 200.9 89.5H196.5C198.4 90.6 199.5 92.5998 199.5 94.7998V112H193.5V81.7002H198.9C200 84.5002 202.7 86.5 205.9 86.5H208.1V79H200.2H198.4H193.5C188.6 79 184.7 82.9998 184.7 87.7998V107.9C184.7 112.4 188.1 116.1 192.5 116.6V116.7H199.5Z" fill="#39146E"/>
</svg>
