<?xml version="1.0" encoding="utf-8"?>
<!-- Generator: Adobe Illustrator 25.4.8, SVG Export Plug-In . SVG Version: 6.00 Build 0)  -->
<svg version="1.1" id="Layer_1" xmlns="http://www.w3.org/2000/svg" xmlns:xlink="http://www.w3.org/1999/xlink" x="0px" y="0px"
	 viewBox="0 0 558.6 284.4" style="enable-background:new 0 0 558.6 284.4;" xml:space="preserve">
<style type="text/css">
	.st0{fill:url(#SVGID_1_);}
	.st1{fill:#39146E;}
	.st2{fill:#FFFF51;stroke:#39146E;stroke-width:0.6798;stroke-linecap:round;stroke-linejoin:round;stroke-miterlimit:10;}
	.st3{fill:#7435D8;stroke:#39146E;stroke-width:0.6798;stroke-linecap:round;stroke-linejoin:round;stroke-miterlimit:10;}
	.st4{fill:#44D970;stroke:#39146E;stroke-width:0.6798;stroke-linecap:round;stroke-linejoin:round;stroke-miterlimit:10;}
	.st5{fill:#FFFFFF;stroke:#39146E;stroke-width:0.6798;stroke-linecap:round;stroke-linejoin:round;stroke-miterlimit:10;}
	.st6{fill:#44D970;}
	.st7{fill:none;stroke:#39146E;stroke-width:0.6798;stroke-linecap:round;stroke-linejoin:round;stroke-miterlimit:10;}
	.st8{fill:#FFFFFF;stroke:#39146E;stroke-width:0.6798;stroke-linecap:round;stroke-linejoin:round;stroke-miterlimit:10.0001;}
	.st9{fill:#44D970;stroke:#39146E;stroke-width:0.6798;stroke-linecap:round;stroke-linejoin:round;stroke-miterlimit:10.0001;}
	.st10{fill:#FFFFFF;}
	.st11{fill:#44D970;stroke:#39146E;stroke-width:0.6798;stroke-linecap:round;stroke-linejoin:round;stroke-miterlimit:9.9996;}
	.st12{fill:#FFFF51;stroke:#39146E;stroke-width:0.6798;stroke-linecap:round;stroke-linejoin:round;stroke-miterlimit:9.9995;}
	.st13{fill:#FFFFFF;stroke:#39146E;stroke-width:0.6798;stroke-linecap:round;stroke-linejoin:round;stroke-miterlimit:10.0004;}
	.st14{fill:#FFFFFF;stroke:#39146E;stroke-width:0.6798;stroke-linecap:round;stroke-linejoin:round;stroke-miterlimit:9.9996;}
</style>
<g>
	
		<linearGradient id="SVGID_1_" gradientUnits="userSpaceOnUse" x1="-338.0651" y1="270.0853" x2="50.3371" y2="-41.3381" gradientTransform="matrix(-1 0 0 -1 111.4235 286.3937)">
		<stop  offset="0" style="stop-color:#B5FB23"/>
		<stop  offset="0.5284" style="stop-color:#DFF448;stop-opacity:0"/>
	</linearGradient>
	<path class="st0" d="M490.4,217.1H42c0-1.1-0.1-2.3-0.1-3.4c0-35.6,20.2-67.3,51.3-87.2c-4.3-7.9-6.8-16.7-6.8-26
		c0-34.2,32.7-61.9,73-61.9c9.9,0,19.4,1.7,28,4.7C209.6,22.1,241.9,8.7,278,8.7c66.8,0,121,46,121,102.7c0,9.8-1.6,19.3-4.7,28.3
		C441.8,147.1,479.4,177.8,490.4,217.1z"/>
	<ellipse class="st1" cx="377.8" cy="262.1" rx="123" ry="13.6"/>
	<ellipse class="st1" cx="112.6" cy="261.9" rx="99.4" ry="9.8"/>
	<path class="st2" d="M131.2,265.2h-13c-7.1,0-13.3-4.7-15.2-11.5l-10.6-35l64.9,0.2l-10.9,34.8
		C144.5,260.6,138.3,265.2,131.2,265.2z"/>
	<ellipse class="st2" cx="124.8" cy="217.9" rx="32.7" ry="6.9"/>
	<ellipse class="st1" cx="124.8" cy="217.8" rx="24.7" ry="3.4"/>
	<path class="st3" d="M135.5,190.8c-0.3-0.2-0.7-0.2-1,0c-0.8,0.4-0.6-0.7-7.7,9.2v-17.3c0-0.3-0.1-0.6-0.4-0.8
		c-1.6-1.3-3.4-0.3-3.4,1.3v18.3l-13.5-11.6c-0.8-0.7-2-0.6-2.6,0.2c-0.7,0.8-0.6,2,0.2,2.6l15.9,13.7v11.9c0,1,0.7,1.3,1.7,1.3
		s2-0.2,2-1.2v-12c3.8-5.4,8.1-11.2,9.1-12.1C136.9,193.6,137.1,191.8,135.5,190.8z"/>
	<path class="st4" d="M116.6,198.2c0,0-10.2-38.3-48-20.6C68.6,177.6,80.8,206.1,116.6,198.2z"/>
	<path class="st4" d="M132.8,194.1c0,0,4.2-29.8,38.5-25.7C171.3,168.3,164.5,200.3,132.8,194.1z"/>
	<path class="st4" d="M125,187.5c0,0,13.9-19.8-14.7-36.1C110.3,151.4,103,172.9,125,187.5z"/>
	<path class="st5" d="M293.4,182c0,0,4.2-25.1-9.4-32.8s-20.1-2.6-18.6,7.6s-0.1,28.4,8.7,31.2C283.6,191.1,291.9,185.6,293.4,182z"
		/>
	<path class="st6" d="M373.2,223.4c0,0-9,0.6-10,11c0,0-5.1,0-10.7-0.8c-3.4-0.5-7-1-9.6-2.8c-2.5-1.8-5-4-9-5.1
		c-6.4-1.8-15.2-1-22.8,6.6c-1.1,1.1-2,1.8-2.9,3.4c-13.5,23.6,2,19.8,2,19.8L390,254c0,0,5.5-25.1-10-30.3L373.2,223.4z"/>
	<path class="st2" d="M367.7,169.7c0,0-6.5,37.4,2.7,54.9c0,0,3.9,2.5,11.2-0.1c0,0-9.3-34,0.4-55.4L367.7,169.7z"/>
	<path class="st7" d="M370.2,224.4c-0.8,0.3-5.2,1.9-7,10c0,0-15.9,0.7-24-6.2s-31.7-4.7-36.3,21"/>
	<path class="st7" d="M390.3,250.8c0,0,3.3-20.1-8.7-26.6"/>
	<path class="st7" d="M370.1,234.5c0,0-5.3,0.2-11.3-0.1"/>
	<path class="st5" d="M386.7,260h-81.8c-3,0-5.5-2.5-5.5-5.5l0,0c0-3,2.5-5.5,5.5-5.5h81.8c3,0,5.5,2.5,5.5,5.5l0,0
		C392.2,257.5,389.7,260,386.7,260z"/>
	<path class="st6" d="M419,224c0,0,9,0.6,10,11c0,0,14.5,0.5,21.4-4.4c1.7-1.2,3.9-2.9,6.2-3.9c7.3-2.9,17.1-2.4,26.5,8.9
		c6.4,7.6,6.8,18.2,5.3,21.3c-1.9,3.8-6.6-0.9-6.6-0.9l-79.6-1.4c0,0-5.5-25.1,10-30.3L419,224z"/>
	<path class="st2" d="M423.1,168.7c0,0,10.6,29.9-0.2,56.6c0,0-6,2.6-12.2-0.3c0,0,8-38-2.1-59.5L423.1,168.7z"/>
	<path class="st7" d="M423.1,225.3c0.9,0.5,1.3,0.9,1.3,0.9s3.2,1.7,4.5,8.8c0,0,15.9,0.7,24-6.2s31.4-5.1,36.3,21"/>
	<path class="st7" d="M401.9,251.4c0,0-3.3-20.1,8.7-26.6"/>
	<path class="st7" d="M421.3,235c0,0,4.4,0.5,11.7,0.1"/>
	<path class="st5" d="M405.5,260.6h81.8c3,0,5.5-2.5,5.5-5.5l0,0c0-3-2.5-5.5-5.5-5.5h-81.8c-3,0-5.5,2.5-5.5,5.5l0,0
		C400,258.2,402.5,260.6,405.5,260.6z"/>
	<path class="st1" d="M378.7,175.3l-0.6,9.2c0,0-10.1-1.5-12.6,9.2l1.6-20.9L378.7,175.3z"/>
	<path class="st1" d="M426.8,183.4c0,0-9.4-5.9-13.1,6l-3.6-24l9.9,0.3l3.6,2.6L426.8,183.4z"/>
	<path class="st2" d="M466.8,129.4c0,0,11.5,22.3,45.9,31.6l4.1-9.1c0,0-32-13.2-39.4-31.4s-11.5,8.9-11.5,8.9"/>
	<path class="st1" d="M484.6,131.5c0,0-5.9,9.8,0.6,16.9c0,0-12.2-8.4-13.7-11.7c-1.5-3.4,6.3-13.5,6.3-13.5L484.6,131.5z"/>
	<path class="st2" d="M342.2,136.7c-1,0.2-28.6,24.3-53.1,19.8l2,14.1c0,0,20.7,1.8,46.7-14.1C363.9,140.5,342.2,136.7,342.2,136.7z
		"/>
	<path class="st1" d="M319.1,151.3c0,0,4.2,8-2,15.1l15.1-6.3l-3.3-11.8l-5.2,0.2L319.1,151.3z"/>
	<path class="st5" d="M513.1,145.9c0,0-3.4-3.6-6.7-2.3c-5.6,2.2-10.6,12.9-6.3,19.3c3.1,4.6,11.8,4.6,12,4.1
		S513.1,145.9,513.1,145.9z"/>
	<path class="st2" d="M487.4,116.1c0,0,15.9-14.4,14.3-29.6c-2-19.4-22.8-22.7-22.8-22.7s-34.5-39.1-86.3-36.9S308,86.1,308,86.1
		s-23,14.6-16.4,35.8c4.4,14.1,22.1,20.5,22.1,20.5s19.2,41.7,93.8,34.2C441,173.3,473.9,157.6,487.4,116.1z"/>
	
		<ellipse transform="matrix(0.9875 -0.1577 0.1577 0.9875 -9.4202 59.5122)" class="st8" cx="370.3" cy="89.1" rx="20.3" ry="15.4"/>
	
		<ellipse transform="matrix(0.9875 -0.1577 0.1577 0.9875 -8.1674 66.6958)" class="st8" cx="416.2" cy="84.8" rx="20.3" ry="15.4"/>
	<path class="st7" d="M360.9,108.7c0.7,1.7-0.2,3.6-1.8,4.2c-0.8,0.3-1.7,0.2-2.5-0.1"/>
	<path class="st7" d="M427.3,109.6c-4.8,7.1-11.7,12.7-20.2,15.9c-17.1,6.3-35.4,0.3-47.1-13.1"/>
	<path class="st7" d="M408.7,154.7c-2.6,3.1-7.3,4.8-12.3,4.2c-5.5-0.7-9.8-4.1-11.1-8.2"/>
	<path class="st7" d="M411.8,148.9c0,0.1-0.4,1.5-1,2.9"/>
	<path class="st4" d="M391.9,175.7c0,0-7.8-4.9-13.3-4.4c-5.5,0.4-5.3,13.5-0.1,14.2c5,0.7,12.7-4.1,12.7-4.1L391.9,175.7z"/>
	<path class="st4" d="M398.8,181.5c0,0,8,3.7,13.4,2.9s4-13.3-1.3-13.2c-6.1,0.1-11.9,4.6-11.9,4.6L398.8,181.5z"/>
	<ellipse transform="matrix(0.1139 -0.9935 0.9935 0.1139 172.6966 550.8776)" class="st9" cx="395.2" cy="178.6" rx="5" ry="5.2"/>
	<path class="st5" d="M287,151c0,0,3.9-0.7,6.2,1.2c3.9,3.3,9.2,14.5,6.6,23.7s-11.5,4.4-11.5,4.4L287,151z"/>
	<path class="st10" d="M285.5,150.5c0.5,0.4,6.6,6.6,6.9,7.2c0.4,0.5,1.9,13.2,1.9,13.2l-1.1,11.4l-5.7,0.5l-2.7-4.3l-0.6-14.2
		L285.5,150.5z"/>
	<path class="st7" d="M292.9,171.6c0,0,2.5,4.5,0.1,11.2"/>
	<path class="st7" d="M290.4,160c0,0-0.1-7.1-6.3-10.9"/>
	<path class="st5" d="M507.5,149.9c0,0,0.1-8.8,8.8-9.7c8.7-0.9,12.3,0.3,15.6-5.3c3.6-6.1,10.9-7.9,10.5,1.9
		c-0.3,8.6-10.3,15-10.3,15s11.1,16.5,12.7,24c2.4,11.6-6.3,9.3-6.3,9.3s1.4,9.3-8.8,5.3c0,0-1.8,3.7-5.8,0.5s-6.1-19.1-14.4-20.7
		C501.3,168.6,501.4,157.6,507.5,149.9z"/>
	<path class="st5" d="M518.4,170.5c0,0,11,0.9,16-6.9"/>
	<path class="st5" d="M530.3,168.1c0,0,6.9,7.5,8.4,17.9"/>
	<path class="st5" d="M523.7,170.6c0.4,0.7,7.7,13.5,6.1,19.8"/>
	<polygon class="st10" points="507.6,144.5 512.8,143.2 509.5,156.8 507.2,159.1 506.1,165.7 503.2,165.2 502.3,163.6 501.8,151.2 	
		"/>
	<path class="st7" d="M506.9,151.2c0,0-0.5-5.5,5.1-9.7"/>
	<path class="st7" d="M503.9,159.8c0,0-2.4,6.4,3.3,9.6"/>
	<ellipse transform="matrix(0.9671 -0.2544 0.2544 0.9671 -5.2903 95.8959)" class="st1" cx="368.1" cy="68.4" rx="7.9" ry="1.9"/>
	<ellipse transform="matrix(0.1047 -0.9945 0.9945 0.1047 310.408 471.774)" class="st1" cx="417.2" cy="63.5" rx="1.9" ry="7.9"/>
	<path class="st1" d="M337.8,50.6c0,0,13.7,10,34.8,4.3s10.2-15.4,10.2-15.4L337.8,50.6z"/>
	<path class="st4" d="M426.2,31.1c0,0-12.4,21.8-59.6,27.6l4.4-10.9c0,0-21.8,7-42.8,0.4C328.3,48.1,380.8-4.7,426.2,31.1z"/>
	<path class="st2" d="M306.1,91.5c0,0,1.6-5.5,8-14.3"/>
	<path class="st2" d="M311.7,136.9c0,0,2.4,6.5,4.7,10"/>
	<path class="st2" d="M481.9,68.4c0,0-1.8-4.1-8.2-9.8"/>
	<path class="st2" d="M488.2,109.4c0,0-0.7,7.4-3.6,14.3"/>
	<path class="st2" d="M487.8,106.2c0-2.2-0.2-7.1-1.2-9.4"/>
	<path class="st1" d="M404.3,84.1c-2.4,0.4-5.7,1.2-7.8,1.9c-1,2.8,0.7,4.2,1.5,6.3c2.2,5.8,12.6,9.8,23.7,6.9
		c4.6-1.2,8.2-3.9,11.1-7.3C428.7,85.8,417.5,82.1,404.3,84.1z"/>
	<path class="st1" d="M358.9,86.4c-2.4,0.4-6.3,1.7-8.4,2.6c-1.1,2.6,0.4,4.8,1.3,7.4c2.8,7.2,14.9,10.1,25.8,6.6
		c4.5-1.4,8.2-5.4,10.9-8.1C384.6,88.8,371,84.2,358.9,86.4z"/>
	<path class="st4" d="M263.8,220.1l-9.6-38.7c0-0.1-0.1-0.1-0.1-0.1L202,194.2c-0.1,0-0.1,0.1-0.1,0.1l5.4,21.7
		c0,0.1-0.1,0.1-0.1,0.1L166,202.9c-1.7-0.5-3.1-1.8-3.9-3.4l-3.8-8.2c0-0.1-0.1-0.1-0.2,0L148,208.8c0,0.1,0,0.2,0.1,0.1l9.1-1.7
		c2.3-0.4,4.7-0.1,6.8,1l47.4,24.6c0,0,0,0,0.1,0.1l0,0c1.2,4.9,6.2,7.9,11,6.7l34.7-8.6C262,229.8,265,225,263.8,220.1z"/>
	
		<ellipse transform="matrix(0.9727 -0.2319 0.2319 0.9727 -37.3959 58.0687)" class="st11" cx="228.3" cy="188.1" rx="27" ry="3.8"/>
	
		<ellipse transform="matrix(0.9719 -0.2354 0.2354 0.9719 -37.0429 61.2956)" class="st1" cx="238.2" cy="185.8" rx="10.6" ry="1.5"/>
	
		<ellipse transform="matrix(0.5046 -0.8633 0.8633 0.5046 -97.0919 230.6716)" class="st12" cx="152.5" cy="199.9" rx="10.5" ry="3.1"/>
	<path class="st4" d="M274.8,162.7c-3.7-6.1-9.2-10-15.7-11.3c-8.1-1.5-16.8,1.2-24.6,7.6c-7.5,6.2-13.4,15.3-16.4,25.5
		c-0.2,0.5-1.5,4.8-1.6,5.3c2.2,0.9,5.5,0,7.3-1.7c2.8-9.6,8.6-19.1,14.8-24.2c5.7-4.7,11.8-7,17.5-6.5c0.6,0,1.2,0.1,1.8,0.2
		c4.7,0.9,8.7,3.8,11.5,8.3c4.4,7.3,5.2,18,2,28.7c-1.9,6.3-5,12.1-8.9,16.9c0,0,0,0.1-0.1,0.1l1.7,7.5c6.1-6,10.7-13.9,13.3-22.7
		C281.3,184,280.3,171.7,274.8,162.7z"/>
	<polygon class="st6" points="215.4,189 225.3,186.7 225.4,189.6 222.5,190.9 213.7,192.7 	"/>
	<line class="st7" x1="215.2" y1="234.8" x2="207.5" y2="230.8"/>
	<path class="st7" d="M216.4,190.2c0,0,1.5-5.8,2.8-9"/>
	<path class="st7" d="M223.6,189c0,0,0.9-4.6,3.3-9.1"/>
	<path class="st1" d="M264.9,208.7c0,0-0.1,5.1,2.8,6.9l-3.5,3.7l-1.4-7.2L264.9,208.7z"/>
	<path class="st1" d="M272.8,188.1c0,0,3.9,1.4,6.8-2.5l-0.2-5.7l0.3-2.8l-2.1-10.4l-5.4,4.1L272.8,188.1z"/>
	<path class="st5" d="M256.4,177.8c0,0-0.2,7.7,8.2,9.6s14.7-6.1,13-10.2c-1.7-3.9-8.3-2.1-8.3-2.1L256.4,177.8z"/>
	<path class="st5" d="M257.8,179.1c1.2,0.2,12.6,0.9,16.5-3.5c3.8-4.3,1.8-10.5-6.9-10.3s-9.5,2.1-12.7,4.4
		C251.4,172.2,252.9,178.2,257.8,179.1z"/>
	<path class="st5" d="M269.8,155.7c-1.2-0.2-13.5-1-17.4,3.4c-3.8,4.3-1.9,10.5,6.9,10.4c8.7-0.1,12.3-3.3,13.7-7
		C274.2,158.7,274.1,156.5,269.8,155.7z"/>
	<path class="st5" d="M268.5,146.6c-0.5,0.4-4.3,1.9-3.3,11c0,0,0.6,15.7,8.9,12.6c8.3-3.1,4-13.4,4-13.4"/>
	<line class="st7" x1="219.6" y1="220.5" x2="203.2" y2="214.9"/>
	<path class="st5" d="M133.1,216.7c-2.2-1.7-2.6-4.9-0.9-7.1c0.6-0.8,1.5-1.4,3.6-2.2l6.3-2.2l-0.6,6.7c-0.2,2.2-0.6,3.2-1.3,4
		C138.5,218,135.3,218.4,133.1,216.7z"/>
	<path class="st5" d="M257.4,214.5c0,0,2.9,5.2,1.4,9.3s-5.6,2.9-5.2-0.5c0.4-3.5,0.2-7.4-0.3-9.1S257,211.5,257.4,214.5z"/>
	
		<ellipse transform="matrix(0.9915 -0.1304 0.1304 0.9915 -24.978 34.7416)" class="st13" cx="252.8" cy="208.1" rx="2.8" ry="2.4"/>
	<path class="st5" d="M452.3,52c0,0,8.6,7.1,11.4,11c4.2,5.9-2.7,8.2-5.8,3.2c-3.1-4.9-7-8.5-9.4-10.3C443.5,52,448.6,48.4,452.3,52
		z"/>
	
		<ellipse transform="matrix(0.4143 -0.9101 0.9101 0.4143 215.1221 429.8543)" class="st14" cx="441.6" cy="47.8" rx="2.9" ry="3.7"/>
	<path class="st5" d="M464.8,229.8c-0.1,1.7,3,3,5.4,4c4.9,1.9,6.9,6.8,8.3,5.4c1.8-1.8-3.2-6.7-6.8-8.8
		C468.4,228.6,464.9,228.1,464.8,229.8z"/>
	<path class="st10" d="M376.3,83.2c-0.5,0.2-8.2,8.1-8.2,8.1l14.9-4.6L376.3,83.2z"/>
	<path class="st10" d="M420.1,80.1c-0.5,0.2-8.2,8.1-8.2,8.1l14.9-4.6L420.1,80.1z"/>
	<path class="st5" d="M143.6,248.4l-0.2-0.1c-0.7-0.2-1.2-1-0.9-1.8l4.2-14.1c0.2-0.7,1-1.2,1.8-0.9l0.2,0.1c0.7,0.2,1.2,1,0.9,1.8
		l-4.2,14.1C145.1,248.2,144.4,248.7,143.6,248.4z"/>
	<path class="st5" d="M368.9,221.1c0,0,5.9,2.3,11.9-0.3l0.8,3.7c0,0-7.7,3.5-12.1,0.1L368.9,221.1z"/>
	<path class="st5" d="M411.5,220.9c0,0,6.7,4.1,12.8,0.3l-0.7,4.4c0,0-6.1,3.5-13.2-0.5L411.5,220.9z"/>
</g>
</svg>
