<svg width="21" height="21" viewBox="0 0 21 21" fill="none" xmlns="http://www.w3.org/2000/svg">
<path d="M0 8.3386C0.163 7.57417 0.412 6.82979 0.743 6.12253L2.865 5.92791L3.745 4.7341L3.28 2.6966C3.868 2.16691 4.514 1.70343 5.203 1.3152L7.027 2.37558C7.493 2.18597 7.973 2.03549 8.465 1.92514L9.312 0H11.689L12.536 1.92514C13.027 2.03449 13.507 2.18597 13.973 2.37558L15.797 1.3152C16.487 1.70343 17.132 2.16591 17.72 2.6966L17.255 4.7341L18.135 5.92791L20.257 6.12253C20.588 6.83079 20.837 7.57417 21 8.3386L19.25 9.72703V11.2068L21 12.5952C20.837 13.3596 20.588 14.104 20.257 14.8113L18.135 15.0059L17.254 16.2007L17.719 18.2382C17.131 18.7679 16.485 19.2314 15.796 19.6196L13.972 18.5592C13.506 18.7488 13.026 18.8993 12.534 19.0096L11.689 21H9.312L8.465 19.0066C7.974 18.8973 7.494 18.7468 7.028 18.5562L5.204 19.6166C4.514 19.2283 3.869 18.7659 3.281 18.2352L3.746 16.1977L2.866 15.0039L0.744 14.8092C0.412 14.102 0.163 13.3586 0 12.5942L1.75 11.2058V9.72703L0 8.3386ZM10.5 15.7332C11.893 15.7332 13.228 15.1784 14.212 14.1903C15.196 13.2021 15.75 11.8628 15.75 10.4664C15.75 9.06994 15.197 7.72966 14.212 6.74251C13.227 5.75536 11.892 5.19959 10.5 5.19959C9.108 5.19959 7.772 5.75436 6.788 6.74251C5.804 7.73067 5.25 9.06994 5.25 10.4664C5.25 11.8628 5.803 13.2031 6.788 14.1903C7.773 15.1774 9.108 15.7332 10.5 15.7332Z" fill="#C2FF31"/>
</svg>
