<svg width="391" height="24" viewBox="0 0 391 24" fill="none" xmlns="http://www.w3.org/2000/svg">
<path d="M17.2996 22.5V14.5H8.09961V22.5H0.599609V1.5H8.19965V9.1001H17.2996V1.5H24.8997V22.5H17.2996Z" fill="#39146E"/>
<path d="M45.1992 22.5L44.0992 19.1001H36.0992L34.9992 22.5H26.6992L35.7992 1.5H44.2992L53.3992 22.5H45.1992ZM39.9992 7.3999L37.5992 14.5H42.4992L39.9992 7.3999Z" fill="#39146E"/>
<path d="M72.4992 22.5L62.5992 11.2998V22.5H55.1992V1.5H61.3992L71.3992 12.5V1.5H78.7992V22.5H72.4992Z" fill="#39146E"/>
<path d="M102.2 22.5V20.2002C101.7 20.6002 101.4 21.0001 100.3 21.6001C98.8999 22.3001 96.8999 23.2002 93.2999 23.2002C91.9999 23.2002 88.2998 23.1001 85.0998 20.6001C83.8998 19.7001 83.2998 18.7999 82.9998 18.3999C82.2998 17.3999 81.2998 15.2998 81.2998 12.2998C81.2998 10.8998 81.4998 7.6998 84.0998 4.7998C86.0998 2.6998 89.4999 0.600098 95.7999 0.600098C96.5999 0.600098 100.8 0.700098 103.8 2.1001C104.9 2.7001 105.6 3.3001 106 3.6001C106.5 4.1001 107 4.6002 107.4 5.2002C107.6 5.6002 107.9 6.2998 107.9 6.2998L100.5 7.1001C99.7998 6.3001 98.4998 5.2998 95.8998 5.2998C95.1998 5.2998 93.2998 5.3 91.6998 6.5C90.7998 7.2 88.9998 8.9001 88.9998 12.1001C88.9998 12.8001 89.0998 14.6998 90.3998 16.2998C91.5998 17.7998 93.5998 18.3999 95.4998 18.3999C98.8998 18.3999 100.9 16.4998 101.4 15.2998C101.4 15.1998 101.5 15.0002 101.5 14.7002H95.9998V10H108.5V22.6001H102.2V22.5Z" fill="#39146E"/>
<path d="M127.8 22.5L123.5 14.8999H119.5V22.5H112V1.5H127.4C130.2 1.5 132.9 1.6999 134.6 4.3999C135 4.9999 135.7 6.3002 135.7 8.2002C135.7 9.2002 135.5 11.9999 132.9 13.3999C132.4 13.6999 132 13.8001 130.9 14.1001L136.1 22.5H127.8ZM127.9 7.2002C127.4 6.5002 126.6 6.2998 125.8 6.2998H119.6V10.2002H125.2C126.6 10.2002 127.4 10 127.8 9.5C128.2 9 128.2 8.5998 128.2 8.2998C128.2 8.0998 128.2 7.6002 127.9 7.2002Z" fill="#39146E"/>
<path d="M151.899 16.2998V22.5H144.499V16.2998L134.899 1.6001H143.699L148.299 9.8999L152.899 1.6001H161.599L151.899 16.2998Z" fill="#39146E"/>
<path d="M198.2 20C196.3 22.3 192.9 22.5 190.2 22.5H174.1V1.5H191.7C193.8 1.5 196.4 1.6002 197.6 3.7002C197.9 4.2002 198.3 5.0999 198.3 6.3999C198.3 6.8999 198.3 8.1998 197.4 9.2998C196.9 9.89981 196 10.7001 194.3 11.1001C195.6 11.3001 196.8 11.4999 197.8 12.3999C199 13.3999 199.3 14.6998 199.3 16.2998C199.4 16.9998 199.4 18.6 198.2 20ZM190.1 14.1001H181.6V17.7998H189.5C189.6 17.7998 190.2 17.8002 190.5 17.7002C191.4 17.5002 191.9 16.7999 191.9 15.8999C192 14.0999 190.6 14.1001 190.1 14.1001ZM190.9 7.1001C190.5 6.4001 189.8 6.3999 189.1 6.3999H181.6V9.7002H188.5C189.3 9.7002 190.4 9.7999 190.8 8.8999C190.9 8.6999 191 8.3001 191 8.1001C191.2 7.8001 191.2 7.4001 190.9 7.1001Z" fill="#39146E"/>
<path d="M218.6 22.5L217.5 19.1001H209.5L208.4 22.5H200.1L209.2 1.5H217.7L226.8 22.5H218.6ZM213.4 7.3999L211 14.5H215.9L213.4 7.3999Z" fill="#39146E"/>
<path d="M244.3 22.5L240 14.8999H236V22.5H228.5V1.5H243.9C246.7 1.5 249.4 1.6999 251.1 4.3999C251.5 4.9999 252.2 6.3002 252.2 8.2002C252.2 9.2002 252 11.9999 249.4 13.3999C248.9 13.6999 248.5 13.8001 247.4 14.1001L252.6 22.5H244.3ZM244.4 7.2002C243.9 6.5002 243.1 6.2998 242.3 6.2998H236.1V10.2002H241.7C243.1 10.2002 243.9 10 244.3 9.5C244.7 9 244.7 8.5998 244.7 8.2998C244.7 8.0998 244.7 7.6002 244.4 7.2002Z" fill="#39146E"/>
<path d="M278.6 20C276.7 22.3 273.3 22.5 270.6 22.5H254.5V1.5H272.1C274.2 1.5 276.8 1.6002 278 3.7002C278.3 4.2002 278.7 5.0999 278.7 6.3999C278.7 6.8999 278.7 8.1998 277.8 9.2998C277.3 9.89981 276.4 10.7001 274.7 11.1001C276 11.3001 277.2 11.4999 278.2 12.3999C279.4 13.3999 279.7 14.6998 279.7 16.2998C279.8 16.9998 279.8 18.6 278.6 20ZM270.4 14.1001H261.9V17.7998H269.8C269.9 17.7998 270.5 17.8002 270.8 17.7002C271.7 17.5002 272.2 16.7999 272.2 15.8999C272.3 14.0999 270.9 14.1001 270.4 14.1001ZM271.3 7.1001C270.9 6.4001 270.2 6.3999 269.5 6.3999H262V9.7002H268.9C269.7 9.7002 270.8 9.7999 271.2 8.8999C271.3 8.6999 271.4 8.3001 271.4 8.1001C271.5 7.8001 271.5 7.4001 271.3 7.1001Z" fill="#39146E"/>
<path d="M304.6 20.8999C303.5 21.5999 302.4 22.1 301.2 22.5C300 22.9 298.1 23.2002 295.2 23.2002C290.7 23.2002 288 22.2002 286.4 21.2002C285.8 20.9002 284.8 20.1999 283.8 18.8999C281.6 16.1999 281.5 13.5001 281.5 12.1001C281.5 6.8001 284.3 4.2 286 3C287.8 1.8 290.3 0.700195 295 0.700195C295.9 0.700195 296.9 0.699805 297.8 0.799805C303.3 1.1998 305.9 3.4 307.4 5.5C308.1 6.5 309.3 8.6999 309.3 11.8999C309.3 13.7999 308.9 18.0999 304.6 20.8999ZM299.6 7C299.3 6.7 298.6 6.1998 297.6 5.7998C297.1 5.5998 296.5 5.5 295.4 5.5C294.4 5.5 293.6 5.6 292.7 6C290.2 7 289.1 9.6001 289.1 12.1001C289.1 12.5001 289.1 13.6002 289.5 14.7002C290.7 18.4002 294.1 18.7002 295.4 18.7002C295.8 18.7002 297.1 18.7002 298.2 18.2002C300.5 17.2002 301.5 14.5001 301.5 12.1001C301.5 9.4001 300.4 7.7 299.6 7Z" fill="#39146E"/>
<path d="M334.299 20.8999C333.199 21.5999 332.099 22.1 330.899 22.5C329.699 22.9 327.799 23.2002 324.899 23.2002C320.399 23.2002 317.699 22.2002 316.099 21.2002C315.499 20.9002 314.499 20.1999 313.499 18.8999C311.299 16.1999 311.199 13.5001 311.199 12.1001C311.199 6.8001 313.999 4.2 315.699 3C317.499 1.8 319.999 0.700195 324.699 0.700195C325.599 0.700195 326.599 0.699805 327.499 0.799805C333.099 1.1998 335.599 3.4 337.099 5.5C337.799 6.5 338.999 8.6999 338.999 11.8999C338.899 13.7999 338.499 18.0999 334.299 20.8999ZM329.299 7C328.999 6.7 328.299 6.1998 327.299 5.7998C326.799 5.5998 326.199 5.5 325.099 5.5C324.099 5.5 323.299 5.6 322.399 6C319.899 7 318.799 9.6001 318.799 12.1001C318.799 12.5001 318.799 13.6002 319.199 14.7002C320.399 18.4002 323.799 18.7002 325.099 18.7002C325.499 18.7002 326.799 18.7002 327.899 18.2002C330.199 17.2002 331.199 14.5001 331.199 12.1001C331.199 9.4001 330.099 7.7 329.299 7Z" fill="#39146E"/>
<path d="M359.1 22.5L349.2 11.2998V22.5H341.8V1.5H348L358 12.5V1.5H365.4V22.5H359.1Z" fill="#39146E"/>
<path d="M388.9 19.7998C387.1 21.9998 384 23.2002 378.3 23.2002C373.4 23.2002 370.6 21.9998 369 20.2998C367.6 18.6998 367.4 17.0998 367.3 16.2998L374.7 16.1001C374.8 16.5001 374.9 17.0001 375.6 17.6001C376.3 18.1001 377.4 18.5 379.3 18.5C380.1 18.5 381 18.4001 381.7 18.1001C382.3 17.8001 382.9 17.1999 382.9 16.3999C382.9 15.8999 382.7 15.2999 381.7 14.8999C381.2 14.6999 379.9 14.5002 378.5 14.2002C376.9 13.9002 375.2 13.6002 373.6 13.2002C371.8 12.7002 370.2 12.0999 369.1 10.3999C368.3 9.1999 368.3 8 368.3 7.5C368.3 6.4 368.6 5.2999 369.2 4.3999C370.6 2.1999 373.5 0.700195 378.8 0.700195C380.6 0.700195 383.6 0.9 385.3 1.5C386 1.7 386.7 2.1001 387.3 2.6001C389.3 4.1001 389.6 5.8998 389.7 6.7998L382.4 7.2002C382.3 7.0002 382.3 6.7 382.1 6.5C381.6 5.7 380.6 5.2002 378.7 5.2002C378.6 5.2002 376.8 5.1999 375.9 5.8999C375.5 6.1999 375.4 6.6999 375.4 6.8999C375.4 7.0999 375.5 7.4998 375.9 7.7998C376.9 8.5998 380.6 9.1 384.4 10C386.8 10.6 387.9 11.2 388.7 12C389.2 12.5 390.1 13.6001 390.1 15.6001C390.3 17.2001 389.8 18.6998 388.9 19.7998Z" fill="#39146E"/>
</svg>
