<svg width="390" height="23" viewBox="0 0 390 23" fill="none" xmlns="http://www.w3.org/2000/svg">
<g clip-path="url(#clip0_302_3174)">
<path d="M16.71 21.9001V13.9001H7.52997V21.9001H0V0.949951H7.56V8.58032H16.71V0.949951H24.3V21.9001H16.71Z" fill="white"/>
<path d="M44.5706 21.9001L43.4406 18.49H35.4406L34.3105 21.9001H26.0605L35.0605 0.949951H43.6105L52.6906 21.9001H44.5706ZM39.4105 6.77026L37.0005 13.8601H41.8705L39.4105 6.77026Z" fill="white"/>
<path d="M71.8698 21.9001L61.9297 10.6799V21.9001H54.5098V0.949951H60.7097L70.7097 11.95V0.949951H78.0997V21.9001H71.8698Z" fill="white"/>
<path d="M101.58 21.9V19.59C101.02 20.1388 100.379 20.5974 99.6797 20.9498C97.5282 22.0891 95.1119 22.6346 92.6797 22.5299C89.7513 22.6035 86.8813 21.703 84.5197 19.9699C83.6947 19.3559 82.981 18.6053 82.4097 17.7501C81.139 15.6665 80.561 13.2339 80.7586 10.8014C80.9563 8.36888 81.9194 6.06133 83.5097 4.2101C85.5097 2.1101 88.8797 0.000141757 95.2297 0.000141757C97.9716 -0.0165244 100.69 0.506797 103.23 1.54018C104.027 1.92726 104.756 2.44055 105.39 3.0602C105.935 3.53056 106.407 4.07987 106.79 4.69008C106.993 5.03305 107.17 5.39054 107.32 5.75991L99.8998 6.5602C99.3156 5.93396 98.6004 5.44417 97.8053 5.12612C97.0101 4.80806 96.1545 4.66924 95.2997 4.71987C93.804 4.68176 92.3333 5.10818 91.0897 5.94008C90.224 6.57749 89.5259 7.41573 89.0556 8.38247C88.5853 9.3492 88.3569 10.4153 88.3897 11.4899C88.3527 12.9933 88.8447 14.462 89.7798 15.6398C90.4316 16.3358 91.2248 16.8847 92.1062 17.2487C92.9876 17.6126 93.9367 17.7836 94.8897 17.7501C98.2697 17.7501 100.29 15.8498 100.82 14.6598C100.82 14.5998 100.91 14.3402 100.97 14.1002H95.5097V9.36001H108.01V21.9098L101.58 21.9Z" fill="white"/>
<path d="M127.159 21.9001L122.819 14.28H118.819V21.9001H111.359V0.949951H126.789C129.609 0.949951 132.309 1.16032 133.999 3.83032C134.713 4.95693 135.085 6.2666 135.069 7.60034C135.109 8.64648 134.865 9.68345 134.363 10.6023C133.861 11.5211 133.121 12.2875 132.219 12.8201C131.599 13.1722 130.922 13.4124 130.219 13.53L135.449 21.9001H127.159ZM127.159 6.5603C126.908 6.24667 126.58 6.00287 126.207 5.85229C125.834 5.70172 125.428 5.64905 125.029 5.69995H118.789V9.5603H124.429C125.859 9.5603 126.599 9.3803 127.079 8.8103C127.351 8.47766 127.496 8.05951 127.489 7.63013C127.505 7.25352 127.407 6.88107 127.209 6.5603H127.159Z" fill="white"/>
<path d="M151.281 15.6702V21.9001H143.831V15.6702L134.211 0.949951H142.971L147.541 9.29028L152.111 0.949951H160.781L151.281 15.6702Z" fill="white"/>
<path d="M197.549 19.3601C195.619 21.6801 192.229 21.8801 189.549 21.8801H173.439V0.929932H191.04C193.14 0.929932 195.729 1.08013 196.969 3.13013C197.458 3.94446 197.704 4.88117 197.679 5.83032C197.71 6.87168 197.397 7.89384 196.79 8.73999C195.98 9.66903 194.887 10.3053 193.679 10.55C194.958 10.6283 196.186 11.0807 197.209 11.8503C197.756 12.3242 198.18 12.9215 198.448 13.593C198.716 14.2645 198.819 14.9906 198.75 15.7102C198.794 17.0306 198.369 18.3239 197.549 19.3601ZM189.41 13.45H180.949V17.1003H188.849C189.184 17.1004 189.519 17.0736 189.849 17.0203C190.273 16.9468 190.654 16.7168 190.917 16.3762C191.18 16.0356 191.306 15.6087 191.27 15.1799C191.284 14.9385 191.244 14.6972 191.154 14.4729C191.063 14.2486 190.924 14.0473 190.746 13.8835C190.568 13.7198 190.355 13.5976 190.124 13.5261C189.893 13.4546 189.649 13.4354 189.41 13.47V13.45ZM190.27 6.38989C190.069 6.1157 189.797 5.90219 189.483 5.77173C189.169 5.64127 188.825 5.59911 188.49 5.65015H181.01V8.90991H187.959C188.729 8.90991 189.829 8.97011 190.299 8.11011C190.429 7.85184 190.5 7.56861 190.51 7.28003C190.514 6.97308 190.431 6.6711 190.27 6.40991V6.38989Z" fill="white"/>
<path d="M217.959 21.9001L216.829 18.49H208.829L207.699 21.9001H199.449L208.499 0.949951H217.049L226.129 21.9001H217.959ZM212.799 6.77026L210.389 13.8601H215.259L212.799 6.77026Z" fill="white"/>
<path d="M243.661 21.9001L239.331 14.28H235.331V21.9001H227.791V0.949951H243.221C246.041 0.949951 248.741 1.16032 250.431 3.83032C251.145 4.95693 251.517 6.2666 251.501 7.60034C251.542 8.64684 251.299 9.68452 250.797 10.6038C250.295 11.523 249.554 12.2891 248.651 12.8201C248.031 13.172 247.354 13.4122 246.651 13.53L251.871 21.9001H243.661ZM243.721 6.5603C243.466 6.24733 243.136 6.0042 242.762 5.85376C242.388 5.70332 241.981 5.65017 241.581 5.69995H235.361V9.5603H241.001C242.421 9.5603 243.161 9.3803 243.641 8.8103C243.913 8.47766 244.058 8.05951 244.051 7.63013C244.048 7.24878 243.934 6.87678 243.721 6.5603Z" fill="white"/>
<path d="M277.931 19.3601C276.011 21.6801 272.621 21.8801 269.931 21.8801H253.811V0.929932H271.411C273.521 0.929932 276.101 1.08013 277.351 3.13013C277.839 3.94446 278.085 4.88117 278.061 5.83032C278.091 6.87168 277.778 7.89384 277.171 8.73999C276.361 9.66903 275.268 10.3053 274.061 10.55C275.339 10.6283 276.567 11.0807 277.591 11.8503C278.135 12.3257 278.558 12.9234 278.826 13.5945C279.094 14.2656 279.198 14.9908 279.131 15.7102C279.178 17.0309 278.752 18.3251 277.931 19.3601ZM269.801 13.45H261.361V17.1003H269.261C269.596 17.1004 269.93 17.0736 270.261 17.0203C270.685 16.9468 271.065 16.7168 271.328 16.3762C271.591 16.0356 271.717 15.6087 271.681 15.1799C271.695 14.9365 271.656 14.693 271.564 14.467C271.472 14.2411 271.331 14.0389 271.15 13.8748C270.97 13.7107 270.755 13.5888 270.521 13.5188C270.288 13.4488 270.041 13.4321 269.801 13.47V13.45ZM270.661 6.38989C270.46 6.1157 270.188 5.90219 269.874 5.77173C269.56 5.64127 269.217 5.59911 268.881 5.65015H261.361V8.90991H268.361C269.131 8.90991 270.231 8.97011 270.701 8.11011C270.83 7.85184 270.901 7.56861 270.911 7.28003C270.912 6.97209 270.825 6.67004 270.661 6.40991V6.38989Z" fill="white"/>
<path d="M303.989 20.3C302.948 21.0165 301.796 21.5572 300.579 21.9001C298.625 22.4293 296.603 22.6715 294.579 22.6199C290.129 22.6199 287.429 21.6199 285.739 20.6199C284.729 20.0294 283.832 19.2644 283.089 18.3601C281.523 16.4585 280.702 14.0523 280.779 11.5901C280.695 9.81451 281.068 8.04718 281.863 6.45728C282.658 4.86738 283.848 3.50811 285.319 2.51001C287.099 1.30001 289.649 0.230166 294.319 0.170166C295.319 0.170166 296.189 0.17001 297.139 0.26001C302.689 0.70001 305.269 2.90022 306.729 4.98022C307.986 6.85779 308.649 9.07079 308.629 11.3303C308.674 13.0953 308.272 14.8427 307.461 16.4109C306.65 17.979 305.456 19.3168 303.989 20.3ZM298.989 6.35034C298.412 5.81918 297.731 5.41349 296.989 5.15991C296.274 4.9238 295.522 4.81566 294.769 4.84009C293.846 4.80551 292.926 4.96587 292.069 5.3103C290.928 5.85509 289.976 6.72926 289.336 7.82007C288.696 8.91087 288.398 10.1679 288.479 11.4299C288.479 12.2963 288.618 13.1574 288.889 13.9802C289.293 15.2065 290.093 16.2643 291.162 16.988C292.231 17.7118 293.51 18.0606 294.799 17.9802C295.764 17.9998 296.723 17.8262 297.619 17.47C299.959 16.47 300.909 13.7599 300.909 11.3899C300.95 10.4656 300.802 9.54295 300.474 8.67798C300.145 7.81301 299.643 7.02416 298.999 6.36011L298.989 6.35034Z" fill="white"/>
<path d="M333.66 20.3C332.621 21.0202 331.468 21.5612 330.25 21.9001C328.296 22.4297 326.275 22.6719 324.25 22.6199C319.79 22.6199 317.09 21.6199 315.4 20.6199C313.839 19.7027 312.552 18.3847 311.673 16.802C310.794 15.2193 310.354 13.4298 310.4 11.6199C310.316 9.8443 310.69 8.07696 311.485 6.48706C312.279 4.89716 313.469 3.53839 314.94 2.54028C316.73 1.33028 319.28 0.259951 323.94 0.199951C324.89 0.199951 325.81 0.200283 326.76 0.290283C332.31 0.730283 334.89 2.93001 336.34 5.01001C337.602 6.88542 338.265 9.09987 338.24 11.3601C338.289 13.115 337.895 14.8538 337.095 16.4163C336.294 17.9788 335.113 19.3146 333.66 20.3ZM328.66 6.35034C328.082 5.8215 327.401 5.41611 326.66 5.15991C325.042 4.68943 323.317 4.74232 321.73 5.3103C320.591 5.85725 319.64 6.73175 319.001 7.82202C318.361 8.9123 318.062 10.1684 318.14 11.4299C318.141 12.2971 318.283 13.1586 318.56 13.9802C318.963 15.2057 319.76 16.2632 320.828 16.9871C321.895 17.7109 323.173 18.0601 324.46 17.9802C325.425 18.0006 326.384 17.827 327.28 17.47C329.63 16.47 330.58 13.7599 330.58 11.3899C330.623 10.4663 330.476 9.54389 330.149 8.67896C329.823 7.81402 329.323 7.02499 328.68 6.36011L328.66 6.35034Z" fill="white"/>
<path d="M358.411 21.9001L348.471 10.6799V21.9001H341.051V0.949951H347.251L357.251 11.95V0.949951H364.631V21.9001H358.411Z" fill="white"/>
<path d="M388.291 19.1102C386.541 21.3102 383.401 22.5301 377.671 22.5301C372.741 22.5301 369.951 21.37 368.411 19.62C367.427 18.506 366.834 17.1016 366.721 15.62L374.111 15.4403C374.163 15.7411 374.279 16.0272 374.452 16.2791C374.624 16.531 374.849 16.7428 375.111 16.9002C376.21 17.6122 377.516 17.936 378.821 17.8201C379.654 17.8513 380.484 17.6974 381.251 17.37C381.58 17.2257 381.864 16.9956 382.074 16.7034C382.283 16.4113 382.41 16.0684 382.441 15.7103C382.43 15.3645 382.308 15.0313 382.094 14.7596C381.88 14.4879 381.584 14.2917 381.251 14.2C380.203 13.8836 379.133 13.6433 378.051 13.4803C376.411 13.1603 374.751 12.8903 373.121 12.4803C371.341 11.9703 369.711 11.3503 368.641 9.71028C368.088 8.84489 367.799 7.83719 367.811 6.81038C367.807 5.7123 368.127 4.63709 368.731 3.72005C370.091 1.52005 373.001 0.0701479 378.371 0.0701479C380.575 0.0496027 382.772 0.328905 384.901 0.900226C385.623 1.14045 386.3 1.50214 386.901 1.97005C387.58 2.46029 388.148 3.08911 388.567 3.81478C388.986 4.54044 389.246 5.34643 389.331 6.18001L382.001 6.60042C381.93 6.36812 381.843 6.14076 381.741 5.92025C381.261 5.12025 380.191 4.63997 378.291 4.63997C377.302 4.59968 376.323 4.84671 375.471 5.35042C375.324 5.4728 375.206 5.62544 375.125 5.79818C375.044 5.97091 375.001 6.15956 375.001 6.35042C374.998 6.53472 375.039 6.71695 375.121 6.88216C375.203 7.04737 375.323 7.19051 375.471 7.30013C376.471 8.13013 380.221 8.64032 383.961 9.50032C386.371 10.0603 387.491 10.6803 388.291 11.5003C388.759 11.9699 389.125 12.531 389.366 13.1488C389.607 13.7666 389.717 14.4276 389.691 15.0902C389.696 16.5507 389.202 17.9692 388.291 19.1102Z" fill="white"/>
</g>
<defs>
<clipPath id="clip0_302_3174">
<rect width="389.69" height="22.62" fill="white"/>
</clipPath>
</defs>
</svg>
