<svg width="285" height="74" viewBox="0 0 285 74" fill="none" xmlns="http://www.w3.org/2000/svg">
<g clip-path="url(#clip0_302_3101)">
<path d="M37.2363 0.333496C30.0084 0.333496 22.9428 2.47438 16.9331 6.48542C10.9233 10.4965 6.23924 16.1975 3.47324 22.8676C0.707241 29.5378 -0.0164707 36.8774 1.39362 43.9583C2.80372 51.0393 6.28428 57.5435 11.3952 62.6486C16.5061 67.7537 23.0178 71.2303 30.1068 72.6388C37.1958 74.0473 44.5438 73.3244 51.2215 70.5616C57.8992 67.7987 63.6067 63.12 67.6223 57.1171C71.6379 51.1141 73.7812 44.0565 73.7812 36.8369C73.7812 27.1556 69.931 17.8708 63.0775 11.0251C56.224 4.17938 46.9286 0.333496 37.2363 0.333496ZM37.2363 69.5424C30.7588 69.5424 24.4267 67.6237 19.041 64.0289C13.6552 60.4342 9.45761 55.3248 6.97907 49.347C4.50054 43.3692 3.85238 36.7915 5.11657 30.4458C6.38077 24.1 9.50053 18.2713 14.0813 13.6967C18.6621 9.12203 24.4981 6.00702 30.8513 4.74557C37.2046 3.48412 43.7896 4.13289 49.7737 6.60984C55.7578 9.08679 60.8721 13.2807 64.4698 18.661C68.0676 24.0414 69.9872 30.3667 69.9859 36.8369C69.9769 45.5063 66.5224 53.8174 60.3814 59.9438C54.2405 66.0702 45.9156 69.5105 37.2363 69.5088V69.5424Z" fill="white"/>
<path d="M15.813 44.3921V37.4497C15.7268 34.406 16.1834 31.3712 17.1613 28.4871C18.0518 26.1323 19.5892 24.0761 21.5971 22.5548C23.7093 20.9259 26.1719 19.8101 28.7901 19.2957V24.851C26.9093 25.9418 25.8374 27.3896 25.5812 29.2144H28.7901V44.3989L15.813 44.3921Z" fill="white"/>
<path d="M30.4418 36.0221V29.0661C30.356 26.0246 30.8126 22.9921 31.7901 20.1103C32.6908 17.7463 34.2455 15.6866 36.2731 14.1712C38.3836 12.5396 40.8469 11.4235 43.4661 10.9121V16.4943C42.621 16.9124 41.8886 17.5269 41.3302 18.2861C40.7719 19.0453 40.4039 19.9272 40.2573 20.8578H43.4661V36.0221H30.4418Z" fill="white"/>
<path d="M58.0677 29.2075V36.1567C58.1606 39.196 57.7156 42.2278 56.7531 45.1125C55.8476 47.4758 54.2911 49.5348 52.2633 51.0516C50.1528 52.6833 47.6896 53.7994 45.0703 54.3107V48.7554C45.916 48.3373 46.6492 47.7229 47.2087 46.9638C47.7681 46.2047 48.1375 45.3229 48.2859 44.392H45.0703V29.2075H58.0677Z" fill="white"/>
<path d="M43.4661 37.6449V44.5874C43.5572 47.6221 43.1122 50.6492 42.1515 53.5297C41.2431 55.8914 39.6871 57.9497 37.6618 59.4688C35.5496 61.0977 33.087 62.2135 30.4688 62.7279V57.1726C32.3563 56.0818 33.4282 54.6273 33.6844 52.8092H30.4688V37.6382L43.4661 37.6449Z" fill="white"/>
<path d="M119.347 50.8767H113.738V35.9548C113.738 33.5127 113.289 31.7036 112.39 30.5275C111.952 29.9495 111.379 29.4873 110.721 29.181C110.063 28.8747 109.34 28.7336 108.615 28.77C107.829 28.7787 107.052 28.934 106.323 29.2279C105.522 29.5468 104.774 29.9849 104.105 30.5275C103.392 31.1052 102.758 31.7729 102.217 32.5139C101.659 33.2786 101.235 34.1325 100.963 35.039V50.8767H95.3613V13.7H100.963V29.5915C101.959 27.8157 103.412 26.3374 105.17 25.3088C106.91 24.2945 108.892 23.7665 110.907 23.7803C112.309 23.7348 113.7 24.0428 114.952 24.6759C116.004 25.2337 116.898 26.0464 117.554 27.0394C118.222 28.0882 118.68 29.2569 118.902 30.4803C119.158 31.8481 119.285 33.2368 119.28 34.6283L119.347 50.8767Z" fill="white"/>
<path d="M140.096 51.3884C138.183 51.4196 136.295 50.9399 134.629 49.9988C132.962 49.0577 131.578 47.6894 130.618 46.0352V50.8767H125.67V13.7H131.279V29.2885C132.263 27.6527 133.615 26.2692 135.229 25.2482C136.805 24.3383 138.582 23.8315 140.401 23.7728C142.221 23.714 144.026 24.1052 145.658 24.9116C147.103 25.6645 148.379 26.7049 149.406 27.9686C150.467 29.2877 151.278 30.7893 151.799 32.3994C152.363 34.1001 152.647 35.8805 152.642 37.6719C152.655 39.499 152.326 41.3124 151.671 43.0185C151.062 44.6203 150.164 46.0969 149.022 47.3752C147.908 48.6098 146.555 49.6062 145.045 50.3043C143.496 51.0275 141.806 51.3978 140.096 51.3884ZM138.62 46.6008C139.786 46.6147 140.939 46.3613 141.991 45.8601C142.988 45.3865 143.881 44.7205 144.62 43.9006C145.359 43.0715 145.937 42.1125 146.325 41.0724C146.735 39.9974 146.943 38.856 146.939 37.7056C146.942 36.5357 146.744 35.374 146.352 34.2714C145.986 33.2126 145.434 32.2276 144.721 31.3624C144.029 30.5312 143.179 29.8447 142.22 29.3423C141.239 28.8271 140.146 28.5633 139.038 28.5747C138.192 28.5679 137.352 28.7234 136.564 29.0326C135.791 29.3415 135.069 29.7636 134.42 30.285C133.752 30.8203 133.152 31.4354 132.634 32.1166C132.109 32.8069 131.658 33.5493 131.285 34.332V41.362C131.484 42.1345 131.85 42.854 132.357 43.4696C132.873 44.1094 133.482 44.6679 134.164 45.1261C134.847 45.5954 135.594 45.965 136.382 46.2237C137.103 46.4667 137.859 46.594 138.62 46.6008Z" fill="white"/>
<path d="M164.83 51.3882C163.601 51.3988 162.381 51.1819 161.23 50.7485C160.175 50.353 159.206 49.7561 158.379 48.991C157.578 48.2443 156.936 47.3444 156.491 46.3447C156.032 45.3012 155.802 44.1715 155.817 43.0317C155.801 41.8437 156.081 40.6703 156.633 39.6177C157.197 38.5731 157.99 37.6687 158.952 36.9714C160.03 36.1898 161.237 35.604 162.518 35.2408C164.002 34.8203 165.539 34.6139 167.082 34.6281C168.33 34.6292 169.575 34.7396 170.803 34.958C171.934 35.153 173.045 35.4528 174.12 35.8536V34.0018C174.17 33.1593 174.047 32.3155 173.758 31.5222C173.469 30.729 173.021 30.0031 172.441 29.3893C171.315 28.2849 169.704 27.7328 167.594 27.7328C166.155 27.7346 164.729 28.0016 163.388 28.5206C161.889 29.1158 160.462 29.877 159.134 30.7899L157.381 27.2681C160.517 25.0536 164.253 23.8441 168.093 23.8003C171.76 23.8003 174.614 24.734 176.655 26.6015C178.695 28.469 179.715 31.1625 179.715 34.6819V44.3111C179.676 44.7877 179.803 45.2631 180.072 45.6579C180.402 45.9658 180.841 46.1305 181.293 46.1158V50.9034C180.796 50.9989 180.294 51.0663 179.789 51.1054C179.331 51.1054 178.92 51.1593 178.542 51.1593C177.643 51.1596 176.77 50.8531 176.068 50.2906C175.496 49.7587 175.126 49.0446 175.023 48.2705L174.875 46.5871C173.716 48.1233 172.201 49.355 170.459 50.1762C168.699 50.9993 166.774 51.4136 164.83 51.3882ZM166.354 47.2605C167.675 47.2668 168.985 47.0151 170.21 46.5198C171.318 46.0966 172.294 45.3852 173.035 44.4593C173.345 44.2366 173.603 43.9477 173.788 43.6134C173.973 43.2792 174.082 42.908 174.106 42.5267V39.0117C173.125 38.6259 172.109 38.335 171.073 38.1431C170.04 37.9448 168.99 37.8433 167.938 37.84C166.204 37.764 164.487 38.2173 163.017 39.1397C162.427 39.497 161.94 40.0016 161.605 40.6037C161.269 41.2058 161.096 41.8847 161.102 42.5738C161.089 43.2091 161.215 43.8397 161.471 44.4213C161.727 45.0029 162.107 45.5215 162.585 45.9407C163.626 46.846 164.975 47.3184 166.354 47.2605Z" fill="white"/>
<path d="M201.537 29.0797C199.522 29.103 197.543 29.6185 195.773 30.5813C194.15 31.4702 192.875 32.8792 192.153 34.5811V50.8766H186.551V24.2381H191.748V30.1975C192.622 28.4569 193.867 26.9285 195.395 25.7195C196.721 24.6154 198.388 24.0018 200.114 23.9822H200.957C201.154 23.9809 201.35 23.999 201.544 24.0361L201.537 29.0797Z" fill="white"/>
<path d="M213.051 50.8765L202.865 24.238H208.676L216.274 46.1225L223.972 24.238H229.271L219.078 50.8765H213.051Z" fill="white"/>
<path d="M244.319 51.3884C242.364 51.4184 240.425 51.0351 238.629 50.2639C237.013 49.5691 235.554 48.5547 234.341 47.2817C233.128 46.0087 232.186 44.5034 231.571 42.8568C230.276 39.4608 230.276 35.7078 231.571 32.3118C232.188 30.6712 233.133 29.1729 234.348 27.908C235.581 26.6316 237.054 25.611 238.683 24.9048C240.468 24.1626 242.382 23.7805 244.315 23.7805C246.249 23.7805 248.163 24.1626 249.948 24.9048C251.576 25.611 253.05 26.6316 254.282 27.908C255.497 29.1729 256.442 30.6712 257.06 32.3118C258.355 35.7078 258.355 39.4608 257.06 42.8568C256.442 44.4975 255.497 45.9957 254.282 47.2606C253.05 48.537 251.576 49.5577 249.948 50.2639C248.172 51.0318 246.253 51.4151 244.319 51.3884ZM236.364 37.6314C236.35 38.8478 236.556 40.0566 236.971 41.2003C237.353 42.2386 237.925 43.1974 238.656 44.0285C239.365 44.8159 240.221 45.4565 241.177 45.9139C242.161 46.3665 243.232 46.6009 244.315 46.6009C245.399 46.6009 246.469 46.3665 247.453 45.9139C248.415 45.4542 249.273 44.8035 249.975 44.0015C250.705 43.1596 251.276 42.1922 251.66 41.1464C252.077 40.0056 252.285 38.7989 252.273 37.5843C252.28 36.3767 252.072 35.1776 251.66 34.0424C251.279 32.989 250.708 32.0143 249.975 31.1671C249.266 30.3731 248.401 29.7336 247.433 29.2884C246.452 28.833 245.381 28.6029 244.298 28.615C243.238 28.6033 242.189 28.8336 241.231 29.2884C240.27 29.7608 239.413 30.4201 238.71 31.2277C237.973 32.077 237.393 33.0506 236.998 34.103C236.57 35.23 236.355 36.4263 236.364 37.6314Z" fill="white"/>
<path d="M264.811 24.2381L271.337 33.3286L271.796 34.1972L272.254 33.3286L278.78 24.2112H284.597L274.856 37.5574L284.698 50.8497H278.834L272.254 41.7861L271.796 40.9713L271.391 41.7861L264.764 50.8497H258.893L268.735 37.5574L259 24.2381H264.811Z" fill="white"/>
</g>
<defs>
<clipPath id="clip0_302_3101">
<rect width="284" height="73" fill="white" transform="translate(0.699219 0.299805)"/>
</clipPath>
</defs>
</svg>
