<svg width="284" height="73" viewBox="0 0 284 73" fill="none" xmlns="http://www.w3.org/2000/svg">
<g clip-path="url(#clip0_156_15)">
<path d="M36.5381 0.0336914C29.3102 0.0336914 22.2446 2.17458 16.2348 6.18562C10.225 10.1967 5.54099 15.8977 2.775 22.5678C0.00899916 29.2379 -0.714713 36.5775 0.69538 43.6585C2.10547 50.7395 5.58604 57.2437 10.6969 62.3488C15.8078 67.4539 22.3195 70.9305 29.4085 72.339C36.4976 73.7475 43.8455 73.0246 50.5232 70.2618C57.2009 67.4989 62.9085 62.8202 66.9241 56.8172C70.9397 50.8143 73.083 43.7567 73.083 36.5371C73.083 26.8558 69.2327 17.571 62.3792 10.7253C55.5257 3.87957 46.2304 0.0336914 36.5381 0.0336914ZM36.5381 69.2426C30.0606 69.2426 23.7285 67.3239 18.3427 63.7291C12.9569 60.1344 8.75937 55.025 6.28083 49.0472C3.80229 43.0694 3.15414 36.4917 4.41833 30.146C5.68253 23.8002 8.80228 17.9715 13.3831 13.3969C17.9638 8.82223 23.7999 5.70721 30.1531 4.44576C36.5063 3.18431 43.0914 3.83309 49.0755 6.31004C55.0595 8.78698 60.1738 12.9808 63.7716 18.3612C67.3694 23.7416 69.2889 30.0669 69.2876 36.5371C69.2787 45.2064 65.8241 53.5176 59.6832 59.644C53.5422 65.7704 45.2173 69.2107 36.5381 69.2089V69.2426Z" fill="#39146E"/>
<path d="M15.1138 44.0923V37.1499C15.0276 34.1061 15.4841 31.0714 16.4621 28.1873C17.3525 25.8325 18.89 23.7762 20.8979 22.255C23.0101 20.6261 25.4726 19.5103 28.0909 18.9958V24.5511C26.2101 25.642 25.1382 27.0897 24.882 28.9146H28.0909V44.0991L15.1138 44.0923Z" fill="#39146E"/>
<path d="M29.7426 35.7223V28.7663C29.6568 25.7248 30.1133 22.6923 31.0909 19.8105C31.9916 17.4465 33.5463 15.3868 35.5739 13.8714C37.6844 12.2398 40.1477 11.1237 42.7669 10.6123V16.1945C41.9218 16.6126 41.1893 17.2271 40.631 17.9863C40.0727 18.7455 39.7047 19.6274 39.558 20.558H42.7669V35.7223H29.7426Z" fill="#39146E"/>
<path d="M57.3694 28.9077V35.8569C57.4624 38.8962 57.0173 41.928 56.0548 44.8127C55.1494 47.176 53.5928 49.235 51.5651 50.7518C49.4546 52.3835 46.9913 53.4996 44.3721 54.0109V48.4556C45.2178 48.0375 45.951 47.4231 46.5104 46.664C47.0699 45.9049 47.4392 45.0231 47.5877 44.0922H44.3721V28.9077H57.3694Z" fill="#39146E"/>
<path d="M42.7669 37.3451V44.2876C42.858 47.3223 42.413 50.3494 41.4523 53.2299C40.5439 55.5915 38.9879 57.6499 36.9626 59.169C34.8504 60.7979 32.3878 61.9137 29.7695 62.4281V56.8728C31.6571 55.782 32.729 54.3275 32.9852 52.5094H29.7695V37.3384L42.7669 37.3451Z" fill="#39146E"/>
<path d="M118.648 50.5769H113.039V35.655C113.039 33.2129 112.59 31.4038 111.691 30.2276C111.252 29.6497 110.679 29.1875 110.021 28.8812C109.363 28.5749 108.641 28.4338 107.916 28.4702C107.13 28.4789 106.352 28.6342 105.624 28.928C104.823 29.247 104.075 29.6851 103.406 30.2276C102.693 30.8054 102.059 31.4731 101.518 32.2141C100.96 32.9788 100.536 33.8327 100.264 34.7392V50.5769H94.6621V13.4001H100.264V29.2917C101.26 27.5159 102.712 26.0376 104.471 25.009C106.211 23.9947 108.193 23.4667 110.208 23.4805C111.61 23.435 113.001 23.743 114.253 24.3761C115.304 24.9339 116.199 25.7466 116.855 26.7396C117.523 27.7884 117.981 28.9571 118.203 30.1805C118.459 31.5483 118.585 32.937 118.58 34.3285L118.648 50.5769Z" fill="#39146E"/>
<path d="M139.398 51.0886C137.484 51.1198 135.597 50.6401 133.93 49.699C132.264 48.7579 130.88 47.3896 129.92 45.7353V50.5769H124.972V13.4001H130.58V28.9886C131.564 27.3529 132.917 25.9694 134.531 24.9484C136.107 24.0385 137.884 23.5317 139.703 23.473C141.522 23.4142 143.328 23.8054 144.96 24.6117C146.405 25.3647 147.68 26.4051 148.708 27.6688C149.769 28.9879 150.58 30.4895 151.101 32.0996C151.665 33.8003 151.949 35.5807 151.944 37.3721C151.957 39.1992 151.628 41.0126 150.973 42.7187C150.364 44.3205 149.466 45.7971 148.324 47.0754C147.21 48.31 145.857 49.3064 144.346 50.0045C142.798 50.7277 141.108 51.098 139.398 51.0886ZM137.922 46.301C139.087 46.3149 140.24 46.0615 141.293 45.5603C142.29 45.0867 143.183 44.4207 143.922 43.6008C144.661 42.7717 145.239 41.8127 145.627 40.7726C146.037 39.6976 146.245 38.5562 146.241 37.4058C146.244 36.2359 146.045 35.0742 145.654 33.9716C145.288 32.9128 144.735 31.9278 144.023 31.0626C143.33 30.2314 142.48 29.5449 141.522 29.0425C140.541 28.5273 139.448 28.2635 138.34 28.2749C137.493 28.2681 136.654 28.4235 135.866 28.7328C135.093 29.0417 134.37 29.4638 133.722 29.9852C133.054 30.5205 132.454 31.1356 131.935 31.8168C131.411 32.5071 130.959 33.2495 130.587 34.0322V41.0622C130.786 41.8347 131.151 42.5542 131.659 43.1698C132.174 43.8096 132.784 44.3681 133.466 44.8263C134.149 45.2956 134.896 45.6652 135.684 45.9239C136.405 46.1669 137.161 46.2942 137.922 46.301Z" fill="#39146E"/>
<path d="M164.132 51.0884C162.903 51.099 161.682 50.8821 160.532 50.4487C159.476 50.0532 158.508 49.4563 157.681 48.6912C156.88 47.9445 156.238 47.0446 155.793 46.0449C155.334 45.0014 155.104 43.8717 155.119 42.7319C155.102 41.5439 155.383 40.3705 155.935 39.3179C156.499 38.2733 157.292 37.3689 158.254 36.6716C159.331 35.89 160.539 35.3042 161.82 34.941C163.304 34.5205 164.841 34.3141 166.384 34.3283C167.631 34.3294 168.877 34.4398 170.105 34.6582C171.236 34.8532 172.346 35.153 173.422 35.5538V33.702C173.472 32.8595 173.348 32.0157 173.06 31.2224C172.771 30.4292 172.323 29.7033 171.743 29.0894C170.617 27.9851 169.006 27.433 166.896 27.433C165.457 27.4348 164.031 27.7018 162.689 28.2208C161.191 28.816 159.764 29.5772 158.436 30.4901L156.683 26.9683C159.819 24.7538 163.555 23.5443 167.395 23.5005C171.062 23.5005 173.916 24.4342 175.956 26.3017C177.997 28.1692 179.017 30.8627 179.017 34.3821V44.0113C178.978 44.4879 179.104 44.9633 179.374 45.3581C179.704 45.666 180.143 45.8307 180.594 45.816V50.6036C180.098 50.6991 179.596 50.7665 179.091 50.8056C178.633 50.8056 178.221 50.8595 177.844 50.8595C176.944 50.8598 176.072 50.5533 175.37 49.9908C174.798 49.4589 174.428 48.7448 174.325 47.9707L174.177 46.2873C173.018 47.8235 171.502 49.0552 169.761 49.8764C168 50.6995 166.076 51.1138 164.132 51.0884ZM165.656 46.9607C166.977 46.967 168.287 46.7153 169.512 46.22C170.62 45.7968 171.595 45.0854 172.336 44.1595C172.647 43.9368 172.905 43.6479 173.09 43.3136C173.275 42.9794 173.384 42.6082 173.408 42.2269V38.7119C172.427 38.3261 171.411 38.0352 170.375 37.8433C169.341 37.645 168.292 37.5435 167.24 37.5402C165.505 37.4642 163.789 37.9175 162.319 38.8398C161.729 39.1972 161.242 39.7018 160.906 40.3039C160.571 40.9059 160.398 41.5849 160.404 42.274C160.391 42.9093 160.516 43.5399 160.772 44.1215C161.029 44.7031 161.409 45.2217 161.887 45.6409C162.928 46.5462 164.277 47.0186 165.656 46.9607Z" fill="#39146E"/>
<path d="M200.839 28.7799C198.823 28.8032 196.845 29.3187 195.075 30.2815C193.452 31.1704 192.177 32.5794 191.455 34.2813V50.5768H185.853V23.9383H191.05V29.8976C191.924 28.1571 193.169 26.6287 194.697 25.4197C196.023 24.3156 197.69 23.702 199.416 23.6824H200.259C200.456 23.6811 200.652 23.6992 200.845 23.7363L200.839 28.7799Z" fill="#39146E"/>
<path d="M212.353 50.5767L202.167 23.9382H207.978L215.576 45.8227L223.274 23.9382H228.573L218.38 50.5767H212.353Z" fill="#39146E"/>
<path d="M243.619 51.0886C241.665 51.1185 239.726 50.7353 237.93 49.9641C236.314 49.2693 234.855 48.2549 233.642 46.9819C232.429 45.7089 231.486 44.2036 230.872 42.557C229.577 39.161 229.577 35.408 230.872 32.012C231.489 30.3714 232.434 28.8731 233.649 27.6082C234.882 26.3318 236.355 25.3112 237.984 24.605C239.768 23.8628 241.683 23.4807 243.616 23.4807C245.549 23.4807 247.464 23.8628 249.248 24.605C250.877 25.3112 252.35 26.3318 253.583 27.6082C254.798 28.8731 255.743 30.3714 256.361 32.012C257.655 35.408 257.655 39.161 256.361 42.557C255.743 44.1977 254.798 45.6959 253.583 46.9608C252.35 48.2372 250.877 49.2578 249.248 49.9641C247.473 50.732 245.554 51.1153 243.619 51.0886ZM235.665 37.3316C235.651 38.548 235.857 39.7568 236.271 40.9005C236.654 41.9388 237.225 42.8976 237.957 43.7287C238.665 44.5161 239.522 45.1567 240.478 45.6141C241.462 46.0667 242.533 46.3011 243.616 46.3011C244.699 46.3011 245.77 46.0667 246.754 45.6141C247.716 45.1544 248.574 44.5037 249.275 43.7017C250.006 42.8598 250.577 41.8924 250.961 40.8466C251.378 39.7058 251.586 38.4991 251.574 37.2845C251.581 36.0769 251.373 34.8778 250.961 33.7426C250.58 32.6891 250.009 31.7145 249.275 30.8673C248.566 30.0733 247.701 29.4338 246.734 28.9886C245.752 28.5332 244.681 28.3031 243.599 28.3152C242.539 28.3035 241.49 28.5338 240.532 28.9886C239.571 29.461 238.713 30.1203 238.011 30.9279C237.273 31.7772 236.694 32.7508 236.298 33.8032C235.871 34.9302 235.656 36.1265 235.665 37.3316Z" fill="#39146E"/>
<path d="M264.113 23.9383L270.639 33.0288L271.097 33.8974L271.556 33.0288L278.081 23.9114H283.899L274.158 37.2576L284 50.5499H278.135L271.556 41.4863L271.097 40.6715L270.693 41.4863L264.066 50.5499H258.194L268.037 37.2576L258.302 23.9383H264.113Z" fill="#39146E"/>
</g>
<defs>
<clipPath id="clip0_156_15">
<rect width="284" height="73" fill="white"/>
</clipPath>
</defs>
</svg>
