<?xml version="1.0" encoding="utf-8"?>
<!-- Generator: Adobe Illustrator 25.4.8, SVG Export Plug-In . SVG Version: 6.00 Build 0)  -->
<svg version="1.1" id="Layer_1" xmlns="http://www.w3.org/2000/svg" xmlns:xlink="http://www.w3.org/1999/xlink" x="0px" y="0px"
	 viewBox="0 0 546.7 529.8" enable-background="new 0 0 546.7 529.8" xml:space="preserve">
<g>
	<g>
		<linearGradient id="SVGID_1_" gradientUnits="userSpaceOnUse" x1="8.6505" y1="264.3286" x2="539.4568" y2="264.3286">
			<stop  offset="0" style="stop-color:#FDFB01"/>
			<stop  offset="1" style="stop-color:#B1FB23"/>
		</linearGradient>
		<path fill="url(#SVGID_1_)" d="M314.8,482.8c16,5.1,33.3,7.9,51.4,7.9c78.8,0,142.7-52.5,142.7-117.3c0-17.4-4.6-34-12.9-48.8
			c26.9-22.4,43.5-53.2,43.5-87.2c0-40.6-23.7-76.6-60.3-99.3c5.1-9,7.9-19.1,7.9-29.7c0-38.9-38.4-70.5-85.8-70.5
			c-11.7,0-22.8,1.9-33,5.4C342.3,19.1,304.3,3.8,261.9,3.8c-78.5,0-142.2,52.3-142.2,116.9c0,11.2,1.9,22,5.5,32.2
			C58.9,163.1,8.7,210.9,8.7,268.3c0,43.3,28.5,81.1,71,101.4c-6.3,12.9-9.7,27.1-9.7,41.8c0,62.5,61.7,113.2,137.7,113.2
			C250.9,524.8,289.5,508.4,314.8,482.8z"/>
	</g>
</g>
</svg>
