<?xml version="1.0" encoding="utf-8"?>
<!-- Generator: Adobe Illustrator 25.4.8, SVG Export Plug-In . SVG Version: 6.00 Build 0)  -->
<svg version="1.1" id="Layer_1" xmlns="http://www.w3.org/2000/svg" xmlns:xlink="http://www.w3.org/1999/xlink" x="0px" y="0px"
	 viewBox="0 0 446.8 477.5" enable-background="new 0 0 446.8 477.5" xml:space="preserve">
<g>
	<g>
		<g>
			<g>
				<path fill="#C2FF31" d="M23,158.7l3.7,12.7c0.2,0.6,0.7,1.1,1.3,1.2l11.8,2.7l-11.9,3.9c-0.5,0.2-0.9,0.6-1.1,1.1L23,192.6
					l-4-12.3c-0.2-0.5-0.6-1-1.2-1.1l-13.3-3.8c-0.2,0-0.1-0.3,0-0.3l13.2-2.6c0.6-0.1,1.1-0.6,1.3-1.2L23,158.7
					C22.9,158.7,23,158.7,23,158.7z"/>
			</g>
		</g>
		<g>
			<g>
				<path fill="#39146E" d="M23,193.3c-0.3,0-0.5-0.2-0.6-0.4l-4-12.3c-0.1-0.3-0.4-0.6-0.7-0.7l-13.3-3.8c-0.3-0.1-0.6-0.4-0.6-0.8
					c0-0.4,0.3-0.7,0.6-0.7l13.2-2.6c0.4-0.1,0.7-0.4,0.8-0.7l3.9-12.7c0.1-0.3,0.4-0.4,0.6-0.5c0.3,0,0.5,0.2,0.6,0.5l0,0l3.7,12.7
					c0.1,0.4,0.4,0.7,0.8,0.8l11.8,2.7c0.3,0.1,0.5,0.3,0.5,0.6c0,0.3-0.2,0.5-0.4,0.6L28,179.8c-0.3,0.1-0.6,0.4-0.7,0.7l-3.8,12.3
					C23.5,193.1,23.2,193.3,23,193.3C23,193.3,23,193.3,23,193.3z M6.6,175.4l11.4,3.2c0.8,0.2,1.3,0.8,1.6,1.5l3.4,10.4l3.2-10.4
					c0.2-0.7,0.8-1.3,1.5-1.5l9.8-3.2l-9.6-2.2c-0.8-0.2-1.5-0.8-1.7-1.6l-3.2-10.8l-3.4,10.8c-0.3,0.8-0.9,1.4-1.8,1.6L6.6,175.4z
					 M4.7,174.9L4.7,174.9C4.7,174.9,4.7,174.9,4.7,174.9z"/>
			</g>
		</g>
	</g>
	<g>
		<g>
			<g>
				<path fill="#FFFFFF" d="M423.5,231.9l2.7,9.1c0.1,0.4,0.5,0.8,0.9,0.9l8.4,1.9l-8.5,2.8c-0.4,0.1-0.7,0.4-0.8,0.8l-2.7,8.8
					l-2.8-8.8c-0.1-0.4-0.4-0.7-0.8-0.8l-9.5-2.7c-0.1,0-0.1-0.2,0-0.2l9.4-1.9c0.4-0.1,0.8-0.4,0.9-0.8L423.5,231.9
					C423.4,231.9,423.5,231.9,423.5,231.9z"/>
			</g>
		</g>
		<g>
			<g>
				<path fill="#39146E" d="M423.5,256.7c-0.3,0-0.5-0.2-0.6-0.4l-2.8-8.8c-0.1-0.2-0.2-0.3-0.4-0.4l-9.5-2.7
					c-0.3-0.1-0.5-0.4-0.5-0.7s0.3-0.6,0.6-0.7l9.4-1.9c0.2,0,0.4-0.2,0.5-0.4l2.8-9.1c0.1-0.3,0.3-0.4,0.6-0.5
					c0.3,0,0.5,0.2,0.6,0.5l2.7,9.1c0.1,0.2,0.2,0.4,0.4,0.4l8.4,1.9c0.3,0.1,0.5,0.3,0.5,0.6c0,0.3-0.2,0.5-0.4,0.6l-8.5,2.8
					c-0.2,0.1-0.3,0.2-0.4,0.4l-2.7,8.8C424,256.6,423.7,256.7,423.5,256.7C423.5,256.7,423.5,256.7,423.5,256.7z M412.5,243.8
					l7.4,2.1c0.6,0.2,1.1,0.6,1.3,1.2l2.2,6.9l2.1-6.9c0.2-0.6,0.6-1,1.2-1.2l6.4-2.1l-6.2-1.4c-0.7-0.1-1.2-0.6-1.4-1.3l-2.1-7.2
					l-2.2,7.2c-0.2,0.7-0.7,1.1-1.4,1.3L412.5,243.8z M410.4,244.3L410.4,244.3C410.4,244.3,410.4,244.3,410.4,244.3z M410.4,243.3
					L410.4,243.3C410.4,243.3,410.4,243.3,410.4,243.3z"/>
			</g>
		</g>
	</g>
	<g>
		<g>
			<g>
				<path fill="#FFFFFF" d="M73.6,330.9l2.7,9.1c0.1,0.4,0.5,0.8,0.9,0.9l8.4,1.9l-8.5,2.8c-0.4,0.1-0.7,0.4-0.8,0.8l-2.7,8.8
					l-2.8-8.8c-0.1-0.4-0.4-0.7-0.8-0.8l-9.5-2.7c-0.1,0-0.1-0.2,0-0.2l9.4-1.9c0.4-0.1,0.8-0.4,0.9-0.8L73.6,330.9
					C73.5,330.9,73.6,330.9,73.6,330.9z"/>
			</g>
		</g>
		<g>
			<g>
				<path fill="#39146E" d="M73.6,355.8c-0.3,0-0.5-0.2-0.6-0.4l-2.8-8.8c-0.1-0.2-0.2-0.3-0.4-0.4l-9.5-2.7
					c-0.3-0.1-0.5-0.4-0.5-0.7c0-0.3,0.3-0.6,0.6-0.7l9.4-1.9c0.2,0,0.4-0.2,0.5-0.4l2.8-9.1c0.1-0.3,0.3-0.4,0.6-0.5
					c0.3,0,0.5,0.2,0.6,0.5l2.7,9.1c0.1,0.2,0.2,0.4,0.4,0.4l8.4,1.9c0.3,0.1,0.5,0.3,0.5,0.6c0,0.3-0.2,0.5-0.4,0.6l-8.5,2.8
					c-0.2,0.1-0.3,0.2-0.4,0.4l-2.7,8.8C74.1,355.6,73.8,355.8,73.6,355.8C73.6,355.8,73.6,355.8,73.6,355.8z M62.6,342.9L70,345
					c0.6,0.2,1.1,0.6,1.3,1.2l2.2,6.9l2.1-6.9c0.2-0.6,0.6-1,1.2-1.2l6.4-2.1l-6.2-1.4c-0.7-0.1-1.2-0.6-1.4-1.3l-2.1-7.2l-2.2,7.2
					c-0.2,0.7-0.7,1.1-1.4,1.3L62.6,342.9z M60.5,343.3L60.5,343.3C60.5,343.3,60.5,343.3,60.5,343.3z M60.6,342.3L60.6,342.3
					C60.6,342.3,60.6,342.3,60.6,342.3z"/>
			</g>
		</g>
	</g>
	<g>
		<g>
			<g>
				<path fill="#FFFF51" stroke="#39146E" stroke-linecap="round" stroke-linejoin="round" stroke-miterlimit="10" d="M392.8,146
					l2.7,9.1c0.1,0.4,0.5,0.8,0.9,0.9l8.4,1.9l-8.5,2.8c-0.4,0.1-0.7,0.4-0.8,0.8l-2.7,8.8l-2.8-8.8c-0.1-0.4-0.4-0.7-0.8-0.8
					l-9.5-2.7c-0.1,0-0.1-0.2,0-0.2l9.4-1.9c0.4-0.1,0.8-0.4,0.9-0.8L392.8,146C392.8,146,392.8,146,392.8,146z"/>
			</g>
		</g>
		<g>
			<g>
				<path fill="#FFFF51" stroke="#39146E" stroke-linecap="round" stroke-linejoin="round" stroke-miterlimit="10" d="M392.8,170.9
					c-0.3,0-0.5-0.2-0.6-0.4l-2.8-8.8c-0.1-0.2-0.2-0.3-0.4-0.4l-9.5-2.7c-0.3-0.1-0.5-0.4-0.5-0.7c0-0.3,0.3-0.6,0.6-0.7l9.4-1.9
					c0.2,0,0.4-0.2,0.5-0.4l2.8-9.1c0.1-0.3,0.3-0.4,0.6-0.5c0.3,0,0.5,0.2,0.6,0.5l2.7,9.1c0.1,0.2,0.2,0.4,0.4,0.4l8.4,1.9
					c0.3,0.1,0.5,0.3,0.5,0.6c0,0.3-0.2,0.5-0.4,0.6l-8.5,2.8c-0.2,0.1-0.3,0.2-0.4,0.4l-2.7,8.8
					C393.3,170.7,393.1,170.9,392.8,170.9C392.8,170.9,392.8,170.9,392.8,170.9z M381.9,158l7.4,2.1c0.6,0.2,1.1,0.6,1.3,1.2
					l2.2,6.9l2.1-6.9c0.2-0.6,0.6-1,1.2-1.2l6.4-2.1l-6.2-1.4c-0.7-0.1-1.2-0.6-1.4-1.3l-2.1-7.2l-2.2,7.2c-0.2,0.7-0.7,1.1-1.4,1.3
					L381.9,158z M379.8,158.4L379.8,158.4C379.8,158.4,379.8,158.4,379.8,158.4z M379.8,157.4L379.8,157.4
					C379.8,157.4,379.8,157.4,379.8,157.4z"/>
			</g>
		</g>
	</g>
	<g>
		<g>
			<g>
				<path fill="#FFFFFF" d="M400.8,364.8l3.7,12.7c0.2,0.6,0.7,1.1,1.3,1.2l11.8,2.7l-11.9,3.9c-0.5,0.2-0.9,0.6-1.1,1.1l-3.8,12.3
					l-4-12.3c-0.2-0.5-0.6-1-1.2-1.1l-13.3-3.8c-0.2,0-0.1-0.3,0-0.3l13.2-2.6c0.6-0.1,1.1-0.6,1.3-1.2L400.8,364.8
					C400.8,364.8,400.8,364.8,400.8,364.8z"/>
			</g>
		</g>
		<g>
			<g>
				<path fill="#39146E" d="M400.8,399.4c-0.3,0-0.5-0.2-0.6-0.4l-4-12.3c-0.1-0.3-0.4-0.6-0.7-0.7l-13.3-3.8
					c-0.3-0.1-0.6-0.4-0.6-0.8c0-0.4,0.3-0.7,0.6-0.7l13.2-2.6c0.4-0.1,0.7-0.4,0.8-0.7l3.9-12.7c0.1-0.3,0.3-0.5,0.6-0.5
					c0.3,0,0.5,0.2,0.6,0.5l0,0l3.7,12.7c0.1,0.4,0.4,0.7,0.8,0.8l11.8,2.7c0.3,0.1,0.5,0.3,0.5,0.6c0,0.3-0.2,0.5-0.4,0.6
					l-11.9,3.9c-0.3,0.1-0.6,0.4-0.7,0.7l-3.8,12.3C401.3,399.2,401.1,399.4,400.8,399.4C400.8,399.4,400.8,399.4,400.8,399.4z
					 M384.4,381.5l11.4,3.2c0.8,0.2,1.3,0.8,1.6,1.5l3.4,10.4l3.2-10.4c0.2-0.7,0.8-1.3,1.5-1.5l9.8-3.2l-9.6-2.2
					c-0.8-0.2-1.5-0.8-1.7-1.6l-3.2-10.8l-3.4,10.8c-0.3,0.8-0.9,1.4-1.8,1.6L384.4,381.5z M382.5,381L382.5,381
					C382.5,381,382.5,381,382.5,381z"/>
			</g>
		</g>
	</g>
	<ellipse fill="#39146E" cx="196" cy="455.6" rx="140" ry="17.4"/>
	<path fill="#FFFF51" stroke="#39146E" stroke-linecap="round" stroke-linejoin="round" stroke-miterlimit="10" d="M197.8,322.2
		c0,0-5.5,56.9,78.5,84.5l12.3-7.5l-3.5-8.8c0,0-70.8-22-62.7-61.5L197.8,322.2z"/>
	<path fill="#39146E" d="M233.9,361.4c0.1,0.4-2.8,22.2-2.8,22.2l-8.7-7.9l10-15.8L233.9,361.4z"/>
	<path fill="#44D970" stroke="#39146E" stroke-linecap="round" stroke-linejoin="round" stroke-miterlimit="10" d="M286.4,385.5
		c0,0,13.3-2.7,22,5.8c12.2,12,2.1,43.8-15.2,52.4c-12.3,6.2-42.2,14.1-52.3,1.3c-10.7-13.7-5.7-24.8,4.3-30.9
		c10-6.1,24.7-1.4,26.7-6.1"/>
	<path fill="#FFFFFF" stroke="#39146E" stroke-linecap="round" stroke-linejoin="round" stroke-miterlimit="10" d="M235.3,427.4
		c0,0,10.2,17.3,29.8,18.3c21.6,1.1,50.3-7.9,46.6-49.8c-0.2-2.2,5.8,4.3,5.1,12.9c-0.7,47.7-44.6,49.7-62.1,44.1
		C242.6,449.2,230.6,437.7,235.3,427.4z"/>
	<path fill="#FFFFFF" stroke="#39146E" stroke-linecap="round" stroke-linejoin="round" stroke-miterlimit="10" d="M275.5,386.6
		c0,0,4.9,4.2,0.7,11.3c-4.9,8.4-12.3,4.5-12.3,4.5s-2.9,7.7,5.5,9.6c10.4,2.4,16.7-10.1,18-17.5c1.6-9.2-2.2-11.7-5.3-11.7
		C278.2,382.6,275.5,386.6,275.5,386.6z"/>
	<path fill="#44D970" stroke="#39146E" stroke-linecap="round" stroke-linejoin="round" stroke-miterlimit="10" d="M280.9,419.7
		c0,0-9.3-17.4-33.5-6.6"/>
	<path fill="#39146E" d="M198.6,334.8c0,0,5.9,22,11.8,27.8l10.5-17.2L198.6,334.8z"/>
	<polygon fill="#FFFF51" stroke="#39146E" stroke-linecap="round" stroke-linejoin="round" stroke-miterlimit="10" points="
		249.2,333.4 197.9,414.5 182.7,408.7 232.8,325.7 	"/>
	<path fill="#FFFFFF" stroke="#39146E" stroke-linecap="round" stroke-linejoin="round" stroke-miterlimit="10" d="M194,428.1
		c1.5-0.7,7-8.2,3.4-16.3c-3.4-7.6-13-11.4-17.7-9.8s-3.9,4.8-3.9,4.8L194,428.1z"/>
	<path fill="#44D970" stroke="#39146E" stroke-linecap="round" stroke-linejoin="round" stroke-miterlimit="10" d="M195.9,433.7
		c-1.3,4.4-8.3,11.4-12.5,15.4c-8.9,8.6-18.2,6.3-27.2,1.4s-44.4-35.6-50.7-48.2s-7.6-17.8-1.9-21.5c5.7-3.7,36.3-25.8,59.9,20.5
		c0,0,10.7-0.3,19.5,5.3C198.1,416.4,197.3,428.5,195.9,433.7z"/>
	<path fill="none" stroke="#39146E" stroke-linecap="round" stroke-linejoin="round" stroke-miterlimit="10" d="M166.1,410.8
		c0-1.6-1.8-9.7-6.2-15.5"/>
	<path fill="#FFFFFF" stroke="#39146E" stroke-linecap="round" stroke-linejoin="round" stroke-miterlimit="10" d="M101.2,383.5
		c-3.5,7.6,7,26.2,27.7,44.9c20.7,18.7,35.5,32.6,48.7,24c10.9-7.1-8.5-26.6-29.1-45.4C122.1,383.3,106.1,373.1,101.2,383.5z"/>
	<path fill="#39146E" d="M100.6,385c-5.7,6,8.2,26.8,28.4,46s39.7,28.4,45.4,22.4c5.7-6-8.7-22.7-29-41.9
		C125.2,392.2,106.4,379,100.6,385z"/>
	<path fill="#39146E" d="M127.7,181.8c4.4-14.2,18.6-22.7,34.4-22c28.8-26.7,76-35.8,122.5-19.7C339,159,374.9,206.2,374.2,253
		c12.8,10.6,19,27.2,14.2,42.4c-5.8,18.8-26.2,28.9-46.9,24.1c-29.1,23.2-75.4,37.1-119.2,22c-57.6-20-92.5-78.4-87.3-127.7
		C127.4,204.6,124.3,192.8,127.7,181.8z"/>
	<path fill="#44D970" stroke="#39146E" stroke-linecap="round" stroke-linejoin="round" stroke-miterlimit="10" d="M45.1,250.9
		L96.2,87.8l12.6,1L55,255.9C55,255.9,47.7,261.3,45.1,250.9z"/>
	<polygon fill="#39146E" points="76.5,150.2 91.4,142.1 93.4,133.7 80.8,137 	"/>
	
		<ellipse transform="matrix(4.292416e-03 -1 1 4.292416e-03 105.3999 139.762)" fill="#44D970" stroke="#39146E" stroke-linecap="round" stroke-linejoin="round" stroke-miterlimit="10" cx="122.9" cy="17" rx="12.3" ry="12.2"/>
	<path fill="#FFFF51" stroke="#39146E" stroke-linecap="round" stroke-linejoin="round" stroke-miterlimit="10" d="M166.1,262.5
		c-1.7-0.3-57.1,16.7-90.1-5.4l-5.8,21.5c0,0,29.2,15.9,77.3,9.6S166.1,262.5,166.1,262.5z"/>
	<path fill="#FFFFFF" stroke="#39146E" stroke-linecap="round" stroke-linejoin="round" stroke-miterlimit="10" d="M61.7,279.6
		c0,0,1.2,10.2,15.8,3.7c14.7-6.5,14.8-26.9,6.4-32.6C75.6,245,61.7,279.6,61.7,279.6z"/>
	<path fill="#633BB3" stroke="#39146E" stroke-miterlimit="10" d="M417.3,11.6c0,0-49.7,37.5-118.7,29.9S188.7-6,115,25.8
		L80.9,135.3l-2.3,8.4c0,0,112.1-49,167.7-14.7c48.3,29.7,124.2,17.4,191.3-39.9c0,0-30.1-12.9-36.1-25.9
		C401.5,63.2,414.1,35.8,417.3,11.6z"/>
	<path fill="#FFFF51" stroke="#39146E" stroke-linecap="round" stroke-linejoin="round" stroke-miterlimit="10" d="M123.8,175.6
		c4.5-14.2,18.9-22.6,35.1-21.9c29.3-26.6,77.6-35.5,125.2-19.3c55.7,19,92.6,66.4,92.1,113.1c13.1,10.6,19.5,27.3,14.7,42.5
		c-5.9,18.8-26.7,28.8-47.9,23.9c-29.7,23.1-77,36.9-121.9,21.6c-59-20.1-94.9-78.8-89.7-128C123.6,198.3,120.4,186.5,123.8,175.6z"
		/>
	<path fill="none" stroke="#39146E" stroke-linecap="round" stroke-linejoin="round" stroke-miterlimit="10" d="M154.6,158.7
		c0,0,5.7-6.7,10.1-9.8"/>
	<path fill="none" stroke="#39146E" stroke-linecap="round" stroke-linejoin="round" stroke-miterlimit="10" d="M134.3,200.7
		c0,0-3.4,6.7-3.4,17.7"/>
	<path fill="#FFFF51" stroke="#39146E" stroke-linecap="round" stroke-linejoin="round" stroke-miterlimit="10" d="M368.4,243.2
		c0,0,11.4,4.1,18.4,16.5"/>
	<path fill="#39146E" d="M275,116.1c39.8,4.9,62.4,36.7,78.8,67.3c-40.3,4.9-64.6-9-64.6-9l12.8,19.4c-4.1-0.1-14.1,0-24.9-1.8
		c-40.1-6.7-53.7-29.5-69.9-60.7C229,117.7,246.1,112.6,275,116.1z"/>
	
		<ellipse transform="matrix(0.3402 -0.9404 0.9404 0.3402 -57.7718 327.4293)" fill="#FFFFFF" stroke="#39146E" stroke-linecap="round" stroke-linejoin="round" stroke-miterlimit="10" cx="204.4" cy="204.9" rx="19.8" ry="26"/>
	<path fill="#39146E" d="M215.3,188.4c10.8,5.6,16.9,16.2,13.8,25.3c-3,9-14,13.7-25.8,11.5c-4.7-5.8-6.3-14.1-3.7-22
		C202.2,195.6,208.3,190.2,215.3,188.4z"/>
	
		<ellipse transform="matrix(0.3402 -0.9404 0.9404 0.3402 -39.3916 391.8934)" fill="#FFFFFF" stroke="#39146E" stroke-linecap="round" stroke-linejoin="round" stroke-miterlimit="10" cx="259.6" cy="224" rx="19.8" ry="26"/>
	<path fill="#39146E" d="M270.4,207.5c10.8,5.6,16.9,16.2,13.8,25.3c-3,9-14,13.7-25.8,11.5c-4.7-5.8-6.3-14.1-3.7-22
		C257.3,214.8,263.4,209.3,270.4,207.5z"/>
	<path fill="none" stroke="#39146E" stroke-linecap="round" stroke-linejoin="round" stroke-miterlimit="10" d="M192.8,295.2
		c1.9,4.8,7,8.7,13.3,9.6c6.9,0.9,13.3-1.9,16.3-6.7"/>
	<path fill="none" stroke="#39146E" stroke-linecap="round" stroke-linejoin="round" stroke-miterlimit="10" d="M190.6,283.7
		c0,0.1-0.3,2.9,0.3,5.1"/>
	<path fill="#39146E" d="M191.9,232.9c1,0.1,70.1,17.9,70.1,17.9s-8.5,21.2-39.2,27.1C192.2,283.7,191.9,232.9,191.9,232.9z"/>
	<path fill="#44D970" stroke="#39146E" stroke-linecap="round" stroke-linejoin="round" stroke-miterlimit="10" d="M218,262.1
		c-7.1,0.3-12.5,4-16,6.8c4.6,6.3,10.9,10.3,20.9,8.4c2.2-0.4,4.4-1,6.4-1.5C229.8,266.9,227.7,261.6,218,262.1z"/>
	<path fill="#44D970" stroke="#39146E" stroke-linecap="round" stroke-linejoin="round" stroke-miterlimit="10" d="M277.2,114.3
		c39.8,4.9,72.5,27.9,89,58.5c-45.2,7.3-74-4.4-74-4.4l8.9,23.2c-4.1-0.1-8.3-0.4-12.5-0.9c-40.3-4.9-73.4-28.5-89.6-59.6
		C220.9,117.4,248.4,110.8,277.2,114.3z"/>
	<path fill="#FFFFFF" stroke="#39146E" stroke-linecap="round" stroke-linejoin="round" stroke-miterlimit="10" d="M83.8,262.3
		c0.9-6.3,4.4-26.3-18.9-34.1c0,0-9.1-15.2-22.5-10c-10.8,4.2-7.5,12.2-7.5,12.2s-15.9,6.5-7.7,21c0,0-6.3,10.6,3.4,21.5
		s19.6,18,34.1,11.4C79.2,277.7,83.1,266.7,83.8,262.3z"/>
	<path fill="#FFFFFF" stroke="#39146E" stroke-linecap="round" stroke-linejoin="round" stroke-miterlimit="10" d="M66,240.5
		c0,0,9.4,12-0.7,19.7c-10.1,7.8-16.8-9.3-13.8-20.6c3.5-13.1,13.4-11.5,13.4-11.5"/>
	<path fill="#FFFFFF" stroke="#39146E" stroke-linecap="round" stroke-linejoin="round" stroke-miterlimit="10" d="M68.9,268.3
		c0,0-5.5-3.7-2.1-9.3"/>
	<path fill="#FFFFFF" stroke="#39146E" stroke-linecap="round" stroke-linejoin="round" stroke-miterlimit="10" d="M27.2,251.4
		c0,0,3.3-5.1,14.3-3.4c11,1.7,19.3,10.2,15.2,18.6c-4.1,8.3-11,8.5-11,8.5"/>
	<path fill="#FFFFFF" stroke="#39146E" stroke-linecap="round" stroke-linejoin="round" stroke-miterlimit="10" d="M35,230.4
		c0,0,9.5-2.5,17.7,5.5"/>
	<path fill="#44D970" stroke="#39146E" stroke-linecap="round" stroke-linejoin="round" stroke-miterlimit="10" d="M38.7,264.4
		l-19.8,63.3c-0.7,2.2-1.2,5.1,0.1,7c1.3,1.9,3.6,2,5,2c2.2,0,4-1.6,4.7-3.7L49,269.8c0,0-1.2-2.5-4.3-4
		C41.6,264.3,38.7,264.4,38.7,264.4z"/>
	<path fill="#39146E" d="M139.5,267.4c0,0,2,16.6-9,22.3l24.9-2.6c0,0-7.8-11.7-7.9-12.3s-4.6-8.1-4.6-8.1L139.5,267.4z"/>
	<path fill="#FFFFFF" stroke="#39146E" stroke-linecap="round" stroke-linejoin="round" stroke-miterlimit="10" d="M318,328.8
		c0,0-14.9,0.1-24.2,17.4s-2.4,26.2,5.6,31.6c8,5.4,20.5,8.9,29.6,3.8c3.5-2,4.9-6.6,4.9-6.6s6.8,1,7-5.6c0,0,6.8,2.6,6.5-5.1
		c-0.3-7.7-4.9-12-10.5-13.5c0,0,4.3-9.2,3.1-12.8C338.8,334.3,318,328.8,318,328.8z"/>
	<path fill="#FFFFFF" stroke="#39146E" stroke-linecap="round" stroke-linejoin="round" stroke-miterlimit="10" d="M334,375
		c0-0.8-5.3-14.3-12.5-12.5"/>
	<path fill="#FFFFFF" stroke="#39146E" stroke-linecap="round" stroke-linejoin="round" stroke-miterlimit="10" d="M341,369.4
		c0,0-0.4-10.2-8.8-13"/>
	<path fill="#FFFFFF" stroke="#39146E" stroke-linecap="round" stroke-linejoin="round" stroke-miterlimit="10" d="M337,350.7
		c0,0-4.4,8.2-12,7.7"/>
	<path fill="#FFFFFF" stroke="#39146E" stroke-linecap="round" stroke-linejoin="round" stroke-miterlimit="10" d="M331.3,324.3
		c-1-0.3-5.2-6.2-11.7-2.6c-2.4,1.3-3.6,4.2-4,6.4c-0.7,4,0.3,7.4,3.3,11c4.8,5.9,15.6,7.2,20.2,5.1c5.9-2.7,4.7-9.8,4.7-9.8
		L331.3,324.3z"/>
	<path fill="#FFFFFF" stroke="#39146E" stroke-linecap="round" stroke-linejoin="round" stroke-miterlimit="10" d="M314.5,365.4
		c0,0,14.9,0.1,16-20.3"/>
	<path fill="#39146E" d="M316.6,287.7c0,0,9.1,19.1,11.6,34.7l5.5,2.1l14.3-5.7l-4.5-10.3L316.6,287.7z"/>
	<path fill="#FFFF51" stroke="#39146E" stroke-linecap="round" stroke-linejoin="round" stroke-miterlimit="10" d="M342.7,319.6
		l-26.4-31.2c0,0-4.8-8.5,6.7-10.5c0,0,5.2-2.2,10.7,2.4c3.8,3.3,42.8,34.5,41.3,39.7c-2.4,8.7-40.8,19-40.8,19s-9.9-2.2-7.5-11.9
		L342.7,319.6z"/>
	<path fill="#FFFF51" d="M314.8,290.9c0.3-0.8,25.7-12.9,24.8-13.2c-0.9-0.3-10.8-5.4-10.8-5.4l-17.2,5.7l-3.4,6L314.8,290.9z"/>
	
		<line fill="#FFFF51" stroke="#39146E" stroke-linecap="round" stroke-linejoin="round" stroke-miterlimit="10" x1="317.1" y1="289.1" x2="323.3" y2="296.5"/>
	
		<line fill="#FFFF51" stroke="#39146E" stroke-linecap="round" stroke-linejoin="round" stroke-miterlimit="10" x1="333.5" y1="280.1" x2="345" y2="289.7"/>
	<polygon fill="#39146E" points="220.9,344.3 227.5,367.7 242.9,342.5 227.4,339.7 	"/>
	<path fill="#44D970" stroke="#39146E" stroke-linecap="round" stroke-linejoin="round" stroke-miterlimit="10" d="M209.5,329.4
		c0,0,14.5-2.7,22.1,1.2s-0.9,23.5-9,21.5c-7.7-1.9-15.9-13.8-15.9-13.8L209.5,329.4z"/>
	<path fill="#44D970" stroke="#39146E" stroke-linecap="round" stroke-linejoin="round" stroke-miterlimit="10" d="M195.7,334
		c0,0-13.9,0.8-21.3-3.7c-7.3-4.5,2.7-22.4,10.4-19.1c8.9,3.8,14.3,14,14.3,14L195.7,334z"/>
	
		<ellipse transform="matrix(0.2769 -0.9609 0.9609 0.2769 -173.2486 434.8295)" fill="#44D970" stroke="#39146E" stroke-linecap="round" stroke-linejoin="round" stroke-miterlimit="10" cx="202.3" cy="332.5" rx="8.1" ry="8.7"/>
	<polygon fill="#FFFFFF" points="194.1,194.8 212.8,206.1 191.8,205.3 	"/>
	<polygon fill="#FFFFFF" points="251.9,216.2 270.5,227.5 249.6,226.7 	"/>
	<g>
		<g>
			<g>
				<path fill="#FFFFFF" d="M106.8,102.4c5.5-22.5,12.2-44.7,17.7-67.1c4-0.7,6-0.9,9.9-1.4c-3.6,17.8-8.5,35.5-12.8,53.2
					c5.1-1.3,7.6-1.8,12.6-2.7c-1.3,6.3-1.9,9.1-2.1,11.4C122.3,97.8,117.2,99.1,106.8,102.4z"/>
				<path fill="#FFFFFF" d="M137.7,94.7c2.7-20.9,9.2-41.1,12.4-61.9c8.7-0.3,13.1-0.1,21.6,0.4c0,1.9-0.4,4.4-1.4,10.2
					c-4.8-0.2-7.3-0.2-12.2-0.1c-0.8,4.1-1.3,6.5-2.3,11.5c2.8-0.1,4.1-0.2,6.8-0.3c-1.1,5.4-1.6,8.3-2.7,13.8
					c-2.8,0.1-4.2,0.2-7,0.5c-1.1,5.6-1.7,8.4-2.5,13c5.3-0.6,7.9-0.8,13.1-1.1c-1,6-1.3,8.5-1.2,10.8
					C152.8,92.3,147.9,92.9,137.7,94.7z"/>
				<path fill="#FFFFFF" d="M168.2,91.3c0.8-19.5,7.1-38.3,8.9-57.7c8.5,0.7,12.7,1.3,21.1,2.6c0.1,1.8-0.2,4-1.1,9.4
					c-4.7-0.6-7-0.9-11.7-1.3c-0.6,3.8-1,6.1-1.8,10.8c2.6,0.2,3.9,0.3,6.5,0.5c-0.9,5.1-1.3,7.8-2.2,13c-2.6-0.2-3.9-0.2-6.6-0.3
					c-0.9,5.3-1.3,7.9-1.9,12.3c4.9,0.1,7.4,0.2,12.2,0.5c-0.7,5.7-1,8.2-0.8,10.5C182,91,177.5,91,168.2,91.3z"/>
				<path fill="#FFFFFF" d="M234.1,43.4c-1.7,17.6-6.1,34.9-6.6,52.7c-3-0.6-4.6-0.8-7.6-1.3c0-12.2,2.6-24.5,4.4-36.5
					c-3,11.9-6.1,23.8-8.4,35.9c-2.9-0.4-4.4-0.6-7.4-1c-2.3-12.9-0.1-26.7,0.7-39.6c-2,12.9-4.9,26-5,39.1
					c-3.2-0.4-4.8-0.5-8.1-0.8c0.7-18.5,5.8-36.4,7.2-54.8c4.7,0.8,7.1,1.3,11.8,2.2c1.6,3.9,0.7,12.6,0,26.9
					c3.5-13.9,5.6-22.2,6.8-25.5C226.9,41.8,229.3,42.3,234.1,43.4z"/>
				<path fill="#FFFFFF" d="M257.8,74.4c-1,6.8-1.8,27.8-14,25.2c-13.2-2.9-9.6-20.5-8.2-29.9c1.1-7.6,3.1-25.5,14.9-22.5
					C262,50,259,66,257.8,74.4z M250.6,62.5c0.8-5.2,0.6-7.2-1.1-7.6c-1.7-0.4-2.5,1.4-3.3,6.6c-1.2,7.6-2,12.3-3.1,20.3
					c-0.7,5.5-0.4,7.8,1.3,8.1c1.7,0.3,2.4-1.8,3.2-7.2C248.6,74.8,249.4,70,250.6,62.5z"/>
				<path fill="#FFFFFF" d="M285.4,55.1c-3,17.1-6.3,34.3-7.2,51.6c-2.6-0.5-3.8-0.8-6.4-1.3c-2.1-6.2-2.2-13.1-2.5-25.3
					c-1.8,11.8-2.8,18.6-2.6,24.2c-2.8-0.6-4.3-0.9-7.1-1.6c0.7-17.4,4.4-34.5,6.9-51.7c2.8,0.6,4.2,1,6.9,1.6
					c1.5,3.6,1.5,9.2,1.7,20.2c1.7-10.6,2.7-16,3.2-19.2C281.2,54.3,282.6,54.6,285.4,55.1z"/>
				<path fill="#FFFFFF" d="M282.5,107.5c3.1-16.8,6.3-34.6,12.5-50.7c3.7,0.6,5.6,0.9,9.2,1.4c0.4,17.5-2.4,35.1-0.2,52.5
					c-3.2-0.3-4.8-0.5-8.1-1c-0.3-2-0.4-3.2-0.5-5.9c-2.1-0.3-3.1-0.4-5.2-0.7c-0.4,2.6-0.6,3.8-0.8,5.6
					C286.6,108.3,285.3,108,282.5,107.5z M292.1,93.1c1.4,0.2,2.1,0.3,3.4,0.5c0.3-8.6,0.7-13.7,1.2-21.7
					C294.8,79.6,293.7,84.7,292.1,93.1z"/>
				<path fill="#FFFFFF" d="M308.3,111.2c0.8-17.3,3.4-34.8,6.7-51.8c3.2,0.2,4.8,0.3,8,0.4c-3.3,17-5.7,34.5-6.3,51.9
					C313.3,111.6,311.7,111.5,308.3,111.2z"/>
				<path fill="#FFFFFF" d="M344,97.4c-0.3,5.9-0.4,8.7-0.2,12.9c-3.5,0.5-5.2,0.7-8.7,1c-0.1-5.1,0.1-8.8,0.7-16.3
					c0.3-3.5-0.5-5-2.4-4.8c-0.5,0-0.8,0.1-1.4,0.1c-1,9.7-1.4,15-1.3,21.3c-3.4,0.2-5.1,0.2-8.5,0.2c0.5-17.3,2.8-34.9,6-51.9
					c4.7,0,7-0.1,11.6-0.6c5.7-0.5,7.7,1.8,7,8.4c-0.8,7-3.9,13-8,14.8c0,0.3,0,0.4-0.1,0.7C342.4,83.9,344.5,87,344,97.4z
					 M338.5,72.3c0.4-3.1-0.4-4.1-2.2-4c-0.7,0-1,0.1-1.7,0.1c-0.5,3.3-0.7,5.2-1.2,9.2c0.8-0.1,1.2-0.1,2-0.1
					C337.3,77.3,338.2,75.2,338.5,72.3z"/>
				<path fill="#FFFFFF" d="M349.3,109.5c-0.1-17.4,1-34.8,3.1-52c6.7-1.4,10.1-2.4,16.6-5.1c0,2.3-0.1,4.2-0.2,8.8
					c-3.8,1.5-5.7,2.2-9.6,3.3c-0.2,3.1-0.3,5-0.5,8.7c2.2-0.6,3.3-1,5.4-1.7c-0.1,4.1-0.2,6.4-0.3,10.8c-2.3,0.8-3.4,1.1-5.6,1.8
					c-0.2,4.5-0.2,6.7-0.3,11c4.3-1.2,6.4-1.9,10.8-3.5c0.2,5.6,0.3,8.4,0.8,12.7C361.2,107,357.2,108,349.3,109.5z"/>
				<path fill="#FFFFFF" d="M384.6,98.5c-5,2.3-9.1,0.8-12.2-3.9c1.8-4.1,2.7-6.3,4.5-10.7c0.6,0.7,0.9,1,1.5,1.7
					c1.5,1.7,2.6,1.8,4.2,1c1.4-0.7,2.4-2.5,2.1-4.8c-0.2-2.2-0.8-3-2.6-4.3c-2-1.4-2.9-2.1-4.7-3.6c-3.1-2.5-5.4-6.7-5.4-12.6
					c0-8.2,3.8-12.3,8.2-14.8c3.7-2.1,6.1-2.1,8.4-0.4c0.3,0.3,0.5,0.4,0.9,0.7c-1.4,3.3-2.1,5.1-3.6,8.9c-0.9-0.8-1.4-1.2-2.3-1.9
					c-0.7-0.6-1.4-0.8-2.3-0.2c-1,0.6-1.7,2-1.6,3.5c0.1,1.9,0.7,2.5,2.2,3.5c1.6,1.1,2.5,1.6,4.2,2.7c3.6,2.2,6.7,5.5,7.8,13.3
					C395.6,87.8,391.4,95.4,384.6,98.5z"/>
			</g>
		</g>
	</g>
	<path fill="#FFFFFF" stroke="#39146E" stroke-linecap="round" stroke-linejoin="round" stroke-miterlimit="10" d="M352.5,210.9
		c2.7,5.4,7.1,14.9,6.9,24.3c-0.2,10.9-10.7,7.9-10.8-0.1c-0.1-8.8-2.7-17.8-4.5-22C341.8,207.9,349,203.9,352.5,210.9z"/>
	
		<ellipse transform="matrix(0.9341 -0.3571 0.3571 0.9341 -48.715 134.9833)" fill="#FFFFFF" stroke="#39146E" stroke-linecap="round" stroke-linejoin="round" stroke-miterlimit="10" cx="341.2" cy="199.4" rx="4.9" ry="6.3"/>
	
		<ellipse transform="matrix(0.7928 -0.6095 0.6095 0.7928 17.5027 75.0813)" fill="#FFFFFF" stroke="#39146E" stroke-linecap="round" stroke-linejoin="round" stroke-miterlimit="10" cx="119.2" cy="11.8" rx="4.4" ry="3"/>
	<path fill="#FFFFFF" stroke="#39146E" stroke-linecap="round" stroke-linejoin="round" stroke-miterlimit="10" d="M248.9,416.9
		c0.9-3,10.7-2.3,16.4-1.3c5.8,1,7.5,4.2,5.9,5.1c-2.8,1.7-3.9-0.9-9.7-1.9C255.8,417.9,248.4,418.7,248.9,416.9z"/>
	<path fill="#39146E" d="M206.1,173.6c0.4,1.5-4.4,2.2-10.7,3.8c-6.2,1.6-11.5,3.6-11.9,2.1s4.3-5.2,10.6-6.9
		C200.3,171,205.7,172,206.1,173.6z"/>
	<path fill="#39146E" d="M289.9,209c-0.9,1.3-4.5-2-9.8-5.8c-5.3-3.7-10.2-6.5-9.3-7.8c0.9-1.3,6.8,0,12.1,3.7
		C288.2,202.9,290.8,207.7,289.9,209z"/>
	<path fill="#FFFFFF" stroke="#39146E" stroke-linecap="round" stroke-linejoin="round" stroke-miterlimit="10" d="M141.5,386.2
		c-1.8-0.6-5.5-3.2-7.5-6.3c-3.7-5.6,12.5,1.2,11.9,5.7C145.7,386.6,144.1,387,141.5,386.2z"/>
</g>
</svg>
