<?xml version="1.0" encoding="utf-8"?>
<!-- Generator: Adobe Illustrator 25.4.8, SVG Export Plug-In . SVG Version: 6.00 Build 0)  -->
<svg version="1.1" id="Layer_1" xmlns="http://www.w3.org/2000/svg" xmlns:xlink="http://www.w3.org/1999/xlink" x="0px" y="0px"
	 viewBox="0 0 670.6 317" enable-background="new 0 0 670.6 317" xml:space="preserve">
<linearGradient id="SVGID_1_" gradientUnits="userSpaceOnUse" x1="500.7653" y1="16.6399" x2="1072.1252" y2="474.7601" gradientTransform="matrix(-1 0 0 1 1107.0524 0)">
	<stop  offset="0.153" style="stop-color:#FDE268"/>
	<stop  offset="0.1549" style="stop-color:#FCE169"/>
	<stop  offset="0.2182" style="stop-color:#D3B57C"/>
	<stop  offset="0.2835" style="stop-color:#B1908D"/>
	<stop  offset="0.3519" style="stop-color:#95719B"/>
	<stop  offset="0.4233" style="stop-color:#7F59A5"/>
	<stop  offset="0.4989" style="stop-color:#6F48AD"/>
	<stop  offset="0.5814" style="stop-color:#663EB2"/>
	<stop  offset="0.6843" style="stop-color:#633BB3"/>
</linearGradient>
<path fill="url(#SVGID_1_)" d="M666.4,312H6.9c-0.1-1.7-0.1-3.3-0.1-5c0-52.4,29.7-99,75.5-128.3c-6.4-11.6-9.9-24.6-9.9-38.3
	c0-50.3,48.1-91.1,107.3-91.1c14.6,0,28.6,2.5,41.3,7c32.6-31.2,80.2-50.9,133.3-50.9c98.3,0,178,67.6,178,151
	c0,14.4-2.4,28.4-6.9,41.6C594.9,209,650.2,254.1,666.4,312z"/>
</svg>
