<svg width="612" height="620" viewBox="0 0 612 620" fill="none" xmlns="http://www.w3.org/2000/svg">
<g clip-path="url(#clip0_302_2591)">
<path d="M352.89 569.8C372.04 576.038 392.06 579.194 412.2 579.15C503.02 579.15 576.65 516.67 576.65 439.6C576.615 419.301 571.5 399.335 561.77 381.52C592.77 354.85 611.94 318.21 611.94 277.78C611.94 229.48 584.63 186.6 542.39 159.65C548.369 148.855 551.517 136.721 551.54 124.38C551.54 78.05 507.28 40.49 452.68 40.49C439.741 40.4554 426.89 42.6265 414.68 46.91C384.68 18.14 340.78 0 291.93 0C201.39 0 128 62.28 128 139.11C127.998 152.152 130.13 165.106 134.31 177.46C57.88 189.46 0 246.33 0 314.67C0 366.18 32.89 411.17 81.83 435.35C74.478 450.909 70.6601 467.902 70.65 485.11C70.65 559.51 141.73 619.83 229.41 619.83C279.28 619.83 323.78 600.32 352.89 569.8Z" fill="url(#paint0_linear_302_2591)"/>
</g>
<defs>
<linearGradient id="paint0_linear_302_2591" x1="0" y1="309.92" x2="640.05" y2="309.92" gradientUnits="userSpaceOnUse">
<stop offset="0.03" stop-color="#8335FF"/>
<stop offset="0.65" stop-color="#401380"/>
</linearGradient>
<clipPath id="clip0_302_2591">
<rect width="611.93" height="619.83" fill="white"/>
</clipPath>
</defs>
</svg>
