<?xml version="1.0" encoding="utf-8"?>
<!-- Generator: Adobe Illustrator 25.4.8, SVG Export Plug-In . SVG Version: 6.00 Build 0)  -->
<svg version="1.1" id="Layer_1" xmlns="http://www.w3.org/2000/svg" xmlns:xlink="http://www.w3.org/1999/xlink" x="0px" y="0px"
	 viewBox="0 0 628.9 671.3" enable-background="new 0 0 628.9 671.3" xml:space="preserve">
<g>
	<g>
		<path fill="#FFFFFF" stroke="#39146E" stroke-linecap="round" stroke-linejoin="round" stroke-miterlimit="10" d="M176.9,175.2
			l13-3l-13.2-2c-0.4-0.5-0.8-0.9-1.3-1.2l-3-13l-2,13.2c-0.5,0.4-0.9,0.8-1.2,1.3l-13,3l13.2,2c0.4,0.5,0.8,0.9,1.3,1.2l3,13
			l2-13.2C176.2,176.1,176.6,175.7,176.9,175.2z"/>
		<path fill="#44D970" stroke="#39146E" stroke-linecap="round" stroke-linejoin="round" stroke-miterlimit="10" d="M406.4,79.4
			l8.7-2l-8.8-1.3c-0.2-0.3-0.5-0.6-0.9-0.8l-2-8.7l-1.3,8.8c-0.3,0.2-0.6,0.5-0.8,0.9l-8.7,2l8.8,1.3c0.2,0.3,0.5,0.6,0.9,0.8
			l2,8.7l1.3-8.8C405.9,80,406.1,79.7,406.4,79.4z"/>
		<path fill="#FFFF51" stroke="#39146E" stroke-linecap="round" stroke-linejoin="round" stroke-miterlimit="10" d="M385.7,53.9
			l14.2-3.3l-14.4-2.2c-0.4-0.5-0.9-1-1.5-1.4l-3.3-14.2l-2.2,14.4c-0.5,0.4-1,0.9-1.4,1.5L363,52l14.4,2.2c0.4,0.5,0.9,1,1.5,1.4
			l3.3,14.2l2.2-14.4C384.9,54.9,385.3,54.4,385.7,53.9z"/>
		<path fill="#FFFF51" stroke="#39146E" stroke-linecap="round" stroke-linejoin="round" stroke-miterlimit="10" d="M86.3,449l13-3
			l-13.2-2c-0.4-0.5-0.8-0.9-1.3-1.2l-3-13l-2,13.2c-0.5,0.4-0.9,0.8-1.2,1.3l-13,3l13.2,2c0.4,0.5,0.8,0.9,1.3,1.2l3,13l2-13.2
			C85.5,449.9,86,449.5,86.3,449z"/>
		<g>
			<path fill="#44D970" stroke="#39146E" stroke-linecap="round" stroke-linejoin="round" stroke-miterlimit="10" d="M549.9,359.3
				c0,0-1.6-10.9-1.6-11c0,0.2-1.6,11-1.6,11c-0.2,2-1.9,4-3.9,4.2l-7.4,1l7.4,1c2.1,0.2,4.1,1,4.3,3c0,0,1.2,10.5,1.2,10.7
				c0-0.2,1.2-10.7,1.2-10.7c0.2-2,2.2-2.9,4.3-3l7.5-1l-7.8-1.4C551.4,363,550.1,361.4,549.9,359.3z"/>
		</g>
	</g>
	<g>
		<path fill="#FFFF51" stroke="#39146E" stroke-linecap="round" stroke-linejoin="round" stroke-miterlimit="10" d="M341,419.6
			c0,0-25.4,43.7,3.6,109.3c0,0,10.7,8.7,20.1,0.8c0,0-25.2-66-2.8-105.3L341,419.6z"/>
		<path fill="#39146E" d="M330.7,461.6c0.9-0.6,6.5-11.8,23.7-12.4l4.9-20.1l-23.1,1.3l-2.8,9.5L330.7,461.6z"/>
		<path fill="#FFFF51" stroke="#39146E" stroke-linecap="round" stroke-linejoin="round" stroke-miterlimit="10" d="M277.1,427.1
			c0,0-18.1,41,0.3,99.8c0,0,9,8.2,17.6,0.9c0,0-16-60.9,5.9-97.5L277.1,427.1z"/>
		<path fill="#FFFFFF" stroke="#39146E" stroke-linecap="round" stroke-linejoin="round" stroke-miterlimit="10" d="M273.5,513.9
			c0,0,10.1,2.4,18.5-2.3c0,0,2.3,3.5,1.5,7.5c-1,5.3-19.1,3.3-19.1,2.9S272.3,517.7,273.5,513.9z"/>
		<path fill="#FFFFFF" stroke="#39146E" stroke-linecap="round" stroke-linejoin="round" stroke-miterlimit="10" d="M341.8,521.8
			c0,0,12.8,3.1,19.6-2.6c0,0,2.9,5.2,2.4,8.1c-0.8,5.4-19.5,2.7-19.5,2.2S342.3,526.5,341.8,521.8z"/>
		<path fill="#FFFF51" stroke="#39146E" stroke-linecap="round" stroke-linejoin="round" stroke-miterlimit="10" d="M224.9,389
			c0,0-0.5,0.4-1.3,1c-8.9,6.5-59.9,40.9-98.8-2.5l-22.6,11.9c0,0,26.9,46.7,90.7,39.2c58.3-6.8,66.4-46.4,66.4-46.4L224.9,389z"/>
		<path fill="#39146E" d="M203.6,395l6.7,2.6c0,0,17.5,23.2-1.5,37.7c0,0,19.4-2.6,31.6-16.9c14.6-17.2-5.4-27.2-6.2-27.4
			C233.5,390.8,203.6,395,203.6,395z"/>
		<path fill="#FFFFFF" stroke="#39146E" stroke-linecap="round" stroke-linejoin="round" stroke-miterlimit="10" d="M125.4,383.7
			c0,0,6.3,2.8,5.3,8.2c-1,5.9-12.1,22.6-21.9,21.4c-12.8-1.7-6.9-11.7-6.9-11.7L125.4,383.7z"/>
		<path fill="#FFFFFF" stroke="#39146E" stroke-linecap="round" stroke-linejoin="round" stroke-miterlimit="10" d="M119.1,394.4
			c2.3-2.1,18.3-20.3,8.3-39c-10-18.7-14.2-23.4-11.1-37c3.2-13.6-5.7-20.4-16-15c-10.3,5.4-13.5,17.7-11,31.4
			c0,0-13.3-7.5-25.5-1.4c-15.5,7.8-4.6,25.1-4.6,25.1s-11.8,10-4.1,23.8c0,0-8.5,10.4,4.3,18.6c11.3,7.3,26.9,3.2,26.9,3.2
			s11.4,6.5,18.6,2.1C111.7,402.1,118.8,394.6,119.1,394.4z"/>
		<path fill="#FFFFFF" stroke="#39146E" stroke-linecap="round" stroke-linejoin="round" stroke-miterlimit="10" d="M91.9,368.7
			c0,0,3.6,11.7-6.4,17.3c-11.4,6.4-27.7-0.6-30.3-3.6"/>
		<path fill="none" stroke="#39146E" stroke-linecap="round" stroke-linejoin="round" stroke-miterlimit="10" d="M86.4,385.7
			c0,0,7.3,3.9,6.6,10.5c-0.6,6.1-6.5,8.8-12.2,9"/>
		<path fill="#FFFFFF" stroke="#39146E" stroke-linecap="round" stroke-linejoin="round" stroke-miterlimit="10" d="M104.1,380
			c-3.5-1.4-8.1-5.7-7.1-13.6"/>
		<path fill="none" stroke="#39146E" stroke-linecap="round" stroke-linejoin="round" stroke-miterlimit="10" d="M59.3,358.7
			c0,0,14.3,16.1,32.6,10c14.1-4.7,11.6-17-1.6-20.4c-6.5-1.7-10.8-7-10.8-7"/>
		<path fill="#FFFFFF" d="M93.2,404.9c0,0,12.9,5.3,12.8,4.8c0-0.5,19.6-17.9,19.3-18.3c-0.2-0.4,2.3-12.6,2.3-12.6l-7.5-2.5
			l-7.3,6.1L93.2,404.9z"/>
		<path fill="none" stroke="#39146E" stroke-linecap="round" stroke-linejoin="round" stroke-miterlimit="10" d="M112.6,402.6
			c0,0-3.6,5.7-15.1,5.3"/>
		<path fill="none" stroke="#39146E" stroke-linecap="round" stroke-linejoin="round" stroke-miterlimit="10" d="M122.6,390.5
			c0,0,5.5-6.4,7.7-18.1"/>
		<ellipse fill="#39146E" cx="279.9" cy="585" rx="154.8" ry="21.4"/>
		<ellipse fill="#39146E" cx="437.7" cy="604" rx="106.9" ry="15.3"/>
		<path fill="#39146E" d="M491.9,229.8L491.9,229.8c-3.2-2.3-7.1-4.3-11.1-6c-3.7-1.6-7.7-3-11.7-4.1c-15-15.9-71.4-69-150-65.5
			c-92.4,4.1-151,112.1-151,112.1s-41.1,27.7-29.3,67.8c7.8,26.6,39.5,38.8,39.5,38.8s34.2,79.1,167.5,64.8
			c53.6-5.7,106.6-30.3,134.2-92.5c25.6-10.8,43.2-34,43.2-61C523.1,261.9,510.8,242,491.9,229.8z"/>
		<path fill="#39146E" d="M269.6,458.3c0.9-0.6,11.6-11.8,24.7-12.9l5.1-13.1l-24.1-3.2L269.6,458.3z"/>
		<path fill="#FFFF51" stroke="#39146E" stroke-linecap="round" stroke-linejoin="round" stroke-miterlimit="10" d="M520,277.3
			c0-30.6-22.8-56.4-54.1-64.6c-15-15.9-71.4-69-150-65.5c-92.4,4.1-151,112.1-151,112.1s-41.1,27.7-29.3,67.8
			c7.8,26.6,39.5,38.8,39.5,38.8s34.2,79.1,167.5,64.8c53.6-5.7,106.6-30.3,134.2-92.5C502.3,327.4,520,304.2,520,277.3z"/>
		<path fill="#44D970" d="M275.1,520.9c0,0-4.6-1.8-7.7,13.6c0,0-24.1,0.9-33.8-6.9c-11-8.9-30.6-15.8-50.5,6.8
			c-0.9,1.1-1.5,2-2.3,3.3c-19.1,35.7,4.2,29.7,4.2,29.7l123.3-0.7c0,0,5.1-40.4-14.1-48.1l-10,2.9L275.1,520.9z"/>
		<path fill="none" stroke="#39146E" stroke-linecap="round" stroke-linejoin="round" stroke-miterlimit="10" d="M173.4,557.7
			c7.2-41.2,43.8-43.4,56.4-32.6s37.2,9.6,37.2,9.6c1.1-11.7,7.2-14,7.2-14"/>
		<path fill="none" stroke="#39146E" stroke-linecap="round" stroke-linejoin="round" stroke-miterlimit="10" d="M308.5,560
			c0,0,4.3-31.8-14.3-41.8"/>
		<path fill="none" stroke="#39146E" stroke-linecap="round" stroke-linejoin="round" stroke-miterlimit="10" d="M278.5,542.6
			c0,0-9.2,0-17.1-0.3"/>
		<path fill="#FFFFFF" stroke="#39146E" stroke-linecap="round" stroke-linejoin="round" stroke-miterlimit="10" d="M303.5,574.5
			h-127c-4.7,0-8.5-3.8-8.5-8.5l0,0c0-4.7,3.8-8.5,8.5-8.5h127c4.7,0,8.5,3.8,8.5,8.5l0,0C312,570.7,308.2,574.5,303.5,574.5z"/>
		<path fill="#44D970" d="M347.1,529.2c0,0-7.2-2.9-13.7,16.1c0,0-24.7,1.6-36.5-6.9c-11.8-8.4-32.9-20.2-55.8,9.1
			c-22.9,29.3,2.7,33.5,2.7,33.5l134.9-2.4c0,0,6.3-39.5-12.3-49.9c-1.2-0.7-0.8-0.7-2.3-1.2l-10.8,2.7L347.1,529.2z"/>
		<path fill="none" stroke="#39146E" stroke-linecap="round" stroke-linejoin="round" stroke-miterlimit="10" d="M230.9,570.7
			c8.7-44.4,48-47.6,61.8-35.8c13.7,11.8,40.6,10.5,40.6,10.5c2.1-12.1,9.1-15.6,10.6-16.4"/>
		<path fill="none" stroke="#39146E" stroke-linecap="round" stroke-linejoin="round" stroke-miterlimit="10" d="M379.2,573.1
			c0,0,5.3-35.1-15-46"/>
		<path fill="none" stroke="#39146E" stroke-linecap="round" stroke-linejoin="round" stroke-miterlimit="10" d="M346.8,545.9
			c0,0-11.6-0.4-20.2-0.7"/>
		<path fill="#FFFFFF" stroke="#39146E" stroke-linecap="round" stroke-linejoin="round" stroke-miterlimit="10" d="M373.1,588.8
			H234.5c-5.1,0-9.3-4.2-9.3-9.3l0,0c0-5.1,4.2-9.3,9.3-9.3h138.6c5.1,0,9.3,4.2,9.3,9.3l0,0C382.4,584.6,378.2,588.8,373.1,588.8z"
			/>
		
			<line fill="#FFFFFF" stroke="#39146E" stroke-linecap="round" stroke-linejoin="round" stroke-miterlimit="10" x1="92.2" y1="344.1" x2="89" y2="333.7"/>
		<path fill="none" stroke="#39146E" stroke-linecap="round" stroke-linejoin="round" stroke-miterlimit="10" d="M263.1,355.9
			c0,0,24.2,14.7,44.4-5.7"/>
		<path fill="none" stroke="#39146E" stroke-linecap="round" stroke-linejoin="round" stroke-miterlimit="10" d="M300.2,346
			c0,0,8.7,2.2,11.1,9.4"/>
		<path fill="#39146E" d="M270.6,359.4c0,0,2.7,19.9,17.4,26.3c14.4,6.3,19.2-12.8,18.2-34.3C306.2,351.3,296,366,270.6,359.4z"/>
		<path fill="#44D970" stroke="#39146E" stroke-linecap="round" stroke-linejoin="round" stroke-miterlimit="10" d="M301.8,371.2
			c0,0-6.8-4.2-13.8,2.3c-7.6,7-3,8.6,0.8,10.5C293.2,386.1,300.7,385.4,301.8,371.2z"/>
		
			<ellipse fill="#FFFFFF" stroke="#39146E" stroke-linecap="round" stroke-linejoin="round" stroke-miterlimit="10" cx="242.7" cy="289.9" rx="32" ry="44.3"/>
		<path fill="#39146E" d="M237.8,287.4c7.2,4,18.4,11,16.6,11.3c-1.6,0.3-11.8,5.6-19.1,9.5c1.4,11,7.2,20.2,15,24.9
			c14.1-4.7,24.5-22.2,24.5-43.1c0-6.7-1.1-13.1-3-18.8c-3-1.4-6.3-2.2-9.7-2.2C251.5,268.9,242.3,276.4,237.8,287.4z"/>
		
			<ellipse fill="#FFFFFF" stroke="#39146E" stroke-linecap="round" stroke-linejoin="round" stroke-miterlimit="10" cx="322.6" cy="283" rx="32" ry="44.3"/>
		<path fill="#39146E" d="M317.7,280.5c7.2,4,18.4,11,16.6,11.3c-1.6,0.3-11.8,5.6-19.1,9.5c1.4,11,7.2,20.2,15,24.9
			c14.1-4.7,24.5-22.2,24.5-43.1c0-6.7-1.1-13.1-3-18.8c-3-1.4-6.3-2.2-9.7-2.2C331.3,262,322.2,269.5,317.7,280.5z"/>
		<path fill="none" stroke="#39146E" stroke-linecap="round" stroke-linejoin="round" stroke-miterlimit="10" d="M308.3,406.3
			c-3.8,4.3-10.9,6.7-18.6,5.6c-8.3-1.2-14.9-6.1-17-12"/>
		<path fill="#39146E" d="M423.1,364.6c0,0,15.8,12.1-2.8,41.5c0,0,15.2-10.3,15.6-11.1s13.9-14.7,13.9-14.7l-36-34.9L423.1,364.6z"
			/>
		<path fill="#FFFFFF" stroke="#39146E" stroke-linecap="round" stroke-linejoin="round" stroke-miterlimit="10" d="M401.7,406.3
			c0,0-20.1-9.3-40,12.6s-14.9,41.4-4.9,52.1c10,10.7,27.5,16.4,36.4,16.1c12.7-0.5,15.9-7.7,15.9-7.7s9.7,3.7,12.4-5.7
			c0,0,7.8,2.2,9.6-7.8c1.3-7.4-1.5-16.8-9.6-20c0,0,6.1-8.5,4.6-16.9C425,423.4,401.7,406.3,401.7,406.3z"/>
		<path fill="none" stroke="#39146E" stroke-linecap="round" stroke-linejoin="round" stroke-miterlimit="10" d="M409.1,479.4
			c0.3-1.1,1.4-19.7-13.2-23.1"/>
		<path fill="none" stroke="#39146E" stroke-linecap="round" stroke-linejoin="round" stroke-miterlimit="10" d="M421.5,473.8
			c0,0,1.7-17.1-9.6-21.3"/>
		<path fill="none" stroke="#39146E" stroke-linecap="round" stroke-linejoin="round" stroke-miterlimit="10" d="M422,445.3
			c0,0-6.7,9.9-18.1,7.3"/>
		<path fill="#FFFFFF" stroke="#39146E" stroke-linecap="round" stroke-linejoin="round" stroke-miterlimit="10" d="M424.2,408.7
			c-1.3-0.7-3.7-10.1-13.6-7.7c-3.7,0.9-6.7,3-8.8,5.9c-3.5,4.7-3.5,10.9-1.4,16.9c4.2,11.8,20,14.1,26.1,11.1
			c6.1-2.9,8.4-10.9,8.4-10.9L424.2,408.7z"/>
		<path fill="#FFFF51" stroke="#39146E" stroke-linecap="round" stroke-linejoin="round" stroke-miterlimit="10" d="M453.2,394.3
			c2-0.7,2.4-3.3,0.8-4.6c-10.2-8.4-38.8-31.9-48.3-42.2c-3.7-3.9-10.7-16.2,0-23.6c0,0,11.5-12.7,34.5,10.9
			c26.7,27.4,47.3,41.8,56.8,60.3c7.8,15.3-57.5,29.8-71.9,32.7c-2.2,0.4-5.7-0.4-7.1-1.4c-2.8-2-5.2-6.5-5.8-13.2
			c-0.2-2.8,1.5-5.3,4.1-6.2L453.2,394.3z"/>
		<path fill="none" stroke="#39146E" stroke-linecap="round" stroke-linejoin="round" stroke-miterlimit="10" d="M383.1,457
			c0,0,21.4,5.9,33-21.1"/>
		<path fill="#FFFF51" d="M391.2,336.3c0.5,1.4,16.6,35.6,16.6,35.6l53.1-24.3L415.3,308L391.2,336.3z"/>
		<path fill="none" stroke="#39146E" stroke-linecap="round" stroke-linejoin="round" stroke-miterlimit="10" d="M414.2,360.7
			c0,0,2.5-1.4,6.6,1.2c2.2,1.4,9.8,8.7,9.8,8.7"/>
		<path fill="none" stroke="#39146E" stroke-linecap="round" stroke-linejoin="round" stroke-miterlimit="10" d="M451.3,341.9
			c0,0-0.9,2.7,2.4,6.2c1.8,1.9,15.4,14.7,15.4,14.7"/>
		
			<ellipse transform="matrix(0.9796 -0.201 0.201 0.9796 -41.7903 53.4535)" fill="#39146E" cx="242.4" cy="232.5" rx="18.2" ry="3.8"/>
		
			<ellipse transform="matrix(0.226 -0.9741 0.9741 0.226 39.2945 504.4639)" fill="#39146E" cx="337.1" cy="227.5" rx="3.8" ry="18.2"/>
		<path fill="#FFFF51" stroke="#39146E" stroke-linecap="round" stroke-linejoin="round" stroke-miterlimit="10" d="M158.2,274.7
			c0,0,8.7-22.9,25.2-43.6"/>
		<path fill="none" stroke="#39146E" stroke-linecap="round" stroke-linejoin="round" stroke-miterlimit="10" d="M168.7,351.8
			c0,0,7.8,20.4,21.4,35.6"/>
		<path fill="none" stroke="#39146E" stroke-linecap="round" stroke-linejoin="round" stroke-miterlimit="10" d="M454.1,209.8
			c0,0,22.1,3.9,34.6,12.8"/>
		<path fill="none" stroke="#39146E" stroke-linecap="round" stroke-linejoin="round" stroke-miterlimit="10" d="M467.2,341.2
			c0,0,14-3.5,24.5-11.4"/>
		<path fill="none" stroke="#39146E" stroke-linecap="round" stroke-linejoin="round" stroke-miterlimit="10" d="M274.4,520.7
			c0,0,8.3,2.8,19.7-2.4"/>
		<path fill="none" stroke="#39146E" stroke-linecap="round" stroke-linejoin="round" stroke-miterlimit="10" d="M344,528.9
			c0,0,11.1,3.2,20-1.8"/>
		<path fill="#39146E" d="M215.2,193c1.1,0.4,34.9,8.8,78.1,1.3l-3.5-22.3L215.2,193z"/>
		<path fill="#44D970" stroke="#39146E" stroke-linecap="round" stroke-linejoin="round" stroke-miterlimit="10" d="M372.3,151.5
			c0,0-20.6,39.8-103,52.3l7.1-19.9c0,0-37.8,13.7-74.9,2.8C201.5,186.7,290.8,89.2,372.3,151.5z"/>
		<path fill="none" stroke="#39146E" stroke-linecap="round" stroke-linejoin="round" stroke-miterlimit="10" d="M298.6,173.7
			c0,0-18.5,12-46.1,15.9"/>
		<path fill="#44D970" stroke="#39146E" stroke-linecap="round" stroke-linejoin="round" stroke-miterlimit="10" d="M284.1,429.8
			c0,0-13-10.5-22.8-10.5c-9.8-0.1-11.8,24.6-2.6,26.8c8.8,2.2,23.4-5.7,23.4-5.7L284.1,429.8z"/>
		<path fill="#44D970" stroke="#39146E" stroke-linecap="round" stroke-linejoin="round" stroke-miterlimit="10" d="M295.4,442
			c0,0,13.5,8.2,23.3,7.6c9.8-0.7,9.4-24.3-0.1-25.1c-10.9-0.9-21.9,6.8-21.9,6.8L295.4,442z"/>
		
			<ellipse transform="matrix(0.1332 -0.9911 0.9911 0.1332 -180.3867 663.5104)" fill="#44D970" stroke="#39146E" stroke-linecap="round" stroke-linejoin="round" stroke-miterlimit="10" cx="289.1" cy="434.9" rx="8.5" ry="8.7"/>
		<path fill="#FFFF51" stroke="#39146E" stroke-linecap="round" stroke-linejoin="round" stroke-miterlimit="10" d="M532.7,462.9
			c27.8,33.1,33.8,77,11.8,108.2c-2.3,3.3-4.9,6.3-7.6,9.1c-3.2,13.3-14.9,23.4-29.3,23.8c-4.4,0.1-8.6-0.7-12.5-2.2
			c-26.9,5.1-58-1.5-84.8-20.4c-4.5-3.2-8.7-6.6-12.6-10.2L532.7,462.9z"/>
		
			<ellipse transform="matrix(0.7891 -0.6143 0.6143 0.7891 -219.5026 394.8638)" fill="#FFFFFF" stroke="#39146E" stroke-linecap="round" stroke-linejoin="round" stroke-miterlimit="10" cx="465.3" cy="517.1" rx="86.5" ry="31.8"/>
		<g>
			<path fill="#44D970" stroke="#39146E" stroke-linecap="round" stroke-linejoin="round" stroke-miterlimit="10" d="M485.1,475.5
				l-12.4,31.4c-0.5,1.3,1.1,2.4,2.1,1.4l40-38.7c0.8-0.8,0.3-2.2-0.8-2.2c-7.1-0.3-16.8,2.2-28.2,7.4
				C485.5,475,485.3,475.2,485.1,475.5z"/>
			<path fill="#44D970" stroke="#39146E" stroke-linecap="round" stroke-linejoin="round" stroke-miterlimit="10" d="M471.8,544.3
				c13.4-9.4,25.5-20.1,34.8-30.6c0.6-0.7,0-1.8-0.9-1.7l-32.1,5.3c-1.6,0.3-2.8,1.6-2.9,3.3l-0.5,22.9
				C470.3,544.3,471.2,544.7,471.8,544.3z"/>
			<path fill="#44D970" stroke="#39146E" stroke-linecap="round" stroke-linejoin="round" stroke-miterlimit="10" d="M477.4,513.7
				l36.8-9.7c0.4-0.1,0.7-0.3,0.9-0.6c6.6-9.1,10.7-17.5,11.1-24.1c0.2-3.7-0.8-6.6-2.8-8.6c-0.6-0.6-1.6-0.6-2.2,0l-45.3,40.1
				C474.6,512,475.7,514.1,477.4,513.7z"/>
			<path fill="#44D970" stroke="#39146E" stroke-linecap="round" stroke-linejoin="round" stroke-miterlimit="10" d="M468.9,510.5
				l9.5-26.9c0.8-2.3-1.6-4.3-3.7-3.1c-2.6,1.5-5.3,3.1-8,4.8c-8.1,5.1-15.9,10.7-23,16.7c-1.6,1.3-1.1,4,1,4.5l21.2,5.7
				C467.1,512.5,468.5,511.8,468.9,510.5z"/>
			<path fill="#44D970" stroke="#39146E" stroke-linecap="round" stroke-linejoin="round" stroke-miterlimit="10" d="M464.8,520.8
				l-41.9,44.3c-0.9,0.9-0.1,2.5,1.2,2.2c10.4-2,24-7.8,39-17.2c0.2-0.3,0.4-0.6,0.6-1l3.4-27.3
				C467.3,520.6,465.7,519.8,464.8,520.8z"/>
			<path fill="#44D970" stroke="#39146E" stroke-linecap="round" stroke-linejoin="round" stroke-miterlimit="10" d="M458.1,520.8
				l-49.6,21.1c-0.3,0.1-0.5,0.4-0.7,0.6c-2.7,5-4.2,9.7-4.4,13.6c-0.4,6.9,3.3,10.8,10,11.7c0.4,0.1,0.9-0.1,1.2-0.4l45.1-44.4
				C460.8,522,459.5,520.2,458.1,520.8z"/>
			<path fill="#44D970" stroke="#39146E" stroke-linecap="round" stroke-linejoin="round" stroke-miterlimit="10" d="M435.3,508.8
				c-9.3,8.9-16.6,17.1-22,24.7c-0.8,1.1,0.4,2.5,1.6,2l46.6-19c1.2-0.5,1.1-2.2-0.2-2.5l-24.9-5.5
				C436.1,508.4,435.7,508.5,435.3,508.8z"/>
		</g>
		<path fill="#FFFFFF" stroke="#39146E" stroke-linecap="round" stroke-linejoin="round" stroke-miterlimit="10" d="M542.4,504.3
			L542.4,504.3c-1.7,1.3-4.1,1-5.4-0.7l0,0c-1.3-1.7-1-4.1,0.7-5.4l0,0c1.7-1.3,4.1-1,5.4,0.7l0,0
			C544.4,500.5,544.1,503,542.4,504.3z"/>
		<path fill="#FFFFFF" stroke="#39146E" stroke-linecap="round" stroke-linejoin="round" stroke-miterlimit="10" d="M411.9,197.1
			c5.8,3.5,16.9,9.8,25.3,23.1c8.5,13.4-5,18.8-12.9,7c-7.1-10.6-18.2-18.1-22.2-23.2C398.7,199.9,402.2,191.4,411.9,197.1z"/>
		
			<ellipse transform="matrix(0.3664 -0.9305 0.9305 0.3664 70.407 483.692)" fill="#FFFFFF" stroke="#39146E" stroke-linecap="round" stroke-linejoin="round" stroke-miterlimit="10" cx="390.3" cy="190.2" rx="6.7" ry="8.3"/>
		<path fill="#FFFFFF" stroke="#39146E" stroke-linecap="round" stroke-linejoin="round" stroke-miterlimit="10" d="M549,530.5
			c-0.3,11.6-4.1,21-7.2,20.7c-4.6-0.5-0.9-9.4-0.6-21c0.3-11.6-2.4-20.6,1.6-20.9C545.9,509,549.3,518.9,549,530.5z"/>
		
			<ellipse transform="matrix(0.9188 -0.3948 0.3948 0.9188 -193.2137 121.3248)" fill="#FFFFFF" stroke="#39146E" stroke-linecap="round" stroke-linejoin="round" stroke-miterlimit="10" cx="198.2" cy="530.2" rx="10.6" ry="3.5"/>
		
			<ellipse transform="matrix(0.834 -0.5517 0.5517 0.834 -259.4117 229.9065)" fill="#FFFFFF" stroke="#39146E" stroke-linecap="round" stroke-linejoin="round" stroke-miterlimit="10" cx="252.4" cy="546.1" rx="7.8" ry="3.9"/>
		
			<ellipse transform="matrix(0.834 -0.5517 0.5517 0.834 -252.7469 235.1739)" fill="#FFFFFF" stroke="#39146E" stroke-linecap="round" stroke-linejoin="round" stroke-miterlimit="10" cx="264.5" cy="537.7" rx="3.6" ry="2.5"/>
	</g>
</g>
</svg>
