<?xml version="1.0" encoding="utf-8"?>
<!-- Generator: Adobe Illustrator 25.4.8, SVG Export Plug-In . SVG Version: 6.00 Build 0)  -->
<svg version="1.1" id="Layer_1" xmlns="http://www.w3.org/2000/svg" xmlns:xlink="http://www.w3.org/1999/xlink" x="0px" y="0px"
	 viewBox="0 0 628.5 629.1" enable-background="new 0 0 628.5 629.1" xml:space="preserve">
<linearGradient id="SVGID_1_" gradientUnits="userSpaceOnUse" x1="-304.7547" y1="-8648.0234" x2="379.2435" y2="-8686.5889" gradientTransform="matrix(0 1 -1 0 -8348.6455 325.381)">
	<stop  offset="0.153" style="stop-color:#FDE268"/>
	<stop  offset="0.193" style="stop-color:#DADC73"/>
	<stop  offset="0.2516" style="stop-color:#AFD480"/>
	<stop  offset="0.313" style="stop-color:#89CD8C"/>
	<stop  offset="0.3764" style="stop-color:#6AC895"/>
	<stop  offset="0.4426" style="stop-color:#52C39D"/>
	<stop  offset="0.5126" style="stop-color:#41C0A2"/>
	<stop  offset="0.589" style="stop-color:#37BFA5"/>
	<stop  offset="0.6843" style="stop-color:#34BEA6"/>
</linearGradient>
<path fill="url(#SVGID_1_)" d="M362.1,573.9c18.4,6,38.4,9.4,59.4,9.4c90.9,0,164.6-62.5,164.6-139.7c0-20.7-5.3-40.4-14.9-58.1
	c31.1-26.7,50.2-63.4,50.2-103.8c0-48.3-27.3-91.3-69.6-118.2c5.9-10.7,9.2-22.7,9.2-35.3c0-46.4-44.3-84-99-84
	c-13.5,0-26.3,2.3-38,6.4c-30.1-28.8-74-47-122.9-47C210.5,3.6,137,65.9,137,142.8c0,13.3,2.2,26.2,6.3,38.4
	C66.8,193.2,8.9,250.1,8.9,318.5c0,51.6,32.9,96.6,81.9,120.8c-7.2,15.4-11.2,32.2-11.2,49.8c0,74.5,71.2,134.9,158.9,134.9
	C288.4,624,333,604.5,362.1,573.9z"/>
</svg>
