<?xml version="1.0" encoding="utf-8"?>
<!-- Generator: Adobe Illustrator 25.4.8, SVG Export Plug-In . SVG Version: 6.00 Build 0)  -->
<svg version="1.1" id="Layer_1" xmlns="http://www.w3.org/2000/svg" xmlns:xlink="http://www.w3.org/1999/xlink" x="0px" y="0px"
	 viewBox="0 0 647.8 636.4" enable-background="new 0 0 647.8 636.4" xml:space="preserve">
<g>
	<ellipse fill="#39146E" cx="279.1" cy="584.8" rx="187.4" ry="38.6"/>
	
		<ellipse transform="matrix(5.451260e-03 -1 1 5.451260e-03 -232.341 925.0756)" fill="#91D4F6" stroke="#39146E" stroke-miterlimit="10" cx="348.9" cy="579.3" rx="27.6" ry="109.6"/>
	<path fill="#91D4F6" stroke="#39146E" stroke-miterlimit="10" d="M362.8,563.8l0.2-33.2c9.6-4.9,16.1-14.9,16.2-26.4
		c0.1-11.5-6.4-21.5-15.9-26.5l0.2-30.1l-27.6-0.2l-0.2,30.1c-9.6,4.9-16.1,14.9-16.2,26.4c-0.1,11.5,6.4,21.5,15.9,26.5l-0.2,33.2"
		/>
	
		<ellipse transform="matrix(0.8633 -0.5047 0.5047 0.8633 -199.6915 252.243)" fill="#FFFFFF" stroke="#39146E" stroke-linecap="round" stroke-linejoin="round" stroke-miterlimit="10" cx="365.8" cy="494.7" rx="4.6" ry="9.3"/>
	<path fill="none" stroke="#39146E" stroke-miterlimit="10" d="M332.9,566.4c0,0,2.6-0.4,2.2-5.1"/>
	<path fill="none" stroke="#39146E" stroke-miterlimit="10" d="M364.9,566.6c0,0-2.6-0.4-2.2-5.1"/>
	<path fill="#39146E" d="M336.1,454.2c0,0,20.8-2.2,27.3,21.2l0.7-28.9l-28.4-0.5L336.1,454.2z"/>
	<path fill="#91D4F6" stroke="#39146E" stroke-miterlimit="10" d="M273.4,300.9c0,0-66.9,33.3-104.1-46.2l-17.9,23.5
		c0,0,30.9,73.6,115.2,62.3c0,0,15.2-3.3,17.7-15.5C286.9,313,283.6,304.6,273.4,300.9z"/>
	<path fill="#39146E" d="M243,308.1c0,0,7.6,27.1-22.9,29.9c0,0,36.5,8.2,52.7,2.3l3.1-39.9l-16.3,5.3L243,308.1z"/>
	<path fill="#FFFFFF" stroke="#39146E" stroke-linecap="round" stroke-linejoin="round" stroke-miterlimit="10" d="M170.2,253.1
		c0,0,9.3,6.8,2.7,21.8c-6.6,15-20.5,17-26.1,8.2S170.2,253.1,170.2,253.1z"/>
	<path fill="#FFFFFF" stroke="#39146E" stroke-linecap="round" stroke-linejoin="round" stroke-miterlimit="10" d="M166.6,261.3
		c0,0-8.4,27.5-23.4,20.9c-15-6.6-28.8-8.9-37.7-7.3c-8.8,1.7-15.4,6.1-21.2,3.6c-5.8-2.4-7.2-6.7-4-11.7c0,0-7-3.6-3.9-11.8
		c3-7.8,11.5-11.3,11.5-11.3s-0.4-18.9,26.6-18.3c17.2,0.4,27.9,5.8,29.8-1.4s13.9-29.2,29.3-24.5c14,4.3,10,16.6,1.9,19.4
		c-12,4.2-10.4,11-10.4,11s13.8,16.5,2,27.7L166.6,261.3z"/>
	<path fill="#FFFFFF" stroke="#39146E" stroke-linecap="round" stroke-linejoin="round" stroke-miterlimit="10" d="M119.1,236.1
		c0,0-12.8,6-8,22.4"/>
	<path fill="#FFFFFF" stroke="#39146E" stroke-linecap="round" stroke-linejoin="round" stroke-miterlimit="10" d="M110.1,254.4
		c0,0-18.2-2.7-29.7,12.5"/>
	<path fill="#FFFFFF" stroke="#39146E" stroke-linecap="round" stroke-linejoin="round" stroke-miterlimit="10" d="M113.7,239.9
		c0,0-11.2-3.3-25.7,3.8"/>
	<path fill="#91D4F6" stroke="#39146E" stroke-miterlimit="10" d="M455.4,168.8l14.3-34.2L358.5,134l-14.4-0.1L233,133.3l13.9,34.3
		c13.3,32.9,16.5,69,9.2,103.7c0,0-10.2,49.3-10.7,84.3c-0.6,50.4,40.4,91.5,90.7,91.7l6.3,0l14.4,0.1l6.3,0
		c50.4,0.3,92.8-32.8,91.7-90.7c-0.6-34.9-8.4-85.9-8.4-85.9C439.5,236.1,441.8,201.6,455.4,168.8z"/>
	
		<ellipse transform="matrix(5.451260e-03 -1 1 5.451260e-03 215.5884 484.3462)" fill="#91D4F6" stroke="#39146E" stroke-miterlimit="10" cx="351.3" cy="133.8" rx="15.3" ry="118.5"/>
	<g>
		<defs>
			<path id="SVGID_1_" d="M350.9,148.7c-56.4-0.3-103.6-5.7-115.5-12.5c-0.6-0.4-1.3,0.2-1.1,0.9l12.2,30.2
				c8.8,21.8,13.2,44.9,13,68.2c0,0-48.9,7.9-83.5-18.7s-60.2-77-46.4-111.5c13.8-34.5,33.5-94.7,82.9-91.8S324.1,46,331,53.9
				C337.9,61.8,350.9,148.7,350.9,148.7z"/>
		</defs>
		<clipPath id="SVGID_00000024699778033358635140000009658201290014096544_">
			<use xlink:href="#SVGID_1_"  overflow="visible"/>
		</clipPath>
		<g clip-path="url(#SVGID_00000024699778033358635140000009658201290014096544_)">
			
				<circle fill="#44D970" stroke="#39146E" stroke-linecap="round" stroke-linejoin="round" stroke-miterlimit="10" cx="235.3" cy="127" r="89.4"/>
			<g>
				<path fill="#FFFF51" stroke="#39146E" stroke-linecap="round" stroke-linejoin="round" stroke-miterlimit="10" d="M234.9,118.6"
					/>
				<path fill="#FFFF51" stroke="#39146E" stroke-linecap="round" stroke-linejoin="round" stroke-miterlimit="10" d="M223.2,111.1
					L195.4,71c-3.6-5.2-10.9-5.8-15.4-1.4c-7.9,7.7-14.2,16.9-18.4,27.1c-2.5,5.9,1.1,12.7,7.4,13.9l48.5,9.3
					C222.5,120.8,226.1,115.2,223.2,111.1z"/>
				<path fill="#FFFF51" stroke="#39146E" stroke-linecap="round" stroke-linejoin="round" stroke-miterlimit="10" d="M303.1,136.2
					c6.3,1.2,12.1-3.7,12-10.1c-0.1-5.1-0.6-10.3-1.7-15.5c-1.3-6.1-3.2-11.9-5.7-17.3c-2.6-5.6-9.7-7.4-14.8-3.9l-37.8,26
					c-4.9,3.3-3.3,10.9,2.5,12L303.1,136.2z"/>
				<path fill="#FFFF51" stroke="#39146E" stroke-linecap="round" stroke-linejoin="round" stroke-miterlimit="10" d="M251.3,112.6
					l38.8-26.6c5.3-3.6,5.9-11.1,1.3-15.6c-7.5-7.4-16.4-13.3-26.2-17.3c-5.9-2.4-12.5,1.1-13.8,7.4l-9.2,46.2
					C241.3,111.7,247,115.5,251.3,112.6z"/>
				<path fill="#FFFF51" stroke="#39146E" stroke-linecap="round" stroke-linejoin="round" stroke-miterlimit="10" d="M237.6,106.9
					l9.4-47.5c1.2-6.1-3.3-11.9-9.5-12.1c-6.1-0.2-12.3,0.4-18.5,1.7c-5.3,1.1-10.4,2.7-15.3,4.8c-5.9,2.5-8,9.8-4.3,15.1l27.9,40.2
					C230.2,113.1,236.6,111.8,237.6,106.9z"/>
				<path fill="#FFFF51" stroke="#39146E" stroke-linecap="round" stroke-linejoin="round" stroke-miterlimit="10" d="M167.6,114.9
					c-6.1-1.2-11.8,3.4-12,9.6c-0.2,6.2,0.3,12.5,1.6,18.8c1.2,5.5,2.9,10.8,5,15.8c2.6,5.8,9.8,7.9,15,4.3l41.5-28.5
					c4.3-2.9,2.9-9.6-2.2-10.6L167.6,114.9z"/>
				<path fill="#FFFF51" stroke="#39146E" stroke-linecap="round" stroke-linejoin="round" stroke-miterlimit="10" d="M234.6,145.1
					l-9.8,49.5c-1.2,6.3,3.6,12,9.9,12.1c5.6,0,11.2-0.5,16.9-1.7c6.5-1.4,12.6-3.5,18.4-6.2c5.6-2.7,7.4-9.8,3.9-14.9l-28.5-41.1
					C242.4,138.6,235.7,140,234.6,145.1z"/>
				<path fill="#FFFF51" stroke="#39146E" stroke-linecap="round" stroke-linejoin="round" stroke-miterlimit="10" d="M249.9,141.5
					l27.4,39.5c3.7,5.3,11.2,5.8,15.7,1.2c7.6-8,13.5-17.4,17.3-27.8c2.2-5.9-1.4-12.3-7.6-13.5l-46.6-8.9
					C250.7,130.8,246.7,136.9,249.9,141.5z"/>
				<path fill="#FFFF51" stroke="#39146E" stroke-linecap="round" stroke-linejoin="round" stroke-miterlimit="10" d="M221.8,138.4
					l-42.1,28.9c-5.1,3.5-6,10.8-1.7,15.3c8.1,8.4,18,14.9,28.9,19c5.8,2.2,12.2-1.5,13.4-7.5l9.9-50.1
					C231.2,139.1,225.9,135.6,221.8,138.4z"/>
			</g>
		</g>
	</g>
	<path fill="#FFFF51" stroke="#39146E" stroke-linecap="round" stroke-linejoin="round" stroke-miterlimit="10" d="M430.1,227.9
		c0-3.3-77.8-0.2-77.8-0.2l-1.3,0c0,0-79.2-3.8-79.3-0.5c-0.9,35.4-11.9,88.9-12.3,124c-0.4,40,25.9,82.3,83,83.7l4,0v0l2.9,0l0,0
		l0.5,0v0l0.6,0l0.6,0v0l0.5,0l0,0l2.9,0v0l4,0c57.1-0.8,83.9-42.8,83.9-82.8C442.5,317.1,430.5,263.3,430.1,227.9z"/>
	
		<ellipse transform="matrix(5.451260e-03 -1 1 5.451260e-03 121.5571 577.3141)" fill="#FFFF51" stroke="#39146E" stroke-linecap="round" stroke-linejoin="round" stroke-miterlimit="10" cx="351" cy="227.5" rx="9.4" ry="79.1"/>
	
		<ellipse transform="matrix(0.561 -0.8278 0.8278 0.561 -153.3859 503.4561)" fill="#FFFFFF" stroke="#39146E" stroke-linecap="round" stroke-linejoin="round" stroke-miterlimit="10" cx="398" cy="396.4" rx="29.5" ry="13"/>
	
		<ellipse transform="matrix(0.2448 -0.9696 0.9696 0.2448 -24.5549 674.713)" fill="#FFFFFF" stroke="#39146E" stroke-linecap="round" stroke-linejoin="round" stroke-miterlimit="10" cx="420.8" cy="353.1" rx="12.5" ry="7"/>
	<polygon fill="#44D970" stroke="#39146E" stroke-linecap="round" stroke-linejoin="round" stroke-miterlimit="10" points="
		450.8,13.5 528.7,55.4 519.2,75 439.5,30.8 	"/>
	
		<ellipse transform="matrix(0.1188 -0.9929 0.9929 0.1188 396.9337 577.9636)" fill="#39146E" stroke="#39146E" stroke-linecap="round" stroke-linejoin="round" stroke-miterlimit="10" cx="524.1" cy="65.4" rx="10.9" ry="10.9"/>
	<polygon fill="#44D970" stroke="#39146E" stroke-linecap="round" stroke-linejoin="round" stroke-miterlimit="10" points="
		369,205.9 392.9,59.7 413,65.6 392.6,209.9 	"/>
	<path fill="#44D970" stroke="#39146E" stroke-linecap="round" stroke-linejoin="round" stroke-miterlimit="10" d="M392.3,44.5
		c-0.4,0.8-3.7,7.9-2.7,14c0.9,5.5,21.4,11.9,26.3,6.7c3.3-3.5,2.7-13,2.7-13s-18-7.3-23-8.1C390.5,43.3,392.3,44.5,392.3,44.5z"/>
	<path fill="#44D970" stroke="#39146E" stroke-linecap="round" stroke-linejoin="round" stroke-miterlimit="10" d="M395.3,32.8
		c0,0-3.5,5.3-4,11.1c-0.7,8.7,23.1,13.4,27.4,10c1.9-1.5,2.3-11.3,1.5-12.2S401.2,25.1,395.3,32.8z"/>
	<path fill="#44D970" stroke="#39146E" stroke-linecap="round" stroke-linejoin="round" stroke-miterlimit="10" d="M414.8,16.4
		c0,0-6.1-2.7-13.2,4.4c-3.8,3.7-5.3,9.5-5.2,11c0.6,8.2,21,12.8,24.2,12c3.2-0.8,8.1-4.4,6.7-7.4S414.8,16.4,414.8,16.4z"/>
	<path fill="#44D970" stroke="#39146E" stroke-linecap="round" stroke-linejoin="round" stroke-miterlimit="10" d="M423.7,7.8
		c0,0-9.6,2.4-12.2,7.7c-2.9,6.1,4.9,20.4,14.2,22.5c6,1.3,9-7.1,9-10S438.4,3.3,423.7,7.8z"/>
	<path fill="#44D970" stroke="#39146E" stroke-linecap="round" stroke-linejoin="round" stroke-miterlimit="10" d="M444.1,34.4
		l4.4-19.2c0,0,0.7-4.3,5.2-3.5c6.4,1.1,9.1,4.4,9.4,8c0.4,5-6.9,14.8-10.1,19.2c-1,1.3-2.6,2-4.2,1.8
		C446.3,40.3,443.3,38.9,444.1,34.4z"/>
	<g>
		
			<ellipse transform="matrix(0.9996 -2.831704e-02 2.831704e-02 0.9996 -5.9724 9.1656)" fill="#FFFFFF" stroke="#39146E" stroke-linecap="round" stroke-linejoin="round" stroke-miterlimit="10" cx="320.6" cy="215.5" rx="29.8" ry="46.2"/>
		<g>
			<path fill="#39146E" d="M317.1,219.7l12.3-0.3c1-4.2,1.6-8.8,1.4-13.7c-0.5-17.5-9.3-31.5-19.6-31.2
				c-10.3,0.3-18.3,14.8-17.8,32.3c0.5,17.5,9.3,31.5,19.6,31.2c4.1-0.1,7.9-2.5,10.9-6.5L317.1,219.7z"/>
		</g>
		
			<ellipse transform="matrix(0.9996 -2.831704e-02 2.831704e-02 0.9996 -5.9985 10.5413)" fill="#FFFFFF" stroke="#39146E" stroke-linecap="round" stroke-linejoin="round" stroke-miterlimit="10" cx="369.2" cy="217.1" rx="29.8" ry="46.2"/>
		<g>
			<path fill="#39146E" d="M365.6,221.3l12.3-0.3c1-4.2,1.6-8.8,1.4-13.7c-0.5-17.5-9.3-31.5-19.6-31.2s-18.3,14.8-17.8,32.3
				c0.5,17.5,9.3,31.5,19.6,31.2c4.1-0.1,7.9-2.5,10.9-6.5L365.6,221.3z"/>
		</g>
		<path fill="#FFFF51" stroke="#39146E" stroke-linecap="round" stroke-linejoin="round" stroke-miterlimit="10" d="M293.7,263.5
			c4.9-5.7,12.1-9.4,20.2-9.6c9.5-0.3,18.1,4.3,23.3,11.5"/>
		<path fill="#FFFF51" stroke="#39146E" stroke-linecap="round" stroke-linejoin="round" stroke-miterlimit="10" d="M357.4,264.5
			c3.8-4.4,9.4-7.3,15.7-7.5c7.4-0.2,14.1,3.4,18.1,9"/>
		<path fill="#FFFF51" stroke="#39146E" stroke-linecap="round" stroke-linejoin="round" stroke-miterlimit="10" d="M365.1,269.7
			c-4.3,6.1-11.6,10.3-19.9,10.5c-8.8,0.2-16.6-3.9-21.2-10.3"/>
		<path fill="#FFFF51" stroke="#39146E" stroke-linecap="round" stroke-linejoin="round" stroke-miterlimit="10" d="M324.7,267.5
			c0.1,1.1-0.3,2-1.2,2.6c-0.9,0.5-2,0.5-3-0.1"/>
		<path fill="#FFFF51" stroke="#39146E" stroke-linecap="round" stroke-linejoin="round" stroke-miterlimit="10" d="M367.7,270.1
			c-1,0.4-2,0.4-2.8-0.2c-0.8-0.6-1.1-1.7-1-2.8"/>
		<path fill="none" stroke="#39146E" stroke-linecap="round" stroke-linejoin="round" stroke-miterlimit="10" d="M308.3,167.2
			c3.3-2.3,7.2-3.8,11.6-3.9c3.8-0.1,7.3,0.8,10.4,2.4"/>
		<path fill="none" stroke="#39146E" stroke-linecap="round" stroke-linejoin="round" stroke-miterlimit="10" d="M367.1,165
			c3.8-1.3,8-1.5,12.2-0.3c3.6,1,6.8,2.9,9.2,5.4"/>
	</g>
	<path fill="#FFFFFF" stroke="#39146E" stroke-linecap="round" stroke-linejoin="round" stroke-miterlimit="10" d="M368.5,148.9
		c0,0,25.8-0.1,38.7-1.3"/>
	<polygon fill="#FFFFFF" points="151.9,275.2 157.8,281.5 170.1,261.1 166.1,253.9 158.7,258.4 	"/>
	<path fill="#39146E" d="M422.3,318.1c0,0-2.5,6.5-1.2,8.1c22.4,27.6,24.4,63.7,21.6,80.4c0,0,16.3-23.8,11.3-61.4
		C451.7,328.5,422.3,318.1,422.3,318.1z"/>
	<path fill="#91D4F6" stroke="#39146E" stroke-miterlimit="10" d="M440,293.6c9.2,14.3,34,36.8,95,18.2c9.9-3,20,4,20.6,14.4v0
		c0.4,6.5-3.2,12.6-9.1,15.3c-21.6,10.1-75.9,27.6-128.3-18.4c-0.7-0.6-1.3-1.3-1.9-2c-2.7-3.4-9.3-13.1-5.3-23c0.4-1,0.9-2,1.3-3
		C417.9,284.1,433.4,283.2,440,293.6z"/>
	<path fill="#FFFFFF" stroke="#39146E" stroke-linecap="round" stroke-linejoin="round" stroke-miterlimit="10" d="M543.2,302.8
		c0,0-12,2.6-12.2,20c-0.1,17.4,12.5,25.5,21.8,19.3C562.2,336,543.2,302.8,543.2,302.8z"/>
	<path fill="#FFFFFF" stroke="#39146E" stroke-linecap="round" stroke-linejoin="round" stroke-miterlimit="10" d="M543.2,312.4
		c0,0-3.9,30.4,13.6,30.5c17.4,0.1,31.9,3.9,39.7,9.4c7.8,5.5,12.3,12.6,19,12.8c6.6,0.2,10-3.4,9-9.6c0,0,9.9,1.8,9.4-8.6
		s-6.7-17.2-6.7-17.2s6.4-18.9-16.2-27.5c-17.1-6.5-31.3-8.4-30-16.3c1.2-7.9-2.2-35.8-17.7-36.6c-15.5-0.8-17.1,11.5-10.7,18
		c6.4,6.5,5.7,15.2,5.7,15.2s-20.6,9.9-14,26L543.2,312.4z"/>
	<path fill="#FFFFFF" stroke="#39146E" stroke-linecap="round" stroke-linejoin="round" stroke-miterlimit="10" d="M594.5,307.4
		c0,0,9.8,11.4-2,25.2"/>
	<path fill="#FFFFFF" stroke="#39146E" stroke-linecap="round" stroke-linejoin="round" stroke-miterlimit="10" d="M595.5,328.3
		c0,0,25.1,6.6,29,27.1"/>
	<path fill="#FFFFFF" stroke="#39146E" stroke-linecap="round" stroke-linejoin="round" stroke-miterlimit="10" d="M598.1,313.4
		c0,0,20.4,4.3,29.2,16.3"/>
	<polygon fill="#FFFFFF" points="541,308.1 550.2,309.3 548.8,335.4 541.1,336.9 539.1,329.5 	"/>
	<path fill="#44D970" stroke="#39146E" stroke-linecap="round" stroke-linejoin="round" stroke-miterlimit="10" d="M429.9,10.7
		c0,0,0.2,20.8,2.8,23.4s9.5,5.4,11.6,3.1c2.4-2.5,8.6-22.6,7.1-25.4C447.5,4.6,428.7,3.4,429.9,10.7z"/>
	<path fill="none" stroke="#39146E" stroke-linecap="round" stroke-linejoin="round" stroke-miterlimit="10" d="M163.4,261.1
		c0,0,6.8-5.4,7.7-9.6"/>
	<path fill="none" stroke="#39146E" stroke-linecap="round" stroke-linejoin="round" stroke-miterlimit="10" d="M159,276
		c0,0-3.6,6.8-11.5,7.4"/>
	<path fill="none" stroke="#39146E" stroke-linecap="round" stroke-linejoin="round" stroke-miterlimit="10" d="M544.7,295
		c0,0-4.4,6,1.1,17.5"/>
	<path fill="none" stroke="#39146E" stroke-linecap="round" stroke-linejoin="round" stroke-miterlimit="10" d="M544.3,326.9
		c0,0-1.1,11.3,8.6,15.5"/>
	<path fill="none" stroke="#39146E" stroke-miterlimit="10" d="M322.3,148.4c-43.7-1.7-77.8-6.4-86.9-12.2c-0.5-0.3-1,0.2-0.8,0.7
		l12.4,30.7c6.1,15.2,10,31.2,11.8,47.3"/>
</g>
</svg>
