<?xml version="1.0" encoding="utf-8"?>
<!-- Generator: Adobe Illustrator 25.4.8, SVG Export Plug-In . SVG Version: 6.00 Build 0)  -->
<svg version="1.1" id="Layer_1" xmlns="http://www.w3.org/2000/svg" xmlns:xlink="http://www.w3.org/1999/xlink" x="0px" y="0px"
	 viewBox="0 0 9471.7 1488.2" style="enable-background:new 0 0 9471.7 1488.2;" xml:space="preserve">
<style type="text/css">
	.st0{fill:url(#SVGID_1_);}
	.st1{fill:url(#SVGID_00000083046389877598879740000008678979794917726138_);}
	.st2{fill:url(#SVGID_00000099645946623875413110000004119396980343905214_);}
</style>
<linearGradient id="SVGID_1_" gradientUnits="userSpaceOnUse" x1="4638.2798" y1="739.8488" x2="9476.1045" y2="739.8488" gradientTransform="matrix(1 0 0 -1 0 1488)">
	<stop  offset="0" style="stop-color:#3DBFCE"/>
	<stop  offset="1" style="stop-color:#3CBFCB"/>
</linearGradient>
<path class="st0" d="M9472,520.5c-528.4-3-1109.3-91.2-1461.5-269.4C7694.7,91.2,7430.2,29.5,7225.8,13c-35.4-3.1-74.4-5-117-4.9
	c-42.4-0.1-81.6,1.8-117,4.9c-204.5,16.5-469,78.2-785,238.1C5823,445.4,5210.6,532.7,4638.3,519.3v968.9h2104.5h732h1048.4h949
	V520.1C9458.2,520.3,9486.1,520.5,9472,520.5z"/>
<linearGradient id="SVGID_00000081622959416777277020000006349734034776195487_" gradientUnits="userSpaceOnUse" x1="0" y1="739.8486" x2="4837.8247" y2="739.8486" gradientTransform="matrix(1 0 0 -1 0 1488)">
	<stop  offset="0" style="stop-color:#3DBFCE"/>
	<stop  offset="1" style="stop-color:#3CBFCB"/>
</linearGradient>
<path style="fill:url(#SVGID_00000081622959416777277020000006349734034776195487_);" d="M4833.8,520.5
	c-528.4-3-1109.3-91.2-1461.5-269.4C3056.5,91.2,2792,29.5,2587.5,13c-35.4-3.1-74.4-5-117-4.9c-42.4-0.1-81.6,1.8-117,4.9
	c-204.5,16.5-469,78.2-785,238.1C1184.7,445.4,572.4,532.7,0,519.3v968.9h2104.5h732h1048.4h949V520.1
	C4819.9,520.3,4847.8,520.5,4833.8,520.5z"/>
<linearGradient id="SVGID_00000165207065869390306290000003686076938077126838_" gradientUnits="userSpaceOnUse" x1="4735.9297" y1="-207.6101" x2="4735.9297" y2="1762.1617" gradientTransform="matrix(1 0 0 -1 0 1488)">
	<stop  offset="0" style="stop-color:#FFFF51"/>
	<stop  offset="0.5284" style="stop-color:#DFF448;stop-opacity:0"/>
</linearGradient>
<rect x="0" y="83.8" style="fill:url(#SVGID_00000165207065869390306290000003686076938077126838_);" width="9471.9" height="1404.6"/>
</svg>
