<?xml version="1.0" encoding="utf-8"?>
<!-- Generator: Adobe Illustrator 25.4.8, SVG Export Plug-In . SVG Version: 6.00 Build 0)  -->
<svg version="1.1" id="Layer_1" xmlns="http://www.w3.org/2000/svg" xmlns:xlink="http://www.w3.org/1999/xlink" x="0px" y="0px"
	 viewBox="0 0 632.2 646.9" enable-background="new 0 0 632.2 646.9" xml:space="preserve">
<linearGradient id="SVGID_1_" gradientUnits="userSpaceOnUse" x1="-284.0499" y1="-8625.3262" x2="399.2766" y2="-8663.8535" gradientTransform="matrix(0 1 -1 0 -8326.5605 316.1792)">
	<stop  offset="0" style="stop-color:#FDFB01"/>
	<stop  offset="1" style="stop-color:#B1FB23"/>
</linearGradient>
<path fill="url(#SVGID_1_)" d="M361.4,584.9c18.4,6,38.4,9.4,59.3,9.4c90.8,0,164.5-62.5,164.5-139.6c0-20.7-5.3-40.4-14.9-58.1
	c31-26.7,50.2-63.3,50.2-103.7c0-48.3-27.3-91.2-69.5-118.1c5.9-10.7,9.1-22.7,9.1-35.3c0-46.3-44.3-83.9-98.9-83.9
	c-13.5,0-26.3,2.3-38,6.4c-30-28.8-73.9-46.9-122.8-46.9c-90.5,0-163.9,62.3-163.9,139.1c0,13.3,2.2,26.2,6.3,38.3
	C66.4,204.6,8.5,261.4,8.5,329.7c0,51.5,32.9,96.5,81.8,120.7c-7.2,15.4-11.2,32.2-11.2,49.8c0,74.4,71.1,134.7,158.8,134.7
	C287.8,634.9,332.3,615.4,361.4,584.9z"/>
</svg>
