<?xml version="1.0" encoding="utf-8"?>
<!-- Generator: Adobe Illustrator 25.4.8, SVG Export Plug-In . SVG Version: 6.00 Build 0)  -->
<svg version="1.1" id="Layer_1" xmlns="http://www.w3.org/2000/svg" xmlns:xlink="http://www.w3.org/1999/xlink" x="0px" y="0px"
	 viewBox="0 0 573.3 534.3" enable-background="new 0 0 573.3 534.3" xml:space="preserve">
<linearGradient id="SVGID_1_" gradientUnits="userSpaceOnUse" x1="-200.9099" y1="-9856.8496" x2="375.5721" y2="-9889.3525" gradientTransform="matrix(-0.8999 0.4362 -0.4362 -0.8999 -3967.6992 -8643.7891)">
	<stop  offset="4.774306e-03" style="stop-color:#3DBFCE"/>
	<stop  offset="1" style="stop-color:#32BE98"/>
</linearGradient>
<path fill="url(#SVGID_1_)" d="M115.7,389.4c2.2,16.2,7,32.6,14.7,48.5c33.4,69,107.9,101.9,166.5,73.5
	c15.7-7.6,28.7-18.9,38.6-32.7c31.7,13.7,66.5,14.8,97.2-0.1c36.7-17.8,59.2-54.3,64.1-96.3c10.3,0.5,20.6-1.4,30.1-6
	c35.2-17,47.4-64.5,27.3-105.9c-5-10.2-11.4-19.1-18.9-26.5c10.8-33.4,8.4-73.4-9.6-110.4C492.5,64.7,418.3,31.9,359.9,60.2
	c-10.1,4.9-19.1,11.3-26.8,18.9C295.9,25.5,231.4,2.5,179.6,27.6c-39.1,19-61.2,60.5-61.5,106.5c-14.3,0.2-28.5,3.4-41.9,9.8
	C19.7,171.3,0,247.5,32.3,314.1C50.7,351.9,81.8,378.5,115.7,389.4z"/>
</svg>
