<?xml version="1.0" encoding="utf-8"?>
<!-- Generator: Adobe Illustrator 25.4.8, SVG Export Plug-In . SVG Version: 6.00 Build 0)  -->
<svg version="1.1" id="Layer_1" xmlns="http://www.w3.org/2000/svg" xmlns:xlink="http://www.w3.org/1999/xlink" x="0px" y="0px"
	 viewBox="0 0 792.5 389.5" enable-background="new 0 0 792.5 389.5" xml:space="preserve">
<g>
	<ellipse fill="#39146E" cx="542" cy="366.2" rx="181" ry="20.1"/>
	<ellipse fill="#39146E" cx="151.9" cy="365.9" rx="146.2" ry="14.4"/>
	<path fill="#FFFF51" stroke="#39146E" stroke-linecap="round" stroke-linejoin="round" stroke-miterlimit="10" d="M179.3,370.8
		h-19.1c-10.4,0-19.5-6.9-22.4-16.9l-15.5-51.4l95.5,0.3l-16,51.3C198.7,364,189.6,370.8,179.3,370.8z"/>
	
		<ellipse fill="#FFFF51" stroke="#39146E" stroke-linecap="round" stroke-linejoin="round" stroke-miterlimit="10" cx="169.8" cy="301.3" rx="48.1" ry="10.1"/>
	<ellipse fill="#39146E" cx="169.8" cy="301" rx="36.3" ry="5"/>
	<path fill="#39146E" d="M185.5,261.4c-0.4-0.3-1-0.3-1.4,0c-1.1,0.6-0.8-1-11.4,13.5v-25.4c0-0.5-0.2-0.9-0.5-1.2
		c-2.3-2-4.9-0.4-4.9,1.8V277l-19.9-17.1c-1.1-1-2.9-0.9-3.9,0.3c-1,1.1-0.9,2.9,0.3,3.9l23.5,20.2v17.6c0,1.4,1.1,1.9,2.5,2
		c1.5,0,2.9-0.2,2.9-1.8v-17.6c5.6-7.9,12-16.5,13.4-17.9C187.6,265.4,187.9,262.8,185.5,261.4z"/>
	<path fill="#44D970" stroke="#39146E" stroke-linecap="round" stroke-linejoin="round" stroke-miterlimit="10" d="M157.7,272.2
		c0,0-15-56.3-70.5-30.2C87.2,242,105.1,283.8,157.7,272.2z"/>
	<path fill="#44D970" stroke="#39146E" stroke-linecap="round" stroke-linejoin="round" stroke-miterlimit="10" d="M181.6,266.2
		c0,0,6.2-43.9,56.6-37.8C238.2,228.3,228.2,275.3,181.6,266.2z"/>
	<path fill="#44D970" stroke="#39146E" stroke-linecap="round" stroke-linejoin="round" stroke-miterlimit="10" d="M170.1,256.5
		c0,0,20.4-29.1-21.6-53.1C148.4,203.4,137.7,235,170.1,256.5z"/>
	<path fill="#FFFFFF" stroke="#39146E" stroke-linecap="round" stroke-linejoin="round" stroke-miterlimit="10" d="M417.8,248.4
		c0,0,6.2-36.9-13.8-48.2s-29.6-3.9-27.4,11.2c2.1,15.1-0.2,41.8,12.8,46C403.4,261.8,415.6,253.7,417.8,248.4z"/>
	<path fill="#44D970" d="M535.3,309.3c0,0-13.2,0.9-14.7,16.2c0,0-7.5,0-15.7-1.2c-4.9-0.7-10.2-1.4-14.1-4.2
		c-3.6-2.6-7.3-5.9-13.2-7.5c-9.4-2.6-22.4-1.5-33.5,9.7c-1.6,1.6-3,2.7-4.3,5c-19.8,34.7,3,29.2,3,29.2l117.1-2.1
		c0,0,8.1-36.9-14.7-44.5L535.3,309.3z"/>
	<path fill="#FFFF51" stroke="#39146E" stroke-linecap="round" stroke-linejoin="round" stroke-miterlimit="10" d="M527.2,230.3
		c0,0-9.5,55,4,80.7c0,0,5.7,3.7,16.5-0.2c0,0-13.7-50,0.6-81.4L527.2,230.3z"/>
	<path fill="none" stroke="#39146E" stroke-linecap="round" stroke-linejoin="round" stroke-miterlimit="10" d="M530.8,310.8
		c-1.2,0.4-7.7,2.8-10.3,14.7c0,0-23.3,1.1-35.3-9.1c-11.9-10.2-46.6-6.9-53.5,30.9"/>
	<path fill="none" stroke="#39146E" stroke-linecap="round" stroke-linejoin="round" stroke-miterlimit="10" d="M560.4,349.6
		c0,0,4.8-29.6-12.8-39.1"/>
	<path fill="none" stroke="#39146E" stroke-linecap="round" stroke-linejoin="round" stroke-miterlimit="10" d="M530.6,325.6
		c0,0-7.8,0.3-16.6-0.2"/>
	<path fill="#FFFFFF" stroke="#39146E" stroke-linecap="round" stroke-linejoin="round" stroke-miterlimit="10" d="M555.1,363.2
		H434.8c-4.5,0-8.1-3.6-8.1-8.1l0,0c0-4.5,3.6-8.1,8.1-8.1h120.3c4.5,0,8.1,3.6,8.1,8.1l0,0C563.1,359.5,559.5,363.2,555.1,363.2z"
		/>
	<path fill="#44D970" d="M602.6,310.2c0,0,13.2,0.9,14.7,16.2c0,0,21.3,0.8,31.5-6.5c2.5-1.8,5.7-4.3,9.2-5.7
		c10.7-4.3,25.1-3.5,39,13.1c9.4,11.3,10.1,26.7,7.7,31.4c-2.8,5.6-9.7-1.3-9.7-1.3l-117.1-2.1c0,0-8.1-36.9,14.7-44.5L602.6,310.2z
		"/>
	<path fill="#FFFF51" stroke="#39146E" stroke-linecap="round" stroke-linejoin="round" stroke-miterlimit="10" d="M608.6,228.8
		c0,0,15.6,44-0.4,83.2c0,0-8.9,3.8-18-0.4c0,0,11.8-55.9-3-87.5L608.6,228.8z"/>
	<path fill="none" stroke="#39146E" stroke-linecap="round" stroke-linejoin="round" stroke-miterlimit="10" d="M608.7,312.1
		c1.3,0.7,1.9,1.3,1.9,1.3s4.8,2.5,6.6,13c0,0,23.3,1.1,35.3-9.1s46.1-7.4,53.4,30.9"/>
	<path fill="none" stroke="#39146E" stroke-linecap="round" stroke-linejoin="round" stroke-miterlimit="10" d="M577.5,350.5
		c0,0-4.8-29.6,12.8-39.1"/>
	<path fill="none" stroke="#39146E" stroke-linecap="round" stroke-linejoin="round" stroke-miterlimit="10" d="M606,326.4
		c0,0,6.4,0.7,17.2,0.1"/>
	<path fill="#FFFFFF" stroke="#39146E" stroke-linecap="round" stroke-linejoin="round" stroke-miterlimit="10" d="M582.8,364.1
		h120.3c4.5,0,8.1-3.6,8.1-8.1v0c0-4.5-3.6-8.1-8.1-8.1H582.8c-4.5,0-8.1,3.6-8.1,8.1v0C574.7,360.5,578.3,364.1,582.8,364.1z"/>
	<path fill="#39146E" d="M543.3,238.5l-0.9,13.5c0,0-14.8-2.3-18.5,13.5l2.3-30.8L543.3,238.5z"/>
	<path fill="#39146E" d="M614,250.4c0,0-13.9-8.7-19.3,8.8l-5.3-35.3l14.5,0.4l5.4,3.9L614,250.4z"/>
	<path fill="#FFFF51" stroke="#39146E" stroke-linecap="round" stroke-linejoin="round" stroke-miterlimit="10" d="M672.9,171
		c0,0,16.9,32.8,67.5,46.5l6-13.4c0,0-47.1-19.4-57.9-46.1s-16.9,13-16.9,13"/>
	<path fill="#39146E" d="M699.2,174.1c0,0-8.7,14.4,0.9,24.9c0,0-17.9-12.3-20.1-17.2c-2.2-5,9.2-19.9,9.2-19.9L699.2,174.1z"/>
	<path fill="#FFFF51" stroke="#39146E" stroke-linecap="round" stroke-linejoin="round" stroke-miterlimit="10" d="M489.6,181.7
		c-1.5,0.3-42.1,35.8-78.1,29.1l3,20.7c0,0,30.5,2.7,68.8-20.8S489.6,181.7,489.6,181.7z"/>
	<path fill="#39146E" d="M455.6,203.2c0,0,6.2,11.8-3,22.2l22.3-9.2l-4.8-17.3l-7.7,0.3L455.6,203.2z"/>
	<path fill="#FFFFFF" stroke="#39146E" stroke-linecap="round" stroke-linejoin="round" stroke-miterlimit="10" d="M741,195.4
		c0,0-4.9-5.3-9.8-3.4c-8.3,3.2-15.6,19-9.2,28.4c4.5,6.7,17.4,6.8,17.6,6S741,195.4,741,195.4z"/>
	<path fill="#FFFF51" stroke="#39146E" stroke-linecap="round" stroke-linejoin="round" stroke-miterlimit="10" d="M703.2,151.5
		c0,0,23.4-21.1,21.1-43.6c-2.9-28.5-33.5-33.3-33.5-33.3S640,17,563.9,20.2s-124.4,87.1-124.4,87.1s-33.8,21.5-24.1,52.7
		c6.4,20.7,32.5,30.1,32.5,30.1s28.2,61.4,138,50.3C634.9,235.6,683.4,212.5,703.2,151.5z"/>
	
		<ellipse transform="matrix(0.9875 -0.1577 0.1577 0.9875 -10.9723 85.1557)" fill="#FFFFFF" stroke="#39146E" stroke-linecap="round" stroke-linejoin="round" stroke-miterlimit="10" cx="531" cy="111.7" rx="29.9" ry="22.6"/>
	
		<ellipse transform="matrix(0.9875 -0.1577 0.1577 0.9875 -9.1394 95.7211)" fill="#FFFFFF" stroke="#39146E" stroke-linecap="round" stroke-linejoin="round" stroke-miterlimit="10" cx="598.5" cy="105.4" rx="29.9" ry="22.6"/>
	<path fill="none" stroke="#39146E" stroke-linecap="round" stroke-linejoin="round" stroke-miterlimit="10" d="M517.2,140.6
		c1,2.5-0.3,5.3-2.7,6.2c-1.2,0.4-2.5,0.3-3.7-0.2"/>
	<path fill="none" stroke="#39146E" stroke-linecap="round" stroke-linejoin="round" stroke-miterlimit="10" d="M614.7,142
		c-7,10.4-17.1,18.8-29.7,23.4c-25.2,9.2-52.1,0.4-69.3-19.3"/>
	<path fill="none" stroke="#39146E" stroke-linecap="round" stroke-linejoin="round" stroke-miterlimit="10" d="M587.4,208.2
		c-3.8,4.6-10.7,7.1-18.1,6.1c-8.1-1.1-14.4-6.1-16.3-12.1"/>
	<path fill="none" stroke="#39146E" stroke-linecap="round" stroke-linejoin="round" stroke-miterlimit="10" d="M592.1,199.8
		c0,0.2-0.5,2.3-1.5,4.3"/>
	<path fill="#44D970" stroke="#39146E" stroke-linecap="round" stroke-linejoin="round" stroke-miterlimit="10" d="M562.7,239.1
		c0,0-11.5-7.2-19.5-6.5c-8,0.6-7.8,19.8-0.1,20.9c7.4,1.1,18.8-6,18.8-6L562.7,239.1z"/>
	<path fill="#44D970" stroke="#39146E" stroke-linecap="round" stroke-linejoin="round" stroke-miterlimit="10" d="M572.8,247.7
		c0,0,11.7,5.4,19.7,4.2c8-1.2,5.9-19.5-2-19.4c-9,0.1-17.4,6.8-17.4,6.8L572.8,247.7z"/>
	
		<ellipse transform="matrix(0.1139 -0.9935 0.9935 0.1139 261.064 779.6345)" fill="#44D970" stroke="#39146E" stroke-linecap="round" stroke-linejoin="round" stroke-miterlimit="10" cx="567.6" cy="243.5" rx="7.3" ry="7.7"/>
	<path fill="#FFFFFF" stroke="#39146E" stroke-linecap="round" stroke-linejoin="round" stroke-miterlimit="10" d="M408.5,202.8
		c0,0,5.7-1.1,9.1,1.7c5.7,4.8,13.6,21.3,9.7,34.9c-3.9,13.6-16.9,6.5-16.9,6.5L408.5,202.8z"/>
	<path fill="#FFFFFF" d="M406.2,202.1c0.7,0.6,9.7,9.8,10.2,10.6s2.8,19.4,2.8,19.4l-1.7,16.7l-8.4,0.8l-4-6.3l-0.9-20.9
		L406.2,202.1z"/>
	<path fill="none" stroke="#39146E" stroke-linecap="round" stroke-linejoin="round" stroke-miterlimit="10" d="M417.1,233.1
		c0,0,3.7,6.7,0.1,16.4"/>
	<path fill="none" stroke="#39146E" stroke-linecap="round" stroke-linejoin="round" stroke-miterlimit="10" d="M413.4,216.1
		c0,0-0.2-10.5-9.3-16"/>
	<path fill="#FFFFFF" stroke="#39146E" stroke-linecap="round" stroke-linejoin="round" stroke-miterlimit="10" d="M732.8,201.2
		c0,0,0.2-13,13-14.2c12.8-1.2,18.1,0.5,23-7.8c5.3-9,16-11.7,15.5,2.8c-0.5,12.7-15.1,22-15.1,22s16.4,24.3,18.7,35.3
		c3.6,17-9.2,13.7-9.2,13.7s2,13.6-13,7.8c0,0-2.6,5.4-8.6,0.8c-6-4.6-9-28-21.2-30.4S723.8,212.6,732.8,201.2z"/>
	<path fill="#FFFFFF" stroke="#39146E" stroke-linecap="round" stroke-linejoin="round" stroke-miterlimit="10" d="M748.8,231.5
		c0,0,16.2,1.3,23.6-10.2"/>
	<path fill="#FFFFFF" stroke="#39146E" stroke-linecap="round" stroke-linejoin="round" stroke-miterlimit="10" d="M766.4,228
		c0,0,10.2,11,12.4,26.3"/>
	<path fill="#FFFFFF" stroke="#39146E" stroke-linecap="round" stroke-linejoin="round" stroke-miterlimit="10" d="M756.7,231.7
		c0.6,1,11.4,19.9,8.9,29.1"/>
	<polygon fill="#FFFFFF" points="733,193.3 740.6,191.3 735.8,211.3 732.3,214.7 730.7,224.5 726.5,223.7 725.1,221.3 724.5,203.1 	
		"/>
	<path fill="none" stroke="#39146E" stroke-linecap="round" stroke-linejoin="round" stroke-miterlimit="10" d="M731.9,203.1
		c0,0-0.8-8.2,7.5-14.2"/>
	<path fill="none" stroke="#39146E" stroke-linecap="round" stroke-linejoin="round" stroke-miterlimit="10" d="M727.5,215.8
		c0,0-3.5,9.4,4.9,14.1"/>
	
		<ellipse transform="matrix(0.9671 -0.2544 0.2544 0.9671 -3.3176 136.9308)" fill="#39146E" cx="527.8" cy="81.3" rx="11.7" ry="2.8"/>
	
		<ellipse transform="matrix(0.1047 -0.9945 0.9945 0.1047 463.4769 663.1244)" fill="#39146E" cx="600" cy="74.1" rx="2.8" ry="11.7"/>
	<path fill="#39146E" d="M483.2,55.1c0,0,20.2,14.8,51.2,6.3c31-8.4,15.1-22.6,15.1-22.6L483.2,55.1z"/>
	<path fill="#44D970" stroke="#39146E" stroke-linecap="round" stroke-linejoin="round" stroke-miterlimit="10" d="M613.2,26.4
		c0,0-18.2,32.1-87.6,40.5l6.5-16.1c0,0-32,10.4-62.9,0.6C469.2,51.5,546.4-26.2,613.2,26.4z"/>
	<path fill="#FFFF51" stroke="#39146E" stroke-linecap="round" stroke-linejoin="round" stroke-miterlimit="10" d="M436.5,115.2
		c0,0,2.3-8.1,11.8-21.1"/>
	<path fill="#FFFF51" stroke="#39146E" stroke-linecap="round" stroke-linejoin="round" stroke-miterlimit="10" d="M444.8,182.1
		c0,0,3.5,9.6,6.9,14.7"/>
	<path fill="#FFFF51" stroke="#39146E" stroke-linecap="round" stroke-linejoin="round" stroke-miterlimit="10" d="M695.1,81.3
		c0,0-2.6-6.1-12.1-14.5"/>
	<path fill="#FFFF51" stroke="#39146E" stroke-linecap="round" stroke-linejoin="round" stroke-miterlimit="10" d="M704.4,141.5
		c0,0-1,10.8-5.2,21"/>
	<path fill="#FFFF51" stroke="#39146E" stroke-linecap="round" stroke-linejoin="round" stroke-miterlimit="10" d="M703.9,136.9
		c0-3.2-0.3-10.4-1.8-13.8"/>
	<path fill="#39146E" d="M581,104.4c-3.6,0.5-8.4,1.8-11.5,2.9c-1.4,4.1,1.1,6.2,2.2,9.3c3.3,8.5,18.5,14.5,34.9,10.2
		c6.7-1.8,12-5.8,16.4-10.8C616.9,107,600.5,101.5,581,104.4z"/>
	<path fill="#39146E" d="M514.1,107.8c-3.5,0.6-9.2,2.5-12.3,3.8c-1.7,3.9,0.5,7.1,2,10.8c4.1,10.5,21.9,14.9,37.9,9.7
		c6.6-2.1,12.1-7.9,16-11.9C552.1,111.4,532.1,104.6,514.1,107.8z"/>
	<path fill="#44D970" stroke="#39146E" stroke-linecap="round" stroke-linejoin="round" stroke-miterlimit="10" d="M374.3,304.5
		l-14.1-57c0-0.1-0.1-0.1-0.2-0.1l-76.7,19c-0.1,0-0.1,0.1-0.1,0.2l7.9,31.9c0,0.1-0.1,0.2-0.2,0.2l-60.6-19.4
		c-2.5-0.8-4.6-2.6-5.7-5l-5.6-12c-0.1-0.1-0.2-0.1-0.3,0L204,287.8c-0.1,0.1,0,0.2,0.2,0.2l13.3-2.5c3.4-0.6,6.9-0.1,10,1.5
		l69.8,36.2c0,0,0.1,0.1,0.1,0.1l0,0c1.8,7.2,9.1,11.6,16.2,9.8l51-12.6C371.7,318.8,376,311.6,374.3,304.5z"/>
	
		<ellipse transform="matrix(0.9727 -0.2319 0.2319 0.9727 -50.9207 81.7001)" fill="#44D970" stroke="#39146E" stroke-linecap="round" stroke-linejoin="round" stroke-miterlimit="10" cx="322" cy="257.4" rx="39.7" ry="5.6"/>
	
		<ellipse transform="matrix(0.9719 -0.2354 0.2354 0.9719 -50.3208 86.3806)" fill="#39146E" cx="336.6" cy="254" rx="15.6" ry="2.2"/>
	
		<ellipse transform="matrix(0.5046 -0.8633 0.8633 0.5046 -132.9332 317.9573)" fill="#FFFF51" stroke="#39146E" stroke-linecap="round" stroke-linejoin="round" stroke-miterlimit="10" cx="210.6" cy="274.8" rx="15.4" ry="4.5"/>
	<path fill="#44D970" stroke="#39146E" stroke-linecap="round" stroke-linejoin="round" stroke-miterlimit="10" d="M390.5,220.1
		c-5.5-9-13.5-14.7-23.1-16.6c-11.9-2.3-24.7,1.7-36.2,11.2c-11.1,9.2-19.7,22.5-24.1,37.5c-0.2,0.8-2.2,7.1-2.4,7.8
		c3.2,1.3,8,0,10.7-2.5c4.2-14.2,12.7-28.1,21.8-35.7c8.4-6.9,17.4-10.3,25.8-9.6c0.9,0.1,1.8,0.2,2.7,0.4c7,1.3,12.8,5.6,16.9,12.2
		c6.5,10.8,7.7,26.5,3,42.2c-2.8,9.3-7.3,17.8-13.1,24.9c0,0-0.1,0.1-0.1,0.1l2.5,11.1c8.9-8.9,15.8-20.5,19.6-33.4
		C400,251.4,398.5,233.2,390.5,220.1z"/>
	<polygon fill="#44D970" points="303.1,258.7 317.7,255.4 317.8,259.6 313.5,261.5 300.6,264.2 	"/>
	
		<line fill="none" stroke="#39146E" stroke-linecap="round" stroke-linejoin="round" stroke-miterlimit="10" x1="302.9" y1="326.1" x2="291.5" y2="320.2"/>
	<path fill="none" stroke="#39146E" stroke-linecap="round" stroke-linejoin="round" stroke-miterlimit="10" d="M304.6,260.5
		c0,0,2.2-8.5,4.2-13.3"/>
	<path fill="none" stroke="#39146E" stroke-linecap="round" stroke-linejoin="round" stroke-miterlimit="10" d="M315.2,258.7
		c0,0,1.4-6.7,4.8-13.3"/>
	<path fill="#39146E" d="M375.9,287.7c0,0-0.1,7.5,4.1,10.2l-5.1,5.4l-2.1-10.6L375.9,287.7z"/>
	<path fill="#39146E" d="M387.5,257.4c0,0,5.7,2,10.1-3.7l-0.3-8.3l0.4-4.1l-3.2-15.3l-7.9,6L387.5,257.4z"/>
	<path fill="#FFFFFF" stroke="#39146E" stroke-linecap="round" stroke-linejoin="round" stroke-miterlimit="10" d="M363.3,242.2
		c0,0-0.3,11.3,12.1,14.1c12.4,2.8,21.6-9,19.1-15c-2.5-5.8-12.3-3-12.3-3L363.3,242.2z"/>
	<path fill="#FFFFFF" stroke="#39146E" stroke-linecap="round" stroke-linejoin="round" stroke-miterlimit="10" d="M365.5,244.1
		c1.8,0.3,18.6,1.4,24.3-5.2c5.6-6.4,2.7-15.4-10.2-15.2c-12.8,0.2-14,3-18.6,6.5C356.1,234,358.3,242.9,365.5,244.1z"/>
	<path fill="#FFFFFF" stroke="#39146E" stroke-linecap="round" stroke-linejoin="round" stroke-miterlimit="10" d="M383.1,209.7
		c-1.7-0.4-19.9-1.5-25.7,5c-5.7,6.3-2.7,15.4,10.1,15.3s18.1-4.9,20.1-10.3C389.7,214.1,389.5,211,383.1,209.7z"/>
	<path fill="#FFFFFF" stroke="#39146E" stroke-linecap="round" stroke-linejoin="round" stroke-miterlimit="10" d="M381.3,196.4
		c-0.8,0.5-6.3,2.8-4.9,16.2c0,0,0.9,23.1,13.1,18.5c12.2-4.6,5.9-19.7,5.9-19.7"/>
	
		<line fill="none" stroke="#39146E" stroke-linecap="round" stroke-linejoin="round" stroke-miterlimit="10" x1="309.3" y1="305" x2="285.1" y2="296.8"/>
	<path fill="#FFFFFF" stroke="#39146E" stroke-linecap="round" stroke-linejoin="round" stroke-miterlimit="10" d="M182,299.4
		c-3.2-2.5-3.8-7.2-1.3-10.5c0.9-1.1,2.2-2.1,5.3-3.2l9.2-3.3l-0.9,9.8c-0.3,3.2-0.9,4.7-1.8,5.9C189.9,301.3,185.2,301.9,182,299.4
		z"/>
	<path fill="#FFFFFF" stroke="#39146E" stroke-linecap="round" stroke-linejoin="round" stroke-miterlimit="10" d="M364.9,296.3
		c0,0,4.3,7.6,2.1,13.7c-2.2,6.1-8.3,4.3-7.6-0.8s0.3-10.9-0.4-13.5C358.2,293.2,364.2,291.8,364.9,296.3z"/>
	
		<ellipse transform="matrix(0.9915 -0.1304 0.1304 0.9915 -34.346 49.1486)" fill="#FFFFFF" stroke="#39146E" stroke-linecap="round" stroke-linejoin="round" stroke-miterlimit="10" cx="358.1" cy="286.8" rx="4.1" ry="3.5"/>
	<path fill="#FFFFFF" stroke="#39146E" stroke-linecap="round" stroke-linejoin="round" stroke-miterlimit="10" d="M651.6,57.2
		c0,0,12.7,10.4,16.8,16.2c6.2,8.7-3.9,12-8.5,4.8c-4.6-7.3-10.3-12.4-13.8-15.2C638.7,57.2,646.1,51.9,651.6,57.2z"/>
	
		<ellipse transform="matrix(0.4143 -0.9101 0.9101 0.4143 325.9272 608.534)" fill="#FFFFFF" stroke="#39146E" stroke-linecap="round" stroke-linejoin="round" stroke-miterlimit="10" cx="635.8" cy="51" rx="4.2" ry="5.5"/>
	<path fill="#FFFFFF" stroke="#39146E" stroke-linecap="round" stroke-linejoin="round" stroke-miterlimit="10" d="M670,318.7
		c-0.2,2.5,4.4,4.5,8,5.9c7.2,2.8,10.1,10,12.2,8c2.6-2.6-4.7-9.9-10.1-12.9C675.3,316.9,670.1,316.3,670,318.7z"/>
	<path fill="#FFFFFF" d="M539.8,103.1c-0.8,0.3-12,11.8-12,11.8l22-6.7L539.8,103.1z"/>
	<path fill="#FFFFFF" d="M604.3,98.5c-0.8,0.3-12,11.8-12,11.8l22-6.7L604.3,98.5z"/>
	<path fill="#FFFFFF" stroke="#39146E" stroke-linecap="round" stroke-linejoin="round" stroke-miterlimit="10" d="M197.5,346.1
		l-0.3-0.1c-1.1-0.3-1.7-1.5-1.4-2.6l6.2-20.7c0.3-1.1,1.5-1.7,2.6-1.4l0.3,0.1c1.1,0.3,1.7,1.5,1.4,2.6l-6.2,20.7
		C199.7,345.9,198.6,346.5,197.5,346.1z"/>
	<path fill="#FFFFFF" stroke="#39146E" stroke-linecap="round" stroke-linejoin="round" stroke-miterlimit="10" d="M529,305.9
		c0,0,8.7,3.4,17.5-0.4l1.2,5.4c0,0-11.3,5.2-17.8,0.1L529,305.9z"/>
	<path fill="#FFFFFF" stroke="#39146E" stroke-linecap="round" stroke-linejoin="round" stroke-miterlimit="10" d="M591.5,305.7
		c0,0,9.9,6,18.9,0.5l-1,6.5c0,0-9,5.2-19.4-0.7L591.5,305.7z"/>
</g>
</svg>
