<?xml version="1.0" encoding="utf-8"?>
<!-- Generator: Adobe Illustrator 25.4.8, SVG Export Plug-In . SVG Version: 6.00 Build 0)  -->
<svg version="1.1" id="Layer_1" xmlns="http://www.w3.org/2000/svg" xmlns:xlink="http://www.w3.org/1999/xlink" x="0px" y="0px"
	 viewBox="0 0 625.7 488.3" enable-background="new 0 0 625.7 488.3" xml:space="preserve">
<g>
	<ellipse fill="#39146E" cx="259.7" cy="387.9" rx="253" ry="53.4"/>
	<ellipse fill="#39146E" cx="372" cy="431.5" rx="248.1" ry="50.8"/>
	
		<ellipse transform="matrix(0.9978 -6.624893e-02 6.624893e-02 0.9978 -19.7503 25.6147)" fill="#C2FF31" stroke="#39146E" stroke-linecap="round" stroke-linejoin="round" stroke-miterlimit="10" cx="376.3" cy="310.6" rx="207" ry="122.2"/>
	
		<ellipse transform="matrix(0.9978 -6.624893e-02 6.624893e-02 0.9978 -18.0095 25.4177)" fill="#FFFFFF" stroke="#39146E" stroke-linecap="round" stroke-linejoin="round" stroke-miterlimit="10" cx="374.2" cy="284.3" rx="136.1" ry="50.7"/>
	<path fill="#39146E" d="M505.8,280.4c1.8,27-55.1,52.8-127.1,57.5c-72,4.8-134.3-8.7-133.6-40.2c0.6-27.1,55.1-52.8,127.1-57.5
		C444.2,235.4,504,253.4,505.8,280.4z"/>
	<path fill="none" stroke="#39146E" stroke-linecap="round" stroke-linejoin="round" stroke-miterlimit="10" d="M243.3,365.9
		c0,0,115,50.5,236.3-2.2"/>
	<path fill="none" stroke="#39146E" stroke-linecap="round" stroke-linejoin="round" stroke-miterlimit="10" d="M483,309.2
		c0,0,58.5,4.6,31.6,86.3"/>
	<path fill="#39146E" d="M302.2,332c-1.1,0.6-64,20.5-63.1,35.7c1.3,22.2-14.4,38.8-17.7,36.4l0.7-44.4l56.3-34.8L302.2,332z"/>
	<path fill="#39146E" d="M575.3,268.2c0,0-42.7-21.1-65.3,5.4l-3.8-8.7l23-42.7C529.2,222.2,556.4,234.9,575.3,268.2z"/>
	<path fill="#FFFF51" stroke="#39146E" stroke-linecap="round" stroke-linejoin="round" stroke-miterlimit="10" d="M321.2,124
		c0,0-2.2-7.6-3.9-13.6c-1.7-6-8.5-75.4-8.5-75.4l52.5,32.2L381,66l-67.1-50.2c0,0-16.6-13.8-21.7-2.6c-5.1,11.2,5.3,98.4,5,106.1
		c-0.3,7.7-4.3,19.7-8.2,23.1"/>
	<path fill="#39146E" d="M366.3,55c0,0-1.4,6-19.8,2.8l8.8,6.3l21-1.2L366.3,55z"/>
	
		<line fill="#FFFFFF" stroke="#39146E" stroke-linecap="round" stroke-linejoin="round" stroke-miterlimit="10" x1="308.8" y1="35" x2="308.4" y2="27.3"/>
	
		<line fill="#FFFFFF" stroke="#39146E" stroke-linecap="round" stroke-linejoin="round" stroke-miterlimit="10" x1="312.1" y1="30.4" x2="308.8" y2="32.5"/>
	<path fill="#FFFF51" stroke="#39146E" stroke-linecap="round" stroke-linejoin="round" stroke-miterlimit="10" d="M225.6,199.7
		L173.9,180c0,0-12.5-6.7-7.8,7.2c4.7,13.9,63,119.1,63,119.1l16,2.6l-54.4-97.7c0,0-6.4-8.2,3.1-6.2c9.5,2,30.9,12.8,30.9,12.8
		L225.6,199.7z"/>
	
		<ellipse fill="#FFFF51" stroke="#39146E" stroke-linecap="round" stroke-linejoin="round" stroke-miterlimit="10" cx="377.8" cy="191.9" rx="156.9" ry="129.7"/>
	<path fill="#FFFF51" stroke="#39146E" stroke-linecap="round" stroke-linejoin="round" stroke-miterlimit="10" d="M484.5,236.1
		c0,0,3.4,2.1,14.1,1.7c6.2-0.2,75.8-3.3,75.8-3.3L535.2,188l-1.2-10.8l-1.7-9.7l60.3,58.9c0,0,16.2,14.2,6,21
		c-10.2,6.8-98,10.2-105.6,11.6c-7.5,1.5-18.8,7.4-21.6,11.8"/>
	
		<line fill="#FFFFFF" stroke="#39146E" stroke-linecap="round" stroke-linejoin="round" stroke-miterlimit="10" x1="574.3" y1="234.4" x2="582" y2="233.5"/>
	
		<line fill="#FFFFFF" stroke="#39146E" stroke-linecap="round" stroke-linejoin="round" stroke-miterlimit="10" x1="578.3" y1="230.4" x2="576.8" y2="234"/>
	<path fill="#FFFFFF" stroke="#39146E" stroke-linecap="round" stroke-linejoin="round" stroke-miterlimit="10" d="M515.6,198.6
		c0,0,5.7,15.8,0.9,27.2c-4.8,11.3-14.5,6.5-12.5-3.3c2-9.8,2.5-21.2,1.8-26.3C505.1,191,515.4,189.7,515.6,198.6z"/>
	<path fill="none" stroke="#39146E" stroke-linecap="round" stroke-linejoin="round" stroke-miterlimit="10" d="M271.6,160.8
		c-2.9,14.5,2.3,30.8,14.9,42c12.5,11.1,29,14.2,42.7,9.5"/>
	<path fill="none" stroke="#39146E" stroke-linecap="round" stroke-linejoin="round" stroke-miterlimit="10" d="M330.1,215.9
		c0,0,0.4-3.1-1.7-6.5"/>
	
		<circle fill="#FFFFFF" stroke="#39146E" stroke-linecap="round" stroke-linejoin="round" stroke-miterlimit="10" cx="506.1" cy="178.6" r="6.8"/>
	<g>
		<path fill="#39146E" d="M407.9,142.7c-1.2-1-2.4-1.9-3.5-2.8l-1-0.9c-2.3-2-4.8-3.7-7.4-5.1c-17.6-11.5-28.4-12.3-32.7-18.6
			c-19.3-28.4-38.2-44-47.2-51.9c-9-7.9-25.4-13.2-25.4-13.2l-8.2,8.7l4.5,7.5c-5,1.9-9.7,4.9-13.5,9l-6.7,7.3
			c-12.9,14-11.8,35.6,2.5,48.3l13.2,11.7c14.3,12.7,35.3,11.9,49.1-1.3c2.4-2.3,8.3-7.5,12.3-11.1c2.4-2.1,4.1-3.7,4.1-3.7l6.5,6.4
			c0,0-7.5,10.4-13.5,21.6c-8.5,16-6.7,33.3,6.5,45l13.1,11.6c14.8,13.1,37.7,12,51.1-2.5l14.4-16.5l6.2,3.8l9.7-11.9
			C441.9,184.2,431.3,161.8,407.9,142.7z"/>
		<path fill="#44D970" stroke="#39146E" stroke-linecap="round" stroke-linejoin="round" stroke-miterlimit="10" d="M407.9,139.4
			c-18.4-15.7-40.4-21.1-44.7-27.4C343.9,83.6,325,68,316,60.1c-9-7.9-22.5-12.4-22.5-12.4L284,58.4l3,4.7c-5,1.9-9.7,4.9-13.5,9
			l-6.7,7.3c-12.9,14-11.8,35.6,2.5,48.3l13.2,11.7c14.3,12.7,35.3,11.9,49.1-1.3c2.4-2.3,8.3-7.5,12.3-11.1
			c2.4-2.1,4.1-3.7,4.1-3.7l6.5,6.4c0,0-7.5,10.4-13.5,21.6c-8.5,16-6.7,33.3,6.5,45l13.1,11.6c14.8,13.1,37.7,12,51.1-2.5L426,189
			l6.2,3.8l9.7-11.9C441.9,180.9,430.9,159,407.9,139.4z"/>
		<path fill="#39146E" d="M286.9,132.7l-11.2-9.5c-12.5-10.6-13.9-28.2-3.3-39.2l5.9-6.1c10.6-11,29.4-11.4,41.8-0.8l11.2,9.5
			c12.5,10.6,13.9,28.2,3.3,39.2l-5.9,6.1C318.1,142.9,299.4,143.3,286.9,132.7z"/>
		<path fill="#FFFFFF" d="M325.6,84.5l-6.7-5.8c-5.6-4.9-12.8-7.2-19.7-6.9l-17.1,54l5.8,5c5.7,4.9,12.8,7.2,19.8,6.9L325.6,84.5z"
			/>
		<path fill="#39146E" d="M365.5,200.6l-11-9.6c-12.3-10.7-13.6-28.7-2.7-40.2l6-6.4c10.8-11.5,29.6-12.1,41.9-1.4l11,9.6
			c12.3,10.7,13.6,28.7,2.7,40.2l-6,6.4C396.6,210.7,377.8,211.3,365.5,200.6z"/>
		<path fill="#FFFFFF" d="M405,150l-6.7-5.9c-5.6-5-12.8-7.3-19.8-6.9l-18.1,56.3l5.8,5.1c5.7,5,12.9,7.3,19.9,6.9L405,150z"/>
		
			<ellipse transform="matrix(0.5397 -0.8418 0.8418 0.5397 86.7626 274.5091)" fill="#39146E" cx="294.4" cy="57.9" rx="1.9" ry="1.8"/>
		
			<ellipse transform="matrix(0.5397 -0.8418 0.8418 0.5397 47.3525 447.1133)" fill="#39146E" cx="432.6" cy="180.3" rx="1.9" ry="1.8"/>
	</g>
	<path fill="#FFFFFF" stroke="#39146E" stroke-linecap="round" stroke-linejoin="round" stroke-miterlimit="10" d="M213,280.2
		c0,0-1.8-3.4-0.9-4.9c0.7-1.1,6.5,3.4,12.2-2.7c0,0,3.7,1.5,3.5,4.4C227.1,286.1,213.2,280.1,213,280.2z"/>
	<path fill="#44D970" stroke="#39146E" stroke-linecap="round" stroke-linejoin="round" stroke-miterlimit="10" d="M212.3,278.4
		c0,0,10.5,5.1,15.6-2.8c0,0,9.7,7.8,17.8,25.1c8.1,17.3,6.8,30.7,6.8,30.7L100.3,304c0,0,0.5-23.1,30.6-26s25.8,4.9,43.2,9
		c14.8,3.5,31.1,2.5,34.7-2.3C212.2,279.9,212.3,278.4,212.3,278.4z"/>
	<path fill="#FFFFFF" stroke="#39146E" stroke-linecap="round" stroke-linejoin="round" stroke-miterlimit="10" d="M218.8,329.8
		c1.7,1.2,29.2,5.5,29.2,5.5l6.3-3.1c0,0,1.9-6.6-7.3-12.6c-9.2-6-47.9-17.5-66.4-22.3s-51.5-11.7-62.4-8.5S98.3,302,98.3,302
		l13.8,11.6L218.8,329.8z"/>
	<path fill="#39146E" d="M98.7,306.7c-0.1,1.1,4.9,22.7,37.4,25s63.9-3.1,74.4,5.4s26.3,11.4,35.9,5.7c9.6-5.7,7.2-12-2.3-18.7
		c-9.5-6.7-73.4-24.2-88.6-26S100.2,289,98.7,306.7z"/>
	<path fill="#FFFF51" stroke="#39146E" stroke-linecap="round" stroke-linejoin="round" stroke-miterlimit="10" d="M319.7,281
		c0,0,0.4,14.8-23.2,24.4s-87.3,52.8-87.3,52.8l3.2,9.6c0,0,76.5-45.6,91.7-51.6s30-9.6,40.8-9.6"/>
	<path fill="#FFFFFF" stroke="#39146E" stroke-linecap="round" stroke-linejoin="round" stroke-miterlimit="10" d="M217.8,350.6
		l5.1-2.3l7.2,10l-2.6,4.3C227.5,362.6,215.9,357.8,217.8,350.6z"/>
	<path fill="#44D970" stroke="#39146E" stroke-linecap="round" stroke-linejoin="round" stroke-miterlimit="10" d="M218.5,350
		c0,0,1.2,7.1,10.1,11.1c0,0,1.8,12-4.9,32.4c-6.7,20.4-18.1,30.5-18.1,30.5L101.7,283.9c0,0,23.7-17.7,49.3,1.4
		c20.1,15,15.3,27,24.4,41.5c9.1,14.5,23.9,26.9,30.2,24.9C212.2,349.7,218.5,350,218.5,350z"/>
	<path fill="#FFFFFF" stroke="#39146E" stroke-linecap="round" stroke-linejoin="round" stroke-miterlimit="10" d="M179.1,396.6
		c0.5,2.3,19.7,27.1,19.7,27.1l2.1,4.7c0,0,12.2-4.1,9.2-18.5c-2.5-12.1-25.8-51.4-37.3-69.7s-27.3-42.7-45.8-53.6
		c-19.7-11.6-26.4-2.5-26.4-2.5l3.5,16.7L179.1,396.6z"/>
	<path fill="#39146E" d="M98.3,284.9c-5.1,4.2-13.6,22.4,11.5,49.4c25.1,27,54.9,46.8,56.9,61.9s12.8,29.7,25.1,32.4s15-7,12.5-17.1
		c-4.9-20.2-41.6-76.6-52.7-89.8S113.8,272.2,98.3,284.9z"/>
	<path fill="#39146E" d="M215.9,196.5c0,0,3.5,9-9,13.2l16.1,5.7l-1.8-18.1L215.9,196.5z"/>
	<path fill="#44D970" stroke="#39146E" stroke-linecap="round" stroke-linejoin="round" stroke-miterlimit="10" d="M240.3,240.3
		c0,0,14.8,2.6,20.6,9.2c5.8,6.6-9.7,22.9-16.6,18c-6.6-4.7-10-19.4-10-19.4L240.3,240.3z"/>
	<path fill="#44D970" stroke="#39146E" stroke-linecap="round" stroke-linejoin="round" stroke-miterlimit="10" d="M225.4,240
		c0,0-13.6-4.3-18.9-11.4s10.9-21.1,17-15.1c7,6.9,8.3,19,8.3,19L225.4,240z"/>
	
		<ellipse transform="matrix(0.7884 -0.6152 0.6152 0.7884 -99.0148 193.8805)" fill="#44D970" stroke="#39146E" stroke-linecap="round" stroke-linejoin="round" stroke-miterlimit="10" cx="232.3" cy="240.9" rx="8.5" ry="8.9"/>
	<path fill="#39146E" d="M541.6,177.2c0,0-6.3,8-0.6,17.7l-6.3-6.8l-1.4-15.6l-0.9-4.7L541.6,177.2z"/>
	<path fill="#FFFFFF" stroke="#39146E" stroke-linecap="round" stroke-linejoin="round" stroke-miterlimit="10" d="M136.5,284.3
		c0,0-0.3,1,5.2,3.9c4.9,2.6,6.2,6,9.5,5.2c2.7-0.7-5.4-7.4-9.3-9.4C138.5,282.3,136.2,282.7,136.5,284.3z"/>
	<path fill="#39146E" d="M396,60.2c0,0-0.7,15.9,18.3,32.8c17,15.2,30.8,20.8,30.8,20.8l-28.9-6.8c0,0,38.3,65.9,105.2,32.2
		L396,60.2z"/>
	<path fill="#44D970" stroke="#39146E" stroke-linecap="round" stroke-linejoin="round" stroke-miterlimit="10" d="M523.4,138.7
		c0,0-66.2,24.1-110-33l32.7-3.4c0,0-49.2-16.2-53.4-48.3C392.6,54,497.5,48.3,523.4,138.7z"/>
</g>
</svg>
