<svg width="313" height="327" viewBox="0 0 313 327" fill="none" xmlns="http://www.w3.org/2000/svg">
<path d="M149.5 326.6C232.011 326.6 298.9 315.541 298.9 301.9C298.9 288.258 232.011 277.2 149.5 277.2C66.9883 277.2 0.0996094 288.258 0.0996094 301.9C0.0996094 315.541 66.9883 326.6 149.5 326.6Z" fill="#39146E"/>
<path d="M259.599 281.5C260.199 282.4 264.799 293.4 260.499 299.8C254.899 308.1 236.599 315.7 214.399 312C191.099 308.2 175.399 299.4 175.099 294.1C174.799 288.8 176.599 281.8 176.599 281.8L259.599 281.5Z" fill="white" stroke="#39146E" stroke-miterlimit="10" stroke-linecap="round" stroke-linejoin="round"/>
<path d="M216.4 271.8C216.4 271.8 235.3 259.1 251 267.4C263.5 274 263.6 291.2 254.8 297.6C246 304 227.7 307.5 201.7 301.4C180.6 296.5 174.5 290.4 175 283.8C176.2 268.3 186.7 268.3 186.7 268.3L216.4 271.8Z" fill="#44D970" stroke="#39146E" stroke-miterlimit="10" stroke-linecap="round" stroke-linejoin="round"/>
<path d="M213.899 265.5C215.399 266.3 219.999 269.4 215.699 274.6C210.599 280.6 198.899 281.2 190.899 277.4C182.999 273.6 186.299 267.3 190.999 264.7C195.699 262 205.999 261.4 213.899 265.5Z" fill="white" stroke="#39146E" stroke-miterlimit="10" stroke-linecap="round" stroke-linejoin="round"/>
<path d="M214.799 225.3C215.599 232.1 216.999 258.4 210.199 270.8C209.799 271.4 209.199 271.9 208.499 272C206.199 272.5 200.599 273.2 196.299 269.7C195.499 269 195.199 267.9 195.499 266.9C197.099 262.8 200.899 250.5 196.599 234.3C192.099 217.4 208.099 221.6 212.999 223.2C214.099 223.5 214.699 224.3 214.799 225.3Z" fill="#FFFF51" stroke="#39146E" stroke-miterlimit="10" stroke-linecap="round" stroke-linejoin="round"/>
<path d="M205.899 283.3C205.899 283.3 210.199 268.6 233.699 265L205.899 283.3Z" fill="#44D970"/>
<path d="M205.899 283.3C205.899 283.3 210.199 268.6 233.699 265" stroke="#39146E" stroke-miterlimit="10" stroke-linecap="round" stroke-linejoin="round"/>
<path d="M85.899 288.2C85.299 289.1 81.099 293.1 84.099 300.2C88.099 309.5 108.099 319.3 130.699 312.5C153.299 305.8 169.699 299.9 169.999 294.6C170.299 289.3 168.499 282.3 168.499 282.3L85.899 288.2Z" fill="white" stroke="#39146E" stroke-miterlimit="10" stroke-linecap="round" stroke-linejoin="round"/>
<path d="M128.699 272.3C128.699 272.3 106.399 260.9 94.0994 267.9C81.7994 274.9 81.4995 291.7 90.2995 298.1C99.0995 304.6 117.299 309.2 143.399 301.9C164.299 296.1 169.899 290.9 170.099 284.3C170.599 270 158.399 268.8 158.399 268.8L128.699 272.3Z" fill="#44D970" stroke="#39146E" stroke-miterlimit="10" stroke-linecap="round" stroke-linejoin="round"/>
<path d="M135.499 265.5C130.399 266.5 123.199 269.1 128.599 274.8C132.699 279.1 145.699 281.2 153.599 277.4C161.499 273.6 160.299 269.1 157.099 266.9C152.599 263.8 144.199 263.8 135.499 265.5Z" fill="white" stroke="#39146E" stroke-miterlimit="10" stroke-linecap="round" stroke-linejoin="round"/>
<path d="M130 226.9C128.8 234.8 126.7 257.4 134.2 270C134.8 271 135.8 271.8 137 272.1C139.3 272.7 143.4 273.3 146.7 271.6C148.6 270.6 149.4 268.4 148.8 266.3C147.2 261.4 144.4 249.8 148.4 234.8C152.6 219 139 221.6 133.1 223.4C131.4 223.9 130.2 225.2 130 226.9Z" fill="#FFFF51" stroke="#39146E" stroke-miterlimit="10" stroke-linecap="round" stroke-linejoin="round"/>
<path d="M128.299 243.8L128.599 246.9C128.599 246.9 142.699 247.1 146.099 256.8L145.999 243L128.299 243.8Z" fill="#39146E"/>
<path d="M215.9 245.1L215.6 249C215.6 249 201.5 249.3 198.1 261.3L198.2 244.2L215.9 245.1Z" fill="#39146E"/>
<path d="M267.3 113.4C267.3 113.4 285.4 100.8 285.8 85.0999C286.3 65.0999 265.6 58.9998 265.6 58.9998C265.6 58.9998 235.5 14.6999 182.5 10.0999C129.5 5.59986 88.5997 59.3997 88.5997 59.3997C88.5997 59.3997 63.2997 71.3 67.1997 93.7C69.7997 108.6 87.0997 117.4 87.0997 117.4C87.0997 117.4 101.2 162.4 178.2 164.5C212.5 165.5 248.2 153.9 267.3 113.4Z" fill="#FFFF51" stroke="#39146E" stroke-miterlimit="10" stroke-linecap="round" stroke-linejoin="round"/>
<path d="M151.757 86.1432C163.294 85.7871 172.428 78.4283 172.159 69.7065C171.89 60.9848 162.319 54.2033 150.782 54.5594C139.245 54.9154 130.111 62.2743 130.38 70.996C130.649 79.7177 140.22 86.4993 151.757 86.1432Z" fill="white" stroke="#39146E" stroke-miterlimit="10" stroke-linecap="round" stroke-linejoin="round"/>
<path d="M197.756 86.6402C209.293 86.2842 218.427 78.9254 218.158 70.2036C217.889 61.4819 208.318 54.7004 196.781 55.0564C185.244 55.4125 176.11 62.7713 176.379 71.4931C176.648 80.2148 186.219 86.9963 197.756 86.6402Z" fill="white" stroke="#39146E" stroke-miterlimit="10" stroke-linecap="round" stroke-linejoin="round"/>
<path d="M151.986 51.0702C156.477 50.4846 160.002 49.122 159.859 48.0267C159.716 46.9314 155.96 46.5182 151.469 47.1038C146.978 47.6894 143.454 49.052 143.596 50.1473C143.739 51.2426 147.496 51.6558 151.986 51.0702Z" fill="#39146E"/>
<path d="M209.078 51.5916C209.332 50.5168 205.966 48.7995 201.559 47.7561C197.152 46.7127 193.373 46.7382 193.119 47.8131C192.865 48.8879 196.23 50.6051 200.637 51.6485C205.044 52.6919 208.823 52.6665 209.078 51.5916Z" fill="#39146E"/>
<path d="M145.399 69.6003C139.599 70.4003 134.599 72.7002 131.199 76.0002C133.199 81.8002 140.399 86.4 149.299 86.8C156.799 87.1 163.599 84.5 167.399 80.3C165.499 72.8 156.099 68.2003 145.399 69.6003Z" fill="#39146E"/>
<path d="M191.899 69.6003C186.099 70.4003 181.099 72.7002 177.699 76.0002C179.699 81.8002 186.899 86.4 195.799 86.8C203.299 87.1 210.099 84.5 213.899 80.3C211.999 72.8 202.599 68.2003 191.899 69.6003Z" fill="#39146E"/>
<path d="M144.599 86.2002C145.299 88.2002 144.399 90.3 142.499 91C141.599 91.3 140.499 91.2999 139.699 90.8999" stroke="#39146E" stroke-miterlimit="10" stroke-linecap="round" stroke-linejoin="round"/>
<path d="M219.799 87.2998C214.399 95.2998 206.599 101.8 196.899 105.3C177.499 112.4 156.199 106 142.899 90.7998" stroke="#39146E" stroke-miterlimit="10" stroke-linecap="round" stroke-linejoin="round"/>
<path d="M102.299 82.2002C102.799 80.5002 103.299 78.7001 103.799 77.1001" stroke="white" stroke-miterlimit="10" stroke-linecap="round"/>
<path d="M123.499 27.1001C123.499 27.1001 136.199 39.1 158.399 36C180.599 32.9 170.799 21.7002 170.799 21.7002L123.499 27.1001Z" fill="#39146E"/>
<path d="M216.1 18.7997C216.1 18.7997 200.7 39.3999 151.8 39.0999L157.7 28.4998C157.7 28.4998 134.6 32.7997 114.1 23.3997C114.1 23.2997 174.4 -23.6003 216.1 18.7997Z" fill="#44D970" stroke="#39146E" stroke-miterlimit="10" stroke-linecap="round" stroke-linejoin="round"/>
<path d="M310.499 81.2002H36.1992V244.7H310.499V81.2002Z" fill="#44D970" stroke="#39146E" stroke-miterlimit="10" stroke-linecap="round" stroke-linejoin="round"/>
<path d="M54.4387 229V171.176H87.3022V184.957H69.0875V194.402H79.0141V204.81H69.0875V229H54.4387Z" fill="#39146E"/>
<path d="M116.005 200.473V199.799C123.04 198.546 127.955 193.92 127.955 185.728C127.955 178.114 123.04 171.176 112.246 171.176H90.3694V229H105.018V206.545H107.428C110.704 206.545 112.439 207.99 112.439 211.267V229H127.088V214.64C127.088 204.521 122.558 201.533 116.005 200.473ZM108.68 194.691H105.018V184.957H108.102C111.379 184.957 113.114 186.403 113.114 189.679C113.114 192.763 111.957 194.691 108.68 194.691Z" fill="#39146E"/>
<path d="M132.446 229V171.176H147.095V229H132.446Z" fill="#39146E"/>
<path d="M155.304 229V171.176H188.167V184.957H169.953V194.402H179.879V204.81H169.953V215.219H188.167V229H155.304Z" fill="#39146E"/>
<path d="M213.291 171.176V195.558L204.907 171.176H193.053V229H205.485V202.883L214.448 229H225.724V171.176H213.291Z" fill="#39146E"/>
<path d="M250.124 171.176H232.102V229H250.124C263.52 229 268.82 220.712 268.82 200.088C268.82 179.849 263.52 171.176 250.124 171.176ZM253.882 207.894C253.882 212.809 252.533 215.219 248.871 215.219H246.751V184.957H248.871C252.533 184.957 253.882 187.366 253.882 192.281V207.894Z" fill="#39146E"/>
<path d="M288.802 229.482C281.092 229.482 275.598 225.723 271.165 219.844L279.453 211.364L281.766 213.58C283.983 215.797 285.718 216.471 288.32 216.471C290.536 216.471 292.367 215.219 292.367 213.002C292.367 210.882 291.5 209.822 288.802 207.798L281.188 202.304C275.984 198.546 271.743 193.727 271.743 186.885C271.743 177.344 279.357 170.694 288.512 170.694C296.126 170.694 300.656 174.549 304.511 179.175L305.956 180.909L297.764 188.619L293.909 184.957C292.656 183.704 291.404 183.03 289.573 183.03C287.645 183.03 286.199 184.379 286.199 186.21C286.199 188.427 287.26 189.487 289.862 191.318L296.993 196.426C302.872 200.57 307.209 205.292 307.209 212.809C307.209 223.796 299.21 229.482 288.802 229.482Z" fill="#39146E"/>
<path d="M211.937 115.354H202.705L197.222 128.265L191.808 115.354H180.772L190.836 136.733V157H201.387V137.427L211.937 115.354Z" fill="#39146E"/>
<path d="M224.05 115.007C214.749 115.007 210.585 120.977 210.585 136.177C210.585 151.1 214.749 157.347 224.05 157.347C233.698 157.347 237.515 151.378 237.515 136.177C237.515 121.254 233.698 115.007 224.05 115.007ZM226.757 142.632C226.757 146.172 226.132 147.907 224.05 147.907C221.968 147.907 221.343 146.172 221.343 142.632V129.722C221.343 126.182 221.968 124.447 224.05 124.447C226.132 124.447 226.757 126.182 226.757 129.722V142.632Z" fill="#39146E"/>
<path d="M257.252 115.354V144.368C257.252 146.103 256.35 147.213 254.615 147.213C252.532 147.213 251.699 146.103 251.699 144.368V115.354H241.149V145.062C241.149 153.668 246.841 157.347 253.92 157.347C260.931 157.347 266.206 153.391 266.206 145.339V115.354H257.252Z" fill="#39146E"/>
<path d="M289.266 136.455V135.969C294.333 135.067 297.873 131.735 297.873 125.835C297.873 120.352 294.333 115.354 286.559 115.354H270.803V157H281.354V140.828H283.089C285.449 140.828 286.698 141.869 286.698 144.229V157H297.248V146.658C297.248 139.37 293.986 137.218 289.266 136.455ZM283.991 132.29H281.354V125.28H283.575C285.935 125.28 287.184 126.321 287.184 128.681C287.184 130.902 286.351 132.29 283.991 132.29Z" fill="#39146E"/>
<path d="M71.506 153.788L69.3807 152.911C69.0521 152.744 68.8574 152.533 68.7964 152.28C68.7355 152.028 68.9816 151.042 69.5348 149.324C69.9383 148.095 70.4693 146.413 71.1279 144.278C71.806 142.139 72.3401 140.384 72.7302 139.014C73.1203 137.644 73.5672 135.87 74.0709 133.69C74.5894 131.486 75.032 129.352 75.3989 127.288C76.2495 122.535 76.5318 119.565 76.2459 118.378C75.9083 116.978 75.1949 116.409 74.1057 116.672C73.2888 116.868 72.2226 117.568 70.907 118.77C69.6062 119.948 68.3104 121.403 67.0195 123.134C65.7286 124.865 64.7241 126.589 64.0059 128.306C63.2877 130.023 63.0623 131.435 63.3295 132.544C63.3717 132.719 63.4531 132.844 63.5738 132.917C63.6898 132.972 63.8742 132.969 64.1271 132.908C64.5939 132.795 65.2868 132.34 66.2059 131.542C66.6164 131.196 66.8592 131.179 66.9342 131.49C67.0092 131.801 66.4647 132.786 65.3006 134.446C64.1317 136.086 63.1972 136.991 62.497 137.159C61.894 137.305 60.9237 136.993 59.586 136.225C58.2631 135.433 57.4985 134.608 57.2922 133.753C57.2125 133.422 57.3241 132.562 57.6271 131.171C57.93 129.781 58.4191 128.181 59.0944 126.372C59.7649 124.543 60.5454 122.915 61.4359 121.486C62.4545 119.82 63.693 118.256 65.1515 116.793C66.6294 115.325 68.0858 114.11 69.5206 113.146C70.9749 112.178 72.1883 111.577 73.1609 111.342C74.5613 111.005 75.7794 111.277 76.8153 112.159C77.8659 113.017 78.621 114.4 79.0804 116.306C79.6898 118.834 79.5792 122.73 78.7486 127.993C77.9179 133.257 76.2143 139.594 73.6379 147.007C73.7432 147.188 73.8628 147.385 73.9969 147.6C74.1262 147.795 74.2144 147.99 74.2612 148.185C74.2706 148.223 74.2602 148.308 74.23 148.439C74.1951 148.55 74.1528 148.674 74.1031 148.809C74.0534 148.945 74.0235 149.034 74.0135 149.078L72.7275 153.092C72.5926 153.557 72.3986 153.82 72.1458 153.881C71.9124 153.937 71.6991 153.906 71.506 153.788Z" fill="white"/>
<path d="M99.8558 130.747C97.3514 135.384 96.2797 138.452 96.6407 139.95C96.8422 140.786 97.2834 141.122 97.9642 140.958C98.5282 140.822 99.1873 140.355 99.9414 139.555C100.71 138.732 101.875 137.33 103.435 135.348L103.92 137.361C101.814 140.75 100.168 143.226 98.98 144.788C97.7924 146.351 96.7318 147.244 95.7982 147.469C94.2032 147.854 93.1526 146.996 92.6463 144.895C92.4963 144.273 92.4459 143.637 92.495 142.987C92.5442 142.337 92.6568 141.651 92.8327 140.93C93.0234 140.184 93.3236 139.124 93.7331 137.749C94.138 136.355 94.6123 134.779 95.1561 133.022C94.1834 133.853 93.0623 135.307 91.7927 137.383C90.9566 138.696 90.2742 139.92 89.7453 141.056C89.2118 142.173 88.648 143.42 88.0541 144.798C87.4748 146.152 87.0302 147.083 86.7202 147.59C86.425 148.072 86.0731 148.363 85.6647 148.461C85.0422 148.612 84.3114 148.098 83.4721 146.922C82.6329 145.745 82.0046 144.291 81.5874 142.56C81.3295 141.49 81.2447 140.626 81.3327 139.967C81.4403 139.303 81.7202 138.33 82.1727 137.047C83.0178 134.662 83.8118 132.876 84.5546 131.688C85.2927 130.481 86.1091 129.77 87.0039 129.554C87.6263 129.404 88.148 129.391 88.5692 129.516C89.0097 129.636 89.2839 129.92 89.3918 130.368C89.4387 130.562 89.4295 130.78 89.3644 131.023C89.2993 131.265 89.21 131.492 89.0966 131.704C89.0026 131.912 88.7832 132.325 88.4383 132.944C86.1855 137.088 85.181 139.667 85.4248 140.678C85.5608 141.242 85.8135 141.48 86.1831 141.39C86.4165 141.334 86.7748 140.857 87.2579 139.958C87.7559 139.036 88.3847 137.845 89.1443 136.385C89.9187 134.902 90.8662 133.326 91.9868 131.656C93.1267 129.982 94.473 128.309 96.0254 126.638C96.8828 125.67 97.6519 125.104 98.3327 124.94C98.6439 124.865 99.0485 125.22 99.5465 126.005C100.064 126.786 100.428 127.614 100.639 128.49C100.742 128.917 100.481 129.67 99.8558 130.747Z" fill="white"/>
<path d="M106.527 134.789L106.592 137.366C106.59 137.696 106.635 138.055 106.729 138.445C106.982 139.495 107.546 139.915 108.422 139.703C109.258 139.502 110.897 137.378 113.338 133.332C113.053 132.063 113.168 130.492 113.683 128.618C114.219 126.739 114.89 125.044 115.699 123.532C116.527 122.015 117.214 121.191 117.758 121.06C118.614 120.854 119.178 121.315 119.45 122.443C119.614 123.123 119.65 124 119.558 125.071C119.462 126.124 119.231 127.301 118.866 128.603C118.496 129.886 117.99 131.243 117.347 132.674C118.044 133.432 118.646 133.75 119.151 133.628C119.579 133.525 120.011 133.267 120.446 132.853C120.896 132.415 121.435 131.791 122.063 130.981L122.535 132.936C121.652 134.055 120.927 134.847 120.36 135.313C119.812 135.774 119.043 136.124 118.051 136.363C117.662 136.457 116.898 136.363 115.76 136.082C114.283 138.661 113.048 140.626 112.056 141.976C111.06 143.307 110.173 144.066 109.395 144.254C108.053 144.577 106.713 144.057 105.375 142.691C104.053 141.302 103.159 139.645 102.695 137.719C102.072 135.132 102.783 131.678 104.828 127.357C105.441 126.057 105.963 125.149 106.394 124.633C106.841 124.093 107.404 123.741 108.085 123.577C108.668 123.437 109.248 123.41 109.825 123.497C110.402 123.585 110.725 123.774 110.796 124.066C111.03 125.038 110.723 126.625 109.875 128.826C109.022 131.007 107.906 132.995 106.527 134.789Z" fill="white"/>
<path d="M130.295 115.197C129.808 115.315 129.297 115.242 128.761 114.981C128.244 114.714 127.917 114.299 127.781 113.735C127.575 112.879 127.754 111.828 128.317 110.58C128.881 109.333 129.601 108.604 130.476 108.393C131.059 108.252 131.59 108.32 132.068 108.596C132.542 108.852 132.86 109.32 133.025 110.001C133.226 110.838 133.05 111.858 132.496 113.061C131.943 114.265 131.209 114.977 130.295 115.197ZM135.422 127.761L135.935 129.891C134.635 132.777 133.317 135.039 131.984 136.678C130.645 138.297 129.402 139.245 128.254 139.522C126.66 139.906 125.271 139.356 124.09 137.871C122.909 136.386 122.079 134.651 121.601 132.667C121.418 131.909 121.323 131.17 121.314 130.452C121.301 129.714 121.348 129.096 121.454 128.597C121.56 128.098 121.79 127.302 122.144 126.208C123.869 121.243 125.88 118.484 128.175 117.931C129.362 117.645 130.065 117.959 130.285 118.873C130.435 119.496 130.281 120.562 129.822 122.072C129.382 123.578 128.928 124.685 128.461 125.395C127.163 127.437 126.329 128.842 125.958 129.61C125.607 130.374 125.53 131.164 125.727 131.981C125.896 132.681 126.299 133.202 126.937 133.542C127.574 133.882 128.311 133.951 129.148 133.75C130.062 133.529 130.984 132.957 131.914 132.033C132.858 131.085 134.028 129.661 135.422 127.761Z" fill="white"/>
<path d="M141.376 110.304L142.63 110.001C143.216 107.905 143.835 106.377 144.489 105.416C145.137 104.437 145.997 103.818 147.067 103.56C148.136 103.302 148.73 103.416 148.847 103.903C148.903 104.136 148.637 104.869 148.05 106.102C147.462 107.334 147.038 108.352 146.779 109.155C147.459 109.074 148.059 109.001 148.579 108.938C149.118 108.869 149.538 108.819 149.839 108.788C149.228 111.117 148.346 113.563 147.193 116.125C146.639 116.217 146.175 116.298 145.801 116.368C145.422 116.418 145.036 116.481 144.642 116.555C144.263 116.605 143.796 116.676 143.242 116.769C142.6 118.714 142.081 120.445 141.685 121.96C141.303 123.452 141.051 124.799 140.93 126.001C140.827 127.199 140.896 128.294 141.135 129.286C141.458 130.628 142.155 131.17 143.225 130.912C143.964 130.734 144.833 130.113 145.832 129.049C146.846 127.961 148.157 126.358 149.767 124.241L150.238 126.196C146.36 133.161 143.166 136.946 140.657 137.551C139.782 137.762 138.99 137.593 138.281 137.043C137.592 136.489 137.119 135.677 136.861 134.607C136.687 133.888 136.627 132.997 136.679 131.934C136.752 130.867 136.935 129.238 137.23 127.047C137.014 127.346 136.808 127.643 136.611 127.938C136.43 128.208 136.255 128.466 136.088 128.712C135.936 128.934 135.769 129.18 135.587 129.45C135.4 129.701 135.216 129.962 135.034 130.232L134.549 128.219C136.179 126.015 137.925 122.414 139.787 117.417C139.49 117.468 139.216 117.523 138.963 117.584C138.705 117.626 138.401 117.689 138.051 117.773C136.904 118.05 136.067 118.334 135.54 118.626C135.321 118.74 135.114 118.862 134.918 118.992C134.738 119.097 134.609 119.159 134.531 119.178C134.453 119.196 134.4 119.147 134.372 119.031C134.217 118.389 134.384 117.33 134.872 115.854C135.251 114.61 135.66 113.657 136.097 112.996C136.554 112.33 137.17 111.812 137.945 111.44C138.734 111.043 139.878 110.665 141.376 110.304Z" fill="white"/>
<path d="M154.235 124.337L154.411 125.067C154.688 126.214 155.185 127.041 155.904 127.547C156.623 128.053 157.439 128.196 158.353 127.975C159.306 127.745 160.235 127.285 161.138 126.594C162.061 125.898 162.94 125.058 163.773 124.076C164.606 123.093 165.602 121.803 166.761 120.206L167.19 121.986C165.63 125.161 164.058 127.691 162.474 129.575C160.886 131.44 159.1 132.611 157.116 133.089C155.385 133.507 153.852 133.166 152.517 132.068C151.182 130.97 150.234 129.254 149.671 126.92C149.179 124.877 149.21 122.914 149.765 121.031C150.315 119.129 151.446 116.993 153.16 114.625C154.333 113.004 155.572 111.697 156.876 110.704C158.18 109.71 159.406 109.075 160.554 108.798C161.468 108.578 162.239 108.619 162.867 108.92C163.511 109.197 163.933 109.754 164.134 110.59C164.43 111.816 164.268 113.151 163.649 114.597C163.026 116.023 161.916 117.567 160.32 119.228C158.739 120.864 156.71 122.568 154.235 124.337ZM154.07 122.371C155.656 121.268 156.95 120.061 157.951 118.749C158.952 117.438 159.634 116.254 159.997 115.2C160.375 114.121 160.513 113.367 160.41 112.939C160.302 112.492 160.044 112.317 159.635 112.416C159.285 112.5 158.765 112.862 158.076 113.502C157.405 114.137 156.748 114.913 156.105 115.829C155.481 116.741 154.965 117.761 154.558 118.888C154.15 120.015 153.988 121.176 154.07 122.371Z" fill="white"/>
<path d="M80.8841 164.412C79.4841 164.412 78.1842 163.412 77.7842 162.012C77.3842 160.312 78.3841 158.612 80.0841 158.212C80.5841 158.112 125.684 147.212 162.184 147.912C163.884 147.912 165.284 149.412 165.284 151.112C165.284 152.812 163.884 154.212 162.084 154.212C162.084 154.212 162.084 154.212 161.984 154.212C126.284 153.612 81.8841 164.312 81.4841 164.412C81.3841 164.412 81.1841 164.412 80.8841 164.412Z" fill="white"/>
<path d="M125.9 81.5999L119.1 86.4998C119.1 86.4998 117.6 96.1998 109.6 95.8998C106.5 95.7998 106.3 95.2 106.3 95.2C106.3 95.2 98.3997 99.7999 93.8997 94.0999C92.4997 92.2999 90.4997 85.9998 93.8997 84.3998C103.2 79.7998 125.9 81.5999 125.9 81.5999Z" fill="#39146E"/>
<path d="M218.199 81.4998L224.999 86.3998C224.999 86.3998 226.499 96.0997 234.499 95.7997C237.599 95.6997 237.799 95.0999 237.799 95.0999C237.799 95.0999 245.699 99.6998 250.199 93.9998C251.599 92.1998 253.599 85.8997 250.199 84.2997C240.899 79.6997 218.199 81.4998 218.199 81.4998Z" fill="#39146E"/>
<path d="M125.3 81.1001C125.3 81.1001 123.3 62.2999 108.4 68.7999C108.4 68.7999 102.1 62.8001 96.2999 70.6001C96.2999 70.6001 91.9998 67.5 87.6998 70.4C82.7998 73.7 79.8998 82.1001 82.9998 89.1001C85.8998 95.8001 93.1998 91.9 93.1998 91.9C93.1998 91.9 99.2998 100 106.9 91.2002C106.9 91.2002 116.9 93.7 118 81.4L125.3 81.1001Z" fill="white" stroke="#39146E" stroke-miterlimit="10" stroke-linecap="round" stroke-linejoin="round"/>
<path d="M117.599 75.7998C117.599 75.7998 118.699 79.6001 117.199 84.6001L117.599 75.7998Z" fill="white"/>
<path d="M117.599 75.7998C117.599 75.7998 118.699 79.6001 117.199 84.6001" stroke="#39146E" stroke-miterlimit="10" stroke-linecap="round" stroke-linejoin="round"/>
<path d="M108.399 68.8999C108.399 68.8999 104.599 72.5002 103.199 78.2002C101.399 85.6002 103.799 91.0998 107.599 91.2998" stroke="#39146E" stroke-miterlimit="10" stroke-linecap="round" stroke-linejoin="round"/>
<path d="M96.2991 70.6001C96.2991 70.6001 93.299 73.5998 91.699 78.7998C89.999 84.4998 92.099 90.1999 93.199 91.8999" fill="white"/>
<path d="M96.2991 70.6001C96.2991 70.6001 93.299 73.5998 91.699 78.7998C89.999 84.4998 92.099 90.1999 93.199 91.8999" stroke="#39146E" stroke-miterlimit="10" stroke-linecap="round" stroke-linejoin="round"/>
<path d="M218.799 81.1001C218.799 81.1001 220.799 62.3 235.599 68.9C235.599 68.9 241.899 62.9002 247.699 70.7002C247.699 70.7002 251.999 67.6001 256.299 70.5001C261.199 73.8001 264.099 82.2002 260.999 89.2002C258.099 95.9002 250.799 92.0001 250.799 92.0001C250.799 92.0001 243.099 98.6999 237.099 91.2999C237.099 91.2999 227.099 93.6002 225.999 81.2002L218.799 81.1001Z" fill="white" stroke="#39146E" stroke-miterlimit="10" stroke-linecap="round" stroke-linejoin="round"/>
<path d="M226.699 75.5C226.699 75.5 225.499 80.4999 226.599 83.8999L226.699 75.5Z" fill="white"/>
<path d="M226.699 75.5C226.699 75.5 225.499 80.4999 226.599 83.8999" stroke="#39146E" stroke-miterlimit="10" stroke-linecap="round" stroke-linejoin="round"/>
<path d="M235.6 68.8999C235.6 68.8999 239.4 72.5002 240.8 78.2002C242.6 85.6002 240.2 91.0998 236.4 91.2998" stroke="#39146E" stroke-miterlimit="10" stroke-linecap="round" stroke-linejoin="round"/>
<path d="M247.699 70.6001C247.699 70.6001 250.699 73.5998 252.299 78.7998C253.999 84.4998 251.899 90.1999 250.799 91.8999" fill="white"/>
<path d="M247.699 70.6001C247.699 70.6001 250.699 73.5998 252.299 78.7998C253.999 84.4998 251.899 90.1999 250.799 91.8999" stroke="#39146E" stroke-miterlimit="10" stroke-linecap="round" stroke-linejoin="round"/>
<path d="M86.0996 64C86.0996 64 90.9996 55.8998 94.9996 51.7998L86.0996 64Z" fill="#FFFF51"/>
<path d="M86.0996 64C86.0996 64 90.9996 55.8998 94.9996 51.7998" stroke="#39146E" stroke-miterlimit="10" stroke-linecap="round" stroke-linejoin="round"/>
<path d="M268.799 64.7998C268.799 64.7998 264.599 57.4002 262.299 54.7002L268.799 64.7998Z" fill="#FFFF51"/>
<path d="M268.799 64.7998C268.799 64.7998 264.599 57.4002 262.299 54.7002" stroke="#39146E" stroke-miterlimit="10" stroke-linecap="round" stroke-linejoin="round"/>
<path d="M231.899 39.9999C233.499 38.0999 238.699 39.7998 243.499 43.8998C248.299 47.9998 250.799 52.7997 249.199 54.7997C247.599 56.6997 243.599 53.5999 238.799 49.4999C234.099 45.2999 230.299 41.8999 231.899 39.9999Z" fill="white" stroke="#39146E" stroke-miterlimit="10" stroke-linecap="round" stroke-linejoin="round"/>
<path d="M230.749 38.1416C232.105 36.3283 231.34 33.4637 229.041 31.7434C226.741 30.0232 223.777 30.0987 222.421 31.9121C221.064 33.7254 221.829 36.5897 224.129 38.3099C226.429 40.0302 229.393 39.9549 230.749 38.1416Z" fill="white" stroke="#39146E" stroke-miterlimit="10" stroke-linecap="round" stroke-linejoin="round"/>
<path d="M219.499 274.7C218.999 272.8 222.899 270.5 228.099 269.5C233.299 268.5 238.099 269.4 238.599 271.3C239.099 273.2 234.899 274.1 229.599 275C224.299 275.9 220.099 276.6 219.499 274.7Z" fill="white" stroke="#39146E" stroke-miterlimit="10" stroke-linecap="round" stroke-linejoin="round"/>
<path d="M92.0996 275.9C91.5996 274 93.4995 272.2 96.1995 271.8C98.8995 271.4 101.5 272.6 102 274.5C102.5 276.4 100.3 276.8 97.5996 277.2C94.8996 277.6 92.4996 277.8 92.0996 275.9Z" fill="white" stroke="#39146E" stroke-miterlimit="10" stroke-linecap="round" stroke-linejoin="round"/>
<path d="M243.539 272.972C245.304 272.896 246.689 271.76 246.632 270.436C246.575 269.112 245.098 268.1 243.332 268.176C241.566 268.252 240.181 269.387 240.238 270.712C240.295 272.036 241.773 273.048 243.539 272.972Z" fill="white" stroke="#39146E" stroke-miterlimit="10" stroke-linecap="round" stroke-linejoin="round"/>
</svg>
