<svg width="46" height="46" viewBox="0 0 46 46" fill="none" xmlns="http://www.w3.org/2000/svg">
<g clip-path="url(#clip0_1_3788)">
<path d="M23 46C35.7025 46 46 35.7025 46 23C46 10.2975 35.7025 0 23 0C10.2975 0 0 10.2975 0 23C0 35.7025 10.2975 46 23 46Z" fill="#44D970"/>
<path d="M22.1197 35.24C20.0079 35.2624 17.9077 34.9242 15.9097 34.24C14.509 33.7621 13.2002 33.0484 12.0397 32.1299C10.9829 31.3259 10.113 30.3024 9.4897 29.1299C9.45843 29.0583 9.40131 29.0012 9.32972 28.97C9.32972 28.97 6.45973 27.84 5.76973 25.5C5.56173 24.7512 5.53668 23.9632 5.69679 23.2026C5.8569 22.4421 6.19745 21.7313 6.68971 21.1299C7.17328 20.4728 7.75704 19.8958 8.41969 19.4199C8.46052 19.3908 8.49466 19.3535 8.51973 19.3101C9.58971 17.4642 10.8754 15.7521 12.3497 14.21C13.6443 12.8143 15.1329 11.6119 16.7697 10.6399C18.5254 9.59087 20.508 8.98027 22.5497 8.85987H23.2397C25.1444 8.85841 27.0341 9.19706 28.8197 9.85987C31.8845 11.0334 34.6265 12.9186 36.8197 15.3599C36.8671 15.4121 36.9303 15.4474 36.9997 15.46C37.6044 15.5873 38.1807 15.8245 38.6997 16.1599C39.2395 16.4856 39.693 16.9363 40.0219 17.4741C40.3509 18.0119 40.5456 18.6211 40.5897 19.25C40.8397 21.81 38.2897 24.2498 38.2597 24.3198C38.2248 24.3558 38.2005 24.401 38.1897 24.45C37.3236 27.5833 35.4331 30.3365 32.8197 32.27C30.491 33.8699 27.7853 34.8348 24.9697 35.0698C24.0067 35.1763 23.0386 35.2299 22.0697 35.23L22.1197 35.24Z" fill="white"/>
<path d="M15.5201 33.4401C14.1665 32.8975 12.8673 32.2278 11.6401 31.4401C10.0289 30.6111 8.6374 29.4116 7.58007 27.9401C7.58007 27.8701 6.58006 28.02 6.88006 27.35C6.88006 27.35 6.26005 26.3502 5.68005 25.2402C5.44575 24.6448 5.3853 23.9951 5.50567 23.3666C5.62605 22.7382 5.9223 22.1568 6.36004 21.6901C7.12004 20.6901 6.78008 22.08 6.78008 22.08C6.78008 22.08 8.21005 19.4501 8.24005 19.4101C9.27626 17.6792 10.515 16.0779 11.93 14.6401C13.1908 13.3333 14.6281 12.2092 16.2001 11.3002C17.9019 10.3186 19.8089 9.74665 21.7701 9.63006H22.4401C24.2401 9.63006 24.2401 9.31012 26.0101 9.94012C27.4401 10.4401 27.7801 10.2101 32.0101 12.6801C34.1627 14.1181 36.1989 15.7231 38.1 17.4802C38.31 17.7402 37.8301 16.9602 37.9001 16.9702C37.9701 16.9802 36.9 15.7001 37.74 16.2101C38.1908 16.5591 38.564 16.998 38.8361 17.499C39.1081 17.9999 39.2729 18.552 39.3201 19.1201C39.3182 20.5592 39.0186 21.9825 38.4401 23.3002C38.3801 22.8502 38.2701 22.6802 38.2601 22.7302C36.9412 26.2921 34.5739 29.3708 31.4701 31.5602C25.0101 35.6002 17.2901 34.0401 15.5201 33.4401Z" fill="#FFFF51"/>
<path d="M20.0898 22.48C21.8848 22.48 23.3398 21.2578 23.3398 19.75C23.3398 18.2423 21.8848 17.02 20.0898 17.02C18.2949 17.02 16.8398 18.2423 16.8398 19.75C16.8398 21.2578 18.2949 22.48 20.0898 22.48Z" fill="white"/>
<path d="M28.2197 21.5699C30.0147 21.5699 31.4697 20.3476 31.4697 18.8399C31.4697 17.3321 30.0147 16.1099 28.2197 16.1099C26.4248 16.1099 24.9697 17.3321 24.9697 18.8399C24.9697 20.3476 26.4248 21.5699 28.2197 21.5699Z" fill="white"/>
<path d="M23.7001 19.3498C23.6582 19.0035 23.5482 18.6689 23.3766 18.3652C23.205 18.0614 22.9751 17.7945 22.7001 17.5798C22.2741 17.2637 21.7895 17.0354 21.2745 16.9084C20.7595 16.7813 20.2243 16.758 19.7001 16.8398C19.1867 16.9047 18.6889 17.0606 18.2301 17.3C17.6369 17.538 17.1325 17.9546 16.7866 18.4921C16.4408 19.0297 16.2708 19.6615 16.3001 20.3C16.3421 20.6463 16.4521 20.9809 16.6237 21.2846C16.7953 21.5883 17.0251 21.8551 17.3001 22.0698C17.9867 22.5821 18.8235 22.8529 19.6801 22.8398C19.8732 22.8547 20.0671 22.8547 20.2601 22.8398C20.7737 22.7815 21.272 22.629 21.7301 22.3898C22.3349 22.1524 22.8501 21.7314 23.2034 21.1862C23.5568 20.641 23.7305 19.9988 23.7001 19.3498ZM21.5501 21.9599C21.1686 22.1419 20.7599 22.2602 20.3402 22.31H20.0701C20.4246 21.8783 20.6689 21.3669 20.7821 20.82C20.8953 20.2731 20.8741 19.7068 20.7202 19.1699C20.5772 19.2571 20.4167 19.3116 20.2501 19.3298C19.7801 19.3298 19.3702 19.1598 19.3302 18.8198C19.2902 18.4798 19.6401 18.1798 20.1101 18.1198H20.2102C19.9965 17.8257 19.7324 17.5718 19.4301 17.3698H19.6502C19.8232 17.3553 19.9971 17.3553 20.1701 17.3698C20.9214 17.3582 21.6557 17.5938 22.2601 18.04C22.4945 18.2128 22.6915 18.4312 22.8393 18.6821C22.9871 18.933 23.0826 19.2112 23.1201 19.4999C23.136 20.0203 22.9947 20.5333 22.7146 20.9721C22.4346 21.4109 22.0287 21.7551 21.5501 21.9599Z" fill="#39146E"/>
<path d="M31.7304 18.5003C31.6884 18.1539 31.5785 17.8191 31.4069 17.5154C31.2353 17.2117 31.0054 16.9449 30.7304 16.7303C30.3036 16.4159 29.8187 16.1893 29.3037 16.064C28.7887 15.9387 28.2538 15.9171 27.7304 16.0003C27.3634 16.0428 27.0036 16.1336 26.6604 16.2703C26.0836 16.4824 25.5635 16.8246 25.1404 17.2703C24.8393 17.5574 24.6073 17.9089 24.4618 18.2986C24.3163 18.6883 24.2611 19.1061 24.3004 19.5203C24.3423 19.8666 24.4523 20.2012 24.6239 20.5049C24.7955 20.8087 25.0254 21.0756 25.3004 21.2903C25.9869 21.8027 26.8238 22.0734 27.6804 22.0603C27.8736 22.0703 28.0672 22.0703 28.2604 22.0603C28.631 22.0144 28.9941 21.9202 29.3404 21.7803C29.9107 21.579 30.4296 21.2545 30.8604 20.8301C31.177 20.5364 31.4206 20.1729 31.5716 19.7683C31.7227 19.3638 31.777 18.9296 31.7304 18.5003ZM29.2104 21.2703C28.9419 21.3652 28.6634 21.4289 28.3804 21.4602H28.1104C28.4069 21.1051 28.6273 20.6928 28.7581 20.249C28.8888 19.8053 28.927 19.3393 28.8704 18.8802C28.8477 18.7115 28.8143 18.5445 28.7704 18.3802C28.6645 18.4197 28.5533 18.4434 28.4404 18.4502C27.9704 18.4502 27.5704 18.2302 27.5504 17.9002C27.5304 17.5702 27.8304 17.3203 28.2304 17.2603C28.0226 16.9673 27.7614 16.7162 27.4604 16.5203H27.6504H28.1704C28.9223 16.5042 29.658 16.7399 30.2604 17.1902C30.4961 17.3594 30.6943 17.5757 30.8423 17.8252C30.9903 18.0748 31.085 18.3522 31.1204 18.6402C31.1295 19.229 30.9459 19.8047 30.5975 20.2796C30.2491 20.7544 29.7549 21.1024 29.1904 21.2703H29.2104Z" fill="#39146E"/>
<path d="M24.0603 26.3398C22.9852 26.3878 21.9117 26.2137 20.9069 25.8283C19.9021 25.4429 18.9876 24.8545 18.2203 24.0998C18.4354 23.9953 18.6712 23.9407 18.9103 23.9399C19.0796 23.9371 19.2483 23.9608 19.4103 24.01C19.1351 23.7677 18.7764 23.6421 18.4103 23.6599C18.0662 23.6517 17.7327 23.7793 17.482 24.0151C17.2312 24.2509 17.0834 24.5759 17.0703 24.9199C17.078 25.132 17.1399 25.3387 17.2503 25.52C17.2712 25.1483 17.4195 24.7951 17.6703 24.52C18.4087 25.438 19.3566 26.1653 20.4345 26.6408C21.5124 27.1164 22.6887 27.3264 23.8646 27.2529C25.0404 27.1794 26.1814 26.8245 27.1917 26.2185C28.2019 25.6124 29.052 24.7728 29.6703 23.77C28.9566 24.5542 28.0917 25.186 27.1277 25.6276C26.1636 26.0693 25.1203 26.3114 24.0603 26.3398Z" fill="#39146E"/>
<path d="M23.9702 31.7803C23.4268 31.7909 22.8886 31.672 22.4 31.4338C21.9115 31.1956 21.4865 30.8448 21.1602 30.4102C21.349 31.0682 21.7574 31.6419 22.3173 32.0359C22.8772 32.4299 23.555 32.6206 24.2382 32.5762C24.9214 32.5318 25.5689 32.2551 26.0732 31.792C26.5774 31.3289 26.908 30.7073 27.0102 30.0303C26.7165 30.5759 26.2763 31.0287 25.7393 31.3379C25.2022 31.6471 24.5896 31.8003 23.9702 31.7803Z" fill="#39146E"/>
<path d="M26.7295 34.8998C27.4061 34.6697 28.1149 34.5483 28.8295 34.5399C29.022 34.58 29.2022 34.6653 29.3552 34.7887C29.5082 34.9122 29.6296 35.0703 29.7095 35.2499C29.7095 35.2499 29.7095 34.3598 29.1395 34.1798C28.2734 34.0998 27.4098 34.3578 26.7295 34.8998Z" fill="white"/>
<path d="M25.5 34.8299C25.6985 34.8524 25.8838 34.9403 26.0268 35.0797C26.1698 35.2191 26.2624 35.4021 26.29 35.5999C26.29 35.5999 26.64 34.5299 25.5 34.8299Z" fill="white"/>
<path d="M13.6503 16.8901C14.2103 17.2201 13.9703 18.3101 13.2503 19.4101C12.5303 20.5101 11.6203 21.2301 11.0603 20.9001C10.5003 20.5701 10.7303 19.4801 11.4403 18.3701C12.1503 17.2601 13.0903 16.5701 13.6503 16.8901Z" fill="white"/>
<path d="M14.8307 16.4457C15.2695 16.1897 15.4493 15.6804 15.2322 15.3083C15.0151 14.9363 14.4835 14.8424 14.0446 15.0984C13.6058 15.3545 13.4259 15.8635 13.643 16.2355C13.86 16.6076 14.3918 16.7017 14.8307 16.4457Z" fill="white"/>
<path d="M41.4403 19.3C41.3599 18.43 41.0263 17.6024 40.4807 16.9199C39.9351 16.2374 39.2014 15.7299 38.3703 15.46C35.5083 12.5371 31.9503 10.3899 28.0304 9.21997C27.3989 9.04586 26.7578 8.90905 26.1103 8.81006C25.1761 8.64396 24.2292 8.5603 23.2804 8.56006H22.5704C13.8404 8.95006 8.49033 18.5601 8.49033 18.5601C8.49033 18.5601 3.36037 21.8999 4.84037 26.1799C5.58037 28.6899 8.69035 30 8.69035 30C8.69035 30 11.1403 35.1 18.6903 36.29C19.8992 36.4978 21.1237 36.6014 22.3503 36.5999C23.3324 36.5981 24.3138 36.5448 25.2903 36.4399C28.4739 36.1739 31.5008 34.9443 33.9679 32.9148C36.4351 30.8853 38.2254 28.1523 39.1003 25.0798C39.1003 25.0798 41.7103 22.04 41.4403 19.3ZM38.5503 23.6599C38.5326 23.2464 38.4197 22.8427 38.2204 22.48C38.1599 23.4722 37.9508 24.4497 37.6003 25.3799C37.1433 26.6348 36.5248 27.8248 35.7604 28.9199C34.9236 30.1165 33.8888 31.1616 32.7004 32.01C30.4123 33.5797 27.7553 34.5274 24.9903 34.76C24.0373 34.8662 23.0792 34.9196 22.1203 34.9199C21.0424 34.9237 19.9658 34.8435 18.9004 34.6799C18.0726 34.5348 17.257 34.3276 16.4604 34.0601C15.1013 33.6075 13.8272 32.9316 12.6903 32.0601C11.9344 31.4891 11.2613 30.816 10.6903 30.0601C10.5253 29.8332 10.375 29.5959 10.2403 29.3499C9.90257 28.4849 9.61871 27.6 9.39036 26.7C9.22036 27.31 9.30037 28.16 9.21037 28.53C8.9072 28.3666 8.6134 28.1863 8.33036 27.99C7.90999 27.7057 7.52698 27.3697 7.19035 26.99C6.83781 26.5737 6.57253 26.0906 6.41032 25.5698C6.20019 24.8311 6.20019 24.0487 6.41032 23.3101C6.59129 22.6533 6.89313 22.0361 7.30033 21.49C7.67068 20.9929 8.09682 20.5399 8.57035 20.1399C8.48648 20.8858 8.55453 21.641 8.77036 22.3599C9.09147 20.3902 9.85004 18.5177 10.9903 16.8799C11.609 16.0664 12.2769 15.2918 12.9903 14.5601C14.2704 13.1898 15.7383 12.008 17.3503 11.05C19.0578 10.0311 20.9854 9.43755 22.9704 9.31982H23.6504C24.4267 9.32171 25.202 9.37868 25.9704 9.48999C26.9029 9.66388 27.8193 9.91473 28.7104 10.24C30.2054 10.7967 31.6261 11.5356 32.9403 12.4399C34.2752 13.3369 35.4973 14.391 36.5804 15.5798C37.1885 16.2557 37.7247 16.9932 38.1803 17.78C38.126 17.2343 38.0188 16.695 37.8603 16.1699C38.123 16.269 38.3772 16.3896 38.6203 16.53C39.1151 16.8351 39.5301 17.2536 39.8309 17.751C40.1318 18.2483 40.3098 18.8101 40.3503 19.3899C40.3483 20.1854 40.1882 20.9728 39.8792 21.7058C39.5702 22.4389 39.1185 23.103 38.5503 23.6599Z" fill="#39146E"/>
<path d="M22.7903 7.18999V7.49004V7.18999C16.0203 7.07999 11.4004 12.7801 11.4004 12.7801C12.3451 13.0829 13.3285 13.2479 14.3204 13.2701C15.6602 13.3155 17.0011 13.2182 18.3204 12.98L17.7204 14.5999C26.3304 13.5999 28.5904 9.04009 28.5904 9.04009C26.9155 7.79779 24.8753 7.14695 22.7903 7.18999Z" fill="#39146E"/>
<path d="M13.9102 11.8101C15.8944 12.0812 17.9117 11.9828 19.8602 11.5201C19.6032 11.998 19.4147 12.5097 19.3002 13.0401C20.0402 12.9557 20.7747 12.8287 21.5002 12.66C23.8244 12.1747 25.9293 10.9504 27.5002 9.16999C20.2602 5.18999 13.9102 11.8101 13.9102 11.8101Z" fill="#44D970"/>
<path d="M27.5398 9.18994C24.9862 10.8539 22.2128 12.1532 19.2998 13.05C19.2998 13.05 24.6798 12.6999 27.5398 9.18994Z" fill="white"/>
<path d="M25.3996 36.1902L25.2396 35.0303C25.2396 34.9703 25.1396 34.6702 25.0796 34.6502C25.0796 34.6502 25.0796 34.5801 25.0296 34.5801C24.1672 34.1946 23.2491 33.9482 22.3096 33.8501C22.0443 33.8117 21.7749 33.8117 21.5096 33.8501C21.2116 33.9281 20.9445 34.0954 20.7443 34.3296C20.5441 34.5638 20.4204 34.8536 20.3896 35.1602C20.2139 35.8153 20.2139 36.5051 20.3896 37.1602C20.4686 37.5686 20.6434 37.9525 20.8996 38.2803C21.0126 38.4392 21.1629 38.5679 21.3372 38.655C21.5116 38.7422 21.7047 38.7852 21.8996 38.7803H22.1496C23.3396 38.5403 25.2696 36.6003 25.3296 36.5503C25.3607 36.5101 25.3782 36.461 25.3796 36.4102L25.4496 36.3501C25.4581 36.3215 25.458 36.291 25.449 36.2625C25.4401 36.234 25.4229 36.2089 25.3996 36.1902Z" fill="#39146E"/>
<path d="M24.9201 35.06C24.029 34.69 23.0603 34.5456 22.1001 34.6399C21.0301 34.9199 21.5301 37.5099 22.6101 37.4799C23.5078 37.2748 24.3356 36.8368 25.0101 36.2099L24.9201 35.06Z" fill="#44D970"/>
<path d="M29.5598 33.1899C29.3105 33.1995 29.0627 33.2331 28.8198 33.29C27.9481 33.5361 27.1138 33.8992 26.3398 34.3699C26.4921 34.492 26.6184 34.6434 26.7111 34.8152C26.8039 34.9869 26.8612 35.1756 26.8798 35.3699C26.9018 35.7298 26.7915 36.0854 26.5698 36.3699C27.0198 36.7499 28.3198 37.82 29.2998 37.76C30.2798 37.7 30.8398 37.2399 30.8598 35.5999C30.8698 34.7299 30.8398 33.1899 29.5598 33.1899Z" fill="#39146E"/>
<path d="M26.5898 34.98L26.6798 35.98C27.3852 36.4501 28.2035 36.7229 29.0498 36.77C29.3898 36.77 29.7398 36.2099 29.7098 35.3499C29.6798 34.4899 29.3698 34.1899 29.0598 34.1699H28.8998C28.0803 34.2698 27.2922 34.5462 26.5898 34.98Z" fill="#44D970"/>
<path d="M27.0099 35.4302C26.9817 35.0383 26.7998 34.6735 26.5039 34.4151C26.208 34.1566 25.822 34.0256 25.4299 34.0503C25.2378 34.0652 25.0505 34.1178 24.8789 34.2054C24.7073 34.2929 24.5547 34.4136 24.4299 34.5603C24.243 34.7768 24.122 35.0422 24.0809 35.3252C24.0399 35.6083 24.0807 35.8971 24.1984 36.1577C24.3161 36.4184 24.5059 36.6398 24.7453 36.7962C24.9848 36.9525 25.2639 37.0374 25.5499 37.0403H25.6499C26.0361 37.0119 26.3954 36.8322 26.6499 36.5403C26.7806 36.3884 26.8797 36.2121 26.9415 36.0215C27.0033 35.8309 27.0265 35.6299 27.0099 35.4302Z" fill="#39146E"/>
<path d="M26.5202 35.3801C26.5222 35.5471 26.476 35.7111 26.3874 35.8525C26.2987 35.994 26.1712 36.107 26.0201 36.178C25.8689 36.2489 25.7006 36.2748 25.5351 36.2527C25.3696 36.2306 25.214 36.1613 25.0868 36.0532C24.9596 35.9451 24.8662 35.8028 24.8177 35.6431C24.7693 35.4833 24.7678 35.3129 24.8135 35.1523C24.8592 34.9918 24.9501 34.8476 25.0754 34.7373C25.2007 34.627 25.3552 34.5552 25.5202 34.5303H25.6802C25.9023 34.5379 26.1131 34.63 26.2693 34.7881C26.4255 34.9461 26.5153 35.158 26.5202 35.3801Z" fill="#44D970"/>
</g>
<defs>
<clipPath id="clip0_1_3788">
<rect width="45.99" height="45.99" fill="white"/>
</clipPath>
</defs>
</svg>
