<svg width="30" height="30" viewBox="0 0 30 30" fill="none" xmlns="http://www.w3.org/2000/svg">
<path d="M27.7004 5.49939L27.8005 5.39941C28.9005 4.29941 28.9005 2.49937 27.8005 1.59937C27.3005 1.19937 26.7005 0.99939 26.1005 0.99939C25.3005 0.99939 24.5005 1.29939 24.0005 1.99939L23.9005 2.09937C22.0005 0.999365 19.8005 0.399414 17.5005 0.399414V1.99939C19.5005 1.99939 21.5005 2.49939 23.1005 3.49939C23.3005 3.59939 23.6005 3.69934 23.9005 3.69934C24.4005 3.69934 24.8005 3.49937 25.1005 3.09937C25.1005 3.09937 25.1004 3.09939 25.2004 2.99939C25.5004 2.69939 25.8004 2.49939 26.2004 2.49939C26.4004 2.49939 26.6005 2.49934 26.8005 2.69934C27.2005 3.09934 27.1004 3.79944 26.7004 4.29944C26.7004 4.29944 26.7005 4.29941 26.6005 4.39941C26.1005 4.89941 26.0005 5.79941 26.4005 6.39941C27.9005 8.69941 28.6004 11.5994 28.2004 14.5994C28.0004 16.0994 27.6005 17.5994 26.9005 19.0994C26.2005 20.5994 25.2005 21.9994 24.1005 23.2994C22.6005 24.8994 20.8005 26.1994 18.8005 27.0994C16.9005 27.8994 15.0005 28.3994 13.1005 28.3994C11.1005 28.3994 9.10049 27.8994 7.50049 26.8994C7.30049 26.7994 7.00044 26.6993 6.70044 26.6993C6.20044 26.6993 5.80049 26.8994 5.50049 27.2994C5.50049 27.2994 5.50051 27.2994 5.40051 27.3994C5.10051 27.6994 4.80051 27.8994 4.40051 27.8994C4.20051 27.8994 4.00054 27.8993 3.80054 27.6993C3.60054 27.4993 3.50049 27.1994 3.50049 26.9994C3.50049 26.6994 3.60051 26.2994 3.90051 26.0994C3.90051 26.0994 3.90049 26.0994 4.00049 25.9994C4.50049 25.4994 4.60044 24.5994 4.20044 23.9994C2.70044 21.6994 2.00051 18.7994 2.40051 15.7994C2.60051 14.2994 3.00044 12.7994 3.70044 11.2994C4.40044 9.79944 5.40049 8.39937 6.50049 7.09937C8.00049 5.49937 9.80054 4.19944 11.8005 3.29944C13.7005 2.49944 15.6005 1.99939 17.5005 1.99939V0.399414C13.3005 0.399414 8.80051 2.29939 5.40051 5.99939C0.200513 11.5994 -0.699487 19.4994 2.90051 24.7994L2.80054 24.8994C1.70054 25.9994 1.70054 27.7993 2.80054 28.6993C3.30054 29.0993 3.90049 29.2994 4.50049 29.2994C5.30049 29.2994 6.10046 28.9994 6.60046 28.2994L6.70044 28.1993C8.60044 29.2993 10.8005 29.8994 13.1005 29.8994C17.3005 29.8994 21.8005 27.9994 25.3005 24.2994C30.4005 18.5994 31.3004 10.7994 27.7004 5.49939Z" fill="#FFFF51"/>
<path d="M11.3007 23.1994C10.2007 22.8994 9.10068 22.2994 8.30068 21.4994C8.00068 21.1994 7.50059 21.1994 7.20059 21.4994C6.90059 21.7994 6.90059 22.2994 7.20059 22.5994C8.20059 23.5994 9.50068 24.1994 10.8007 24.5994C10.9007 24.5994 10.9006 24.5994 11.0006 24.5994C11.3006 24.5994 11.7007 24.3994 11.8007 23.9994C11.9007 23.7994 11.7007 23.2994 11.3007 23.1994Z" fill="#FFFF51"/>
<path d="M13 24.2992C13 24.6992 13.4 25.0991 13.8 25.0991C17 24.9991 20.3 23.4992 22.7 20.8992C23 20.5992 23 20.0992 22.7 19.7992C22.4 19.4992 21.9 19.4992 21.6 19.7992C19.5 22.0992 16.7 23.3992 13.8 23.4992C13.4 23.4992 13 23.8992 13 24.2992Z" fill="#FFFF51"/>
</svg>
