<svg width="47" height="47" viewBox="0 0 47 47" fill="none" xmlns="http://www.w3.org/2000/svg">
<path d="M23.5996 46.7002C36.3022 46.7002 46.5996 36.4027 46.5996 23.7002C46.5996 10.9976 36.3022 0.700195 23.5996 0.700195C10.8971 0.700195 0.599609 10.9976 0.599609 23.7002C0.599609 36.4027 10.8971 46.7002 23.5996 46.7002Z" fill="#44D970"/>
<path d="M22.6993 36C20.3993 36 18.2993 35.7 16.4993 35C14.9993 34.5 13.6993 33.8 12.5993 32.9C10.6993 31.4 10.0993 29.9 10.0993 29.9C10.0993 29.8 9.99935 29.8 9.89935 29.7C9.89935 29.7 6.99938 28.6 6.29938 26.2C5.89938 24.7 6.19928 23.2 7.19928 21.8C7.99928 20.7 8.89935 20.1 8.89935 20.1L8.99933 20C8.99933 20 10.3994 17.4 12.7994 14.9C14.1994 13.4 15.6993 12.2 17.1993 11.3C19.0993 10.2 20.9993 9.6 22.9993 9.5C23.1993 9.5 23.4993 9.5 23.6993 9.5C25.5993 9.5 27.3994 9.8 29.2994 10.5C30.7994 11 32.1993 11.8 33.5993 12.7C35.9993 14.3 37.2994 15.9 37.2994 16C37.2994 16.1 37.3993 16.1 37.4993 16.1C37.4993 16.1 38.2993 16.2 39.1993 16.8C40.2993 17.5 40.9993 18.6 41.0993 19.9C41.2993 22.5 38.7994 24.9 38.7994 25L38.6993 25.1C37.6993 28.5 35.8994 31.1 33.2994 32.9C31.1994 34.4 28.4994 35.4 25.3994 35.7C24.5994 35.9 23.5993 36 22.6993 36Z" fill="white"/>
<path d="M16.1 34.2002C14.7 33.7002 13.4 32.9002 12.2 32.2002C9.89997 30.9002 8.6 29.4002 8.1 28.7002C8.1 28.6002 7.10004 28.8002 7.40004 28.1002C7.40004 28.1002 6.79997 27.1002 6.19997 26.0002C5.69997 25.1002 5.90004 23.8002 6.90004 22.5002C7.70004 21.5002 7.30007 22.9002 7.30007 22.9002C7.30007 22.9002 8.70007 20.3002 8.80007 20.2002C8.80007 20.2002 10.2 17.8002 12.5 15.4002C13.9 14.0002 15.3001 12.9002 16.8001 12.1002C18.6001 11.1002 20.5 10.5002 22.4 10.4002C22.6 10.4002 22.8 10.4002 23.1 10.4002C24.9 10.4002 24.9 10.1002 26.7 10.7002C28.1 11.2002 28.5 11.0002 32.7 13.4002C35.1 14.8002 38.8001 18.2002 38.8001 18.2002C39.0001 18.5002 38.5 17.7002 38.6 17.7002C38.6 17.7002 37.6 16.4002 38.4 16.9002C39.5 17.6002 39.9 19.1002 40 19.8002C40.1 21.6002 39.1 24.0002 39.1 24.0002C39 23.6002 38.9 23.4002 38.9 23.4002C37.9 26.6002 34.8 30.5002 32.1 32.2002C25.6 36.3002 17.9 34.8002 16.1 34.2002Z" fill="#FFFF51"/>
<path d="M20.6993 23.1998C22.5219 23.1998 23.9994 21.991 23.9994 20.4998C23.9994 19.0086 22.5219 17.7998 20.6993 17.7998C18.8768 17.7998 17.3994 19.0086 17.3994 20.4998C17.3994 21.991 18.8768 23.1998 20.6993 23.1998Z" fill="white"/>
<path d="M28.8 22.2994C30.6226 22.2994 32.1 21.0906 32.1 19.5994C32.1 18.1082 30.6226 16.8994 28.8 16.8994C26.9775 16.8994 25.5 18.1082 25.5 19.5994C25.5 21.0906 26.9775 22.2994 28.8 22.2994Z" fill="white"/>
<path d="M24.2997 20.0998C24.1997 19.3998 23.8997 18.7998 23.2997 18.2998C22.4997 17.6998 21.3997 17.3998 20.2997 17.5998C19.7997 17.6998 19.2997 17.7998 18.7997 18.0998C17.4997 18.6998 16.6997 19.8998 16.8997 21.0998C16.9997 21.7998 17.2997 22.3998 17.8997 22.8998C18.4997 23.3998 19.3997 23.6998 20.2997 23.6998C20.4997 23.6998 20.6997 23.6998 20.8997 23.6998C21.3997 23.5998 21.8997 23.4998 22.3997 23.1998C23.5997 22.4998 24.3997 21.2998 24.2997 20.0998ZM22.0996 22.6998C21.6996 22.8998 21.2997 22.9998 20.8997 23.0998C20.7997 23.0998 20.6996 23.0998 20.5996 23.0998C21.1996 22.3998 21.4997 21.4998 21.3997 20.4998C21.3997 20.2998 21.2997 20.0998 21.2997 19.8998C21.1997 19.9998 20.9997 19.9998 20.7997 20.0998C20.2997 20.1998 19.8997 19.8998 19.8997 19.5998C19.8997 19.2998 20.1996 18.9998 20.6996 18.8998H20.7997C20.5997 18.5998 20.2996 18.3998 19.9996 18.1998C20.0996 18.1998 20.0996 18.1998 20.1996 18.1998C20.3996 18.1998 20.4996 18.1998 20.6996 18.1998C21.4996 18.1998 22.1997 18.3998 22.7997 18.8998C23.2997 19.2998 23.5996 19.7998 23.6996 20.3998C23.7996 21.1998 23.1996 22.1998 22.0996 22.6998Z" fill="#39146E"/>
<path d="M32.2998 19.1994C32.1998 18.4994 31.8998 17.8994 31.2998 17.3994C30.4998 16.7994 29.3998 16.4994 28.2998 16.6994C27.8998 16.6994 27.5997 16.7994 27.1997 16.9994C26.5997 17.1994 26.0997 17.4994 25.6997 17.9994C25.0997 18.6994 24.7998 19.4994 24.8998 20.2994C24.9998 20.9994 25.2998 21.5994 25.8998 22.0994C26.4998 22.5994 27.3998 22.8994 28.2998 22.8994C28.4998 22.8994 28.6998 22.8994 28.8998 22.8994C29.2998 22.8994 29.5998 22.7994 29.9998 22.5994C30.5998 22.3994 31.0998 22.0994 31.4998 21.5994C32.0998 20.7994 32.3998 19.9994 32.2998 19.1994ZM29.7998 21.9994C29.4998 22.0994 29.2998 22.1994 28.9998 22.1994C28.8998 22.1994 28.7997 22.1994 28.6997 22.1994C29.2997 21.4994 29.5998 20.5994 29.4998 19.5994C29.4998 19.3994 29.3998 19.2994 29.3998 19.0994C29.2998 19.0994 29.1998 19.1994 29.0998 19.1994C28.5998 19.1994 28.1997 18.9994 28.1997 18.5994C28.1997 18.2994 28.4998 17.9994 28.8998 17.9994C28.6998 17.6994 28.3998 17.4994 28.0998 17.2994C28.1998 17.2994 28.1998 17.2994 28.2998 17.2994C28.4998 17.2994 28.5998 17.2994 28.7998 17.2994C29.5998 17.2994 30.2998 17.4994 30.8998 17.9994C31.3998 18.3994 31.6998 18.8994 31.7998 19.4994C31.7998 20.3994 30.9998 21.4994 29.7998 21.9994Z" fill="#39146E"/>
<path d="M24.6997 27.0994C22.3997 27.1994 20.2998 26.2994 18.8998 24.8994C19.0998 24.7994 19.2997 24.6994 19.5997 24.6994C19.7997 24.6994 19.8997 24.6994 20.0997 24.7994C19.8997 24.5994 19.4997 24.3994 19.0997 24.3994C18.3997 24.3994 17.7998 24.9994 17.7998 25.6994C17.7998 25.8994 17.8998 26.0994 17.9998 26.2994C17.9998 25.8994 18.1998 25.4994 18.3998 25.2994C19.7998 26.9994 21.9998 28.0994 24.3998 27.9994C26.8998 27.8994 29.0998 26.4994 30.3998 24.4994C28.8998 25.9994 26.8997 26.9994 24.6997 27.0994Z" fill="#39146E"/>
<path d="M24.5997 32.4998C23.3997 32.4998 22.3998 31.9998 21.7998 31.0998C22.0998 32.3998 23.2997 33.2998 24.6997 33.2998C26.1997 33.2998 27.4997 32.1998 27.6997 30.7998C27.0997 31.7998 25.8997 32.4998 24.5997 32.4998Z" fill="#39146E"/>
<path d="M27.2998 35.5996C27.2998 35.5996 28.7998 35.0996 29.3998 35.1996C29.9998 35.2996 30.2998 35.8996 30.2998 35.8996C30.2998 35.8996 30.2997 34.9996 29.6997 34.7996C29.0997 34.6996 27.8998 35.0996 27.2998 35.5996Z" fill="white"/>
<path d="M26.0996 35.5999C26.0996 35.5999 26.6997 35.5999 26.8997 36.3999C26.8997 36.2999 27.1996 35.2999 26.0996 35.5999Z" fill="white"/>
<path d="M14.2 17.5999C14.8 17.8999 14.5001 18.9999 13.8001 20.0999C13.1001 21.1999 12.2 21.8999 11.6 21.5999C11 21.2999 11.3 20.1999 12 19.0999C12.8 17.9999 13.7 17.2999 14.2 17.5999Z" fill="white"/>
<path d="M15.4665 17.2606C15.8959 17.0101 16.0635 16.4977 15.8408 16.116C15.6182 15.7344 15.0896 15.628 14.6603 15.8785C14.2309 16.129 14.0633 16.6414 14.2859 17.0231C14.5086 17.4047 15.0371 17.5111 15.4665 17.2606Z" fill="white"/>
<path d="M41.9998 19.9998C41.7998 17.5998 39.9998 16.5998 38.8998 16.1998C38.8998 16.1998 34.5997 11.4998 28.5997 9.99981C27.9997 9.79981 27.2997 9.69981 26.6997 9.59981C25.7997 9.39981 24.8998 9.2998 23.8998 9.2998C23.6998 9.2998 23.3997 9.2998 23.1997 9.2998C14.4997 9.6998 9.09974 19.2998 9.09974 19.2998C9.09974 19.2998 3.99977 22.5998 5.49977 26.8998C6.19977 29.3998 9.29982 30.6998 9.29982 30.6998C9.29982 30.6998 11.7998 35.7998 19.3998 36.9998C20.4998 37.1998 21.6997 37.2998 23.0997 37.2998C23.9997 37.2998 24.9998 37.1998 25.9998 37.0998C31.5998 36.4998 37.4998 33.1998 39.7998 25.6998C39.6998 25.7998 42.2998 22.7998 41.9998 19.9998ZM39.1997 24.3998C39.1997 24.0998 39.0998 23.4998 38.8998 23.1998C38.8998 23.2998 38.7998 24.5998 38.2998 26.0998C37.7998 27.3998 37.1998 28.5998 36.4998 29.5998C35.5998 30.7998 34.5998 31.7998 33.3998 32.6998C31.2998 34.1998 28.6997 35.0998 25.6997 35.3998C24.6997 35.4998 23.6998 35.5998 22.7998 35.5998C21.6998 35.5998 20.5997 35.4998 19.5997 35.3998C18.6997 35.1998 17.8997 34.9998 17.1997 34.7998C15.7997 34.2998 14.4998 33.5998 13.3998 32.7998C12.3998 31.9998 11.7998 31.2998 11.3998 30.7998C11.1998 30.4998 10.9998 30.2998 10.9998 30.0998C10.3998 28.8998 10.1997 27.2998 10.1997 27.4998C9.99972 28.0998 10.0998 28.9998 9.99977 29.2998C9.79977 29.1998 9.39974 28.9998 9.09974 28.7998C8.69974 28.4998 8.29977 28.0998 7.99977 27.7998C7.59977 27.3998 7.39972 26.8998 7.19972 26.3998C6.99972 25.5998 6.99972 24.8998 7.19972 24.0998C7.39972 23.4998 7.69974 22.8998 8.09974 22.2998C8.49974 21.6998 8.99979 21.1998 9.39979 20.8998C9.19979 21.9998 9.59974 23.0998 9.59974 23.0998C10.0997 20.2998 11.1998 18.4998 11.7998 17.5998C12.2998 16.8998 12.9998 16.0998 13.7998 15.2998C15.1998 13.7998 16.6997 12.6998 18.1997 11.7998C19.9997 10.6998 21.8998 10.1998 23.7998 10.0998C23.9998 10.0998 24.2998 10.0998 24.4998 10.0998C25.2998 10.0998 25.9998 10.1998 26.7998 10.2998C27.6998 10.4998 28.5998 10.6998 29.4998 10.9998C30.8998 11.4998 32.3997 12.2998 33.6997 13.1998C35.6997 14.5998 36.9998 15.9998 37.2998 16.2998C37.6998 16.6998 38.0998 17.1998 38.8998 18.4998C38.8998 17.9998 38.6997 17.3998 38.5997 16.8998C38.7997 16.9998 39.0998 17.0998 39.3998 17.2998C40.3998 17.9998 40.9997 18.8998 41.0997 20.1998C41.0997 21.5998 39.9997 23.6998 39.1997 24.3998Z" fill="#39146E"/>
<path d="M23.4 7.89974V8.19974V7.89974C16.6 7.79974 12 13.4997 12 13.4997C13 13.7997 14 13.9997 14.9 13.9997C17.2 14.0997 18.9 13.6997 18.9 13.6997L18.3 15.2997C26.9 14.2997 29.2 9.69974 29.2 9.69974C27.4 8.29974 25.2 7.89974 23.4 7.89974Z" fill="#39146E"/>
<path d="M14.5 12.5002C16.2 12.8002 18.4 12.6002 20.5 12.2002C20.3 12.6002 20.1 13.1002 19.9 13.7002C19.9 13.7002 21.2 13.6002 22.1 13.3002C26.4 12.2002 28.1 9.80016 28.1 9.80016C20.9 5.90016 14.5 12.5002 14.5 12.5002Z" fill="#44D970"/>
<path d="M28.0994 9.89941C28.0994 9.89941 25.4994 11.7994 19.8994 13.7994C19.8994 13.7994 25.2994 13.3994 28.0994 9.89941Z" fill="white"/>
<path d="M25.9997 36.9L25.7997 35.7C25.7997 35.6 25.6996 35.3 25.5996 35.3V35.2C25.4996 35.2 24.1997 34.6 22.8997 34.5C22.4997 34.5 22.2996 34.5 22.0996 34.5C21.3996 34.6 21.0997 35.2 20.9997 35.8C20.7997 36.4 20.7997 37.3 20.8997 37.8C20.9997 38.2 21.1997 38.6 21.3997 38.9C21.6997 39.3 21.9997 39.4 22.3997 39.4C22.4997 39.4 22.5996 39.4 22.5996 39.4C23.7996 39.2 25.6997 37.2 25.7997 37.2L25.8997 37.1L25.9997 37C25.9997 37 25.9997 37 25.9997 36.9Z" fill="#39146E"/>
<path d="M25.5003 35.7999C25.5003 35.7999 23.8002 35.0999 22.7002 35.3999C21.6002 35.6999 22.1002 38.2999 23.2002 38.1999C24.2002 38.1999 25.6003 36.8999 25.6003 36.8999L25.5003 35.7999Z" fill="#44D970"/>
<path d="M30.2 33.8994C30 33.8994 29.8 33.8994 29.5 33.9994C28.6 34.1994 27.5 34.7994 27 35.0994C27.3 35.3994 27.5 35.6994 27.5 36.0994C27.5 36.4994 27.4 36.7994 27.2 37.0994C27.6 37.4994 28.9 38.4994 29.9 38.4994C30.8 38.3994 31.4 37.9994 31.5 36.2994C31.5 35.4994 31.4 33.8994 30.2 33.8994Z" fill="#39146E"/>
<path d="M27.1992 35.6994L27.2993 36.6994C27.5993 36.8994 28.7992 37.5994 29.6992 37.4994C29.9992 37.4994 30.3993 36.8994 30.3993 36.0994C30.3993 35.2994 30.0992 34.8994 29.6992 34.8994C29.5992 34.8994 29.5993 34.8994 29.4993 34.8994C28.5993 34.8994 27.4992 35.4994 27.1992 35.6994Z" fill="#44D970"/>
<path d="M27.5996 36.1998C27.4996 35.3998 26.7996 34.7998 25.9996 34.7998C25.5996 34.7998 25.2996 34.9998 24.9996 35.2998C24.6996 35.5998 24.5996 35.9998 24.5996 36.3998C24.6996 37.1998 25.2996 37.7998 26.0996 37.7998H26.1996C26.5996 37.7998 26.8996 37.5998 27.1996 37.2998C27.4996 36.9998 27.5996 36.5998 27.5996 36.1998Z" fill="#39146E"/>
<path d="M27.0997 36.1002C27.0997 36.6002 26.6997 37.0002 26.1997 37.0002C25.6997 37.0002 25.2998 36.6002 25.2998 36.1002C25.2998 35.7002 25.5998 35.3002 25.9998 35.2002C26.0998 35.2002 26.0997 35.2002 26.1997 35.2002C26.6997 35.2002 27.0997 35.6002 27.0997 36.1002Z" fill="#44D970"/>
</svg>
