<svg width="16" height="15" viewBox="0 0 16 15" fill="none" xmlns="http://www.w3.org/2000/svg">
<path d="M8.05005 3.23C7.50375 3.23 6.96284 3.3376 6.45813 3.54666C5.95342 3.75572 5.49481 4.06215 5.10852 4.44844C4.72223 4.83473 4.41585 5.29332 4.20679 5.79803C3.99773 6.30275 3.89014 6.8437 3.89014 7.39C3.89014 7.9363 3.99773 8.47725 4.20679 8.98196C4.41585 9.48668 4.72223 9.94527 5.10852 10.3316C5.49481 10.7179 5.95342 11.0243 6.45813 11.2333C6.96284 11.4424 7.50375 11.55 8.05005 11.55C9.15335 11.55 10.2115 11.1117 10.9917 10.3316C11.7719 9.55141 12.2101 8.4933 12.2101 7.39C12.2101 6.2867 11.7719 5.22859 10.9917 4.44844C10.2115 3.66829 9.15335 3.23 8.05005 3.23V3.23ZM8.05005 10.66C7.61988 10.6627 7.19347 10.5799 6.79553 10.4165C6.3976 10.2531 6.03611 10.0123 5.73193 9.70816C5.42776 9.40398 5.18695 9.04244 5.02356 8.64451C4.86017 8.24657 4.77737 7.82016 4.78003 7.39C4.77737 6.95984 4.86017 6.53342 5.02356 6.13549C5.18695 5.73756 5.42776 5.37602 5.73193 5.07185C6.03611 4.76767 6.3976 4.5269 6.79553 4.36351C7.19347 4.20012 7.61988 4.11735 8.05005 4.12C8.48021 4.11735 8.90663 4.20012 9.30457 4.36351C9.7025 4.5269 10.0641 4.76767 10.3683 5.07185C10.6725 5.37602 10.9131 5.73756 11.0765 6.13549C11.2399 6.53342 11.3227 6.95984 11.3201 7.39C11.3227 7.82016 11.2399 8.24657 11.0765 8.64451C10.9131 9.04244 10.6725 9.40398 10.3683 9.70816C10.0641 10.0123 9.7025 10.2531 9.30457 10.4165C8.90663 10.5799 8.48021 10.6627 8.05005 10.66V10.66Z" fill="#633BB3"/>
<path d="M8.05007 2.9C8.16677 2.9 8.27871 2.85364 8.36123 2.77113C8.44375 2.68861 8.49014 2.57669 8.49014 2.46V0.599998C8.49014 0.483303 8.44375 0.371388 8.36123 0.288872C8.27871 0.206356 8.16677 0.160004 8.05007 0.160004C7.93244 0.159975 7.81948 0.206006 7.73537 0.288246C7.65126 0.370487 7.60273 0.482393 7.60012 0.599998V2.42C7.59601 2.48157 7.60462 2.54333 7.62539 2.60143C7.64615 2.65954 7.67864 2.71276 7.72085 2.75777C7.76305 2.80279 7.81398 2.83865 7.87063 2.86311C7.92728 2.88758 7.98837 2.90014 8.05007 2.9V2.9Z" fill="#633BB3"/>
<path d="M4.21008 4.2C4.29682 4.28053 4.41173 4.32364 4.53003 4.32C4.65124 4.32311 4.76921 4.28025 4.86011 4.2C4.93671 4.11691 4.97925 4.00802 4.97925 3.895C4.97925 3.78198 4.93671 3.6731 4.86011 3.59L3.56006 2.3C3.47861 2.22409 3.37148 2.18187 3.26013 2.18187C3.14879 2.18187 3.04153 2.22409 2.96008 2.3C2.92017 2.33911 2.88847 2.38578 2.86682 2.43729C2.84518 2.48881 2.83398 2.54412 2.83398 2.6C2.83398 2.65588 2.84518 2.71119 2.86682 2.7627C2.88847 2.81422 2.92017 2.8609 2.96008 2.9L4.21008 4.2Z" fill="#633BB3"/>
<path d="M3.52014 7.39C3.52014 7.2733 3.47375 7.16139 3.39124 7.07887C3.30872 6.99636 3.19677 6.95 3.08008 6.95H1.26013C1.1425 6.94998 1.02942 6.99601 0.945312 7.07825C0.861203 7.16049 0.812673 7.27239 0.810059 7.39C0.812673 7.50761 0.861203 7.61951 0.945312 7.70175C1.02942 7.78399 1.1425 7.83003 1.26013 7.83H3.08008C3.19677 7.83 3.30872 7.78364 3.39124 7.70113C3.47375 7.61861 3.52014 7.50669 3.52014 7.39V7.39Z" fill="#633BB3"/>
<path d="M4.20996 10.62L2.91992 11.92C2.88001 11.9591 2.84831 12.0058 2.82666 12.0573C2.80501 12.1088 2.79395 12.1641 2.79395 12.22C2.79395 12.2759 2.80501 12.3312 2.82666 12.3827C2.84831 12.4342 2.88001 12.4809 2.91992 12.52C3.00666 12.6005 3.12169 12.6436 3.23999 12.64C3.35829 12.6436 3.4732 12.6005 3.55994 12.52L4.85999 11.23C4.93659 11.1469 4.97913 11.038 4.97913 10.925C4.97913 10.812 4.93659 10.7031 4.85999 10.62C4.76942 10.5425 4.65409 10.5 4.53491 10.5C4.41574 10.5 4.30053 10.5425 4.20996 10.62V10.62Z" fill="#633BB3"/>
<path d="M8.05005 11.96C7.93241 11.96 7.81946 12.006 7.73535 12.0882C7.65124 12.1705 7.60271 12.2824 7.6001 12.4V14.22C7.60271 14.3376 7.65124 14.4495 7.73535 14.5318C7.81946 14.614 7.93241 14.66 8.05005 14.66C8.16674 14.66 8.27869 14.6136 8.36121 14.5311C8.44372 14.4486 8.49011 14.3367 8.49011 14.22V12.4C8.49011 12.2833 8.44372 12.1714 8.36121 12.0889C8.27869 12.0064 8.16674 11.96 8.05005 11.96Z" fill="#633BB3"/>
<path d="M12.86 12.64C12.9783 12.6436 13.0932 12.6005 13.1799 12.52C13.2581 12.4397 13.3019 12.3321 13.3019 12.22C13.3019 12.1079 13.2581 12.0003 13.1799 11.92L11.89 10.62C11.8069 10.5434 11.698 10.5009 11.585 10.5009C11.4719 10.5009 11.363 10.5434 11.2799 10.62C11.2033 10.7031 11.1609 10.812 11.1609 10.925C11.1609 11.038 11.2033 11.1469 11.2799 11.23L12.58 12.52C12.615 12.5593 12.6583 12.5903 12.7067 12.6111C12.755 12.6318 12.8074 12.6417 12.86 12.64V12.64Z" fill="#633BB3"/>
<path d="M12.6201 7.39C12.6201 7.50669 12.6664 7.61861 12.7489 7.70113C12.8314 7.78364 12.9434 7.83 13.0601 7.83H14.8801C14.9379 7.83 14.9951 7.81862 15.0485 7.79651C15.1018 7.7744 15.1503 7.74198 15.1912 7.70113C15.232 7.66027 15.2645 7.61176 15.2866 7.55838C15.3087 7.505 15.3201 7.44778 15.3201 7.39C15.3201 7.33222 15.3087 7.275 15.2866 7.22162C15.2645 7.16824 15.232 7.11973 15.1912 7.07887C15.1503 7.03801 15.1018 7.00561 15.0485 6.9835C14.9951 6.96139 14.9379 6.95 14.8801 6.95H13.0601C12.9434 6.95 12.8314 6.99636 12.7489 7.07887C12.6664 7.16139 12.6201 7.2733 12.6201 7.39Z" fill="#633BB3"/>
<path d="M11.61 4.32C11.7283 4.32364 11.8432 4.28053 11.9299 4.2L13.22 2.9C13.2959 2.81855 13.3381 2.71134 13.3381 2.6C13.3381 2.48865 13.2959 2.38145 13.22 2.3C13.1397 2.22181 13.032 2.17806 12.9199 2.17806C12.8079 2.17806 12.7003 2.22181 12.62 2.3L11.2799 3.55C11.2033 3.6331 11.1609 3.74198 11.1609 3.855C11.1609 3.96802 11.2033 4.0769 11.2799 4.16C11.3163 4.21305 11.3658 4.25571 11.4237 4.28377C11.4816 4.31183 11.5458 4.32431 11.61 4.32V4.32Z" fill="#633BB3"/>
</svg>
