<svg width="24" height="24" viewBox="0 0 24 24" fill="none" xmlns="http://www.w3.org/2000/svg">
<path fill-rule="evenodd" clip-rule="evenodd" d="M4.83109 2.78743C6.44866 1.97864 8.63079 1.5 11 1.5C13.3692 1.5 15.5513 1.97864 17.1689 2.78743C18.7416 3.57377 20 4.79884 20 6.375V17.625C20 19.2012 18.7416 20.4262 17.1689 21.2126C15.5513 22.0214 13.3692 22.5 11 22.5C8.63079 22.5 6.44866 22.0214 4.83109 21.2126C3.25841 20.4262 2 19.2012 2 17.625V6.375C2 4.79884 3.25841 3.57377 4.83109 2.78743ZM3.5 9.11779V10.125C3.5 10.8268 4.08859 11.6643 5.50191 12.3709C6.87033 13.0551 8.81321 13.5 11 13.5C13.1868 13.5 15.1297 13.0551 16.4981 12.3709C17.9114 11.6643 18.5 10.8268 18.5 10.125V9.11779C18.104 9.43896 17.6512 9.7214 17.1689 9.96257C15.5513 10.7714 13.3692 11.25 11 11.25C8.63079 11.25 6.44866 10.7714 4.83109 9.96257C4.34875 9.7214 3.89598 9.43896 3.5 9.11779ZM18.5 12.8678C18.104 13.189 17.6512 13.4714 17.1689 13.7126C15.5513 14.5214 13.3692 15 11 15C8.63079 15 6.44866 14.5214 4.83109 13.7126C4.34875 13.4714 3.89598 13.189 3.5 12.8678V13.875C3.5 14.5768 4.08859 15.4143 5.50191 16.1209C6.87033 16.8051 8.81321 17.25 11 17.25C13.1868 17.25 15.1297 16.8051 16.4981 16.1209C17.9114 15.4143 18.5 14.5768 18.5 13.875V12.8678ZM18.5 16.6178C18.104 16.939 17.6512 17.2214 17.1689 17.4626C15.5513 18.2714 13.3692 18.75 11 18.75C8.63079 18.75 6.44866 18.2714 4.83109 17.4626C4.34875 17.2214 3.89598 16.939 3.5 16.6178V17.625C3.5 18.3268 4.08859 19.1643 5.50191 19.8709C6.87033 20.5551 8.81321 21 11 21C13.1868 21 15.1297 20.5551 16.4981 19.8709C17.9114 19.1643 18.5 18.3268 18.5 17.625V16.6178ZM3.5 6.375C3.5 5.67316 4.08859 4.83573 5.50191 4.12907C6.87033 3.44486 8.81321 3 11 3C13.1868 3 15.1297 3.44486 16.4981 4.12907C17.9114 4.83573 18.5 5.67316 18.5 6.375C18.5 7.07684 17.9114 7.91427 16.4981 8.62093C15.1297 9.30514 13.1868 9.75 11 9.75C8.81321 9.75 6.87033 9.30514 5.50191 8.62093C4.08859 7.91427 3.5 7.07684 3.5 6.375Z" fill="url(#paint0_linear_212_97)"/>
<defs>
<linearGradient id="paint0_linear_212_97" x1="1.98994" y1="12.0558" x2="19.9865" y2="12.0558" gradientUnits="userSpaceOnUse">
<stop stop-color="#FDFB01"/>
<stop offset="1" stop-color="#B1FB23"/>
</linearGradient>
</defs>
</svg>
