<svg width="29" height="35" viewBox="0 0 29 35" fill="none" xmlns="http://www.w3.org/2000/svg">
<path d="M22.8002 14.2001V8.1001C22.8002 3.7001 19.2002 0.100098 14.8002 0.100098H14.4002C10.0002 0.100098 6.40021 3.7001 6.40021 8.1001V14.1001C3.20021 14.3001 0.700195 16.9001 0.700195 20.1001V28.1001C0.700195 31.4001 3.4002 34.1001 6.7002 34.1001H22.3002C25.6002 34.1001 28.3002 31.4001 28.3002 28.1001V20.1001C28.3002 17.1001 25.8002 14.5001 22.8002 14.2001ZM17.2002 14.2001H11.8002V8.6001C11.8002 7.1001 13.0002 5.90015 14.5002 5.90015C16.0002 5.90015 17.2002 7.1001 17.2002 8.6001V14.2001ZM7.80017 8.20007C7.80017 4.60007 10.7002 1.70007 14.3002 1.70007H14.7002C18.3002 1.70007 21.2002 4.60007 21.2002 8.20007V14.2001H18.8002V8.6001C18.8002 6.2001 16.9002 4.30017 14.5002 4.30017C12.1002 4.30017 10.2002 6.2001 10.2002 8.6001V14.2001H7.80017V8.20007ZM26.7002 28.2001C26.7002 30.7001 24.7002 32.6001 22.3002 32.6001H6.7002C4.2002 32.6001 2.30017 30.6001 2.30017 28.2001V20.2001C2.30017 17.7001 4.3002 15.8002 6.7002 15.8002H22.3002C24.8002 15.8002 26.7002 17.8001 26.7002 20.2001V28.2001Z" fill="#44D970"/>
<path d="M14.4004 19.7002C11.9004 19.7002 9.90039 21.7002 9.90039 24.2002C9.90039 26.7002 11.9004 28.7002 14.4004 28.7002C16.9004 28.7002 18.9004 26.7002 18.9004 24.2002C18.9004 21.7002 16.9004 19.7002 14.4004 19.7002ZM14.4004 27.1002C12.8004 27.1002 11.5004 25.8002 11.5004 24.2002C11.5004 22.6002 12.8004 21.3003 14.4004 21.3003C16.0004 21.3003 17.3004 22.6002 17.3004 24.2002C17.3004 25.8002 16.0004 27.1002 14.4004 27.1002Z" fill="#44D970"/>
</svg>
