<svg width="277" height="48" viewBox="0 0 277 48" fill="none" xmlns="http://www.w3.org/2000/svg">
<path d="M26.4998 42.0001C23.0998 42.0001 20.0998 41.5001 17.3998 40.6001C15.2998 39.8001 13.2998 38.8001 11.6998 37.5001C8.89979 35.3001 7.99979 33.1001 7.99979 33.0001C7.99979 32.9001 7.89979 32.8001 7.79979 32.8001C7.79979 32.8001 3.59979 31.1001 2.59979 27.7001C1.99979 25.5001 2.39979 23.4001 3.99979 21.3001C5.19979 19.7001 6.49979 18.8001 6.49979 18.8001C6.59979 18.8001 6.59979 18.7001 6.59979 18.6001C6.59979 18.6001 8.69979 14.8001 12.1998 11.1001C14.2998 8.90007 16.4998 7.10007 18.6998 5.80007C21.4998 4.20007 24.2998 3.30007 27.1998 3.20007C27.4998 3.20007 27.8998 3.20007 28.1998 3.20007C30.9998 3.20007 33.6998 3.70007 36.3998 4.70007C38.5998 5.50007 40.6998 6.60007 42.6998 8.00007C46.1998 10.4001 48.1998 12.8001 48.1998 12.8001C48.2998 12.9001 48.3998 12.9001 48.4998 13.0001C48.4998 13.0001 49.6998 13.2001 50.9998 14.0001C52.6998 15.1001 53.5998 16.6001 53.7998 18.6001C54.1998 22.4001 50.3998 26.0001 50.3998 26.1001C50.2998 26.2001 50.2998 26.2001 50.2998 26.3001C48.7998 31.3001 46.0998 35.2001 42.3998 37.8001C39.2998 40.1001 35.3998 41.4001 30.7998 41.9001C29.2998 41.9001 27.7998 42.0001 26.4998 42.0001Z" fill="white"/>
<path d="M16.6999 39.4C14.5999 38.7 12.6999 37.5 10.9999 36.5C7.59992 34.6 5.59992 32.4 4.99992 31.3C4.89992 31.2 3.59992 31.4 3.99992 30.4C3.99992 30.4 3.09992 28.9 2.19992 27.3C1.49992 26 1.69992 24 3.19992 22.1C4.29992 20.6 3.79992 22.7 3.79992 22.7C3.89992 22.7 5.89992 18.8 5.89992 18.8C5.89992 18.8 7.89992 15.3 11.2999 11.8C13.2999 9.8 15.3999 8.1 17.5999 6.9C20.2999 5.4 22.9999 4.6 25.7999 4.5C26.0999 4.5 26.4999 4.5 26.7999 4.5C29.4999 4.5 29.4999 4 32.0999 5C34.1999 5.7 34.6999 5.4 40.8999 9C44.3999 11 49.7999 16 49.8999 16.1C50.1999 16.5 49.4999 15.3 49.5999 15.3C49.5999 15.3 48.0999 13.4 49.3999 14.2C50.9999 15.2 51.5999 17.5 51.6999 18.5C51.8999 21.2 50.3999 24.7 50.3999 24.7C50.2999 24 50.1999 23.8 50.0999 23.9C48.5999 28.6 44.0999 34.4 40.0999 36.9C30.6999 42.5 19.2999 40.3 16.6999 39.4Z" fill="#FFFF51"/>
<path d="M23.5 23.2001C26.1509 23.2001 28.3 21.4092 28.3 19.2001C28.3 16.9909 26.1509 15.2001 23.5 15.2001C20.849 15.2001 18.7 16.9909 18.7 19.2001C18.7 21.4092 20.849 23.2001 23.5 23.2001Z" fill="white"/>
<path d="M35.3999 21.9C38.0508 21.9 40.1999 20.1092 40.1999 17.9C40.1999 15.6909 38.0508 13.9 35.3999 13.9C32.7489 13.9 30.5999 15.6909 30.5999 17.9C30.5999 20.1092 32.7489 21.9 35.3999 21.9Z" fill="white"/>
<path d="M28.7998 18.6001C28.6998 17.6001 28.0998 16.7001 27.2998 16.0001C26.1998 15.1001 24.5998 14.7001 22.8998 14.9001C22.0998 15.0001 21.3998 15.2001 20.6998 15.6001C18.7998 16.5001 17.5998 18.2001 17.8998 20.1001C17.9998 21.1001 18.5998 22.0001 19.3998 22.7001C20.2998 23.4001 21.5998 23.8001 22.8998 23.8001C23.1998 23.8001 23.4998 23.8001 23.6998 23.7001C24.4998 23.6001 25.1998 23.4001 25.8998 23.0001C27.7998 22.2001 28.9998 20.4001 28.7998 18.6001ZM25.5998 22.5001C25.0998 22.8001 24.4998 22.9001 23.7998 23.0001C23.6998 23.0001 23.4998 23.0001 23.3998 23.0001C24.1998 22.0001 24.6998 20.7001 24.4998 19.2001C24.4998 18.9001 24.3998 18.6001 24.2998 18.4001C24.0998 18.5001 23.8998 18.6001 23.5998 18.6001C22.8998 18.7001 22.2998 18.3001 22.2998 17.9001C22.1998 17.4001 22.7998 16.9001 23.3998 16.9001H23.4998C23.1998 16.5001 22.7998 16.1001 22.3998 15.8001C22.4998 15.8001 22.5998 15.8001 22.6998 15.7001C22.9998 15.7001 23.1998 15.7001 23.4998 15.7001C24.6998 15.7001 25.7998 16.0001 26.5998 16.7001C27.2998 17.3001 27.7998 18.0001 27.8998 18.8001C28.0998 20.3001 27.1998 21.7001 25.5998 22.5001Z" fill="#39146E"/>
<path d="M40.6 17.4C40.5 16.4 39.9 15.5 39.1 14.8C38 13.9 36.4 13.5 34.7 13.7C34.1 13.8 33.6 13.9 33.1 14.1C32.2 14.4 31.5 14.9 30.9 15.5C30 16.5 29.5 17.6 29.7 18.8C29.8 19.8 30.4 20.7 31.2 21.4C32.1 22.1 33.4 22.5 34.7 22.5C35 22.5 35.3 22.5 35.5 22.4C36.1 22.3 36.6 22.2 37.1 22C38 21.7 38.7 21.2 39.3 20.6C40.3 19.7 40.8 18.6 40.6 17.4ZM36.9 21.4C36.5 21.5 36.1 21.6 35.7 21.7C35.6 21.7 35.4 21.7 35.3 21.7C36.1 20.7 36.6 19.4 36.4 17.9C36.4 17.6 36.3 17.4 36.3 17.2C36.1 17.3 36 17.3 35.8 17.3C35.1 17.3 34.5 17 34.5 16.5C34.5 16.1 34.9 15.7 35.5 15.6C35.2 15.2 34.8 14.8 34.4 14.5C34.5 14.5 34.6 14.5 34.7 14.5C35 14.5 35.2 14.5 35.5 14.5C36.7 14.5 37.8 14.8 38.6 15.5C39.3 16.1 39.8 16.8 39.9 17.6C39.9 19.2 38.7 20.7 36.9 21.4Z" fill="#39146E"/>
<path d="M29.3 28.9C25.9 29 22.9 27.7 20.7 25.6C21 25.5 21.4 25.4 21.7 25.4C22 25.4 22.2 25.4 22.4 25.5C22 25.2 21.5 25 21 25C19.9 25 19 25.8 19 26.8C19 27.1 19.1 27.4 19.3 27.7C19.3 27.1 19.5 26.6 19.9 26.2C22 28.8 25.2 30.4 28.7 30.2C32.4 30.1 35.7 28 37.5 25.1C35.6 27.3 32.7 28.8 29.3 28.9Z" fill="#39146E"/>
<path d="M29.1999 36.9001C27.3999 36.9001 25.8999 36.1001 25.0999 34.9001C25.5999 36.7001 27.2999 38.1 29.2999 38.1C31.4999 38.1 33.3999 36.5 33.6999 34.3C32.8999 35.9 31.1999 36.9001 29.1999 36.9001Z" fill="#39146E"/>
<path d="M33.2 41.5001C33.2 41.5001 35.4 40.8001 36.3 41.0001C37.2 41.2001 37.6 42.0001 37.6 42.0001C37.6 42.0001 37.7 40.7001 36.8 40.4001C35.9 40.1001 34.1 40.8001 33.2 41.5001Z" fill="white"/>
<path d="M31.3999 41.4C31.3999 41.4 32.2999 41.4 32.5999 42.5C32.5999 42.6 33.0999 41 31.3999 41.4Z" fill="white"/>
<path d="M14 15.0001C14.8 15.5001 14.5 17.1001 13.4 18.7001C12.3 20.3001 11 21.4001 10.2 20.9001C9.40003 20.4001 9.70003 18.8001 10.8 17.2001C11.8 15.6001 13.2 14.5001 14 15.0001Z" fill="white"/>
<path d="M15.6753 14.4306C16.3432 14.041 16.6365 13.2997 16.3304 12.775C16.0242 12.2502 15.2346 12.1406 14.5667 12.5303C13.8989 12.9199 13.6056 13.6611 13.9117 14.1859C14.2178 14.7107 15.0074 14.8202 15.6753 14.4306Z" fill="white"/>
<path d="M54.8999 18.6001C54.5999 15.0001 51.8999 13.5001 50.3999 12.9001C50.3999 12.9001 43.9999 6.00007 35.0999 3.70007C34.1999 3.40007 33.1999 3.20007 32.2999 3.10007C30.9999 2.90007 29.5999 2.70007 28.0999 2.70007C27.7999 2.70007 27.3999 2.70007 27.0999 2.70007C14.1999 3.30007 6.39991 17.5001 6.39991 17.5001C6.39991 17.5001 -1.10009 22.4001 0.999913 28.7001C2.09991 32.4001 6.69991 34.3001 6.69991 34.3001C6.69991 34.3001 10.2999 41.8001 21.4999 43.6001C23.0999 43.9001 24.8999 44.1001 26.8999 44.1001C28.2999 44.1001 29.6999 44.0001 31.1999 43.9001C39.4999 43.0001 48.1999 38.1001 51.4999 27.2001C51.4999 27.1001 55.2999 22.6001 54.8999 18.6001ZM50.6999 25.0001C50.6999 24.6001 50.4999 23.7001 50.1999 23.3001C50.1999 23.5001 50.0999 25.3001 49.2999 27.6001C48.5999 29.5001 47.6999 31.3001 46.5999 32.8001C45.2999 34.6001 43.7999 36.1001 42.0999 37.4001C38.9999 39.6001 35.1999 41.0001 30.7999 41.4001C29.2999 41.6001 27.8999 41.6001 26.5999 41.6001C24.8999 41.6001 23.3999 41.5001 21.8999 41.3001C20.5999 41.1001 19.3999 40.8001 18.2999 40.4001C16.1999 39.7001 14.2999 38.7001 12.6999 37.4001C11.2999 36.3001 10.3999 35.2001 9.79991 34.4001C9.49991 34.0001 9.29991 33.6001 9.09991 33.4001C8.19991 31.6001 7.89991 29.3001 7.89991 29.5001C7.59991 30.4001 7.79991 31.7001 7.59991 32.2001C7.19991 32.0001 6.79991 31.7001 6.29991 31.4001C5.59991 30.9001 5.09991 30.4001 4.59991 29.9001C4.09991 29.2001 3.69991 28.5001 3.49991 27.8001C3.19991 26.7001 3.19991 25.6001 3.39991 24.5001C3.59991 23.6001 4.09991 22.7001 4.69991 21.8001C5.29991 20.9001 6.09991 20.2001 6.59991 19.8001C6.39991 21.4001 6.89991 23.1001 6.89991 23.1001C7.59991 19.0001 9.29991 16.4001 10.1999 15.0001C10.9999 13.9001 11.9999 12.8001 13.0999 11.6001C15.1999 9.40007 17.2999 7.70007 19.4999 6.40007C22.1999 4.80007 24.9999 4.00007 27.7999 3.80007C28.0999 3.80007 28.4999 3.80007 28.7999 3.80007C29.8999 3.80007 31.0999 3.90007 32.1999 4.10007C33.5999 4.30007 34.8999 4.70007 36.1999 5.20007C38.2999 6.00007 40.3999 7.10007 42.3999 8.40007C45.3999 10.5001 47.2999 12.5001 47.7999 13.0001C48.2999 13.6001 48.9999 14.4001 50.0999 16.2001C50.0999 15.5001 49.8999 14.6001 49.5999 13.8001C49.8999 13.9001 50.3999 14.1001 50.6999 14.3001C52.1999 15.3001 53.0999 16.7001 53.2999 18.5001C53.4999 20.9001 51.8999 23.9001 50.6999 25.0001Z" fill="#39146E"/>
<path d="M27.3999 0.700049V1.10005V0.700049C17.3999 0.500049 10.5999 8.90005 10.5999 8.90005C12.0999 9.40005 13.4999 9.60005 14.8999 9.60005C18.2999 9.70005 20.7999 9.20005 20.7999 9.20005L19.9999 11.6C32.6999 10.1 35.9999 3.40005 35.9999 3.40005C33.3999 1.20005 30.0999 0.800049 27.3999 0.700049Z" fill="#39146E"/>
<path d="M14.3999 7.5001C16.9999 8.0001 20.0999 7.7001 23.1999 7.1001C22.7999 7.7001 22.5999 8.5001 22.3999 9.3001C22.3999 9.3001 24.2999 9.1001 25.5999 8.7001C31.9999 7.1001 34.4999 3.6001 34.4999 3.6001C23.6999 -2.1999 14.3999 7.5001 14.3999 7.5001Z" fill="#44D970"/>
<path d="M34.3998 3.6001C34.3998 3.6001 30.5998 6.4001 22.2998 9.3001C22.2998 9.3001 30.1998 8.8001 34.3998 3.6001Z" fill="white"/>
<path d="M31.3 43.4L31.1 41.7C31.1 41.6 30.9 41.2 30.9 41.1C30.9 41.1 30.9 41.1 30.8 41.1C30.8 41 30.8 41 30.7 41C30.6 41 28.6 40.1 26.7 39.9C26.2 39.9 25.8 39.9 25.5 40C24.5 40.2 24.1 41 23.9 41.9C23.5 42.8 23.6 44 23.8 44.9C23.9 45.5 24.2 46.1 24.6 46.6C25 47.1 25.5 47.4 26.1 47.3C26.2 47.3 26.3 47.3 26.5 47.2C28.2 46.8 31.1 44 31.2 43.9C31.3 43.8 31.3 43.8 31.3 43.7C31.4 43.6 31.4 43.6 31.4 43.6C31.3 43.6 31.3 43.5 31.3 43.4Z" fill="#39146E"/>
<path d="M30.5999 41.7001C30.5999 41.7001 27.9999 40.7001 26.4999 41.1001C24.8999 41.5001 25.6999 45.3001 27.1999 45.3001C28.6999 45.3001 30.6999 43.4001 30.6999 43.4001L30.5999 41.7001Z" fill="#44D970"/>
<path d="M37.4 39C37.1 39 36.8 39.1 36.3 39.1C35 39.4 33.4 40.3 32.7 40.7C33.1 41.1 33.4 41.6 33.5 42.2C33.5 42.8 33.4 43.3 33 43.7C33.7 44.3 35.6 45.8 37 45.7C38.3 45.6 39.3 44.9 39.3 42.5C39.3 41.3 39.3 39 37.4 39Z" fill="#39146E"/>
<path d="M33 41.6L33.1 43.1C33.5 43.4 35.4 44.4 36.6 44.3C37.1 44.2 37.6 43.5001 37.6 42.2001C37.6 41.0001 37.1 40.5001 36.6 40.5001C36.5 40.5001 36.4 40.5001 36.4 40.5001C35.2 40.4001 33.5 41.4 33 41.6Z" fill="#44D970"/>
<path d="M33.7 42.3001C33.6 41.1001 32.6 40.2001 31.4 40.3001C30.8 40.3001 30.3 40.6001 29.9 41.0001C29.5 41.4001 29.3 42.0001 29.4 42.6001C29.5 43.8001 30.4 44.6001 31.6 44.6001C31.7 44.6001 31.7 44.6001 31.8 44.6001C32.4 44.6001 32.9 44.3001 33.3 43.9001C33.5 43.5001 33.7 42.9001 33.7 42.3001Z" fill="#39146E"/>
<path d="M32.8998 42.2C32.8998 42.9 32.2998 43.5 31.5998 43.5C30.8998 43.5 30.2998 42.9 30.2998 42.2C30.2998 41.6 30.6998 41.1 31.2998 40.9C31.3998 40.9 31.4998 40.9 31.4998 40.9C32.3998 41 32.8998 41.5 32.8998 42.2Z" fill="#44D970"/>
<path d="M129.5 36.4C127.2 36.4 125.1 36.4 122.8 36.4C122.8 34.8 122.8 33.3 122.8 31.8C122.8 29.8 122.8 27.9 122.8 25.9C122.8 25.1 122.9 24 121.9 24C121.4 24 120.6 24.9 120.5 25.5C120 27.6 119.7 29.7 119.5 31.9C119.3 33.3 119.5 34.8 119.5 36.3C117.2 36.3 115 36.3 112.8 36.3C112.8 31 112.8 25.8 112.8 20.4C114.9 20.4 117.1 20.4 119.5 20.4C119.3 21.3 119.2 22.1 118.9 22.9C118.2 24.9 117.5 26.8 116.9 28.7C118 29.3 118.2 28.9 118.5 28.2C119.2 26.2 119.8 24.2 120.8 22.5C122 20.3 124.3 19.6 126.4 20.3C128.5 21 129.2 22.6 128.5 24.7C128 26.1 127.7 27.5 127.2 28.9C128.1 29.3 128.4 29.2 128.6 28.4C129 26.9 129.4 25.4 130.1 24C130.5 23.1 131.1 22.3 131.8 21.6C133.1 20.2 134.8 19.8 136.6 20.4C138.4 20.9 139.1 22.4 139.5 24.1C139.7 24.8 139.7 25.6 139.7 26.4C139.7 29.8 139.7 33.1 139.7 36.6C137.5 36.6 135.4 36.6 133 36.6C133 36.1 133 35.6 133 35.1C133 32.2 133 29.2 133 26.3C133 25.5 133.1 24.4 132.1 24.2C131 24 130.7 25.2 130.5 26C130.1 28.8 129.8 31.6 129.5 34.3C129.4 34.8 129.5 35.6 129.5 36.4Z" fill="white"/>
<path d="M159 20.5C159.3 20.5 159.6 20.4 159.8 20.4C161.7 20.4 163.6 20.4 165.8 20.4C165.6 21.4 165.4 22.3 165.1 23.1C164.5 25 163.8 26.8 163.2 28.7C164.2 29.2 164.4 29.1 164.7 28.2C165.3 26.3 166 24.4 166.8 22.6C167.1 22 167.6 21.5 168.2 21C171 18.7 174.7 20.1 175.5 23.7C175.7 24.7 175.8 25.8 175.8 26.8C175.8 29.9 175.8 33.1 175.8 36.3C173.6 36.3 171.5 36.3 169.2 36.3C169.2 35.9 169.1 35.5 169.1 35C169.1 32 169.1 29 169.1 25.9C169.1 25.1 169.3 24 168.2 23.8C167.1 23.6 166.8 24.8 166.6 25.6C166.2 28.4 165.9 31.2 165.6 33.9C165.5 34.6 165.6 35.4 165.6 36.2C163.3 36.2 161.2 36.2 159 36.2C159 31.1 159 25.8 159 20.5Z" fill="white"/>
<path d="M99.2 27.9001C98.9 28.1001 98.7 28.4001 98.5 28.6001C98.6 28.8001 98.6 28.9001 98.6 29.0001C100 31.1001 102.1 31.6001 104.4 31.7001C106.3 31.8001 108.2 31.7001 110.4 31.7001C109.3 33.3001 108.4 34.7001 107.4 36.1001C107.2 36.3001 106.8 36.4001 106.5 36.4001C103.8 36.4001 101 36.4001 98.3 36.4001C97.9 36.4001 97.5 36.3001 97.2 36.1001C95.3 34.4001 94 32.3001 93.7 29.7001C93.2 24.4001 95.8 20.8001 100.8 20.0001C103.2 19.6001 105.6 19.8001 107.8 21.0001C111.1 22.8001 111.4 26.9001 108.4 29.3001C105.7 31.5001 102.2 31.0001 99.2 27.9001ZM100 26.2001C100.1 26.5001 100.3 27.1001 100.7 27.3001C101.1 27.5001 101.8 27.4001 102.2 27.1001C103.5 26.2001 104.2 24.9001 104.3 23.3001C104.3 22.0001 103.4 21.4001 102.3 22.1001C100.9 23.0001 100.2 24.3001 100 26.2001Z" fill="white"/>
<path d="M92.1999 31.7C91.1999 33.3 90.2999 34.6 89.3999 35.9C89.1999 36.2 88.6999 36.4 88.2999 36.4C85.4999 36.4 82.7999 36.4 79.9999 36.4C79.5999 36.4 79.1999 36.3 78.9999 36.1C75.7999 33.5 74.5999 28.9 76.0999 25C76.6999 23.4 77.6999 22.1 79.1999 21.2C82.6999 19.2 86.3999 19.2 89.8999 21.1C92.7999 22.7 93.1999 26.2 90.8999 28.6C88.4999 31.2 84.2999 31.3 81.7999 28.8C81.4999 28.5 81.2999 28.2 80.8999 27.9C80.6999 28.1 80.3999 28.4 80.1999 28.6C81.5999 30.9 83.7999 31.5 86.0999 31.6C87.9999 31.8 89.9999 31.7 92.1999 31.7ZM85.9999 23.3C85.8999 23 85.6999 22.3 85.3999 22.1C84.9999 21.9 84.2999 22 83.8999 22.2C82.4999 23.1 81.7999 24.4 81.7999 26.1C81.7999 27.4 82.6999 27.9 83.6999 27.3C84.9999 26.5 85.6999 25.1 85.9999 23.3Z" fill="white"/>
<path d="M156.9 29.0001C156.9 34.7001 151.6 38.3001 146.6 35.9001C143 34.1001 140.9 29.9001 141.6 25.9001C142.4 21.4001 146.6 18.9001 150.8 20.3001C154.4 21.4001 156.9 25.1001 156.9 29.0001ZM147.4 32.3001C147.4 34.5001 148.3 35.2001 149.7 34.3001C152.2 32.7001 153.6 30.4001 154 27.3001C154.2 25.6001 153.1 24.9001 151.7 25.8001C149.1 27.4001 147.9 29.9001 147.4 32.3001Z" fill="white"/>
<path d="M62.3999 36.3001C62.3999 29.7001 62.3999 23.2001 62.3999 16.6001C64.4999 16.6001 66.5999 16.6001 68.8999 16.6001C68.8999 21.0001 68.8999 25.4001 68.8999 29.9001C70.6999 29.9001 72.3999 29.9001 74.1999 29.9001C74.1999 32.1001 74.1999 34.2001 74.1999 36.3001C70.2999 36.3001 66.3999 36.3001 62.3999 36.3001Z" fill="white"/>
<path d="M216.5 20.4C216.8 23.9 217.1 27.2 217.3 30.6C217.4 31.4 217.5 31.8 218.2 31.5C218.6 27.8 219 24.1 219.3 20.4C221.8 20.4 224 20.4 226.3 20.4C225.8 22.1 225.3 23.6001 224.8 25.2001C223.7 28.6 222.6 32 221.5 35.5C221.3 36.3 220.9 36.6 220.1 36.5C218.5 36.4 216.9 36.5 215.4 36.5C214.8 36.5 214.5 36.3 214.2 35.6C213.6 33.9 213.2 32.2 213.3 30.3C213.4 28.7 213.3 27 213.3 25.3C212.9 25.3 212.5 25.3 212.1 25.3C212.1 27.4 212.2 29.4001 212.1 31.4001C212 32.9001 211.5 34.4001 211.1 35.9001C211 36.1001 210.6 36.4001 210.3 36.4001C208.5 36.4001 206.8 36.5001 205 36.4001C204.7 36.4001 204.2 36 204.1 35.6C202.4 30.6 200.8 25.6 199.2 20.4C201.5 20.4 203.7 20.4 206.3 20.4C206.7 24 207.1 27.7001 207.4 31.4001C207.4 31.4001 207.5 31.4001 207.6 31.4001C207.8 31.4001 208 31.4001 208.1 31.4001C208.5 27.7001 208.9 24 209.3 20.3C211.6 20.4 213.8 20.4 216.5 20.4Z" fill="white"/>
<path d="M256.6 33.1001C256.6 35.9001 256.6 38.5001 256.6 41.1001C254.3 41.1001 252.2 41.1001 250 41.1001C250 34.1001 250 27.2001 250 20.1001C252.2 20.1001 254.3 20.1001 256.8 20.1001C256.5 21.0001 256.3 21.7001 256 22.5001C255.4 24.2001 254.8 25.9001 254.3 27.7001C254.2 28.0001 254.7 28.4001 254.9 28.7001C255.1 28.4001 255.5 28.1001 255.5 27.8001C255.8 25.1001 257 23.0001 259 21.4001C261.7 19.3001 265.1 19.0001 267.6 20.7001C270.2 22.5001 271.4 25.8001 270.6 29.2001C269.8 32.5001 268 34.8001 264.9 35.9001C262.1 36.9001 259.5 36.3001 257.4 34.0001C257.3 33.8001 257 33.5001 256.6 33.1001ZM265.4 24.3001C265.4 22.3001 264.6 21.7001 263.3 22.3001C261.2 23.3001 258.8 27.2001 258.9 29.7001C259 31.1001 259.8 31.7001 261 31.0001C263.6 29.4001 265 26.9001 265.4 24.3001Z" fill="white"/>
<path d="M240.8 23.4C240.8 22.3 240.8 21.4 240.8 20.5C243 20.5 245.2 20.5 247.4 20.5C247.4 20.9 247.5 21.2 247.5 21.5C247.5 26.1 247.5 30.8 247.5 35.4C247.5 36.3 247.3 36.6 246.4 36.6C244.6 36.5 242.8 36.6 241 36.6C240.6 35.6 240.9 34.9 241.3 34C242 32.4 242.5 30.7 243 28.9C243.2 28.1 242.9 27.6 241.9 27.9C241.7 31 240.5 33.6 238 35.4C236.5 36.5 234.9 37 233.1 37C230 36.9 227.4 34.7 226.6 31.5C225.6 27.7 227.3 23.5 230.6 21.4C234.1 19.2 237 19.8 240.8 23.4ZM232.3 32.5C232.3 34.5 233.2 35.3 234.5 34.4C237.1 32.8 238.5 30.3 238.8 27.2C238.9 25.7 237.9 25 236.6 25.8C234.1 27.4 232.8 29.9 232.3 32.5Z" fill="white"/>
<path d="M198.4 22.8C197.2 22.5 196.2 22 195.2 21.9C194 21.7 192.7 21.7 191.4 21.8C191 21.8 190.3 22.4 190.2 22.9C190.1 23.3 190.5 24.1 190.9 24.4C191.7 24.9 192.7 25.3 193.6 25.7C194.6 26.1 195.6 26.4 196.5 26.8C199.5 28.2 200.2 31.3 197.9 34C196.7 35.4 195.2 36.1 193.5 36.3C190.1 36.8 186.8 36.4 183.6 35.5C182.9 35.3 182.6 35 182.6 34.2C182.7 32.6 182.6 30.9 182.6 29C183 29.2 183.4 29.4 183.7 29.5C185.8 30.6 187.9 30.9 190.2 30.7C191.2 30.6 192 30.3 192.2 29.1C192.4 28 191.8 27.3 190.9 26.9C189.6 26.3 188.2 25.8 186.8 25.2C186.4 25 186 24.9 185.6 24.7C182.4 23.1 182 19.7 184.8 17.5C185.8 16.7 187.3 16.1 188.6 15.9C191.6 15.5 194.5 16 197.4 16.7C197.7 16.8 198.2 17.2 198.2 17.5C198.4 19.3 198.4 21 198.4 22.8Z" fill="white"/>
<path d="M273.9 24.6C272.7 24.6 271.7 23.6 271.7 22.3C271.7 21 272.7 20 273.9 20C275.1 20 276.1 21 276.1 22.3C276.1 23.6 275.1 24.6 273.9 24.6ZM273.9 20.5C272.9 20.5 272.1 21.3 272.1 22.3C272.1 23.3 272.9 24.1 273.9 24.1C274.9 24.1 275.7 23.3 275.7 22.3C275.7 21.3 274.9 20.5 273.9 20.5Z" fill="white"/>
<path d="M273.9 23.6C273.4 23.6 272.9 23.1 272.9 22.6H273.3C273.3 22.9 273.6 23.2 273.9 23.2C274.2 23.2 274.5 22.9 274.5 22.6H274.9C274.9 23.1 274.4 23.6 273.9 23.6Z" fill="white"/>
<path d="M273.1 22.2C273.266 22.2 273.4 22.0657 273.4 21.9C273.4 21.7343 273.266 21.6 273.1 21.6C272.934 21.6 272.8 21.7343 272.8 21.9C272.8 22.0657 272.934 22.2 273.1 22.2Z" fill="white"/>
<path d="M274.7 22.2C274.866 22.2 275 22.0657 275 21.9C275 21.7343 274.866 21.6 274.7 21.6C274.534 21.6 274.4 21.7343 274.4 21.9C274.4 22.0657 274.534 22.2 274.7 22.2Z" fill="white"/>
</svg>
