<svg width="277" height="48" viewBox="0 0 277 48" fill="none" xmlns="http://www.w3.org/2000/svg">
<path d="M26.4998 42.0002C23.0998 42.0002 20.0998 41.5002 17.3998 40.6002C15.2998 39.8002 13.2998 38.8002 11.6998 37.5002C8.89979 35.3002 7.99979 33.1002 7.99979 33.0002C7.99979 32.9002 7.89979 32.8002 7.79979 32.8002C7.79979 32.8002 3.59979 31.1002 2.59979 27.7002C1.99979 25.5002 2.39979 23.4002 3.99979 21.3002C5.19979 19.7002 6.49979 18.8002 6.49979 18.8002C6.59979 18.8002 6.59979 18.7002 6.59979 18.6002C6.59979 18.6002 8.69979 14.8002 12.1998 11.1002C14.2998 8.9002 16.4998 7.1002 18.6998 5.8002C21.4998 4.2002 24.2998 3.3002 27.1998 3.2002C27.4998 3.2002 27.8998 3.2002 28.1998 3.2002C30.9998 3.2002 33.6998 3.7002 36.3998 4.7002C38.5998 5.5002 40.6998 6.6002 42.6998 8.0002C46.1998 10.4002 48.1998 12.8002 48.1998 12.8002C48.2998 12.9002 48.3998 12.9002 48.4998 13.0002C48.4998 13.0002 49.6998 13.2002 50.9998 14.0002C52.6998 15.1002 53.5998 16.6002 53.7998 18.6002C54.1998 22.4002 50.3998 26.0002 50.3998 26.1002C50.2998 26.2002 50.2998 26.2002 50.2998 26.3002C48.7998 31.3002 46.0998 35.2002 42.3998 37.8002C39.2998 40.1002 35.3998 41.4002 30.7998 41.9002C29.2998 41.9002 27.7998 42.0002 26.4998 42.0002Z" fill="white"/>
<path d="M16.6999 39.4C14.5999 38.7 12.6999 37.5 10.9999 36.5C7.59992 34.6 5.59992 32.4 4.99992 31.3C4.89992 31.2 3.59992 31.4 3.99992 30.4C3.99992 30.4 3.09992 28.9 2.19992 27.3C1.49992 26 1.69992 24 3.19992 22.1C4.29992 20.6 3.79992 22.7 3.79992 22.7C3.89992 22.7 5.89992 18.8 5.89992 18.8C5.89992 18.8 7.89992 15.3 11.2999 11.8C13.2999 9.8 15.3999 8.1 17.5999 6.9C20.2999 5.4 22.9999 4.6 25.7999 4.5C26.0999 4.5 26.4999 4.5 26.7999 4.5C29.4999 4.5 29.4999 4 32.0999 5C34.1999 5.7 34.6999 5.4 40.8999 9C44.3999 11 49.7999 16 49.8999 16.1C50.1999 16.5 49.4999 15.3 49.5999 15.3C49.5999 15.3 48.0999 13.4 49.3999 14.2C50.9999 15.2 51.5999 17.5 51.6999 18.5C51.8999 21.2 50.3999 24.7 50.3999 24.7C50.2999 24 50.1999 23.8 50.0999 23.9C48.5999 28.6 44.0999 34.4 40.0999 36.9C30.6999 42.5 19.2999 40.3 16.6999 39.4Z" fill="#FFFF51"/>
<path d="M23.5002 23.2002C26.1512 23.2002 28.3002 21.4093 28.3002 19.2002C28.3002 16.9911 26.1512 15.2002 23.5002 15.2002C20.8492 15.2002 18.7002 16.9911 18.7002 19.2002C18.7002 21.4093 20.8492 23.2002 23.5002 23.2002Z" fill="white"/>
<path d="M35.3996 21.8994C38.0506 21.8994 40.1996 20.1086 40.1996 17.8994C40.1996 15.6903 38.0506 13.8994 35.3996 13.8994C32.7486 13.8994 30.5996 15.6903 30.5996 17.8994C30.5996 20.1086 32.7486 21.8994 35.3996 21.8994Z" fill="white"/>
<path d="M28.8003 18.6001C28.7003 17.6001 28.1003 16.7001 27.3003 16.0001C26.2003 15.1001 24.6003 14.7001 22.9003 14.9001C22.1003 15.0001 21.4003 15.2001 20.7003 15.6001C18.8003 16.5001 17.6003 18.2001 17.9003 20.1001C18.0003 21.1001 18.6003 22.0001 19.4003 22.7001C20.3003 23.4001 21.6003 23.8001 22.9003 23.8001C23.2003 23.8001 23.5003 23.8001 23.7003 23.7001C24.5003 23.6001 25.2003 23.4001 25.9003 23.0001C27.8003 22.2001 29.0003 20.4001 28.8003 18.6001ZM25.6003 22.5001C25.1003 22.8001 24.5003 22.9001 23.8003 23.0001C23.7003 23.0001 23.5003 23.0001 23.4003 23.0001C24.2003 22.0001 24.7003 20.7001 24.5003 19.2001C24.5003 18.9001 24.4003 18.6001 24.3003 18.4001C24.1003 18.5001 23.9003 18.6001 23.6003 18.6001C22.9003 18.7001 22.3003 18.3001 22.3003 17.9001C22.2003 17.4001 22.8003 16.9001 23.4003 16.9001H23.5003C23.2003 16.5001 22.8003 16.1001 22.4003 15.8001C22.5003 15.8001 22.6003 15.8001 22.7003 15.7001C23.0003 15.7001 23.2003 15.7001 23.5003 15.7001C24.7003 15.7001 25.8003 16.0001 26.6003 16.7001C27.3003 17.3001 27.8003 18.0001 27.9003 18.8001C28.1003 20.3001 27.2003 21.7001 25.6003 22.5001Z" fill="#39146E"/>
<path d="M40.6 17.3999C40.5 16.3999 39.9 15.4999 39.1 14.7999C38 13.8999 36.4 13.4999 34.7 13.6999C34.1 13.7999 33.6 13.8999 33.1 14.0999C32.2 14.3999 31.5 14.8999 30.9 15.4999C30 16.4999 29.5 17.5999 29.7 18.7999C29.8 19.7999 30.4 20.6999 31.2 21.3999C32.1 22.0999 33.4 22.4999 34.7 22.4999C35 22.4999 35.3 22.4999 35.5 22.3999C36.1 22.2999 36.6 22.1999 37.1 21.9999C38 21.6999 38.7 21.1999 39.3 20.5999C40.3 19.6999 40.8 18.5999 40.6 17.3999ZM36.9 21.3999C36.5 21.4999 36.1 21.5999 35.7 21.6999C35.6 21.6999 35.4 21.6999 35.3 21.6999C36.1 20.6999 36.6 19.3999 36.4 17.8999C36.4 17.5999 36.3 17.3999 36.3 17.1999C36.1 17.2999 36 17.2999 35.8 17.2999C35.1 17.2999 34.5 16.9999 34.5 16.4999C34.5 16.0999 34.9 15.6999 35.5 15.5999C35.2 15.1999 34.8 14.7999 34.4 14.4999C34.5 14.4999 34.6 14.4999 34.7 14.4999C35 14.4999 35.2 14.4999 35.5 14.4999C36.7 14.4999 37.8 14.7999 38.6 15.4999C39.3 16.0999 39.8 16.7999 39.9 17.5999C39.9 19.1999 38.7 20.6999 36.9 21.3999Z" fill="#39146E"/>
<path d="M29.3 28.9C25.9 29 22.9 27.7 20.7 25.6C21 25.5 21.4 25.4 21.7 25.4C22 25.4 22.2 25.4 22.4 25.5C22 25.2 21.5 25 21 25C19.9 25 19 25.8 19 26.8C19 27.1 19.1 27.4 19.3 27.7C19.3 27.1 19.5 26.6 19.9 26.2C22 28.8 25.2 30.4 28.7 30.2C32.4 30.1 35.7 28 37.5 25.1C35.6 27.3 32.7 28.8 29.3 28.9Z" fill="#39146E"/>
<path d="M29.1996 36.8998C27.3996 36.8998 25.8996 36.0998 25.0996 34.8998C25.5996 36.6998 27.2996 38.0998 29.2996 38.0998C31.4996 38.0998 33.3996 36.4998 33.6996 34.2998C32.8996 35.8998 31.1996 36.8998 29.1996 36.8998Z" fill="#39146E"/>
<path d="M33.2002 41.4994C33.2002 41.4994 35.4002 40.7994 36.3002 40.9994C37.2002 41.1994 37.6002 41.9994 37.6002 41.9994C37.6002 41.9994 37.7002 40.6994 36.8002 40.3994C35.9002 40.0994 34.1002 40.7994 33.2002 41.4994Z" fill="white"/>
<path d="M31.4004 41.4003C31.4004 41.4003 32.3004 41.4003 32.6004 42.5003C32.6004 42.6003 33.1004 41.0003 31.4004 41.4003Z" fill="white"/>
<path d="M14 14.9997C14.8 15.4997 14.5 17.0997 13.4 18.6997C12.3 20.2997 11 21.3997 10.2 20.8997C9.40003 20.3997 9.70003 18.7997 10.8 17.1997C11.8 15.5997 13.2 14.4997 14 14.9997Z" fill="white"/>
<path d="M15.6753 14.4303C16.3432 14.0406 16.6365 13.2994 16.3304 12.7746C16.0242 12.2498 15.2346 12.1403 14.5667 12.5299C13.8989 12.9195 13.6056 13.6608 13.9117 14.1855C14.2178 14.7103 15.0074 14.8199 15.6753 14.4303Z" fill="white"/>
<path d="M54.8999 18.6002C54.5999 15.0002 51.8999 13.5002 50.3999 12.9002C50.3999 12.9002 43.9999 6.0002 35.0999 3.7002C34.1999 3.4002 33.1999 3.2002 32.2999 3.1002C30.9999 2.9002 29.5999 2.7002 28.0999 2.7002C27.7999 2.7002 27.3999 2.7002 27.0999 2.7002C14.1999 3.3002 6.39991 17.5002 6.39991 17.5002C6.39991 17.5002 -1.10009 22.4002 0.999913 28.7002C2.09991 32.4002 6.69991 34.3002 6.69991 34.3002C6.69991 34.3002 10.2999 41.8002 21.4999 43.6002C23.0999 43.9002 24.8999 44.1002 26.8999 44.1002C28.2999 44.1002 29.6999 44.0002 31.1999 43.9002C39.4999 43.0002 48.1999 38.1002 51.4999 27.2002C51.4999 27.1002 55.2999 22.6002 54.8999 18.6002ZM50.6999 25.0002C50.6999 24.6002 50.4999 23.7002 50.1999 23.3002C50.1999 23.5002 50.0999 25.3002 49.2999 27.6002C48.5999 29.5002 47.6999 31.3002 46.5999 32.8002C45.2999 34.6002 43.7999 36.1002 42.0999 37.4002C38.9999 39.6002 35.1999 41.0002 30.7999 41.4002C29.2999 41.6002 27.8999 41.6002 26.5999 41.6002C24.8999 41.6002 23.3999 41.5002 21.8999 41.3002C20.5999 41.1002 19.3999 40.8002 18.2999 40.4002C16.1999 39.7002 14.2999 38.7002 12.6999 37.4002C11.2999 36.3002 10.3999 35.2002 9.79991 34.4002C9.49991 34.0002 9.29991 33.6002 9.09991 33.4002C8.19991 31.6002 7.89991 29.3002 7.89991 29.5002C7.59991 30.4002 7.79991 31.7002 7.59991 32.2002C7.19991 32.0002 6.79991 31.7002 6.29991 31.4002C5.59991 30.9002 5.09991 30.4002 4.59991 29.9002C4.09991 29.2002 3.69991 28.5002 3.49991 27.8002C3.19991 26.7002 3.19991 25.6002 3.39991 24.5002C3.59991 23.6002 4.09991 22.7002 4.69991 21.8002C5.29991 20.9002 6.09991 20.2002 6.59991 19.8002C6.39991 21.4002 6.89991 23.1002 6.89991 23.1002C7.59991 19.0002 9.29991 16.4002 10.1999 15.0002C10.9999 13.9002 11.9999 12.8002 13.0999 11.6002C15.1999 9.4002 17.2999 7.7002 19.4999 6.4002C22.1999 4.8002 24.9999 4.0002 27.7999 3.8002C28.0999 3.8002 28.4999 3.8002 28.7999 3.8002C29.8999 3.8002 31.0999 3.9002 32.1999 4.1002C33.5999 4.3002 34.8999 4.7002 36.1999 5.2002C38.2999 6.0002 40.3999 7.1002 42.3999 8.4002C45.3999 10.5002 47.2999 12.5002 47.7999 13.0002C48.2999 13.6002 48.9999 14.4002 50.0999 16.2002C50.0999 15.5002 49.8999 14.6002 49.5999 13.8002C49.8999 13.9002 50.3999 14.1002 50.6999 14.3002C52.1999 15.3002 53.0999 16.7002 53.2999 18.5002C53.4999 20.9002 51.8999 23.9002 50.6999 25.0002Z" fill="#39146E"/>
<path d="M27.3996 0.699805V1.09981V0.699805C17.3996 0.499805 10.5996 8.8998 10.5996 8.8998C12.0996 9.3998 13.4996 9.5998 14.8996 9.5998C18.2996 9.6998 20.7996 9.19981 20.7996 9.19981L19.9996 11.5998C32.6996 10.0998 35.9996 3.3998 35.9996 3.3998C33.3996 1.1998 30.0996 0.799805 27.3996 0.699805Z" fill="#39146E"/>
<path d="M14.4004 7.49974C17.0004 7.99974 20.1004 7.69974 23.2004 7.09974C22.8004 7.69974 22.6004 8.49973 22.4004 9.29973C22.4004 9.29973 24.3004 9.09974 25.6004 8.69974C32.0004 7.09974 34.5004 3.59974 34.5004 3.59974C23.7004 -2.20026 14.4004 7.49974 14.4004 7.49974Z" fill="#44D970"/>
<path d="M34.3998 3.59961C34.3998 3.59961 30.5998 6.39961 22.2998 9.29961C22.2998 9.29961 30.1998 8.79961 34.3998 3.59961Z" fill="white"/>
<path d="M31.3 43.3994L31.1 41.6994C31.1 41.5994 30.9 41.1994 30.9 41.0994C30.9 41.0994 30.9 41.0994 30.8 41.0994C30.8 40.9994 30.8 40.9994 30.7 40.9994C30.6 40.9994 28.6 40.0994 26.7 39.8994C26.2 39.8994 25.8 39.8994 25.5 39.9994C24.5 40.1994 24.1 40.9994 23.9 41.8994C23.5 42.7994 23.6 43.9994 23.8 44.8994C23.9 45.4994 24.2 46.0994 24.6 46.5994C25 47.0994 25.5 47.3994 26.1 47.2994C26.2 47.2994 26.3 47.2994 26.5 47.1994C28.2 46.7994 31.1 43.9994 31.2 43.8994C31.3 43.7994 31.3 43.7994 31.3 43.6994C31.4 43.5994 31.4 43.5994 31.4 43.5994C31.3 43.5994 31.3 43.4994 31.3 43.3994Z" fill="#39146E"/>
<path d="M30.5999 41.6993C30.5999 41.6993 27.9999 40.6993 26.4999 41.0993C24.8999 41.4993 25.6999 45.2993 27.1999 45.2993C28.6999 45.2993 30.6999 43.3993 30.6999 43.3993L30.5999 41.6993Z" fill="#44D970"/>
<path d="M37.4002 39C37.1002 39 36.8002 39.1 36.3002 39.1C35.0002 39.4 33.4002 40.3 32.7002 40.7C33.1002 41.1 33.4002 41.6 33.5002 42.2C33.5002 42.8 33.4002 43.3 33.0002 43.7C33.7002 44.3 35.6002 45.8 37.0002 45.7C38.3002 45.6 39.3002 44.9 39.3002 42.5C39.3002 41.3 39.3002 39 37.4002 39Z" fill="#39146E"/>
<path d="M33 41.6002L33.1 43.1002C33.5 43.4002 35.4 44.4002 36.6 44.3002C37.1 44.2002 37.6 43.5002 37.6 42.2002C37.6 41.0002 37.1 40.5002 36.6 40.5002C36.5 40.5002 36.4 40.5002 36.4 40.5002C35.2 40.4002 33.5 41.4002 33 41.6002Z" fill="#44D970"/>
<path d="M33.6995 42.2996C33.5995 41.0996 32.5995 40.1996 31.3995 40.2996C30.7995 40.2996 30.2995 40.5996 29.8995 40.9996C29.4995 41.3996 29.2995 41.9996 29.3995 42.5996C29.4995 43.7996 30.3995 44.5996 31.5995 44.5996C31.6995 44.5996 31.6995 44.5996 31.7995 44.5996C32.3995 44.5996 32.8995 44.2996 33.2995 43.8996C33.4995 43.4996 33.6995 42.8996 33.6995 42.2996Z" fill="#39146E"/>
<path d="M32.8998 42.1994C32.8998 42.8994 32.2998 43.4994 31.5998 43.4994C30.8998 43.4994 30.2998 42.8994 30.2998 42.1994C30.2998 41.5994 30.6998 41.0994 31.2998 40.8994C31.3998 40.8994 31.4998 40.8994 31.4998 40.8994C32.3998 40.9994 32.8998 41.4994 32.8998 42.1994Z" fill="#44D970"/>
<path d="M129.501 36.4C127.201 36.4 125.101 36.4 122.801 36.4C122.801 34.8 122.801 33.3 122.801 31.8C122.801 29.8 122.801 27.9 122.801 25.9C122.801 25.1 122.901 24 121.901 24C121.401 24 120.601 24.9 120.501 25.5C120.001 27.6 119.701 29.7 119.501 31.9C119.301 33.3 119.501 34.8 119.501 36.3C117.201 36.3 115.001 36.3 112.801 36.3C112.801 31 112.801 25.8 112.801 20.4C114.901 20.4 117.101 20.4 119.501 20.4C119.301 21.3 119.201 22.1 118.901 22.9C118.201 24.9 117.501 26.8 116.901 28.7C118.001 29.3 118.201 28.9 118.501 28.2C119.201 26.2 119.801 24.2 120.801 22.5C122.001 20.3 124.301 19.6 126.401 20.3C128.501 21 129.201 22.6 128.501 24.7C128.001 26.1 127.701 27.5 127.201 28.9C128.101 29.3 128.401 29.2 128.601 28.4C129.001 26.9 129.401 25.4 130.101 24C130.501 23.1 131.101 22.3 131.801 21.6C133.101 20.2 134.801 19.8 136.601 20.4C138.401 20.9 139.101 22.4 139.501 24.1C139.701 24.8 139.701 25.6 139.701 26.4C139.701 29.8 139.701 33.1 139.701 36.6C137.501 36.6 135.401 36.6 133.001 36.6C133.001 36.1 133.001 35.6 133.001 35.1C133.001 32.2 133.001 29.2 133.001 26.3C133.001 25.5 133.101 24.4 132.101 24.2C131.001 24 130.701 25.2 130.501 26C130.101 28.8 129.801 31.6 129.501 34.3C129.401 34.8 129.501 35.6 129.501 36.4Z" fill="#39146E"/>
<path d="M159 20.5002C159.3 20.5002 159.6 20.4002 159.8 20.4002C161.7 20.4002 163.6 20.4002 165.8 20.4002C165.6 21.4002 165.4 22.3002 165.1 23.1002C164.5 25.0002 163.8 26.8002 163.2 28.7002C164.2 29.2002 164.4 29.1002 164.7 28.2002C165.3 26.3002 166 24.4002 166.8 22.6002C167.1 22.0002 167.6 21.5002 168.2 21.0002C171 18.7002 174.7 20.1002 175.5 23.7002C175.7 24.7002 175.8 25.8002 175.8 26.8002C175.8 29.9002 175.8 33.1002 175.8 36.3002C173.6 36.3002 171.5 36.3002 169.2 36.3002C169.2 35.9002 169.1 35.5002 169.1 35.0002C169.1 32.0002 169.1 29.0002 169.1 25.9002C169.1 25.1002 169.3 24.0002 168.2 23.8002C167.1 23.6002 166.8 24.8002 166.6 25.6002C166.2 28.4002 165.9 31.2002 165.6 33.9002C165.5 34.6002 165.6 35.4002 165.6 36.2002C163.3 36.2002 161.2 36.2002 159 36.2002C159 31.1002 159 25.8002 159 20.5002Z" fill="#39146E"/>
<path d="M99.2005 27.8997C98.9005 28.0997 98.7005 28.3997 98.5005 28.5997C98.6005 28.7997 98.6005 28.8997 98.6005 28.9997C100.001 31.0997 102.101 31.5997 104.401 31.6997C106.301 31.7997 108.201 31.6997 110.401 31.6997C109.301 33.2997 108.401 34.6997 107.401 36.0997C107.201 36.2997 106.801 36.3997 106.501 36.3997C103.801 36.3997 101.001 36.3997 98.3005 36.3997C97.9005 36.3997 97.5005 36.2997 97.2005 36.0997C95.3005 34.3997 94.0005 32.2997 93.7005 29.6997C93.2005 24.3997 95.8005 20.7997 100.801 19.9997C103.201 19.5997 105.601 19.7997 107.801 20.9997C111.101 22.7997 111.401 26.8997 108.401 29.2997C105.701 31.4997 102.201 30.9997 99.2005 27.8997ZM100.001 26.1997C100.101 26.4997 100.301 27.0997 100.701 27.2997C101.101 27.4997 101.801 27.3997 102.201 27.0997C103.501 26.1997 104.201 24.8997 104.301 23.2997C104.301 21.9997 103.401 21.3997 102.301 22.0997C100.901 22.9997 100.201 24.2997 100.001 26.1997Z" fill="#39146E"/>
<path d="M92.2008 31.7002C91.2008 33.3002 90.3008 34.6002 89.4008 35.9002C89.2008 36.2002 88.7008 36.4002 88.3008 36.4002C85.5008 36.4002 82.8008 36.4002 80.0008 36.4002C79.6008 36.4002 79.2008 36.3002 79.0008 36.1002C75.8008 33.5002 74.6008 28.9002 76.1008 25.0002C76.7008 23.4002 77.7008 22.1002 79.2008 21.2002C82.7008 19.2002 86.4008 19.2002 89.9008 21.1002C92.8008 22.7002 93.2008 26.2002 90.9008 28.6002C88.5008 31.2002 84.3008 31.3002 81.8008 28.8002C81.5008 28.5002 81.3008 28.2002 80.9008 27.9002C80.7008 28.1002 80.4008 28.4002 80.2008 28.6002C81.6008 30.9002 83.8008 31.5002 86.1008 31.6002C88.0008 31.8002 90.0008 31.7002 92.2008 31.7002ZM86.0008 23.3002C85.9008 23.0002 85.7008 22.3002 85.4008 22.1002C85.0008 21.9002 84.3008 22.0002 83.9008 22.2002C82.5008 23.1002 81.8008 24.4002 81.8008 26.1002C81.8008 27.4002 82.7008 27.9002 83.7008 27.3002C85.0008 26.5002 85.7008 25.1002 86.0008 23.3002Z" fill="#39146E"/>
<path d="M156.901 28.9998C156.901 34.6998 151.601 38.2998 146.601 35.8998C143.001 34.0998 140.901 29.8998 141.601 25.8998C142.401 21.3998 146.601 18.8998 150.801 20.2998C154.401 21.3998 156.901 25.0998 156.901 28.9998ZM147.401 32.2998C147.401 34.4998 148.301 35.1998 149.701 34.2998C152.201 32.6998 153.601 30.3998 154.001 27.2998C154.201 25.5998 153.101 24.8998 151.701 25.7998C149.101 27.3998 147.901 29.8998 147.401 32.2998Z" fill="#39146E"/>
<path d="M62.4004 36.2996C62.4004 29.6996 62.4004 23.1996 62.4004 16.5996C64.5004 16.5996 66.6004 16.5996 68.9004 16.5996C68.9004 20.9996 68.9004 25.3996 68.9004 29.8996C70.7004 29.8996 72.4004 29.8996 74.2004 29.8996C74.2004 32.0996 74.2004 34.1996 74.2004 36.2996C70.3004 36.2996 66.4004 36.2996 62.4004 36.2996Z" fill="#39146E"/>
<path d="M216.5 20.3998C216.8 23.8998 217.1 27.1998 217.3 30.5998C217.4 31.3998 217.5 31.7998 218.2 31.4998C218.6 27.7998 219 24.0998 219.3 20.3998C221.8 20.3998 224 20.3998 226.3 20.3998C225.8 22.0998 225.3 23.5998 224.8 25.1998C223.7 28.5998 222.6 31.9998 221.5 35.4998C221.3 36.2998 220.9 36.5998 220.1 36.4998C218.5 36.3998 216.9 36.4998 215.4 36.4998C214.8 36.4998 214.5 36.2998 214.2 35.5998C213.6 33.8998 213.2 32.1998 213.3 30.2998C213.4 28.6998 213.3 26.9998 213.3 25.2998C212.9 25.2998 212.5 25.2998 212.1 25.2998C212.1 27.3998 212.2 29.3998 212.1 31.3998C212 32.8998 211.5 34.3998 211.1 35.8998C211 36.0998 210.6 36.3998 210.3 36.3998C208.5 36.3998 206.8 36.4998 205 36.3998C204.7 36.3998 204.2 35.9998 204.1 35.5998C202.4 30.5998 200.8 25.5998 199.2 20.3998C201.5 20.3998 203.7 20.3998 206.3 20.3998C206.7 23.9998 207.1 27.6998 207.4 31.3998C207.4 31.3998 207.5 31.3998 207.6 31.3998C207.8 31.3998 208 31.3998 208.1 31.3998C208.5 27.6998 208.9 23.9998 209.3 20.2998C211.6 20.3998 213.8 20.3998 216.5 20.3998Z" fill="#39146E"/>
<path d="M256.6 33.1002C256.6 35.9002 256.6 38.5002 256.6 41.1002C254.3 41.1002 252.2 41.1002 250 41.1002C250 34.1002 250 27.2002 250 20.1002C252.2 20.1002 254.3 20.1002 256.8 20.1002C256.5 21.0002 256.3 21.7002 256 22.5002C255.4 24.2002 254.8 25.9002 254.3 27.7002C254.2 28.0002 254.7 28.4002 254.9 28.7002C255.1 28.4002 255.5 28.1002 255.5 27.8002C255.8 25.1002 257 23.0002 259 21.4002C261.7 19.3002 265.1 19.0002 267.6 20.7002C270.2 22.5002 271.4 25.8002 270.6 29.2002C269.8 32.5002 268 34.8002 264.9 35.9002C262.1 36.9002 259.5 36.3002 257.4 34.0002C257.3 33.8002 257 33.5002 256.6 33.1002ZM265.4 24.3002C265.4 22.3002 264.6 21.7002 263.3 22.3002C261.2 23.3002 258.8 27.2002 258.9 29.7002C259 31.1002 259.8 31.7002 261 31.0002C263.6 29.4002 265 26.9002 265.4 24.3002Z" fill="#39146E"/>
<path d="M240.801 23.3998C240.801 22.2998 240.801 21.3998 240.801 20.4998C243.001 20.4998 245.201 20.4998 247.401 20.4998C247.401 20.8998 247.501 21.1998 247.501 21.4998C247.501 26.0998 247.501 30.7998 247.501 35.3998C247.501 36.2998 247.301 36.5998 246.401 36.5998C244.601 36.4998 242.801 36.5998 241.001 36.5998C240.601 35.5998 240.901 34.8998 241.301 33.9998C242.001 32.3998 242.501 30.6998 243.001 28.8998C243.201 28.0998 242.901 27.5998 241.901 27.8998C241.701 30.9998 240.501 33.5998 238.001 35.3998C236.501 36.4998 234.901 36.9998 233.101 36.9998C230.001 36.8998 227.401 34.6998 226.601 31.4998C225.601 27.6998 227.301 23.4998 230.601 21.3998C234.101 19.1998 237.001 19.7998 240.801 23.3998ZM232.301 32.4998C232.301 34.4998 233.201 35.2998 234.501 34.3998C237.101 32.7998 238.501 30.2998 238.801 27.1998C238.901 25.6998 237.901 24.9998 236.601 25.7998C234.101 27.3998 232.801 29.8998 232.301 32.4998Z" fill="#39146E"/>
<path d="M198.401 22.8C197.201 22.5 196.201 22 195.201 21.9C194.001 21.7 192.701 21.7 191.401 21.8C191.001 21.8 190.301 22.4 190.201 22.9C190.101 23.3 190.501 24.1 190.901 24.4C191.701 24.9 192.701 25.3 193.601 25.7C194.601 26.1 195.601 26.4 196.501 26.8C199.501 28.2 200.201 31.3 197.901 34C196.701 35.4 195.201 36.1 193.501 36.3C190.101 36.8 186.801 36.4 183.601 35.5C182.901 35.3 182.601 35 182.601 34.2C182.701 32.6 182.601 30.9 182.601 29C183.001 29.2 183.401 29.4 183.701 29.5C185.801 30.6 187.901 30.9 190.201 30.7C191.201 30.6 192.001 30.3 192.201 29.1C192.401 28 191.801 27.3 190.901 26.9C189.601 26.3 188.201 25.8 186.801 25.2C186.401 25 186.001 24.9 185.601 24.7C182.401 23.1 182.001 19.7 184.801 17.5C185.801 16.7 187.301 16.1 188.601 15.9C191.601 15.5 194.501 16 197.401 16.7C197.701 16.8 198.201 17.2 198.201 17.5C198.401 19.3 198.401 21 198.401 22.8Z" fill="#39146E"/>
<path d="M273.9 24.6C272.7 24.6 271.7 23.6 271.7 22.3C271.7 21 272.7 20 273.9 20C275.1 20 276.1 21 276.1 22.3C276.1 23.6 275.1 24.6 273.9 24.6ZM273.9 20.5C272.9 20.5 272.1 21.3 272.1 22.3C272.1 23.3 272.9 24.1 273.9 24.1C274.9 24.1 275.7 23.3 275.7 22.3C275.7 21.3 274.9 20.5 273.9 20.5Z" fill="#39146E"/>
<path d="M273.9 23.5996C273.4 23.5996 272.9 23.0996 272.9 22.5996H273.3C273.3 22.8996 273.6 23.1996 273.9 23.1996C274.2 23.1996 274.5 22.8996 274.5 22.5996H274.9C274.9 23.0996 274.4 23.5996 273.9 23.5996Z" fill="#39146E"/>
<path d="M273.1 22.1996C273.266 22.1996 273.4 22.0653 273.4 21.8996C273.4 21.7339 273.266 21.5996 273.1 21.5996C272.934 21.5996 272.8 21.7339 272.8 21.8996C272.8 22.0653 272.934 22.1996 273.1 22.1996Z" fill="#39146E"/>
<path d="M274.7 22.1996C274.866 22.1996 275 22.0653 275 21.8996C275 21.7339 274.866 21.5996 274.7 21.5996C274.535 21.5996 274.4 21.7339 274.4 21.8996C274.4 22.0653 274.535 22.1996 274.7 22.1996Z" fill="#39146E"/>
</svg>
