<svg width="93" height="53" viewBox="0 0 93 53" fill="none" xmlns="http://www.w3.org/2000/svg">
<path d="M26.3 0.159916C31.449 0.12823 36.4915 1.62604 40.7882 4.46363C45.0849 7.30121 48.4422 11.3509 50.4347 16.0989C52.4271 20.8469 52.9649 26.0795 51.9798 31.1335C50.9948 36.1875 48.5312 40.8354 44.9015 44.4876C41.2717 48.1397 36.6394 50.6319 31.5915 51.6482C26.5437 52.6644 21.3078 52.1591 16.5476 50.196C11.7874 48.233 7.71718 44.9004 4.85312 40.6213C1.98907 36.3423 0.460153 31.309 0.460056 26.1599C0.441459 19.2863 3.15277 12.6867 7.99814 7.81128C12.8435 2.93591 19.4264 0.183749 26.3 0.159916ZM67.57 1.67994C74.7 1.67994 80.49 12.6799 80.49 26.1799C80.49 39.6999 74.71 50.6702 67.57 50.6702C60.43 50.6702 54.65 39.6699 54.65 26.1799C54.65 12.6899 60.43 1.67994 67.57 1.67994ZM87.57 4.23999C90.08 4.23999 92.11 14.0599 92.11 26.1799C92.11 38.2999 90.11 48.1199 87.57 48.1199C85.03 48.1199 83.03 38.2999 83.03 26.1799C83.03 14.0599 85.04 4.23999 87.54 4.23999H87.57Z" fill="#633BB3"/>
</svg>
