<svg width="47" height="26" viewBox="0 0 47 26" fill="none" xmlns="http://www.w3.org/2000/svg">
<path d="M13.6096 0.060395C16.1706 0.0425681 18.6793 0.785275 20.8174 2.19516C22.9556 3.60505 24.6269 5.61832 25.6193 7.97934C26.6118 10.3404 26.8807 12.9428 26.392 15.4569C25.9033 17.971 24.679 20.2831 22.8743 22.1004C21.0697 23.9177 18.766 25.1586 16.2554 25.6649C13.7448 26.1711 11.1404 25.9201 8.77246 24.9442C6.40456 23.9682 4.37987 22.3117 2.95508 20.1834C1.53029 18.0552 0.769656 15.5512 0.769594 12.9901C0.758965 9.57316 2.10544 6.2916 4.51312 3.86704C6.92081 1.44247 10.1926 0.0736327 13.6096 0.060395ZM34.1196 0.820161C37.6696 0.820161 40.5396 6.27008 40.5396 12.9901C40.5396 19.7101 37.6696 25.1707 34.1196 25.1707C30.5696 25.1707 27.6996 19.7101 27.6996 12.9901C27.6996 6.27008 30.5596 0.820161 34.1196 0.820161ZM44.0496 2.07993C45.2996 2.07993 46.3096 6.97008 46.3096 12.9901C46.3096 19.0101 45.3096 23.9002 44.0496 23.9002C42.7896 23.9002 41.7896 19.0101 41.7896 12.9901C41.7896 6.97008 42.7996 2.07993 44.0496 2.07993Z" fill="#633BB3"/>
</svg>
