<svg width="24" height="24" viewBox="0 0 24 24" fill="none" xmlns="http://www.w3.org/2000/svg">
<path fill-rule="evenodd" clip-rule="evenodd" d="M11.75 3.75C9.56196 3.75 7.46354 4.61919 5.91637 6.16637C4.36919 7.71354 3.5 9.81196 3.5 12C3.5 13.0834 3.71339 14.1562 4.12799 15.1571C4.54259 16.1581 5.15029 17.0675 5.91637 17.8336C6.68245 18.5997 7.59193 19.2074 8.59286 19.622C9.5938 20.0366 10.6666 20.25 11.75 20.25C12.8334 20.25 13.9062 20.0366 14.9071 19.622C15.9081 19.2074 16.8175 18.5997 17.5836 17.8336C18.3497 17.0675 18.9574 16.1581 19.372 15.1571C19.7866 14.1562 20 13.0834 20 12C20 9.81196 19.1308 7.71354 17.5836 6.16637C16.0365 4.61919 13.938 3.75 11.75 3.75ZM4.85571 5.10571C6.68419 3.27723 9.16414 2.25 11.75 2.25C14.3359 2.25 16.8158 3.27723 18.6443 5.10571C20.4728 6.93419 21.5 9.41414 21.5 12C21.5 13.2804 21.2478 14.5482 20.7578 15.7312C20.2678 16.9141 19.5497 17.9889 18.6443 18.8943C17.7389 19.7997 16.6641 20.5178 15.4812 21.0078C14.2982 21.4978 13.0304 21.75 11.75 21.75C10.4696 21.75 9.20176 21.4978 8.01884 21.0078C6.83591 20.5178 5.76108 19.7997 4.85571 18.8943C3.95034 17.9889 3.23216 16.9141 2.74217 15.7312C2.25219 14.5482 2 13.2804 2 12C2 9.41414 3.02723 6.93419 4.85571 5.10571ZM11.75 8.25C12.1642 8.25 12.5 8.58579 12.5 9V11.25H14.75C15.1642 11.25 15.5 11.5858 15.5 12C15.5 12.4142 15.1642 12.75 14.75 12.75H12.5V15C12.5 15.4142 12.1642 15.75 11.75 15.75C11.3358 15.75 11 15.4142 11 15V12.75H8.75C8.33579 12.75 8 12.4142 8 12C8 11.5858 8.33579 11.25 8.75 11.25H11V9C11 8.58579 11.3358 8.25 11.75 8.25Z" fill="url(#paint0_linear_212_87)"/>
<defs>
<linearGradient id="paint0_linear_212_87" x1="1.98911" y1="12.0518" x2="21.4854" y2="12.0518" gradientUnits="userSpaceOnUse">
<stop stop-color="#FDFB01"/>
<stop offset="1" stop-color="#B1FB23"/>
</linearGradient>
</defs>
</svg>
