<svg width="24" height="24" viewBox="0 0 24 24" fill="none" xmlns="http://www.w3.org/2000/svg">
<path d="M8.18747 3.94C8.27747 3.398 8.74747 3 9.29747 3H11.8905C12.4405 3 12.9105 3.398 13.0005 3.94L13.2135 5.221C13.2765 5.595 13.5265 5.907 13.8585 6.091C13.9325 6.131 14.0055 6.174 14.0785 6.218C14.4025 6.414 14.7985 6.475 15.1535 6.342L16.3705 5.886C16.6199 5.79221 16.8945 5.78998 17.1453 5.87971C17.3962 5.96945 17.6071 6.14531 17.7405 6.376L19.0365 8.623C19.1695 8.8537 19.2164 9.12413 19.1688 9.38617C19.1212 9.6482 18.9822 9.88485 18.7765 10.054L17.7735 10.881C17.4805 11.121 17.3355 11.494 17.3425 11.873C17.3441 11.958 17.3441 12.043 17.3425 12.128C17.3355 12.506 17.4805 12.878 17.7725 13.118L18.7775 13.946C19.2015 14.296 19.3115 14.9 19.0375 15.376L17.7395 17.623C17.6063 17.8536 17.3957 18.0296 17.145 18.1195C16.8943 18.2094 16.6199 18.2074 16.3705 18.114L15.1535 17.658C14.7985 17.525 14.4035 17.586 14.0775 17.782C14.005 17.8261 13.9316 17.8688 13.8575 17.91C13.5265 18.093 13.2765 18.405 13.2135 18.779L13.0005 20.059C12.9105 20.602 12.4405 21 11.8905 21H9.29647C8.74647 21 8.27647 20.602 8.18647 20.06L7.97347 18.779C7.91147 18.405 7.66147 18.093 7.32947 17.909C7.25532 17.8681 7.18197 17.8258 7.10947 17.782C6.78447 17.586 6.38947 17.525 6.03347 17.658L4.81647 18.114C4.5672 18.2075 4.29283 18.2096 4.04217 18.1199C3.7915 18.0302 3.58078 17.8545 3.44747 17.624L2.15047 15.377C2.01741 15.1463 1.97051 14.8759 2.01812 14.6138C2.06573 14.3518 2.20476 14.1152 2.41047 13.946L3.41447 13.119C3.70647 12.879 3.85147 12.506 3.84447 12.127C3.8429 12.042 3.8429 11.957 3.84447 11.872C3.85147 11.494 3.70647 11.122 3.41447 10.882L2.41047 10.054C2.20501 9.88489 2.06614 9.64843 2.01854 9.38662C1.97094 9.12481 2.01768 8.8546 2.15047 8.624L3.44747 6.377C3.58065 6.14614 3.79148 5.97006 4.04238 5.88014C4.29328 5.79021 4.56796 5.79229 4.81747 5.886L6.03347 6.342C6.38947 6.475 6.78447 6.414 7.10947 6.218C7.18147 6.174 7.25547 6.131 7.32947 6.09C7.66147 5.907 7.91147 5.595 7.97347 5.221L8.18747 3.94Z" stroke="url(#paint0_linear_212_94)" stroke-width="1.5" stroke-linecap="round" stroke-linejoin="round"/>
<path fill-rule="evenodd" clip-rule="evenodd" d="M10.5938 9.75C9.99701 9.75 9.42472 9.98705 9.00276 10.409C8.5808 10.831 8.34375 11.4033 8.34375 12C8.34375 12.5967 8.5808 13.169 9.00276 13.591C9.42472 14.0129 9.99701 14.25 10.5938 14.25C11.1905 14.25 11.7628 14.0129 12.1847 13.591C12.6067 13.169 12.8438 12.5967 12.8438 12C12.8438 11.4033 12.6067 10.831 12.1847 10.409C11.7628 9.98705 11.1905 9.75 10.5938 9.75ZM7.9421 9.34835C8.64536 8.64509 9.59919 8.25 10.5938 8.25C11.5883 8.25 12.5421 8.64509 13.2454 9.34835C13.9487 10.0516 14.3438 11.0054 14.3438 12C14.3438 12.9946 13.9487 13.9484 13.2454 14.6517C12.5421 15.3549 11.5883 15.75 10.5938 15.75C9.59919 15.75 8.64536 15.3549 7.9421 14.6517C7.23884 13.9484 6.84375 12.9946 6.84375 12C6.84375 11.0054 7.23884 10.0516 7.9421 9.34835Z" fill="url(#paint1_linear_212_94)"/>
<defs>
<linearGradient id="paint0_linear_212_94" x1="21.0972" y1="13.5" x2="0.0902843" y2="13.5" gradientUnits="userSpaceOnUse">
<stop stop-color="#B1FB23"/>
<stop offset="1" stop-color="#FDFB01"/>
</linearGradient>
<linearGradient id="paint1_linear_212_94" x1="6.83956" y1="12.0199" x2="14.3381" y2="12.0199" gradientUnits="userSpaceOnUse">
<stop stop-color="#FDFB01"/>
<stop offset="1" stop-color="#B1FB23"/>
</linearGradient>
</defs>
</svg>
