<svg width="634" height="631" viewBox="0 0 634 631" fill="none" xmlns="http://www.w3.org/2000/svg">
<g clip-path="url(#clip0_72_83)">
<path d="M324.1 588.91C340.74 594.16 358.091 596.811 375.54 596.77C454.32 596.77 518.19 544.26 518.19 479.48C518.147 462.368 513.701 445.556 505.28 430.66C532.19 408.25 548.8 377.45 548.8 343.46C548.8 302.87 525.11 266.83 488.48 244.18C493.646 235.15 496.379 224.933 496.41 214.53C496.41 175.59 458.02 144.02 410.66 144.02C399.437 143.986 388.286 145.811 377.66 149.42C351.66 125.24 313.56 110 271.18 110C192.65 110 128.98 162.34 128.98 226.92C128.981 237.895 130.834 248.791 134.46 259.15C68.16 269.25 17.96 317.04 17.96 374.47C17.96 417.77 46.49 455.59 88.96 475.91C82.5967 488.934 79.2796 503.235 79.2599 517.73C79.2599 580.27 140.91 630.97 216.97 630.97C260.25 630.97 298.85 614.56 324.1 588.91Z" fill="url(#paint0_linear_72_83)"/>
<g clip-path="url(#clip1_72_83)">
<path d="M83.1996 264.49L86.9395 277.2C87.0264 277.492 87.1886 277.755 87.4098 277.964C87.631 278.173 87.9034 278.32 88.1996 278.39L99.9995 281.08L88.0695 285C87.8075 285.086 87.5699 285.233 87.3767 285.43C87.1836 285.626 87.0405 285.867 86.9596 286.13L83.1796 298.43L79.1796 286.15C79.0923 285.881 78.9397 285.638 78.7356 285.443C78.5314 285.247 78.2819 285.105 78.0096 285.03L64.7195 281.25C64.6889 281.239 64.6625 281.218 64.6439 281.191C64.6252 281.164 64.6152 281.133 64.6152 281.1C64.6152 281.067 64.6252 281.036 64.6439 281.009C64.6625 280.982 64.6889 280.961 64.7195 280.95L77.8695 278.36C78.1745 278.301 78.4576 278.16 78.6884 277.952C78.9192 277.744 79.089 277.477 79.1796 277.18L83.1195 264.49C83.1195 264.49 83.1896 264.46 83.1996 264.49Z" fill="#C2FF31"/>
<path d="M83.1801 299.06C83.0468 299.058 82.9172 299.015 82.8096 298.936C82.7021 298.857 82.6218 298.747 82.5801 298.62L78.5801 286.34C78.522 286.17 78.4234 286.016 78.2927 285.892C78.1621 285.769 78.0033 285.679 77.8301 285.63L64.5601 281.84C64.3914 281.791 64.2443 281.686 64.1427 281.542C64.0411 281.399 63.9908 281.225 64.0001 281.05C64.0063 280.875 64.0721 280.707 64.1867 280.574C64.3013 280.441 64.4577 280.352 64.6301 280.32L77.7801 277.73C77.9743 277.691 78.1546 277.601 78.3023 277.469C78.45 277.337 78.5597 277.169 78.6201 276.98L82.5601 264.28C82.6103 264.152 82.6966 264.041 82.8084 263.962C82.9202 263.882 83.0528 263.836 83.1901 263.83C83.3269 263.834 83.4592 263.88 83.5684 263.963C83.6777 264.045 83.7587 264.159 83.8001 264.29V264.29L87.5301 277C87.5883 277.186 87.6934 277.353 87.8353 277.486C87.9772 277.619 88.1511 277.714 88.3401 277.76L100.14 280.45C100.275 280.477 100.397 280.549 100.487 280.653C100.577 280.758 100.629 280.889 100.636 281.027C100.643 281.164 100.604 281.3 100.525 281.413C100.446 281.526 100.332 281.609 100.2 281.65L88.2601 285.57C88.0935 285.624 87.9425 285.717 87.8204 285.843C87.6984 285.968 87.609 286.122 87.5601 286.29L83.7701 298.6C83.7331 298.728 83.6555 298.84 83.549 298.919C83.4425 298.998 83.313 299.041 83.1801 299.04V299.06ZM66.7801 281.19L78.1901 284.43C78.5617 284.532 78.9019 284.726 79.1796 284.993C79.4573 285.26 79.6638 285.593 79.7801 285.96L83.1601 296.36L86.3601 285.95C86.4706 285.591 86.6653 285.264 86.928 284.996C87.1907 284.729 87.5138 284.527 87.8701 284.41L97.6701 281.19L88.0701 279C87.6625 278.908 87.287 278.708 86.9828 278.421C86.6785 278.134 86.4566 277.771 86.3401 277.37L83.1601 266.57L79.8101 277.37C79.6841 277.774 79.4511 278.135 79.136 278.417C78.8208 278.699 78.4352 278.89 78.0201 278.97L66.7801 281.19Z" fill="#39146E"/>
<path d="M483.69 337.67L486.36 346.75C486.419 346.96 486.534 347.149 486.693 347.299C486.851 347.448 487.047 347.552 487.26 347.6L495.69 349.52L487.16 352.32C486.974 352.383 486.805 352.49 486.668 352.63C486.53 352.771 486.428 352.942 486.37 353.13L483.67 361.92L480.82 353.14C480.759 352.948 480.651 352.774 480.506 352.635C480.361 352.495 480.184 352.394 479.99 352.34L470.5 349.65C470.47 349.65 470.443 349.638 470.422 349.618C470.401 349.597 470.39 349.569 470.39 349.54C470.39 349.511 470.401 349.483 470.422 349.462C470.443 349.442 470.47 349.43 470.5 349.43L479.89 347.58C480.108 347.539 480.311 347.439 480.477 347.291C480.642 347.143 480.764 346.952 480.83 346.74L483.65 337.67H483.69Z" fill="white"/>
<path d="M483.67 362.54C483.539 362.541 483.41 362.5 483.304 362.423C483.198 362.345 483.119 362.236 483.08 362.11L480.23 353.34C480.199 353.246 480.145 353.16 480.074 353.091C480.002 353.021 479.916 352.969 479.82 352.94L470.33 350.25C470.174 350.202 470.038 350.103 469.944 349.97C469.85 349.836 469.802 349.675 469.809 349.512C469.816 349.349 469.877 349.192 469.982 349.067C470.087 348.942 470.231 348.855 470.39 348.82L479.78 346.97C479.887 346.951 479.987 346.902 480.068 346.83C480.149 346.757 480.209 346.664 480.24 346.56L483.06 337.49C483.107 337.361 483.19 337.25 483.301 337.169C483.412 337.089 483.544 337.044 483.68 337.04C483.818 337.042 483.951 337.088 484.06 337.171C484.17 337.254 484.25 337.369 484.29 337.5L486.95 346.57C486.983 346.673 487.042 346.765 487.121 346.839C487.199 346.912 487.296 346.964 487.4 346.99L495.83 348.91C495.962 348.942 496.08 349.016 496.167 349.12C496.253 349.225 496.303 349.355 496.31 349.49C496.316 349.627 496.277 349.763 496.2 349.876C496.122 349.989 496.01 350.075 495.88 350.12L487.36 352.92C487.269 352.95 487.187 353.001 487.119 353.068C487.051 353.136 487 353.219 486.97 353.31L484.27 362.1C484.232 362.227 484.154 362.338 484.048 362.417C483.942 362.496 483.813 362.539 483.68 362.54H483.67ZM472.73 349.63L480.16 351.74C480.454 351.821 480.723 351.975 480.943 352.186C481.163 352.397 481.327 352.66 481.42 352.95L483.66 359.84L485.78 352.95C485.866 352.666 486.018 352.406 486.226 352.194C486.433 351.981 486.688 351.822 486.97 351.73L493.36 349.63L487.12 348.21C486.801 348.135 486.507 347.978 486.268 347.753C486.029 347.528 485.854 347.244 485.76 346.93L483.66 339.78L481.43 346.93C481.332 347.248 481.149 347.534 480.901 347.756C480.652 347.978 480.348 348.128 480.02 348.19L472.73 349.63Z" fill="#39146E"/>
<path d="M133.8 436.73L136.46 445.81C136.523 446.019 136.641 446.208 136.801 446.357C136.96 446.507 137.157 446.611 137.37 446.66L145.8 448.58L137.27 451.38C137.084 451.443 136.915 451.55 136.778 451.69C136.641 451.831 136.539 452.002 136.48 452.19L133.78 460.98L130.93 452.21C130.867 452.018 130.759 451.844 130.615 451.703C130.47 451.562 130.294 451.458 130.1 451.4L120.61 448.71C120.581 448.71 120.553 448.698 120.532 448.678C120.512 448.657 120.5 448.629 120.5 448.6C120.5 448.571 120.512 448.543 120.532 448.522C120.553 448.502 120.581 448.49 120.61 448.49L130 446.64C130.217 446.597 130.419 446.496 130.585 446.348C130.75 446.201 130.873 446.011 130.94 445.8L133.75 436.73H133.8Z" fill="white"/>
<path d="M133.78 461.6C133.648 461.602 133.52 461.561 133.413 461.483C133.307 461.406 133.229 461.296 133.19 461.17L130.34 452.4C130.308 452.306 130.254 452.22 130.183 452.151C130.112 452.081 130.025 452.03 129.93 452L120.44 449.31C120.276 449.27 120.131 449.174 120.03 449.039C119.929 448.904 119.877 448.739 119.884 448.57C119.891 448.402 119.957 448.241 120.069 448.115C120.181 447.989 120.333 447.906 120.5 447.88L129.89 446.03C129.997 446.011 130.096 445.962 130.178 445.89C130.259 445.817 130.318 445.724 130.35 445.62L133.17 436.55C133.216 436.421 133.3 436.31 133.41 436.229C133.521 436.149 133.653 436.104 133.79 436.1C133.927 436.102 134.06 436.148 134.169 436.231C134.279 436.313 134.36 436.429 134.4 436.56L137.06 445.63C137.092 445.733 137.15 445.826 137.229 445.9C137.308 445.973 137.405 446.025 137.51 446.05L145.93 447.97C146.063 448 146.184 448.073 146.272 448.178C146.36 448.283 146.412 448.413 146.42 448.55C146.425 448.687 146.386 448.823 146.309 448.936C146.231 449.049 146.12 449.135 145.99 449.18L137.47 451.98C137.378 452.008 137.294 452.059 137.226 452.127C137.158 452.195 137.108 452.278 137.08 452.37L134.38 461.16C134.341 461.287 134.263 461.398 134.157 461.477C134.051 461.556 133.922 461.599 133.79 461.6H133.78ZM122.84 448.69L130.27 450.8C130.562 450.885 130.829 451.039 131.049 451.25C131.268 451.461 131.433 451.721 131.53 452.01L133.76 458.91L135.88 452.01C135.968 451.726 136.123 451.467 136.332 451.255C136.541 451.042 136.797 450.883 137.08 450.79L143.47 448.69L137.23 447.27C136.91 447.196 136.616 447.038 136.377 446.813C136.139 446.588 135.963 446.304 135.87 445.99L133.76 438.84L131.54 445.99C131.44 446.309 131.257 446.595 131.009 446.818C130.761 447.042 130.457 447.194 130.13 447.26L122.84 448.69Z" fill="#39146E"/>
<path d="M453.07 251.84L455.74 260.92C455.799 261.13 455.914 261.319 456.073 261.469C456.231 261.618 456.427 261.723 456.64 261.77L465.07 263.69L456.54 266.5C456.353 266.559 456.184 266.663 456.046 266.803C455.908 266.942 455.807 267.113 455.75 267.3L453.049 276.09L450.2 267.32C450.138 267.127 450.031 266.952 449.886 266.811C449.741 266.67 449.564 266.566 449.37 266.51L439.88 263.82C439.85 263.82 439.822 263.808 439.802 263.788C439.781 263.767 439.77 263.739 439.77 263.71C439.77 263.681 439.781 263.653 439.802 263.632C439.822 263.612 439.85 263.6 439.88 263.6L449.27 261.75C449.488 261.71 449.692 261.61 449.858 261.462C450.023 261.314 450.145 261.123 450.21 260.91L453.01 251.84H453.07Z" fill="#FFFF51" stroke="#39146E" stroke-linecap="round" stroke-linejoin="round"/>
<path d="M453.01 276.68C452.879 276.681 452.75 276.64 452.644 276.563C452.537 276.485 452.459 276.376 452.42 276.25L449.57 267.48C449.541 267.385 449.488 267.3 449.416 267.232C449.344 267.163 449.256 267.115 449.16 267.09L439.67 264.39C439.51 264.347 439.37 264.249 439.273 264.114C439.177 263.98 439.13 263.816 439.14 263.65C439.144 263.485 439.205 263.326 439.313 263.2C439.42 263.075 439.567 262.99 439.73 262.96L449.12 261.11C449.227 261.091 449.327 261.042 449.408 260.97C449.489 260.897 449.549 260.804 449.58 260.7L452.4 251.63C452.446 251.501 452.53 251.39 452.641 251.309C452.751 251.229 452.883 251.184 453.02 251.18C453.157 251.182 453.29 251.228 453.4 251.311C453.509 251.394 453.59 251.509 453.63 251.64L456.29 260.72C456.322 260.822 456.38 260.914 456.459 260.986C456.538 261.058 456.635 261.108 456.74 261.13L465.17 263.06C465.303 263.091 465.421 263.164 465.508 263.269C465.595 263.374 465.645 263.504 465.65 263.64C465.655 263.776 465.616 263.91 465.538 264.021C465.461 264.133 465.349 264.217 465.22 264.26L456.7 267.06C456.608 267.09 456.524 267.142 456.456 267.212C456.388 267.281 456.338 267.367 456.31 267.46L453.61 276.24C453.572 276.367 453.494 276.478 453.387 276.557C453.281 276.636 453.153 276.679 453.02 276.68H453.01ZM442.07 263.77L449.5 265.88C449.793 265.963 450.061 266.117 450.281 266.328C450.501 266.539 450.665 266.801 450.76 267.09L453 273.99L455.12 267.09C455.205 266.806 455.358 266.546 455.565 266.334C455.773 266.121 456.028 265.962 456.31 265.87L462.7 263.77L456.46 262.35C456.141 262.275 455.847 262.118 455.608 261.893C455.369 261.668 455.194 261.384 455.1 261.07L453 253.92L450.77 261.07C450.671 261.389 450.487 261.675 450.239 261.898C449.991 262.122 449.687 262.274 449.36 262.34L442.07 263.77Z" fill="#FFFF51" stroke="#39146E" stroke-linecap="round" stroke-linejoin="round"/>
<path d="M461.01 470.61L464.74 483.32C464.825 483.614 464.988 483.88 465.212 484.09C465.435 484.299 465.711 484.445 466.01 484.51L477.81 487.2L465.87 491.13C465.61 491.214 465.374 491.359 465.182 491.554C464.991 491.75 464.849 491.988 464.77 492.25L461.01 504.56L457.01 492.28C456.922 492.011 456.769 491.767 456.566 491.57C456.362 491.373 456.113 491.229 455.84 491.15L442.55 487.38C442.511 487.38 442.472 487.364 442.444 487.336C442.416 487.308 442.4 487.27 442.4 487.23C442.4 487.19 442.416 487.152 442.444 487.124C442.472 487.096 442.511 487.08 442.55 487.08L455.71 484.49C456.014 484.429 456.297 484.287 456.527 484.079C456.757 483.872 456.928 483.606 457.02 483.31L460.96 470.61H461.01Z" fill="white"/>
<path d="M461.01 505.18C460.877 505.181 460.748 505.139 460.64 505.062C460.533 504.985 460.452 504.876 460.41 504.75L456.41 492.47C456.356 492.298 456.26 492.143 456.13 492.017C456.001 491.891 455.843 491.8 455.67 491.75L442.38 487.98C442.214 487.93 442.069 487.827 441.969 487.686C441.868 487.545 441.817 487.375 441.824 487.202C441.831 487.029 441.895 486.863 442.007 486.73C442.118 486.598 442.27 486.506 442.44 486.47L455.6 483.88C455.792 483.84 455.97 483.749 456.116 483.617C456.262 483.485 456.37 483.317 456.43 483.13L460.43 470.43C460.471 470.299 460.552 470.185 460.662 470.103C460.771 470.02 460.903 469.974 461.04 469.97C461.181 469.973 461.317 470.021 461.43 470.105C461.542 470.189 461.626 470.306 461.67 470.44V470.44L465.4 483.15C465.455 483.337 465.56 483.506 465.702 483.64C465.844 483.773 466.02 483.867 466.21 483.91L478.01 486.6C478.143 486.635 478.26 486.712 478.344 486.821C478.428 486.929 478.474 487.063 478.474 487.2C478.474 487.337 478.428 487.471 478.344 487.579C478.26 487.688 478.143 487.765 478.01 487.8L466.08 491.72C465.913 491.775 465.762 491.869 465.638 491.994C465.515 492.12 465.423 492.272 465.37 492.44L461.59 504.74C461.551 504.867 461.473 504.978 461.367 505.057C461.261 505.136 461.132 505.179 461 505.18H461.01ZM444.61 487.31L456.02 490.55C456.389 490.656 456.728 490.851 457.005 491.118C457.282 491.384 457.49 491.715 457.61 492.08L460.99 502.49L464.19 492.07C464.302 491.712 464.497 491.386 464.76 491.118C465.022 490.851 465.344 490.649 465.7 490.53L475.5 487.31L465.89 485.12C465.484 485.027 465.111 484.827 464.807 484.543C464.503 484.258 464.28 483.899 464.16 483.5L461.01 472.69L457.65 483.5C457.525 483.902 457.293 484.263 456.98 484.545C456.667 484.826 456.283 485.018 455.87 485.1L444.61 487.31Z" fill="#39146E"/>
<path d="M256.26 578.86C333.585 578.86 396.27 571.056 396.27 561.43C396.27 551.804 333.585 544 256.26 544C178.935 544 116.25 551.804 116.25 561.43C116.25 571.056 178.935 578.86 256.26 578.86Z" fill="#39146E"/>
<path d="M258.01 427.95C258.01 427.95 252.49 484.87 336.48 512.45L348.74 504.93L345.26 496.15C345.26 496.15 274.43 474.15 282.54 434.67L258.01 427.95Z" fill="#FFFF51" stroke="#39146E" stroke-linecap="round" stroke-linejoin="round"/>
<path d="M294.08 467.21C294.18 467.62 291.23 489.44 291.23 489.44L282.49 481.51L292.49 465.67L294.08 467.21Z" fill="#39146E"/>
<path d="M346.58 491.34C346.58 491.34 359.89 488.61 368.58 497.16C380.8 509.16 370.64 540.92 353.41 549.6C341.11 555.8 311.17 563.73 301.11 550.87C290.42 537.22 295.42 526.1 305.44 519.99C315.46 513.88 330.17 518.62 332.14 513.85" fill="#44D970"/>
<path d="M346.58 491.34C346.58 491.34 359.89 488.61 368.58 497.16C380.8 509.16 370.64 540.92 353.41 549.6C341.11 555.8 311.17 563.73 301.11 550.87C290.42 537.22 295.42 526.1 305.44 519.99C315.46 513.88 330.17 518.62 332.14 513.85" stroke="#39146E" stroke-linecap="round" stroke-linejoin="round"/>
<path d="M295.49 533.24C295.49 533.24 305.71 550.51 325.31 551.53C346.94 552.67 375.6 543.65 371.93 501.75C371.74 499.54 377.7 506.08 377.05 514.68C376.33 562.42 332.44 564.36 315.05 558.83C302.79 554.96 290.81 543.5 295.49 533.24Z" fill="white" stroke="#39146E" stroke-linecap="round" stroke-linejoin="round"/>
<path d="M335.72 492.38C335.72 492.38 340.62 496.54 336.46 503.67C331.57 512.05 324.12 508.13 324.12 508.13C324.12 508.13 321.18 515.82 329.62 517.77C340.05 520.18 346.33 507.68 347.62 500.25C349.2 491.06 345.44 488.58 342.34 488.51C338.4 488.42 335.72 492.38 335.72 492.38Z" fill="white" stroke="#39146E" stroke-linecap="round" stroke-linejoin="round"/>
<path d="M341.1 525.45C341.1 525.45 331.83 508.03 307.61 518.88Z" fill="#44D970"/>
<path d="M341.1 525.45C341.1 525.45 331.83 508.03 307.61 518.88" stroke="#39146E" stroke-linecap="round" stroke-linejoin="round"/>
<path d="M258.81 440.63C258.81 440.63 264.74 462.63 270.62 468.47L281.09 451.32L258.81 440.63Z" fill="#39146E"/>
<path d="M309.43 439.23L258.08 520.3L242.9 514.45L293.04 431.46L309.43 439.23Z" fill="#FFFF51" stroke="#39146E" stroke-linecap="round" stroke-linejoin="round"/>
<path d="M254.21 533.84C255.67 533.09 261.21 525.65 257.6 517.53C254.21 509.96 244.6 506.1 239.85 507.74C235.1 509.38 235.92 512.54 235.92 512.54L254.21 533.84Z" fill="white" stroke="#39146E" stroke-linecap="round" stroke-linejoin="round"/>
<path d="M256.08 539.53C254.81 543.93 247.73 550.96 243.56 554.98C234.68 563.54 225.32 561.27 216.36 556.37C207.4 551.47 171.95 520.74 165.64 508.13C159.33 495.52 158.01 490.31 163.76 486.61C169.51 482.91 200.04 460.76 223.62 507.15C223.62 507.15 234.31 506.82 243.11 512.45C258.33 522.2 257.57 534.33 256.08 539.53Z" fill="#44D970" stroke="#39146E" stroke-linecap="round" stroke-linejoin="round"/>
<path d="M226.32 516.56C225.489 510.989 223.384 505.685 220.17 501.06" stroke="#39146E" stroke-linecap="round" stroke-linejoin="round"/>
<path d="M161.44 489.33C157.92 496.88 168.44 515.56 189.1 534.33C209.76 553.1 224.57 566.94 237.76 558.33C248.69 551.21 229.29 531.72 208.64 512.96C182.36 489.05 166.31 478.84 161.44 489.33Z" fill="white" stroke="#39146E" stroke-linecap="round" stroke-linejoin="round"/>
<path d="M160.84 490.84C155.11 496.84 169.01 517.62 189.27 536.84C209.53 556.06 228.98 565.24 234.71 559.2C240.44 553.16 225.97 536.49 205.71 517.27C185.45 498.05 166.57 484.76 160.84 490.84Z" fill="#39146E"/>
<path d="M187.91 287.62C192.32 273.39 206.49 264.92 222.31 265.62C251.08 238.91 298.31 229.85 344.79 245.97C399.19 264.83 435.08 312.08 434.44 358.79C447.25 369.39 453.44 385.98 448.69 401.2C442.85 419.99 422.48 430.07 401.75 425.27C372.69 448.5 326.36 462.41 282.55 447.22C224.99 427.27 190.02 368.79 195.26 319.52C187.67 310.35 184.51 298.56 187.91 287.62Z" fill="#39146E"/>
<path d="M105.3 356.73L156.38 193.61L168.97 194.61L115.18 361.74C115.18 361.74 107.95 367.12 105.3 356.73Z" fill="#44D970" stroke="#39146E" stroke-linecap="round" stroke-linejoin="round"/>
<path d="M136.69 256.01L151.62 247.91L153.66 239.5L141 242.83L136.69 256.01Z" fill="#39146E"/>
<path d="M195.354 122.927C195.384 116.161 189.941 110.653 183.198 110.624C176.454 110.594 170.964 116.055 170.934 122.82C170.905 129.586 176.347 135.094 183.091 135.124C189.834 135.153 195.325 129.692 195.354 122.927Z" fill="#44D970" stroke="#39146E" stroke-linecap="round" stroke-linejoin="round"/>
<path d="M226.36 368.25C224.67 367.92 169.27 384.95 136.28 362.83L130.45 384.37C130.45 384.37 159.69 400.27 207.73 393.94C255.77 387.61 226.36 368.25 226.36 368.25Z" fill="#FFFF51" stroke="#39146E" stroke-linecap="round" stroke-linejoin="round"/>
<path d="M121.91 385.42C121.91 385.42 123.06 395.59 137.74 389.07C152.42 382.55 152.52 362.22 144.17 356.5C135.82 350.78 121.91 385.42 121.91 385.42Z" fill="white" stroke="#39146E" stroke-linecap="round" stroke-linejoin="round"/>
<path d="M477.47 117.42C477.47 117.42 427.75 154.97 358.73 147.42C289.71 139.87 248.94 99.8401 175.22 131.63L141.12 241.07L138.84 249.46C138.84 249.46 250.91 200.46 306.54 234.77C354.83 264.51 430.77 252.17 497.87 194.83C497.87 194.83 467.73 181.92 461.73 168.95C461.73 168.95 474.36 141.58 477.47 117.42Z" fill="#633BB3" stroke="#39146E" stroke-miterlimit="10"/>
<path d="M184.01 281.38C188.49 267.16 202.95 258.73 219.14 259.45C248.49 232.82 296.77 223.92 344.39 240.19C400.1 259.19 436.98 306.61 436.47 353.34C449.62 363.98 455.97 380.59 451.19 395.8C445.29 414.57 424.48 424.59 403.25 419.71C373.59 442.86 326.25 456.62 281.36 441.29C222.41 421.14 186.44 362.53 191.64 313.29C183.85 304.11 180.59 292.3 184.01 281.38Z" fill="#FFFF51" stroke="#39146E" stroke-linecap="round" stroke-linejoin="round"/>
<path d="M214.78 264.48C214.78 264.48 220.51 257.79 224.88 254.69" stroke="#39146E" stroke-linecap="round" stroke-linejoin="round"/>
<path d="M194.48 306.47C194.48 306.47 191.08 313.14 191.09 324.15" stroke="#39146E" stroke-linecap="round" stroke-linejoin="round"/>
<path d="M428.59 349C436.39 352.3 442.87 358.102 447.01 365.49Z" fill="#FFFF51"/>
<path d="M428.59 349C436.39 352.3 442.87 358.102 447.01 365.49" stroke="#39146E" stroke-linecap="round" stroke-linejoin="round"/>
<path d="M335.18 221.9C375.01 226.78 397.56 258.6 414.02 289.2C373.72 294.07 349.4 280.2 349.4 280.2L362.23 299.64C353.893 299.678 345.565 299.076 337.32 297.84C297.23 291.16 283.66 268.31 267.41 237.12C289.26 223.45 306.35 218.36 335.18 221.9Z" fill="#39146E"/>
<path d="M289.134 319.649C292.845 309.392 284.89 297.111 271.366 292.218C257.843 287.326 243.872 291.674 240.161 301.931C236.45 312.188 244.404 324.469 257.928 329.362C271.452 334.255 285.423 329.906 289.134 319.649Z" fill="white" stroke="#39146E" stroke-linecap="round" stroke-linejoin="round"/>
<path d="M275.48 294.15C286.33 299.74 292.4 310.34 289.32 319.49C286.24 328.64 275.32 333.15 263.56 331.03C261.152 327.965 259.551 324.345 258.905 320.502C258.258 316.658 258.587 312.714 259.86 309.03C261.033 305.453 263.073 302.222 265.799 299.626C268.524 297.029 271.85 295.148 275.48 294.15Z" fill="#39146E"/>
<path d="M343.482 338.57C347.19 328.316 339.238 316.041 325.719 311.151C312.2 306.261 298.235 310.609 294.527 320.862C290.818 331.116 298.77 343.391 312.289 348.281C325.808 353.171 339.773 348.823 343.482 338.57Z" fill="white" stroke="#39146E" stroke-width="0.9996" stroke-linecap="round" stroke-linejoin="round"/>
<path d="M330.61 313.28C341.46 318.87 347.52 329.48 344.44 338.63C341.36 347.78 330.44 352.29 318.69 350.16C316.278 347.097 314.676 343.477 314.029 339.633C313.382 335.788 313.713 331.843 314.99 328.16C316.163 324.583 318.203 321.352 320.929 318.756C323.654 316.159 326.98 314.278 330.61 313.28Z" fill="#39146E"/>
<path d="M253.01 400.97C254.95 405.81 260.01 409.65 266.3 410.52C273.17 411.52 279.56 408.64 282.6 403.84" stroke="#39146E" stroke-linecap="round" stroke-linejoin="round"/>
<path d="M250.85 389.49C250.658 391.2 250.773 392.93 251.19 394.6" stroke="#39146E" stroke-linecap="round" stroke-linejoin="round"/>
<path d="M252.11 338.66C253.11 338.8 322.26 356.53 322.26 356.53C322.26 356.53 313.73 377.75 283.06 383.63C252.39 389.51 252.11 338.66 252.11 338.66Z" fill="#39146E"/>
<path d="M278.17 367.84C271.05 368.18 265.71 371.84 262.22 374.68C266.82 381.02 273.09 384.97 283.14 383.04C285.38 382.61 287.49 382.04 289.5 381.51C290.01 372.7 287.89 367.39 278.17 367.84Z" fill="#44D970" stroke="#39146E" stroke-linecap="round" stroke-linejoin="round"/>
<path d="M337.44 220.14C377.27 225.02 409.95 248 426.44 278.61C381.2 285.88 352.44 274.17 352.44 274.17L361.38 297.34C357.26 297.25 353.1 296.97 348.91 296.46C308.57 291.51 275.55 268.01 259.3 236.81C281.13 223.17 308.61 216.6 337.44 220.14Z" fill="#44D970" stroke="#39146E" stroke-linecap="round" stroke-linejoin="round"/>
<path d="M144.01 368.09C144.93 361.84 148.39 341.78 125.12 334.03C125.12 334.03 116 318.79 102.66 324.03C91.8601 328.25 95.1901 336.24 95.1901 336.24C95.1901 336.24 79.3001 342.79 87.4701 357.24C87.4701 357.24 81.1602 367.79 90.8602 378.77C100.56 389.75 110.49 396.77 124.96 390.14C139.43 383.51 143.34 372.46 144.01 368.09Z" fill="white" stroke="#39146E" stroke-linecap="round" stroke-linejoin="round"/>
<path d="M126.18 346.34C126.18 346.34 135.63 358.34 125.51 366.07C115.39 373.8 108.71 356.73 111.7 345.51C115.19 332.42 125.1 334.03 125.1 334.03" fill="white"/>
<path d="M126.18 346.34C126.18 346.34 135.63 358.34 125.51 366.07C115.39 373.8 108.71 356.73 111.7 345.51C115.19 332.42 125.1 334.03 125.1 334.03" stroke="#39146E" stroke-linecap="round" stroke-linejoin="round"/>
<path d="M129.17 374.09C129.17 374.09 123.72 370.43 127.08 364.74Z" fill="white"/>
<path d="M129.17 374.09C129.17 374.09 123.72 370.43 127.08 364.74" stroke="#39146E" stroke-linecap="round" stroke-linejoin="round"/>
<path d="M87.4502 357.17C87.4502 357.17 90.7702 352.04 101.8 353.73C112.83 355.42 121.1 363.96 117.03 372.31C112.96 380.66 106.03 380.77 106.03 380.77" fill="white"/>
<path d="M87.4502 357.17C87.4502 357.17 90.7702 352.04 101.8 353.73C112.83 355.42 121.1 363.96 117.03 372.31C112.96 380.66 106.03 380.77 106.03 380.77" stroke="#39146E" stroke-linecap="round" stroke-linejoin="round"/>
<path d="M95.1699 336.21C98.348 335.599 101.628 335.78 104.719 336.735C107.811 337.691 110.621 339.392 112.9 341.69" fill="white"/>
<path d="M95.1699 336.21C98.348 335.599 101.628 335.78 104.719 336.735C107.811 337.691 110.621 339.392 112.9 341.69" stroke="#39146E" stroke-linecap="round" stroke-linejoin="round"/>
<path d="M98.8702 370.16L79.0102 433.47C78.3202 435.69 77.7902 438.58 79.0802 440.47C80.3702 442.36 82.7102 442.47 84.0802 442.47C85.1432 442.414 86.1631 442.032 87.0007 441.375C87.8383 440.718 88.4528 439.819 88.7602 438.8L109.1 375.59C108.132 373.845 106.642 372.447 104.84 371.59C102.975 370.693 100.939 370.205 98.8702 370.16V370.16Z" fill="#44D970" stroke="#39146E" stroke-linecap="round" stroke-linejoin="round"/>
<path d="M199.72 373.18C199.72 373.18 201.72 389.73 190.72 395.46L215.59 392.81C215.59 392.81 207.84 381.13 207.71 380.5C207.58 379.87 203.12 372.42 203.12 372.42L199.72 373.18Z" fill="#39146E"/>
<path d="M378.18 434.55C378.18 434.55 363.29 434.61 354.02 451.97C344.75 469.33 351.64 478.22 359.65 483.58C367.66 488.94 380.13 492.52 389.3 487.34C392.76 485.34 394.2 480.77 394.2 480.77C394.2 480.77 400.96 481.77 401.2 475.15C401.2 475.15 407.96 477.7 407.71 470.04C407.46 462.38 402.77 458.04 397.19 456.51C397.19 456.51 401.54 447.26 400.28 443.69C399.02 440.12 378.18 434.55 378.18 434.55Z" fill="white" stroke="#39146E" stroke-linecap="round" stroke-linejoin="round"/>
<path d="M394.2 480.77C394.2 480 388.94 466.47 381.68 468.26Z" fill="white"/>
<path d="M394.2 480.77C394.2 480 388.94 466.47 381.68 468.26" stroke="#39146E" stroke-linecap="round" stroke-linejoin="round"/>
<path d="M401.21 475.15C401.21 475.15 400.85 464.96 392.42 462.15Z" fill="white"/>
<path d="M401.21 475.15C401.21 475.15 400.85 464.96 392.42 462.15" stroke="#39146E" stroke-linecap="round" stroke-linejoin="round"/>
<path d="M397.2 456.51C397.2 456.51 392.83 464.68 385.2 464.17Z" fill="white"/>
<path d="M397.2 456.51C397.2 456.51 392.83 464.68 385.2 464.17" stroke="#39146E" stroke-linecap="round" stroke-linejoin="round"/>
<path d="M391.56 430.14C390.56 429.88 386.36 423.95 379.85 427.53C377.41 428.87 376.21 431.68 375.85 433.88C375.18 437.88 376.19 441.26 379.16 444.88C383.92 450.75 394.76 452.05 399.33 449.99C405.26 447.32 404.02 440.18 404.02 440.18L391.56 430.14Z" fill="white" stroke="#39146E" stroke-linecap="round" stroke-linejoin="round"/>
<path d="M374.74 471.17C374.74 471.17 389.66 471.31 390.69 450.89Z" fill="white"/>
<path d="M374.74 471.17C374.74 471.17 389.66 471.31 390.69 450.89" stroke="#39146E" stroke-linecap="round" stroke-linejoin="round"/>
<path d="M376.8 393.45C376.8 393.45 385.86 412.56 388.41 428.13L393.95 430.19L408.21 424.53L403.69 414.26L376.8 393.45Z" fill="#39146E"/>
<path d="M403.01 425.35L376.56 394.11C376.56 394.11 371.72 385.65 383.21 383.63C383.21 383.63 388.45 381.42 393.89 386.05C397.73 389.32 436.65 420.58 435.2 425.75C432.79 434.42 394.4 444.75 394.4 444.75C394.4 444.75 384.51 442.55 386.93 432.86L403.01 425.35Z" fill="#FFFF51" stroke="#39146E" stroke-linecap="round" stroke-linejoin="round"/>
<path d="M375.01 396.74C375.32 395.97 400.69 383.82 399.77 383.51C398.85 383.2 389.01 378.13 389.01 378.13L371.82 383.84L368.44 389.84L375.01 396.74Z" fill="#FFFF51"/>
<path d="M377.34 394.91L383.51 402.28" stroke="#39146E" stroke-linecap="round" stroke-linejoin="round"/>
<path d="M393.77 385.94L405.2 395.51" stroke="#39146E" stroke-linecap="round" stroke-linejoin="round"/>
<path d="M281.16 450.11L287.77 473.52L303.08 448.32L287.62 445.53L281.16 450.11Z" fill="#39146E"/>
<path d="M269.7 435.16C269.7 435.16 284.17 432.49 291.83 436.4C299.49 440.31 290.95 459.9 282.83 457.9C275.09 456 266.91 444.1 266.91 444.1L269.7 435.16Z" fill="#44D970" stroke="#39146E" stroke-linecap="round" stroke-linejoin="round"/>
<path d="M255.91 439.84C255.91 439.84 241.97 440.62 234.62 436.14C227.27 431.66 237.3 413.78 245.02 417.06C253.89 420.83 259.31 431.06 259.31 431.06L255.91 439.84Z" fill="#44D970" stroke="#39146E" stroke-linecap="round" stroke-linejoin="round"/>
<path d="M270.856 440.857C272.1 436.543 269.374 431.969 264.768 430.641C260.162 429.313 255.419 431.735 254.176 436.049C252.932 440.363 255.658 444.937 260.264 446.265C264.87 447.593 269.613 445.172 270.856 440.857Z" fill="#44D970" stroke="#39146E" stroke-linecap="round" stroke-linejoin="round"/>
<path d="M254.31 300.61L273 311.93L252.04 311.14L254.31 300.61Z" fill="white"/>
<path d="M312.07 321.96L330.77 333.28L309.81 332.49L312.07 321.96Z" fill="white"/>
<path d="M167.01 208.21C172.55 185.73 179.17 163.54 184.71 141.06C188.71 140.41 190.71 140.14 194.63 139.7C191 157.55 186.11 175.18 181.8 192.87C186.91 191.62 189.43 191.08 194.38 190.15C193.473 193.922 192.775 197.741 192.29 201.59C183.734 203.269 175.291 205.48 167.01 208.21V208.21Z" fill="white"/>
<path d="M198.01 200.49C200.69 179.62 207.17 159.39 210.45 138.61C217.659 138.338 224.877 138.478 232.07 139.03C232.07 141.03 231.67 143.4 230.66 149.18C225.82 149.03 223.37 149.01 218.44 149.12C217.65 153.22 217.15 155.66 216.14 160.65C218.89 160.51 220.25 160.46 222.97 160.4C221.92 165.81 221.33 168.75 220.27 174.24C217.49 174.39 216.09 174.49 213.27 174.73C212.14 180.31 211.59 183.08 210.75 187.73C216.06 187.13 218.67 186.93 223.82 186.65C222.82 192.65 222.5 195.18 222.59 197.47C214.339 197.932 206.127 198.941 198.01 200.49V200.49Z" fill="white"/>
<path d="M228.42 197.13C229.25 177.68 235.51 158.79 237.35 139.44C245.87 140.18 250.08 140.73 258.42 142.04C258.49 143.8 258.18 146.04 257.36 151.47C252.71 150.85 250.36 150.57 245.63 150.13C245.02 153.95 244.63 156.22 243.82 160.89C246.43 161.06 247.73 161.17 250.31 161.4C249.45 166.48 248.98 169.24 248.13 174.4C245.51 174.23 244.19 174.16 241.53 174.06C240.65 179.32 240.21 181.93 239.59 186.32C244.54 186.39 246.98 186.5 251.78 186.81C251.04 192.51 250.78 194.97 251.01 197.29C243.49 196.789 235.946 196.736 228.42 197.13V197.13Z" fill="white"/>
<path d="M294.3 149.18C292.62 166.82 288.2 184.18 287.71 201.88C284.71 201.33 283.15 201.07 280.07 200.57C280.07 188.35 282.64 176.08 284.5 164.05C281.5 175.96 278.37 187.88 276.12 199.96C273.2 199.52 271.73 199.32 268.76 198.96C266.47 186.09 268.65 172.3 269.49 159.39C267.49 172.25 264.58 185.39 264.49 198.46C261.29 198.11 259.68 197.95 256.41 197.7C257.07 179.22 262.18 161.3 263.58 142.91C268.32 143.72 270.67 144.17 275.35 145.1C276.95 149 276.09 157.74 275.35 172.04C278.8 158.19 280.98 149.83 282.17 146.52C287.1 147.54 289.51 148.09 294.3 149.18Z" fill="white"/>
<path d="M318.01 180.17C317.01 186.94 316.18 208.01 304.01 205.35C290.84 202.45 294.44 184.8 295.85 175.45C296.99 167.84 298.92 149.95 310.71 152.9C322.21 155.84 319.23 171.84 318.01 180.17ZM310.81 168.31C311.63 163.15 311.41 161.14 309.7 160.73C307.99 160.32 307.18 162.11 306.36 167.3C305.17 174.86 304.36 179.61 303.3 187.57C302.55 193.02 302.86 195.32 304.57 195.66C306.28 196 307.01 193.91 307.75 188.48C308.81 180.55 309.59 175.84 310.78 168.31H310.81Z" fill="white"/>
<path d="M345.64 160.91C342.64 177.91 339.37 195.19 338.49 212.51C335.93 212.01 334.65 211.74 332.08 211.21C329.95 205.05 329.87 198.11 329.59 185.89C327.81 197.69 326.84 204.52 326.96 210.12L319.82 208.57C320.57 191.17 324.23 174.03 326.76 156.84C329.54 157.48 330.92 157.84 333.67 158.4C335.18 161.96 335.12 167.65 335.33 178.64C337.04 168.04 338.03 162.64 338.52 159.45C341.38 160.06 342.81 160.35 345.64 160.91Z" fill="white"/>
<path d="M342.75 213.33C345.83 196.49 349.07 178.7 355.25 162.66C358.96 163.28 360.81 163.56 364.47 164.04C364.86 181.5 362.03 199.15 364.29 216.56C361.05 216.22 359.44 216.01 356.21 215.56C355.897 213.598 355.724 211.617 355.69 209.63C353.6 209.36 352.56 209.21 350.46 208.9C350.02 211.55 349.84 212.72 349.62 214.54C346.87 214.08 345.5 213.84 342.75 213.33ZM352.29 198.85C353.66 199.04 354.35 199.14 355.72 199.31C355.99 190.76 356.39 185.63 356.9 177.57C355.01 185.42 353.95 190.47 352.29 198.84V198.85Z" fill="white"/>
<path d="M368.55 216.97C369.518 199.564 371.774 182.253 375.3 165.18C378.5 165.43 380.09 165.52 383.3 165.61C379.881 182.715 377.762 200.055 376.96 217.48C373.56 217.36 371.89 217.25 368.55 216.97Z" fill="white"/>
<path d="M404.22 203.2C403.93 207.527 403.867 211.866 404.03 216.2C400.54 216.7 398.81 216.89 395.38 217.2C395.299 211.758 395.526 206.316 396.06 200.9C396.33 197.43 395.52 195.9 393.68 196.09L392.33 196.2C391.33 205.95 390.94 211.2 391.04 217.49C387.63 217.66 385.93 217.7 382.55 217.68C383.229 200.246 385.235 182.889 388.55 165.76C392.417 165.782 396.283 165.592 400.13 165.19C405.8 164.65 407.88 167.02 407.13 173.56C406.36 180.56 403.2 186.56 399.13 188.32C399.13 188.6 399.13 188.75 399.05 189.04C402.63 189.67 404.72 192.84 404.22 203.2ZM398.76 178.09C399.14 174.99 398.37 173.95 396.61 174.09L394.95 174.2C394.49 177.5 394.23 179.42 393.74 183.42L395.74 183.28C397.54 183.12 398.4 181.01 398.76 178.09Z" fill="white"/>
<path d="M409.51 215.25C409.459 197.854 410.481 180.471 412.57 163.2C418.272 162.09 423.838 160.367 429.17 158.06C429.17 160.35 429.09 162.29 428.98 166.84C425.846 168.109 422.64 169.195 419.38 170.09C419.17 173.24 419.05 175.09 418.84 178.83C421.01 178.21 422.09 177.83 424.26 177.13C424.12 181.27 424.05 183.52 423.97 187.96C421.7 188.73 420.57 189.08 418.32 189.72C418.15 194.18 418.09 196.46 418.06 200.72C421.72 199.735 425.328 198.564 428.87 197.21C429.05 202.84 429.19 205.57 429.71 209.95C423.143 212.301 416.384 214.074 409.51 215.25V215.25Z" fill="white"/>
<path d="M444.8 204.32C439.8 206.63 435.69 205.09 432.6 200.47C434.41 196.37 435.33 194.18 437.12 189.73C437.72 190.41 438.03 190.73 438.65 191.4C440.14 193.07 441.29 193.23 442.89 192.4C443.685 191.902 444.314 191.179 444.697 190.322C445.08 189.466 445.199 188.515 445.04 187.59C444.83 185.4 444.2 184.59 442.45 183.26C440.45 181.88 439.54 181.15 437.72 179.69C434.59 177.18 432.27 172.94 432.31 167.04C432.31 158.81 436.09 154.78 440.53 152.2C444.22 150.06 446.61 150.09 448.94 151.85C449.29 152.11 449.47 152.25 449.82 152.54C448.44 155.86 447.71 157.66 446.18 161.41C445.25 160.63 444.8 160.24 443.91 159.53C443.615 159.214 443.214 159.016 442.783 158.974C442.353 158.931 441.921 159.047 441.57 159.3C441.012 159.689 440.566 160.218 440.278 160.834C439.99 161.451 439.87 162.132 439.93 162.81C440 164.67 440.59 165.35 442.09 166.28C443.59 167.21 444.57 167.89 446.33 168.98C449.93 171.16 453.04 174.49 454.15 182.23C455.78 193.57 451.61 201.2 444.8 204.32Z" fill="white"/>
<path d="M412.76 316.72C415.45 322.11 419.82 331.64 419.62 340.97C419.37 351.89 408.95 348.88 408.83 340.9C408.656 333.356 407.129 325.904 404.32 318.9C402.01 313.71 409.26 309.69 412.76 316.72Z" fill="white" stroke="#39146E" stroke-linecap="round" stroke-linejoin="round"/>
<path d="M403.613 311.11C406.135 310.145 407.178 306.741 405.941 303.507C404.705 300.272 401.658 298.432 399.135 299.396C396.612 300.36 395.57 303.764 396.806 306.999C398.043 310.233 401.09 312.074 403.613 311.11Z" fill="white" stroke="#39146E" stroke-linecap="round" stroke-linejoin="round"/>
<path d="M180.856 115.134C182.78 113.649 183.513 111.373 182.492 110.051C181.471 108.729 179.084 108.861 177.16 110.347C175.236 111.833 174.503 114.109 175.524 115.431C176.545 116.753 178.932 116.62 180.856 115.134Z" fill="white" stroke="#39146E" stroke-width="0.998098" stroke-linecap="round" stroke-linejoin="round"/>
<path d="M309.1 522.74C309.99 519.74 319.75 520.46 325.53 521.45C331.31 522.44 333 525.63 331.47 526.58C328.67 528.33 327.55 525.65 321.77 524.66C315.99 523.67 308.58 524.48 309.1 522.74Z" fill="white" stroke="#39146E" stroke-linecap="round" stroke-linejoin="round"/>
<path d="M266.33 279.35C266.73 280.86 261.89 281.53 255.64 283.17C249.39 284.81 244.12 286.8 243.72 285.29C243.32 283.78 248.07 280.07 254.31 278.43C260.55 276.79 265.93 277.84 266.33 279.35Z" fill="#39146E"/>
<path d="M350.14 314.84C349.24 316.11 345.62 312.84 340.36 309.08C335.1 305.32 330.18 302.57 331.09 301.29C332 300.01 337.88 301.29 343.09 305.02C348.3 308.75 351.01 313.53 350.14 314.84Z" fill="#39146E"/>
<path d="M201.72 491.97C199.95 491.42 196.21 488.74 194.19 485.65C190.5 480.03 206.65 486.8 206.09 491.34C206.01 492.36 204.33 492.78 201.72 491.97Z" fill="white" stroke="#39146E" stroke-linecap="round" stroke-linejoin="round"/>
</g>
</g>
<path d="M32.6003 192.2C25.1003 197.3 16.7004 196.4 5.70038 189.1L2.90039 187.2L15.9004 167.7L18.6003 169.5C22.9003 172.4 24.9004 172 26.7004 169.4C28.4004 166.8 28.0004 164.7 23.3004 161.6L0.400391 146.3L13.6003 126.6L36.3004 141.7C52.3004 152.4 53.7004 165.2 43.4004 180.5C39.9004 185.8 36.3003 189.7 32.6003 192.2Z" fill="#633BB3"/>
<path d="M40.2007 135.5C36.1007 131.2 33.6007 126.6 32.7007 121.8C30.8007 111.9 34.9007 101.6 44.4007 92.4001C49.1007 87.9001 53.8007 84.9 58.9007 83.3C68.9007 79.8 78.9007 82.2004 87.0007 90.7004C91.4007 95.3004 94.1007 99.9 95.0007 104.8C96.9007 114.4 92.6007 124 82.9007 133.3C68.1007 147.5 53.4007 149.3 40.2007 135.5ZM69.6007 107.4C66.2007 103.9 61.7007 103.9 58.1007 107.4C54.5007 110.9 54.3007 115.4 57.6007 118.9C61.1007 122.5 65.4007 122.3 69.0007 118.8C72.6007 115.3 73.1007 111 69.6007 107.4Z" fill="#633BB3"/>
<path d="M95.7008 92.6001L105.901 86.2002L99.5008 76L89.3008 82.3999L78.3008 64.8999L117.901 40L128.901 57.5L118.601 64L125.001 74.2002L135.301 67.7002L146.301 85.1001L106.701 110L95.7008 92.6001Z" fill="#633BB3"/>
<path d="M169.4 75.2998L148.4 83.1001L129.9 33.1001L150.7 25.3999L176.3 41.2002L168.1 19L189 11.2998L207.5 61.2998L187.3 68.7998L160.8 52.2002L169.4 75.2998Z" fill="#633BB3"/>
<path d="M265.5 54.7998L241.8 56.6001L239.4 23.8999L224 25L222.5 4.5L277.2 0.399902L278.7 20.8999L263 22L265.5 54.7998Z" fill="#633BB3"/>
<path d="M308.6 38.3999V54.8999H285V1.5H308.6V18.3999H321.6V1.5H345V54.8999H321.6V38.3999H308.6Z" fill="#633BB3"/>
<path d="M349.7 54L356.9 1.1001L408.5 8.1001L406.2 25.1001L376.5 21.1001L376 24.7002L404.4 28.6001L403 39.2002L374.6 35.2998L374.1 39.2002L404.5 43.2998L402.1 61.1001L349.7 54Z" fill="#633BB3"/>
<path d="M479.3 80.8998C470.9 85.4998 460.3 84.5998 448.3 79.3998C429.3 71.0998 422.1 58.5998 429.8 40.8998C432.2 35.4998 435.5 31.5 439.6 28.6C448 23 459.2 22.8 471.2 28.1C477.1 30.7 481.8 33.7999 485.5 37.4999C493 44.9999 495.5 54.3998 491.1 65.3998L467.9 55.2001C468.9 52.2001 467.6 48.7001 463.1 46.7001C458.1 44.5001 453.8 45.9999 451.9 50.4999C449.9 55.0999 451.6 58.9 456.6 61.1C461.1 63.1 464.7 61.9 466.2 59.1L489.4 69.2997C486.8 74.7997 483.5 78.5998 479.3 80.8998Z" fill="#633BB3"/>
<path d="M511.7 50L531.5 64.2002L512.9 90L533 104.5L520.4 122L480.5 93.2998L511.7 50Z" fill="#633BB3"/>
<path d="M531.1 130.2C528.2 121 532 112.7 541.7 103.8L560.8 86.1001L577.2 103.8L558.1 121.5C553.9 125.4 553.7 128.2 556.4 131.1C559 133.9 561.8 134 566 130.1L585.1 112.4L601.5 130.1L582.4 147.8C567.4 161.6 554.2 159.7 540.9 145.3C535.8 139.8 532.6 134.8 531.1 130.2Z" fill="#633BB3"/>
<path d="M610.2 142.2L626.5 170.4C629.8 176 631.8 180.8 632.9 184.7C635 192.6 633 197.4 627.2 200.7C621.7 203.9 616.8 201.9 611.9 196.5C615 205 614.1 210.1 607.8 213.8C598.2 219.3 589.5 213.1 580.8 198L564 168.9L610.2 142.2ZM590 180.7L593.3 186.3C595.6 190.3 597.1 190.6 598.5 189.8C599.8 189 600.1 187.5 597.9 183.7L594.6 178.1L590 180.7ZM603.7 172.8L607.2 178.8C609 181.9 610.6 182 611.7 181.4C612.8 180.8 613.3 179.3 611.6 176.3L608.2 170.3L603.7 172.8Z" fill="#633BB3"/>
<defs>
<linearGradient id="paint0_linear_72_83" x1="18" y1="370.48" x2="548.8" y2="370.48" gradientUnits="userSpaceOnUse">
<stop stop-color="#FDFB01"/>
<stop offset="1" stop-color="#B1FB23"/>
</linearGradient>
<clipPath id="clip0_72_83">
<rect width="530.81" height="520.97" fill="white" transform="translate(18 110)"/>
</clipPath>
<clipPath id="clip1_72_83">
<rect width="434.81" height="468.86" fill="white" transform="translate(64 110)"/>
</clipPath>
</defs>
</svg>
