<svg width="24" height="24" viewBox="0 0 24 24" fill="none" xmlns="http://www.w3.org/2000/svg">
<path fill-rule="evenodd" clip-rule="evenodd" d="M6.53769 3.03769C7.52226 2.05312 8.85761 1.5 10.25 1.5C11.6424 1.5 12.9777 2.05312 13.9623 3.03769C14.9469 4.02226 15.5 5.35761 15.5 6.75V9.75C16.2956 9.75 17.0587 10.0661 17.6213 10.6287C18.1839 11.1913 18.5 11.9544 18.5 12.75V19.5C18.5 20.2957 18.1839 21.0587 17.6213 21.6213C17.0587 22.1839 16.2956 22.5 15.5 22.5H5C4.20435 22.5 3.44129 22.1839 2.87868 21.6213C2.31607 21.0587 2 20.2957 2 19.5V12.75C2 11.9544 2.31607 11.1913 2.87868 10.6287C3.44129 10.0661 4.20435 9.75 5 9.75V6.75C5 5.35761 5.55312 4.02226 6.53769 3.03769ZM5 11.25C4.60218 11.25 4.22064 11.408 3.93934 11.6893C3.65804 11.9706 3.5 12.3522 3.5 12.75V19.5C3.5 19.8978 3.65804 20.2794 3.93934 20.5607C4.22064 20.842 4.60218 21 5 21H15.5C15.8978 21 16.2794 20.842 16.5607 20.5607C16.842 20.2794 17 19.8978 17 19.5V12.75C17 12.3522 16.842 11.9706 16.5607 11.6893C16.2794 11.408 15.8978 11.25 15.5 11.25H5ZM14 9.75H6.5V6.75C6.5 5.75544 6.89509 4.80161 7.59835 4.09835C8.30161 3.39509 9.25544 3 10.25 3C11.2446 3 12.1984 3.39509 12.9017 4.09835C13.6049 4.80161 14 5.75544 14 6.75V9.75Z" fill="url(#paint0_linear_212_89)"/>
<rect x="9" y="14" width="2" height="5" rx="1" fill="url(#paint1_linear_212_89)"/>
<defs>
<linearGradient id="paint0_linear_212_89" x1="1.99078" y1="12.0558" x2="18.4876" y2="12.0558" gradientUnits="userSpaceOnUse">
<stop stop-color="#FDFB01"/>
<stop offset="1" stop-color="#B1FB23"/>
</linearGradient>
<linearGradient id="paint1_linear_212_89" x1="8.99888" y1="16.5133" x2="10.9985" y2="16.5133" gradientUnits="userSpaceOnUse">
<stop stop-color="#FDFB01"/>
<stop offset="1" stop-color="#B1FB23"/>
</linearGradient>
</defs>
</svg>
