<svg width="18" height="18" viewBox="0 0 18 18" fill="none" xmlns="http://www.w3.org/2000/svg">
<path d="M8.08663 2.04906C8.43899 1.25857 9.56101 1.25857 9.91337 2.04906L11.5278 5.67082C11.6731 5.99685 11.9812 6.22069 12.3362 6.25816L16.2795 6.67436C17.1402 6.7652 17.487 7.8323 16.844 8.41169L13.8984 11.0663C13.6333 11.3052 13.5156 11.6674 13.5896 12.0166L14.4124 15.8956C14.5919 16.7422 13.6842 17.4017 12.9345 16.9693L9.49962 14.9882C9.19041 14.8098 8.80959 14.8098 8.50038 14.9882L5.06548 16.9693C4.31578 17.4017 3.40805 16.7422 3.58762 15.8956L4.41036 12.0166C4.48443 11.6674 4.36674 11.3052 4.10158 11.0663L1.15596 8.41169C0.513045 7.8323 0.859768 6.7652 1.72045 6.67436L5.66383 6.25816C6.01881 6.22069 6.3269 5.99685 6.47223 5.67082L8.08663 2.04906Z" stroke="#6323BB"/>
</svg>
