<svg width="30" height="28" viewBox="0 0 30 28" fill="none" xmlns="http://www.w3.org/2000/svg">
<circle cx="16.5" cy="14.5" r="13.5" fill="#7435D8"/>
<circle cx="13.5" cy="13.5" r="13.5" fill="#FFFF51"/>
<g clip-path="url(#clip0_82_758)">
<path d="M9.27259 7.76151C9.13575 7.6247 8.95017 7.54785 8.75667 7.54785C8.56317 7.54785 8.3776 7.6247 8.24075 7.76151L4.11267 11.8896C4.04297 11.9569 3.98738 12.0374 3.94914 12.1265C3.91089 12.2155 3.89076 12.3112 3.88992 12.4081C3.88908 12.505 3.90754 12.6011 3.94423 12.6908C3.98092 12.7805 4.03511 12.862 4.10363 12.9305C4.17214 12.999 4.25362 13.0532 4.3433 13.0899C4.43298 13.1266 4.52907 13.145 4.62596 13.1442C4.72286 13.1433 4.81861 13.1232 4.90764 13.085C4.99667 13.0467 5.07719 12.9911 5.14451 12.9214L8.02694 10.039V19.7028C8.02694 19.8963 8.10382 20.0819 8.24067 20.2188C8.37752 20.3557 8.56313 20.4325 8.75667 20.4325C8.95021 20.4325 9.13582 20.3557 9.27267 20.2188C9.40952 20.0819 9.4864 19.8963 9.4864 19.7028V10.039L12.3688 12.9214C12.5065 13.0544 12.6908 13.1279 12.8821 13.1262C13.0735 13.1246 13.2565 13.0478 13.3918 12.9125C13.5271 12.7772 13.6038 12.5942 13.6055 12.4029C13.6072 12.2115 13.5336 12.0272 13.4007 11.8896L9.27259 7.76151Z" fill="black"/>
</g>
<g clip-path="url(#clip1_82_758)">
<path d="M17.5135 17.6909L14.6311 14.8085C14.5638 14.7388 14.4832 14.6832 14.3942 14.6449C14.3052 14.6067 14.2094 14.5866 14.1125 14.5857C14.0156 14.5849 13.9196 14.6033 13.8299 14.64C13.7402 14.6767 13.6587 14.7309 13.5902 14.7994C13.5217 14.8679 13.4675 14.9494 13.4308 15.0391C13.3941 15.1288 13.3757 15.2249 13.3765 15.3218C13.3773 15.4187 13.3975 15.5144 13.4357 15.6034C13.474 15.6925 13.5295 15.773 13.5992 15.8403L17.7273 19.9684C17.8642 20.1052 18.0497 20.182 18.2432 20.182C18.4367 20.182 18.6223 20.1052 18.7592 19.9684L22.8872 15.8403C23.0202 15.7027 23.0937 15.5183 23.0921 15.327C23.0904 15.1357 23.0137 14.9527 22.8784 14.8174C22.7431 14.6821 22.56 14.6053 22.3687 14.6037C22.1774 14.602 21.993 14.6755 21.8554 14.8085L18.973 17.6909V8.02709C18.973 7.83356 18.8961 7.64795 18.7592 7.5111C18.6224 7.37425 18.4368 7.29736 18.2432 7.29736C18.0497 7.29736 17.8641 7.37425 17.7272 7.5111C17.5904 7.64795 17.5135 7.83356 17.5135 8.02709V17.6909V17.6909Z" fill="black"/>
</g>
<defs>
<clipPath id="clip0_82_758">
<rect width="17.5135" height="17.5135" fill="white" transform="translate(0 5.10815)"/>
</clipPath>
<clipPath id="clip1_82_758">
<rect width="17.5135" height="17.5135" fill="white" transform="translate(9.48657 5.10815)"/>
</clipPath>
</defs>
</svg>
