<svg width="33" height="29" viewBox="0 0 33 29" fill="none" xmlns="http://www.w3.org/2000/svg">
<path fill-rule="evenodd" clip-rule="evenodd" d="M31.7601 0.0602861L0.570068 12.0603C0.400283 12.1256 0.254291 12.2404 0.151306 12.3904C0.0483212 12.5403 -0.00683594 12.7182 -0.00683594 12.9001C-0.00683594 13.082 0.0483212 13.2599 0.151306 13.4099C0.254291 13.5599 0.400283 13.6747 0.570068 13.74L8.17004 16.5701L11.11 26.03C11.1522 26.1707 11.2287 26.299 11.3324 26.4031C11.4361 26.5071 11.564 26.5841 11.7047 26.6267C11.8453 26.6693 11.9942 26.6762 12.1382 26.6472C12.2823 26.6182 12.4169 26.5544 12.5301 26.4607L16.7701 23.0105C16.9865 22.8361 17.2538 22.7363 17.5317 22.7273C17.8095 22.7183 18.0828 22.8007 18.3101 22.9607L25.9501 28.5105C26.0712 28.5965 26.2118 28.6512 26.3593 28.6697C26.5067 28.6881 26.6564 28.6694 26.795 28.6159C26.9337 28.5625 27.057 28.4757 27.1538 28.363C27.2507 28.2503 27.3181 28.1156 27.3501 27.9704L32.9501 1.05052C32.9747 0.896317 32.9588 0.737724 32.9039 0.591536C32.849 0.445349 32.7569 0.316406 32.6369 0.216536C32.5169 0.116666 32.3729 0.0495875 32.2192 0.0222002C32.0654 -0.00518721 31.9072 0.00801498 31.7601 0.0602861ZM25.7001 6.32005L13.4401 17.7107C13.0089 18.1095 12.7327 18.6474 12.6601 19.2302L12.2401 22.3201C12.2344 22.4114 12.196 22.4979 12.1319 22.5632C12.0678 22.6285 11.9823 22.6682 11.8911 22.6755C11.7999 22.6828 11.7091 22.6575 11.6354 22.6033C11.5618 22.549 11.5101 22.4699 11.4901 22.3806L9.88007 16.74C9.79378 16.4248 9.81141 16.0903 9.9303 15.7859C10.0492 15.4815 10.263 15.2238 10.5401 15.0505L25.3901 5.9099C25.4447 5.88036 25.5082 5.87131 25.5689 5.8845C25.6296 5.8977 25.6836 5.9326 25.7211 5.98216C25.7585 6.03172 25.777 6.093 25.7732 6.15501C25.7693 6.21703 25.7434 6.27551 25.7001 6.32005Z" fill="#633BB3"/>
</svg>
