<svg width="75" height="65" viewBox="0 0 75 65" fill="none" xmlns="http://www.w3.org/2000/svg">
<path fill-rule="evenodd" clip-rule="evenodd" d="M71.6903 0.139739L1.79028 27.1397C1.40418 27.2799 1.07058 27.5358 0.834839 27.8722C0.599093 28.2085 0.472656 28.6089 0.472656 29.0196C0.472656 29.4304 0.599093 29.8312 0.834839 30.1676C1.07058 30.5039 1.40418 30.7599 1.79028 30.9L18.7903 37.2501L25.3903 58.4601C25.4877 58.7731 25.6607 59.0572 25.8939 59.2877C26.127 59.5182 26.4132 59.6875 26.7274 59.7813C27.0415 59.8752 27.3738 59.8906 27.6952 59.8258C28.0166 59.761 28.3171 59.618 28.5703 59.4098L38.0603 51.67C38.5465 51.2758 39.1493 51.053 39.775 51.0367C40.4007 51.0204 41.0142 51.2113 41.5203 51.5797L58.6403 64.0099C58.9106 64.2077 59.2262 64.3344 59.5582 64.3785C59.8903 64.4226 60.2281 64.3827 60.5406 64.2623C60.8532 64.1419 61.1305 63.9446 61.347 63.6891C61.5636 63.4336 61.7126 63.1279 61.7803 62.7999L74.3303 2.46005C74.41 2.10915 74.3934 1.74328 74.2825 1.40097C74.1716 1.05866 73.9704 0.752265 73.7001 0.514739C73.4298 0.277212 73.1004 0.117362 72.7467 0.0513598C72.393 -0.0146425 72.0281 0.0156709 71.6903 0.139739ZM58.3602 14.2501L30.8903 39.7799C29.9247 40.6785 29.2995 41.8833 29.1203 43.19L28.1903 50.13C28.1641 50.326 28.0711 50.5072 27.927 50.6427C27.7829 50.7782 27.5964 50.8595 27.3991 50.8736C27.2018 50.8877 27.0057 50.8335 26.8438 50.7198C26.6818 50.6062 26.5641 50.4404 26.5103 50.2501L22.9103 37.5997C22.7115 36.898 22.7464 36.1509 23.0098 35.4708C23.2732 34.7907 23.7508 34.2145 24.3703 33.8297L57.6603 13.3297C57.783 13.2514 57.9306 13.2221 58.0739 13.2476C58.2171 13.2732 58.3456 13.3521 58.4337 13.4679C58.5218 13.5837 58.5632 13.7283 58.5496 13.8731C58.536 14.018 58.4684 14.1527 58.3602 14.2501Z" fill="#633BB3"/>
</svg>
