<svg width="24" height="24" viewBox="0 0 24 24" fill="none" xmlns="http://www.w3.org/2000/svg">
<path fill-rule="evenodd" clip-rule="evenodd" d="M4.25 3C4.66421 3 5 3.33579 5 3.75V12.8787C5.31343 12.9895 5.60144 13.1695 5.84099 13.409C6.26295 13.831 6.5 14.4033 6.5 15C6.5 15.5967 6.26295 16.169 5.84099 16.591C5.60144 16.8305 5.31343 17.0105 5 17.1213V20.25C5 20.6642 4.66421 21 4.25 21C3.83579 21 3.5 20.6642 3.5 20.25V17.1213C3.18657 17.0105 2.89856 16.8305 2.65901 16.591C2.23705 16.169 2 15.5967 2 15C2 14.4033 2.23705 13.831 2.65901 13.409C2.89856 13.1695 3.18657 12.9895 3.5 12.8787V3.75C3.5 3.33579 3.83579 3 4.25 3ZM4.25 14.25C4.44891 14.25 4.63968 14.329 4.78033 14.4697C4.92098 14.6103 5 14.8011 5 15C5 15.1989 4.92098 15.3897 4.78033 15.5303C4.63968 15.671 4.44891 15.75 4.25 15.75C4.05109 15.75 3.86032 15.671 3.71967 15.5303C3.57902 15.3897 3.5 15.1989 3.5 15C3.5 14.8011 3.57902 14.6103 3.71967 14.4697C3.86032 14.329 4.05109 14.25 4.25 14.25ZM10.25 3C10.6642 3 11 3.33579 11 3.75V6.87868C11.3134 6.9895 11.6014 7.16946 11.841 7.40901C12.2629 7.83097 12.5 8.40326 12.5 9C12.5 9.59674 12.2629 10.169 11.841 10.591C11.6014 10.8305 11.3134 11.0105 11 11.1213V20.25C11 20.6642 10.6642 21 10.25 21C9.83579 21 9.5 20.6642 9.5 20.25V11.1213C9.18657 11.0105 8.89856 10.8305 8.65901 10.591C8.23705 10.169 8 9.59674 8 9C8 8.40326 8.23705 7.83097 8.65901 7.40901C8.89856 7.16946 9.18657 6.9895 9.5 6.87868V3.75C9.5 3.33579 9.83579 3 10.25 3ZM10.25 9.75C10.4489 9.75 10.6397 9.67098 10.7803 9.53033C10.921 9.38968 11 9.19891 11 9C11 8.80109 10.921 8.61032 10.7803 8.46967C10.6397 8.32902 10.4489 8.25 10.25 8.25C10.0511 8.25 9.86032 8.32902 9.71967 8.46967C9.57902 8.61032 9.5 8.80109 9.5 9C9.5 9.19891 9.57902 9.38968 9.71967 9.53033C9.86032 9.67098 10.0511 9.75 10.25 9.75ZM16.25 3C16.6642 3 17 3.33579 17 3.75V12.8787C17.3134 12.9895 17.6014 13.1695 17.841 13.409C18.2629 13.831 18.5 14.4033 18.5 15C18.5 15.5967 18.2629 16.169 17.841 16.591C17.6014 16.8305 17.3134 17.0105 17 17.1213V20.25C17 20.6642 16.6642 21 16.25 21C15.8358 21 15.5 20.6642 15.5 20.25V17.1213C15.1866 17.0105 14.8986 16.8305 14.659 16.591C14.2371 16.169 14 15.5967 14 15C14 14.4033 14.2371 13.831 14.659 13.409C14.8986 13.1695 15.1866 12.9895 15.5 12.8787V3.75C15.5 3.33579 15.8358 3 16.25 3ZM16.25 15.75C16.4489 15.75 16.6397 15.671 16.7803 15.5303C16.921 15.3897 17 15.1989 17 15C17 14.8011 16.921 14.6103 16.7803 14.4697C16.6397 14.329 16.4489 14.25 16.25 14.25C16.0511 14.25 15.8603 14.329 15.7197 14.4697C15.579 14.6103 15.5 14.8011 15.5 15C15.5 15.1989 15.579 15.3897 15.7197 15.5303C15.8603 15.671 16.0511 15.75 16.25 15.75Z" fill="url(#paint0_linear_212_92)"/>
<defs>
<linearGradient id="paint0_linear_212_92" x1="1.99078" y1="12.0479" x2="18.4876" y2="12.0479" gradientUnits="userSpaceOnUse">
<stop stop-color="#FDFB01"/>
<stop offset="1" stop-color="#B1FB23"/>
</linearGradient>
</defs>
</svg>
