<svg width="11" height="11" viewBox="0 0 11 11" fill="none" xmlns="http://www.w3.org/2000/svg">
<path d="M5.59 6.754L5.597 6.39C5.604 6.11 5.751 5.949 5.968 5.83C6.08 5.767 6.199 5.704 6.318 5.648C6.612 5.508 6.906 5.347 7.081 5.018C7.172 4.857 7.221 4.647 7.221 4.374C7.221 3.856 6.983 3.415 6.437 3.142C6.171 3.009 5.828 2.946 5.408 2.946C4.12 2.946 3.518 3.541 3.518 4.598V4.738H4.211V4.633C4.211 3.926 4.561 3.541 5.394 3.541C6.199 3.541 6.514 3.926 6.514 4.416C6.514 4.752 6.353 4.941 6.115 5.074C6.003 5.137 5.884 5.207 5.751 5.263C5.478 5.382 5.198 5.529 5.037 5.781C4.953 5.9 4.911 6.075 4.911 6.278V6.446C4.911 6.537 4.918 6.705 4.925 6.754C4.974 6.705 5.114 6.691 5.261 6.691C5.408 6.691 5.541 6.705 5.59 6.754ZM5.275 8.077C5.604 8.077 5.772 7.93 5.772 7.573C5.772 7.209 5.604 7.069 5.275 7.069C4.939 7.069 4.771 7.209 4.771 7.573C4.771 7.951 4.918 8.077 5.275 8.077Z" fill="#401484"/>
<circle cx="5.5" cy="5.5" r="5" stroke="#44D970"/>
</svg>
