<svg width="73" height="60" viewBox="0 0 73 60" fill="none" xmlns="http://www.w3.org/2000/svg">
<path d="M72.1296 7.80998C69.4264 9.00088 66.5622 9.7861 63.6296 10.1401C66.7175 8.28834 69.0274 5.37785 70.1296 1.95012C67.2295 3.67827 64.0528 4.89262 60.7396 5.53996C58.7074 3.37847 56.0728 1.87749 53.1774 1.23088C50.2819 0.584275 47.259 0.821888 44.5003 1.9135C41.7416 3.00511 39.3744 4.90016 37.7054 7.35295C36.0364 9.80575 35.1424 12.7035 35.1395 15.6703C35.1384 16.8044 35.2659 17.9346 35.5195 19.04C29.6357 18.7462 23.8796 17.2181 18.625 14.5546C13.3704 11.8911 8.73482 8.15185 5.01953 3.58C3.70058 5.83697 3.01 8.40586 3.01953 11.0199C3.01932 13.4558 3.62074 15.8544 4.77039 18.0019C5.92003 20.1494 7.58234 21.9795 9.60956 23.33C7.2598 23.2621 4.96123 22.6278 2.90955 21.4804C2.90457 21.5436 2.90457 21.6071 2.90955 21.6703C2.91076 25.0869 4.09321 28.3979 6.25653 31.0424C8.41985 33.6869 11.4309 35.5019 14.7795 36.1801C13.5087 36.5275 12.197 36.7025 10.8796 36.7001C9.94653 36.6968 9.0158 36.6064 8.09955 36.4301C9.04365 39.3707 10.8834 41.9428 13.3615 43.7861C15.8395 45.6293 18.8317 46.6518 21.9196 46.7104C16.6819 50.8267 10.2111 53.0598 3.54956 53.0502C2.36973 53.0515 1.19088 52.9814 0.0195312 52.8403C6.78381 57.1895 14.6577 59.4981 22.6995 59.4902C49.9195 59.4902 64.8096 36.9403 64.8096 17.3803C64.8096 16.7403 64.8096 16.1001 64.8096 15.4701C67.7042 13.3713 70.2058 10.778 72.1995 7.80998" fill="#633BB3"/>
</svg>
