<svg width="36" height="29" viewBox="0 0 36 29" fill="none" xmlns="http://www.w3.org/2000/svg">
<path d="M35.1996 4C33.8996 4.6 32.5996 4.89961 31.0996 5.09961C32.5996 4.19961 33.6996 2.8002 34.1996 1.2002C32.7996 2.0002 31.2996 2.60039 29.6996 2.90039C28.3996 1.50039 26.5996 0.700195 24.4996 0.700195C20.5996 0.700195 17.3996 3.8998 17.3996 7.7998C17.3996 8.3998 17.4996 8.90039 17.5996 9.40039C11.6996 9.10039 6.4996 6.3 2.9996 2C2.3996 3 1.9996 4.29961 1.9996 5.59961C1.9996 8.09961 3.29962 10.2 5.19962 11.5C3.99962 11.5 2.8996 11.0996 1.9996 10.5996V10.7002C1.9996 14.1002 4.39962 16.9996 7.69962 17.5996C7.09962 17.7996 6.49959 17.7998 5.79959 17.7998C5.29959 17.7998 4.8996 17.8002 4.4996 17.7002C5.3996 20.5002 7.99961 22.5996 11.0996 22.5996C8.69961 24.4996 5.59959 25.5996 2.29959 25.5996C1.69959 25.5996 1.19961 25.6 0.599609 25.5C3.69961 27.5 7.4996 28.7002 11.4996 28.7002C24.4996 28.7002 31.6996 17.9 31.6996 8.5C31.6996 8.2 31.6996 7.89961 31.6996 7.59961C33.0996 6.69961 34.2996 5.4 35.1996 4Z" fill="#633BB3" className="hover:fill-leemon-yellow" />
</svg>
