<svg width="23" height="22" viewBox="0 0 23 22" fill="none" xmlns="http://www.w3.org/2000/svg">
<path d="M22 11C22 16.799 17.299 21.5 11.5 21.5C5.70101 21.5 1 16.799 1 11C1 5.20101 5.70101 0.5 11.5 0.5C17.299 0.5 22 5.20101 22 11Z" stroke="#39146E"/>
<g clip-path="url(#clip0_148_493)">
<path d="M16.75 5C17.1478 5 17.5294 5.15804 17.8107 5.43934C18.092 5.72064 18.25 6.10218 18.25 6.5V7.25H13.75C12.7554 7.25 11.8016 7.64509 11.0983 8.34835C10.3951 9.05161 10 10.0054 10 11C10 11.9946 10.3951 12.9484 11.0983 13.6517C11.8016 14.3549 12.7554 14.75 13.75 14.75H18.25V15.5C18.25 15.8978 18.092 16.2794 17.8107 16.5607C17.5294 16.842 17.1478 17 16.75 17H6.25C5.85218 17 5.47064 16.842 5.18934 16.5607C4.90804 16.2794 4.75 15.8978 4.75 15.5V6.5C4.75 6.10218 4.90804 5.72064 5.18934 5.43934C5.47064 5.15804 5.85218 5 6.25 5H16.75ZM17.5 8.75C17.8978 8.75 18.2794 8.90804 18.5607 9.18934C18.842 9.47064 19 9.85218 19 10.25V11.75C19 12.1478 18.842 12.5294 18.5607 12.8107C18.2794 13.092 17.8978 13.25 17.5 13.25H13.75C13.1533 13.25 12.581 13.0129 12.159 12.591C11.7371 12.169 11.5 11.5967 11.5 11C11.5 10.4033 11.7371 9.83097 12.159 9.40901C12.581 8.98705 13.1533 8.75 13.75 8.75H17.5ZM13.75 10.25C13.5511 10.25 13.3603 10.329 13.2197 10.4697C13.079 10.6103 13 10.8011 13 11C13 11.1989 13.079 11.3897 13.2197 11.5303C13.3603 11.671 13.5511 11.75 13.75 11.75C13.9489 11.75 14.1397 11.671 14.2803 11.5303C14.421 11.3897 14.5 11.1989 14.5 11C14.5 10.8011 14.421 10.6103 14.2803 10.4697C14.1397 10.329 13.9489 10.25 13.75 10.25Z" fill="#39146E"/>
</g>
<defs>
<clipPath id="clip0_148_493">
<rect width="18" height="18" fill="white" transform="translate(2.5 2)"/>
</clipPath>
</defs>
</svg>
