<svg width="32" height="33" viewBox="0 0 32 33" fill="none" xmlns="http://www.w3.org/2000/svg">
<path d="M28.7 15.5999L21.7 4.59985L16.8 12.3999C16.5 11.8999 16.3 11.4999 15.9 10.8999L9.5 0.899902L3.20001 10.7999C1.10001 14.0999 0.5 15.9999 0.5 17.7999C0.5 22.7999 4.5 26.7999 9.5 26.7999C10.6 26.7999 11.6 26.5999 12.5 26.2999C13.9 30.0999 17.5 32.6998 21.7 32.6998C27.1 32.6998 31.5 28.2999 31.5 22.8999C31.4 21.3999 31 19.3999 28.7 15.5999ZM9.40002 25.1998C7.40002 25.1998 5.60001 24.3999 4.20001 22.9999C2.80001 21.5999 2 19.6999 2 17.7999C2 16.5999 2.30002 14.9999 4.40002 11.5999L9.40002 3.69983L14.4 11.5999C14.9 12.3999 15.3 13.0998 15.6 13.6998L14.5 15.3999C12.5 18.4999 11.7 20.6999 11.7 22.7999C11.7 23.3999 11.8 23.9999 11.9 24.5999C11.2 24.9999 10.3 25.1998 9.40002 25.1998ZM21.6 31.0999C17.1 31.0999 13.4 27.3999 13.4 22.8999C13.4 21.5999 13.7 19.8999 15.9 16.2999L21.6 7.3999L27.3 16.3999C28.8 18.7999 29.8 20.7999 29.8 22.8999C29.8 27.4999 26.1 31.0999 21.6 31.0999Z" fill="#44D970"/>
</svg>
